%TF.GenerationSoftware,KiCad,Pcbnew,6.0.1-79c1e3a40b~116~ubuntu18.04.1*%
%TF.CreationDate,2023-02-22T20:49:33-05:00*%
%TF.ProjectId,a2bikelight,61326269-6b65-46c6-9967-68742e6b6963,rev?*%
%TF.SameCoordinates,Original*%
%TF.FileFunction,Copper,L4,Bot*%
%TF.FilePolarity,Positive*%
%FSLAX46Y46*%
G04 Gerber Fmt 4.6, Leading zero omitted, Abs format (unit mm)*
G04 Created by KiCad (PCBNEW 6.0.1-79c1e3a40b~116~ubuntu18.04.1) date 2023-02-22 20:49:33*
%MOMM*%
%LPD*%
G01*
G04 APERTURE LIST*
G04 Aperture macros list*
%AMRoundRect*
0 Rectangle with rounded corners*
0 $1 Rounding radius*
0 $2 $3 $4 $5 $6 $7 $8 $9 X,Y pos of 4 corners*
0 Add a 4 corners polygon primitive as box body*
4,1,4,$2,$3,$4,$5,$6,$7,$8,$9,$2,$3,0*
0 Add four circle primitives for the rounded corners*
1,1,$1+$1,$2,$3*
1,1,$1+$1,$4,$5*
1,1,$1+$1,$6,$7*
1,1,$1+$1,$8,$9*
0 Add four rect primitives between the rounded corners*
20,1,$1+$1,$2,$3,$4,$5,0*
20,1,$1+$1,$4,$5,$6,$7,0*
20,1,$1+$1,$6,$7,$8,$9,0*
20,1,$1+$1,$8,$9,$2,$3,0*%
G04 Aperture macros list end*
%TA.AperFunction,ComponentPad*%
%ADD10R,2.000000X2.000000*%
%TD*%
%TA.AperFunction,ComponentPad*%
%ADD11C,2.000000*%
%TD*%
%TA.AperFunction,ComponentPad*%
%ADD12R,1.700000X1.700000*%
%TD*%
%TA.AperFunction,ComponentPad*%
%ADD13O,1.700000X1.700000*%
%TD*%
%TA.AperFunction,ComponentPad*%
%ADD14R,3.500000X3.500000*%
%TD*%
%TA.AperFunction,ComponentPad*%
%ADD15RoundRect,0.750000X-0.750000X-1.000000X0.750000X-1.000000X0.750000X1.000000X-0.750000X1.000000X0*%
%TD*%
%TA.AperFunction,ComponentPad*%
%ADD16RoundRect,0.875000X-0.875000X-0.875000X0.875000X-0.875000X0.875000X0.875000X-0.875000X0.875000X0*%
%TD*%
%TA.AperFunction,ViaPad*%
%ADD17C,0.800000*%
%TD*%
G04 APERTURE END LIST*
D10*
%TO.P,TP1,1,1*%
%TO.N,GND*%
X137100000Y-105400000D03*
%TD*%
D11*
%TO.P,SW2,1,1*%
%TO.N,GND*%
X147150000Y-137750000D03*
X147150000Y-131250000D03*
%TO.P,SW2,2,2*%
%TO.N,BUTTON*%
X142650000Y-131250000D03*
X142650000Y-137750000D03*
%TD*%
D12*
%TO.P,J5,1,Pin_1*%
%TO.N,Net-(J5-Pad1)*%
X127325000Y-145400000D03*
D13*
%TO.P,J5,2,Pin_2*%
%TO.N,Net-(J5-Pad2)*%
X129865000Y-145400000D03*
%TO.P,J5,3,Pin_3*%
%TO.N,Net-(J5-Pad3)*%
X132405000Y-145400000D03*
%TO.P,J5,4,Pin_4*%
%TO.N,Net-(C6-Pad1)*%
X134945000Y-145400000D03*
%TO.P,J5,5,Pin_5*%
%TO.N,Net-(C6-Pad2)*%
X137485000Y-145400000D03*
%TD*%
D12*
%TO.P,J2,1,Pin_1*%
%TO.N,Net-(D1-Pad2)*%
X112600000Y-108300000D03*
D13*
%TO.P,J2,2,Pin_2*%
%TO.N,GND*%
X110060000Y-108300000D03*
%TD*%
D11*
%TO.P,SW1,1,1*%
%TO.N,GND*%
X112400000Y-145900000D03*
X118900000Y-145900000D03*
%TO.P,SW1,2,2*%
%TO.N,NRESET*%
X112400000Y-141400000D03*
X118900000Y-141400000D03*
%TD*%
D12*
%TO.P,J4,1,Pin_1*%
%TO.N,GND*%
X139650000Y-113500000D03*
D13*
%TO.P,J4,2,Pin_2*%
%TO.N,unconnected-(J4-Pad2)*%
X137110000Y-113500000D03*
%TO.P,J4,3,Pin_3*%
%TO.N,unconnected-(J4-Pad3)*%
X134570000Y-113500000D03*
%TO.P,J4,4,Pin_4*%
%TO.N,SERIAL_INCOMING*%
X132030000Y-113500000D03*
%TO.P,J4,5,Pin_5*%
%TO.N,SERIAL_OUTGOING*%
X129490000Y-113500000D03*
%TO.P,J4,6,Pin_6*%
%TO.N,unconnected-(J4-Pad6)*%
X126950000Y-113500000D03*
%TD*%
D12*
%TO.P,J6,1,Pin_1*%
%TO.N,VIN*%
X146700000Y-110100000D03*
D13*
%TO.P,J6,2,Pin_2*%
%TO.N,+3V3*%
X146700000Y-112640000D03*
%TO.P,J6,3,Pin_3*%
%TO.N,PD6*%
X146700000Y-115180000D03*
%TO.P,J6,4,Pin_4*%
%TO.N,PD5*%
X146700000Y-117720000D03*
%TO.P,J6,5,Pin_5*%
%TO.N,PD4*%
X146700000Y-120260000D03*
%TO.P,J6,6,Pin_6*%
%TO.N,PB7*%
X146700000Y-122800000D03*
%TO.P,J6,7,Pin_7*%
%TO.N,LIGHT*%
X146700000Y-125340000D03*
%TO.P,J6,8,Pin_8*%
%TO.N,GND*%
X146700000Y-127880000D03*
%TD*%
D14*
%TO.P,J1,1*%
%TO.N,Net-(D1-Pad2)*%
X114000000Y-116042500D03*
D15*
%TO.P,J1,2*%
%TO.N,GND*%
X108000000Y-116042500D03*
D16*
%TO.P,J1,3*%
X111000000Y-120742500D03*
%TD*%
D12*
%TO.P,J3,1,Pin_1*%
%TO.N,unconnected-(J3-Pad1)*%
X109000000Y-127700000D03*
D13*
%TO.P,J3,2,Pin_2*%
%TO.N,SWIM*%
X109000000Y-130240000D03*
%TO.P,J3,3,Pin_3*%
%TO.N,GND*%
X109000000Y-132780000D03*
%TO.P,J3,4,Pin_4*%
%TO.N,NRESET*%
X109000000Y-135320000D03*
%TD*%
D17*
%TO.N,GND*%
X122800000Y-115700000D03*
X120700000Y-104500000D03*
X124800000Y-104400000D03*
X122800000Y-102600000D03*
X120900000Y-103300000D03*
X138700000Y-131000000D03*
X131900000Y-102800000D03*
X126000000Y-127400000D03*
X138500000Y-119200000D03*
%TO.N,+3V3*%
X137300000Y-124200000D03*
X126000000Y-131400000D03*
X124900000Y-107500000D03*
X120700000Y-106100000D03*
X139000000Y-123600000D03*
X137400000Y-117400000D03*
X131700000Y-107400000D03*
X125000000Y-106400000D03*
X127000000Y-107500000D03*
X126900000Y-106000000D03*
X120900000Y-107600000D03*
%TD*%
M02*
