%TF.GenerationSoftware,KiCad,Pcbnew,6.0.1-79c1e3a40b~116~ubuntu18.04.1*%
%TF.CreationDate,2023-02-22T20:49:34-05:00*%
%TF.ProjectId,a2bikelight,61326269-6b65-46c6-9967-68742e6b6963,rev?*%
%TF.SameCoordinates,Original*%
%TF.FileFunction,Legend,Top*%
%TF.FilePolarity,Positive*%
%FSLAX46Y46*%
G04 Gerber Fmt 4.6, Leading zero omitted, Abs format (unit mm)*
G04 Created by KiCad (PCBNEW 6.0.1-79c1e3a40b~116~ubuntu18.04.1) date 2023-02-22 20:49:34*
%MOMM*%
%LPD*%
G01*
G04 APERTURE LIST*
%ADD10C,0.150000*%
%ADD11C,0.120000*%
G04 APERTURE END LIST*
D10*
X118000000Y-116000000D02*
X119000000Y-116000000D01*
X119000000Y-116000000D02*
X118500000Y-115500000D01*
X139000000Y-136500000D02*
X140000000Y-136500000D01*
X118000000Y-115500000D02*
X119000000Y-115500000D01*
X139000000Y-136000000D02*
X140000000Y-136000000D01*
X140000000Y-136500000D02*
X139500000Y-136000000D01*
X118500000Y-115500000D02*
X118000000Y-116000000D01*
X139500000Y-136000000D02*
X139000000Y-136500000D01*
X141866666Y-125752380D02*
X141390476Y-125752380D01*
X141390476Y-124752380D01*
X142200000Y-125752380D02*
X142200000Y-124752380D01*
X143200000Y-124800000D02*
X143104761Y-124752380D01*
X142961904Y-124752380D01*
X142819047Y-124800000D01*
X142723809Y-124895238D01*
X142676190Y-124990476D01*
X142628571Y-125180952D01*
X142628571Y-125323809D01*
X142676190Y-125514285D01*
X142723809Y-125609523D01*
X142819047Y-125704761D01*
X142961904Y-125752380D01*
X143057142Y-125752380D01*
X143200000Y-125704761D01*
X143247619Y-125657142D01*
X143247619Y-125323809D01*
X143057142Y-125323809D01*
X143676190Y-125752380D02*
X143676190Y-124752380D01*
X143676190Y-125228571D02*
X144247619Y-125228571D01*
X144247619Y-125752380D02*
X144247619Y-124752380D01*
X144580952Y-124752380D02*
X145152380Y-124752380D01*
X144866666Y-125752380D02*
X144866666Y-124752380D01*
X142704761Y-109652380D02*
X143038095Y-110652380D01*
X143371428Y-109652380D01*
X143704761Y-110652380D02*
X143704761Y-109652380D01*
X144180952Y-110652380D02*
X144180952Y-109652380D01*
X144752380Y-110652380D01*
X144752380Y-109652380D01*
X144400000Y-108252380D02*
X144400000Y-108490476D01*
X144161904Y-108395238D02*
X144400000Y-108490476D01*
X144638095Y-108395238D01*
X144257142Y-108680952D02*
X144400000Y-108490476D01*
X144542857Y-108680952D01*
X131590476Y-111004761D02*
X131733333Y-111052380D01*
X131971428Y-111052380D01*
X132066666Y-111004761D01*
X132114285Y-110957142D01*
X132161904Y-110861904D01*
X132161904Y-110766666D01*
X132114285Y-110671428D01*
X132066666Y-110623809D01*
X131971428Y-110576190D01*
X131780952Y-110528571D01*
X131685714Y-110480952D01*
X131638095Y-110433333D01*
X131590476Y-110338095D01*
X131590476Y-110242857D01*
X131638095Y-110147619D01*
X131685714Y-110100000D01*
X131780952Y-110052380D01*
X132019047Y-110052380D01*
X132161904Y-110100000D01*
X132590476Y-110528571D02*
X132923809Y-110528571D01*
X133066666Y-111052380D02*
X132590476Y-111052380D01*
X132590476Y-110052380D01*
X133066666Y-110052380D01*
X134066666Y-111052380D02*
X133733333Y-110576190D01*
X133495238Y-111052380D02*
X133495238Y-110052380D01*
X133876190Y-110052380D01*
X133971428Y-110100000D01*
X134019047Y-110147619D01*
X134066666Y-110242857D01*
X134066666Y-110385714D01*
X134019047Y-110480952D01*
X133971428Y-110528571D01*
X133876190Y-110576190D01*
X133495238Y-110576190D01*
X134495238Y-111052380D02*
X134495238Y-110052380D01*
X134923809Y-110766666D02*
X135400000Y-110766666D01*
X134828571Y-111052380D02*
X135161904Y-110052380D01*
X135495238Y-111052380D01*
X136304761Y-111052380D02*
X135828571Y-111052380D01*
X135828571Y-110052380D01*
X140600000Y-115352380D02*
X140600000Y-115590476D01*
X140361904Y-115495238D02*
X140600000Y-115590476D01*
X140838095Y-115495238D01*
X140457142Y-115780952D02*
X140600000Y-115590476D01*
X140742857Y-115780952D01*
X142552380Y-112052380D02*
X143171428Y-112052380D01*
X142838095Y-112433333D01*
X142980952Y-112433333D01*
X143076190Y-112480952D01*
X143123809Y-112528571D01*
X143171428Y-112623809D01*
X143171428Y-112861904D01*
X143123809Y-112957142D01*
X143076190Y-113004761D01*
X142980952Y-113052380D01*
X142695238Y-113052380D01*
X142600000Y-113004761D01*
X142552380Y-112957142D01*
X143600000Y-112957142D02*
X143647619Y-113004761D01*
X143600000Y-113052380D01*
X143552380Y-113004761D01*
X143600000Y-112957142D01*
X143600000Y-113052380D01*
X143980952Y-112052380D02*
X144600000Y-112052380D01*
X144266666Y-112433333D01*
X144409523Y-112433333D01*
X144504761Y-112480952D01*
X144552380Y-112528571D01*
X144600000Y-112623809D01*
X144600000Y-112861904D01*
X144552380Y-112957142D01*
X144504761Y-113004761D01*
X144409523Y-113052380D01*
X144123809Y-113052380D01*
X144028571Y-113004761D01*
X143980952Y-112957142D01*
X131933333Y-116752380D02*
X131600000Y-116276190D01*
X131361904Y-116752380D02*
X131361904Y-115752380D01*
X131742857Y-115752380D01*
X131838095Y-115800000D01*
X131885714Y-115847619D01*
X131933333Y-115942857D01*
X131933333Y-116085714D01*
X131885714Y-116180952D01*
X131838095Y-116228571D01*
X131742857Y-116276190D01*
X131361904Y-116276190D01*
X132266666Y-115752380D02*
X132933333Y-116752380D01*
X132933333Y-115752380D02*
X132266666Y-116752380D01*
X112219047Y-105571428D02*
X112980952Y-105571428D01*
X112600000Y-105952380D02*
X112600000Y-105190476D01*
X117166666Y-136752380D02*
X117166666Y-136228571D01*
X117119047Y-136133333D01*
X117023809Y-136085714D01*
X116833333Y-136085714D01*
X116738095Y-136133333D01*
X117166666Y-136704761D02*
X117071428Y-136752380D01*
X116833333Y-136752380D01*
X116738095Y-136704761D01*
X116690476Y-136609523D01*
X116690476Y-136514285D01*
X116738095Y-136419047D01*
X116833333Y-136371428D01*
X117071428Y-136371428D01*
X117166666Y-136323809D01*
X117595238Y-135847619D02*
X117642857Y-135800000D01*
X117738095Y-135752380D01*
X117976190Y-135752380D01*
X118071428Y-135800000D01*
X118119047Y-135847619D01*
X118166666Y-135942857D01*
X118166666Y-136038095D01*
X118119047Y-136180952D01*
X117547619Y-136752380D01*
X118166666Y-136752380D01*
X118595238Y-136752380D02*
X118595238Y-135752380D01*
X118595238Y-136133333D02*
X118690476Y-136085714D01*
X118880952Y-136085714D01*
X118976190Y-136133333D01*
X119023809Y-136180952D01*
X119071428Y-136276190D01*
X119071428Y-136561904D01*
X119023809Y-136657142D01*
X118976190Y-136704761D01*
X118880952Y-136752380D01*
X118690476Y-136752380D01*
X118595238Y-136704761D01*
X119500000Y-136752380D02*
X119500000Y-136085714D01*
X119500000Y-135752380D02*
X119452380Y-135800000D01*
X119500000Y-135847619D01*
X119547619Y-135800000D01*
X119500000Y-135752380D01*
X119500000Y-135847619D01*
X119976190Y-136752380D02*
X119976190Y-135752380D01*
X120071428Y-136371428D02*
X120357142Y-136752380D01*
X120357142Y-136085714D02*
X119976190Y-136466666D01*
X121166666Y-136704761D02*
X121071428Y-136752380D01*
X120880952Y-136752380D01*
X120785714Y-136704761D01*
X120738095Y-136609523D01*
X120738095Y-136228571D01*
X120785714Y-136133333D01*
X120880952Y-136085714D01*
X121071428Y-136085714D01*
X121166666Y-136133333D01*
X121214285Y-136228571D01*
X121214285Y-136323809D01*
X120738095Y-136419047D01*
X121785714Y-136752380D02*
X121690476Y-136704761D01*
X121642857Y-136609523D01*
X121642857Y-135752380D01*
X122166666Y-136752380D02*
X122166666Y-136085714D01*
X122166666Y-135752380D02*
X122119047Y-135800000D01*
X122166666Y-135847619D01*
X122214285Y-135800000D01*
X122166666Y-135752380D01*
X122166666Y-135847619D01*
X123071428Y-136085714D02*
X123071428Y-136895238D01*
X123023809Y-136990476D01*
X122976190Y-137038095D01*
X122880952Y-137085714D01*
X122738095Y-137085714D01*
X122642857Y-137038095D01*
X123071428Y-136704761D02*
X122976190Y-136752380D01*
X122785714Y-136752380D01*
X122690476Y-136704761D01*
X122642857Y-136657142D01*
X122595238Y-136561904D01*
X122595238Y-136276190D01*
X122642857Y-136180952D01*
X122690476Y-136133333D01*
X122785714Y-136085714D01*
X122976190Y-136085714D01*
X123071428Y-136133333D01*
X123547619Y-136752380D02*
X123547619Y-135752380D01*
X123976190Y-136752380D02*
X123976190Y-136228571D01*
X123928571Y-136133333D01*
X123833333Y-136085714D01*
X123690476Y-136085714D01*
X123595238Y-136133333D01*
X123547619Y-136180952D01*
X124309523Y-136085714D02*
X124690476Y-136085714D01*
X124452380Y-135752380D02*
X124452380Y-136609523D01*
X124500000Y-136704761D01*
X124595238Y-136752380D01*
X124690476Y-136752380D01*
X125785714Y-136752380D02*
X125785714Y-136085714D01*
X125785714Y-136276190D02*
X125833333Y-136180952D01*
X125880952Y-136133333D01*
X125976190Y-136085714D01*
X126071428Y-136085714D01*
X126785714Y-136704761D02*
X126690476Y-136752380D01*
X126500000Y-136752380D01*
X126404761Y-136704761D01*
X126357142Y-136609523D01*
X126357142Y-136228571D01*
X126404761Y-136133333D01*
X126500000Y-136085714D01*
X126690476Y-136085714D01*
X126785714Y-136133333D01*
X126833333Y-136228571D01*
X126833333Y-136323809D01*
X126357142Y-136419047D01*
X127166666Y-136085714D02*
X127404761Y-136752380D01*
X127642857Y-136085714D01*
X129309523Y-136752380D02*
X128738095Y-136752380D01*
X129023809Y-136752380D02*
X129023809Y-135752380D01*
X128928571Y-135895238D01*
X128833333Y-135990476D01*
X128738095Y-136038095D01*
X142461904Y-120852380D02*
X142461904Y-119852380D01*
X142842857Y-119852380D01*
X142938095Y-119900000D01*
X142985714Y-119947619D01*
X143033333Y-120042857D01*
X143033333Y-120185714D01*
X142985714Y-120280952D01*
X142938095Y-120328571D01*
X142842857Y-120376190D01*
X142461904Y-120376190D01*
X143461904Y-120852380D02*
X143461904Y-119852380D01*
X143700000Y-119852380D01*
X143842857Y-119900000D01*
X143938095Y-119995238D01*
X143985714Y-120090476D01*
X144033333Y-120280952D01*
X144033333Y-120423809D01*
X143985714Y-120614285D01*
X143938095Y-120709523D01*
X143842857Y-120804761D01*
X143700000Y-120852380D01*
X143461904Y-120852380D01*
X144890476Y-120185714D02*
X144890476Y-120852380D01*
X144652380Y-119804761D02*
X144414285Y-120519047D01*
X145033333Y-120519047D01*
X142738095Y-127400000D02*
X142642857Y-127352380D01*
X142500000Y-127352380D01*
X142357142Y-127400000D01*
X142261904Y-127495238D01*
X142214285Y-127590476D01*
X142166666Y-127780952D01*
X142166666Y-127923809D01*
X142214285Y-128114285D01*
X142261904Y-128209523D01*
X142357142Y-128304761D01*
X142500000Y-128352380D01*
X142595238Y-128352380D01*
X142738095Y-128304761D01*
X142785714Y-128257142D01*
X142785714Y-127923809D01*
X142595238Y-127923809D01*
X143214285Y-128352380D02*
X143214285Y-127352380D01*
X143785714Y-128352380D01*
X143785714Y-127352380D01*
X144261904Y-128352380D02*
X144261904Y-127352380D01*
X144500000Y-127352380D01*
X144642857Y-127400000D01*
X144738095Y-127495238D01*
X144785714Y-127590476D01*
X144833333Y-127780952D01*
X144833333Y-127923809D01*
X144785714Y-128114285D01*
X144738095Y-128209523D01*
X144642857Y-128304761D01*
X144500000Y-128352380D01*
X144261904Y-128352380D01*
X142461904Y-123352380D02*
X142461904Y-122352380D01*
X142842857Y-122352380D01*
X142938095Y-122400000D01*
X142985714Y-122447619D01*
X143033333Y-122542857D01*
X143033333Y-122685714D01*
X142985714Y-122780952D01*
X142938095Y-122828571D01*
X142842857Y-122876190D01*
X142461904Y-122876190D01*
X143795238Y-122828571D02*
X143938095Y-122876190D01*
X143985714Y-122923809D01*
X144033333Y-123019047D01*
X144033333Y-123161904D01*
X143985714Y-123257142D01*
X143938095Y-123304761D01*
X143842857Y-123352380D01*
X143461904Y-123352380D01*
X143461904Y-122352380D01*
X143795238Y-122352380D01*
X143890476Y-122400000D01*
X143938095Y-122447619D01*
X143985714Y-122542857D01*
X143985714Y-122638095D01*
X143938095Y-122733333D01*
X143890476Y-122780952D01*
X143795238Y-122828571D01*
X143461904Y-122828571D01*
X144366666Y-122352380D02*
X145033333Y-122352380D01*
X144604761Y-123352380D01*
X111500000Y-127052380D02*
X111500000Y-127290476D01*
X111261904Y-127195238D02*
X111500000Y-127290476D01*
X111738095Y-127195238D01*
X111357142Y-127480952D02*
X111500000Y-127290476D01*
X111642857Y-127480952D01*
X132800000Y-120252380D02*
X132800000Y-120490476D01*
X132561904Y-120395238D02*
X132800000Y-120490476D01*
X133038095Y-120395238D01*
X132657142Y-120680952D02*
X132800000Y-120490476D01*
X132942857Y-120680952D01*
X103414285Y-123657142D02*
X102747619Y-123657142D01*
X103795238Y-123419047D02*
X103080952Y-123180952D01*
X103080952Y-123800000D01*
X102842857Y-124180952D02*
X102795238Y-124228571D01*
X102747619Y-124180952D01*
X102795238Y-124133333D01*
X102842857Y-124180952D01*
X102747619Y-124180952D01*
X103747619Y-125085714D02*
X103747619Y-124895238D01*
X103700000Y-124800000D01*
X103652380Y-124752380D01*
X103509523Y-124657142D01*
X103319047Y-124609523D01*
X102938095Y-124609523D01*
X102842857Y-124657142D01*
X102795238Y-124704761D01*
X102747619Y-124800000D01*
X102747619Y-124990476D01*
X102795238Y-125085714D01*
X102842857Y-125133333D01*
X102938095Y-125180952D01*
X103176190Y-125180952D01*
X103271428Y-125133333D01*
X103319047Y-125085714D01*
X103366666Y-124990476D01*
X103366666Y-124800000D01*
X103319047Y-124704761D01*
X103271428Y-124657142D01*
X103176190Y-124609523D01*
X103414285Y-126228571D02*
X103414285Y-126609523D01*
X103747619Y-126371428D02*
X102890476Y-126371428D01*
X102795238Y-126419047D01*
X102747619Y-126514285D01*
X102747619Y-126609523D01*
X102747619Y-127085714D02*
X102795238Y-126990476D01*
X102842857Y-126942857D01*
X102938095Y-126895238D01*
X103223809Y-126895238D01*
X103319047Y-126942857D01*
X103366666Y-126990476D01*
X103414285Y-127085714D01*
X103414285Y-127228571D01*
X103366666Y-127323809D01*
X103319047Y-127371428D01*
X103223809Y-127419047D01*
X102938095Y-127419047D01*
X102842857Y-127371428D01*
X102795238Y-127323809D01*
X102747619Y-127228571D01*
X102747619Y-127085714D01*
X102747619Y-129133333D02*
X102747619Y-128561904D01*
X102747619Y-128847619D02*
X103747619Y-128847619D01*
X103604761Y-128752380D01*
X103509523Y-128657142D01*
X103461904Y-128561904D01*
X103652380Y-129514285D02*
X103700000Y-129561904D01*
X103747619Y-129657142D01*
X103747619Y-129895238D01*
X103700000Y-129990476D01*
X103652380Y-130038095D01*
X103557142Y-130085714D01*
X103461904Y-130085714D01*
X103319047Y-130038095D01*
X102747619Y-129466666D01*
X102747619Y-130085714D01*
X103414285Y-131180952D02*
X102747619Y-131419047D01*
X103414285Y-131657142D01*
X102747619Y-132180952D02*
X102795238Y-132085714D01*
X102842857Y-132038095D01*
X102938095Y-131990476D01*
X103223809Y-131990476D01*
X103319047Y-132038095D01*
X103366666Y-132085714D01*
X103414285Y-132180952D01*
X103414285Y-132323809D01*
X103366666Y-132419047D01*
X103319047Y-132466666D01*
X103223809Y-132514285D01*
X102938095Y-132514285D01*
X102842857Y-132466666D01*
X102795238Y-132419047D01*
X102747619Y-132323809D01*
X102747619Y-132180952D01*
X102747619Y-133085714D02*
X102795238Y-132990476D01*
X102890476Y-132942857D01*
X103747619Y-132942857D01*
X103414285Y-133323809D02*
X103414285Y-133704761D01*
X103747619Y-133466666D02*
X102890476Y-133466666D01*
X102795238Y-133514285D01*
X102747619Y-133609523D01*
X102747619Y-133704761D01*
X102795238Y-133990476D02*
X102747619Y-134085714D01*
X102747619Y-134276190D01*
X102795238Y-134371428D01*
X102890476Y-134419047D01*
X102938095Y-134419047D01*
X103033333Y-134371428D01*
X103080952Y-134276190D01*
X103080952Y-134133333D01*
X103128571Y-134038095D01*
X103223809Y-133990476D01*
X103271428Y-133990476D01*
X103366666Y-134038095D01*
X103414285Y-134133333D01*
X103414285Y-134276190D01*
X103366666Y-134371428D01*
X109371428Y-103685714D02*
X109371428Y-104685714D01*
X109371428Y-103733333D02*
X109466666Y-103685714D01*
X109657142Y-103685714D01*
X109752380Y-103733333D01*
X109800000Y-103780952D01*
X109847619Y-103876190D01*
X109847619Y-104161904D01*
X109800000Y-104257142D01*
X109752380Y-104304761D01*
X109657142Y-104352380D01*
X109466666Y-104352380D01*
X109371428Y-104304761D01*
X110419047Y-104352380D02*
X110323809Y-104304761D01*
X110276190Y-104257142D01*
X110228571Y-104161904D01*
X110228571Y-103876190D01*
X110276190Y-103780952D01*
X110323809Y-103733333D01*
X110419047Y-103685714D01*
X110561904Y-103685714D01*
X110657142Y-103733333D01*
X110704761Y-103780952D01*
X110752380Y-103876190D01*
X110752380Y-104161904D01*
X110704761Y-104257142D01*
X110657142Y-104304761D01*
X110561904Y-104352380D01*
X110419047Y-104352380D01*
X111085714Y-103685714D02*
X111276190Y-104352380D01*
X111466666Y-103876190D01*
X111657142Y-104352380D01*
X111847619Y-103685714D01*
X112609523Y-104304761D02*
X112514285Y-104352380D01*
X112323809Y-104352380D01*
X112228571Y-104304761D01*
X112180952Y-104209523D01*
X112180952Y-103828571D01*
X112228571Y-103733333D01*
X112323809Y-103685714D01*
X112514285Y-103685714D01*
X112609523Y-103733333D01*
X112657142Y-103828571D01*
X112657142Y-103923809D01*
X112180952Y-104019047D01*
X113085714Y-104352380D02*
X113085714Y-103685714D01*
X113085714Y-103876190D02*
X113133333Y-103780952D01*
X113180952Y-103733333D01*
X113276190Y-103685714D01*
X113371428Y-103685714D01*
X128638095Y-115752380D02*
X129209523Y-115752380D01*
X128923809Y-116752380D02*
X128923809Y-115752380D01*
X129447619Y-115752380D02*
X130114285Y-116752380D01*
X130114285Y-115752380D02*
X129447619Y-116752380D01*
X105595238Y-129733333D02*
X105547619Y-129876190D01*
X105547619Y-130114285D01*
X105595238Y-130209523D01*
X105642857Y-130257142D01*
X105738095Y-130304761D01*
X105833333Y-130304761D01*
X105928571Y-130257142D01*
X105976190Y-130209523D01*
X106023809Y-130114285D01*
X106071428Y-129923809D01*
X106119047Y-129828571D01*
X106166666Y-129780952D01*
X106261904Y-129733333D01*
X106357142Y-129733333D01*
X106452380Y-129780952D01*
X106500000Y-129828571D01*
X106547619Y-129923809D01*
X106547619Y-130161904D01*
X106500000Y-130304761D01*
X106547619Y-130638095D02*
X105547619Y-130876190D01*
X106261904Y-131066666D01*
X105547619Y-131257142D01*
X106547619Y-131495238D01*
X105547619Y-131876190D02*
X106547619Y-131876190D01*
X105547619Y-132352380D02*
X106547619Y-132352380D01*
X105833333Y-132685714D01*
X106547619Y-133019047D01*
X105547619Y-133019047D01*
X142461904Y-118252380D02*
X142461904Y-117252380D01*
X142842857Y-117252380D01*
X142938095Y-117300000D01*
X142985714Y-117347619D01*
X143033333Y-117442857D01*
X143033333Y-117585714D01*
X142985714Y-117680952D01*
X142938095Y-117728571D01*
X142842857Y-117776190D01*
X142461904Y-117776190D01*
X143461904Y-118252380D02*
X143461904Y-117252380D01*
X143700000Y-117252380D01*
X143842857Y-117300000D01*
X143938095Y-117395238D01*
X143985714Y-117490476D01*
X144033333Y-117680952D01*
X144033333Y-117823809D01*
X143985714Y-118014285D01*
X143938095Y-118109523D01*
X143842857Y-118204761D01*
X143700000Y-118252380D01*
X143461904Y-118252380D01*
X144938095Y-117252380D02*
X144461904Y-117252380D01*
X144414285Y-117728571D01*
X144461904Y-117680952D01*
X144557142Y-117633333D01*
X144795238Y-117633333D01*
X144890476Y-117680952D01*
X144938095Y-117728571D01*
X144985714Y-117823809D01*
X144985714Y-118061904D01*
X144938095Y-118157142D01*
X144890476Y-118204761D01*
X144795238Y-118252380D01*
X144557142Y-118252380D01*
X144461904Y-118204761D01*
X144414285Y-118157142D01*
X142361904Y-115752380D02*
X142361904Y-114752380D01*
X142742857Y-114752380D01*
X142838095Y-114800000D01*
X142885714Y-114847619D01*
X142933333Y-114942857D01*
X142933333Y-115085714D01*
X142885714Y-115180952D01*
X142838095Y-115228571D01*
X142742857Y-115276190D01*
X142361904Y-115276190D01*
X143361904Y-115752380D02*
X143361904Y-114752380D01*
X143600000Y-114752380D01*
X143742857Y-114800000D01*
X143838095Y-114895238D01*
X143885714Y-114990476D01*
X143933333Y-115180952D01*
X143933333Y-115323809D01*
X143885714Y-115514285D01*
X143838095Y-115609523D01*
X143742857Y-115704761D01*
X143600000Y-115752380D01*
X143361904Y-115752380D01*
X144790476Y-114752380D02*
X144600000Y-114752380D01*
X144504761Y-114800000D01*
X144457142Y-114847619D01*
X144361904Y-114990476D01*
X144314285Y-115180952D01*
X144314285Y-115561904D01*
X144361904Y-115657142D01*
X144409523Y-115704761D01*
X144504761Y-115752380D01*
X144695238Y-115752380D01*
X144790476Y-115704761D01*
X144838095Y-115657142D01*
X144885714Y-115561904D01*
X144885714Y-115323809D01*
X144838095Y-115228571D01*
X144790476Y-115180952D01*
X144695238Y-115133333D01*
X144504761Y-115133333D01*
X144409523Y-115180952D01*
X144361904Y-115228571D01*
X144314285Y-115323809D01*
X126400000Y-142652380D02*
X126400000Y-142890476D01*
X126161904Y-142795238D02*
X126400000Y-142890476D01*
X126638095Y-142795238D01*
X126257142Y-143080952D02*
X126400000Y-142890476D01*
X126542857Y-143080952D01*
X136338095Y-102500000D02*
X136242857Y-102452380D01*
X136100000Y-102452380D01*
X135957142Y-102500000D01*
X135861904Y-102595238D01*
X135814285Y-102690476D01*
X135766666Y-102880952D01*
X135766666Y-103023809D01*
X135814285Y-103214285D01*
X135861904Y-103309523D01*
X135957142Y-103404761D01*
X136100000Y-103452380D01*
X136195238Y-103452380D01*
X136338095Y-103404761D01*
X136385714Y-103357142D01*
X136385714Y-103023809D01*
X136195238Y-103023809D01*
X136814285Y-103452380D02*
X136814285Y-102452380D01*
X137385714Y-103452380D01*
X137385714Y-102452380D01*
X137861904Y-103452380D02*
X137861904Y-102452380D01*
X138100000Y-102452380D01*
X138242857Y-102500000D01*
X138338095Y-102595238D01*
X138385714Y-102690476D01*
X138433333Y-102880952D01*
X138433333Y-103023809D01*
X138385714Y-103214285D01*
X138338095Y-103309523D01*
X138242857Y-103404761D01*
X138100000Y-103452380D01*
X137861904Y-103452380D01*
X126500000Y-124952380D02*
X126500000Y-125190476D01*
X126261904Y-125095238D02*
X126500000Y-125190476D01*
X126738095Y-125095238D01*
X126357142Y-125380952D02*
X126500000Y-125190476D01*
X126642857Y-125380952D01*
%TO.C,C1*%
X124587142Y-113766666D02*
X124634761Y-113814285D01*
X124682380Y-113957142D01*
X124682380Y-114052380D01*
X124634761Y-114195238D01*
X124539523Y-114290476D01*
X124444285Y-114338095D01*
X124253809Y-114385714D01*
X124110952Y-114385714D01*
X123920476Y-114338095D01*
X123825238Y-114290476D01*
X123730000Y-114195238D01*
X123682380Y-114052380D01*
X123682380Y-113957142D01*
X123730000Y-113814285D01*
X123777619Y-113766666D01*
X124682380Y-112814285D02*
X124682380Y-113385714D01*
X124682380Y-113100000D02*
X123682380Y-113100000D01*
X123825238Y-113195238D01*
X123920476Y-113290476D01*
X123968095Y-113385714D01*
%TO.C,C5*%
X123887142Y-143866666D02*
X123934761Y-143914285D01*
X123982380Y-144057142D01*
X123982380Y-144152380D01*
X123934761Y-144295238D01*
X123839523Y-144390476D01*
X123744285Y-144438095D01*
X123553809Y-144485714D01*
X123410952Y-144485714D01*
X123220476Y-144438095D01*
X123125238Y-144390476D01*
X123030000Y-144295238D01*
X122982380Y-144152380D01*
X122982380Y-144057142D01*
X123030000Y-143914285D01*
X123077619Y-143866666D01*
X122982380Y-142961904D02*
X122982380Y-143438095D01*
X123458571Y-143485714D01*
X123410952Y-143438095D01*
X123363333Y-143342857D01*
X123363333Y-143104761D01*
X123410952Y-143009523D01*
X123458571Y-142961904D01*
X123553809Y-142914285D01*
X123791904Y-142914285D01*
X123887142Y-142961904D01*
X123934761Y-143009523D01*
X123982380Y-143104761D01*
X123982380Y-143342857D01*
X123934761Y-143438095D01*
X123887142Y-143485714D01*
%TO.C,U1*%
X127738095Y-122952380D02*
X127738095Y-123761904D01*
X127785714Y-123857142D01*
X127833333Y-123904761D01*
X127928571Y-123952380D01*
X128119047Y-123952380D01*
X128214285Y-123904761D01*
X128261904Y-123857142D01*
X128309523Y-123761904D01*
X128309523Y-122952380D01*
X129309523Y-123952380D02*
X128738095Y-123952380D01*
X129023809Y-123952380D02*
X129023809Y-122952380D01*
X128928571Y-123095238D01*
X128833333Y-123190476D01*
X128738095Y-123238095D01*
%TO.C,C3*%
X140857142Y-121466666D02*
X140904761Y-121514285D01*
X140952380Y-121657142D01*
X140952380Y-121752380D01*
X140904761Y-121895238D01*
X140809523Y-121990476D01*
X140714285Y-122038095D01*
X140523809Y-122085714D01*
X140380952Y-122085714D01*
X140190476Y-122038095D01*
X140095238Y-121990476D01*
X140000000Y-121895238D01*
X139952380Y-121752380D01*
X139952380Y-121657142D01*
X140000000Y-121514285D01*
X140047619Y-121466666D01*
X139952380Y-121133333D02*
X139952380Y-120514285D01*
X140333333Y-120847619D01*
X140333333Y-120704761D01*
X140380952Y-120609523D01*
X140428571Y-120561904D01*
X140523809Y-120514285D01*
X140761904Y-120514285D01*
X140857142Y-120561904D01*
X140904761Y-120609523D01*
X140952380Y-120704761D01*
X140952380Y-120990476D01*
X140904761Y-121085714D01*
X140857142Y-121133333D01*
%TO.C,C2*%
X133957142Y-105266666D02*
X134004761Y-105314285D01*
X134052380Y-105457142D01*
X134052380Y-105552380D01*
X134004761Y-105695238D01*
X133909523Y-105790476D01*
X133814285Y-105838095D01*
X133623809Y-105885714D01*
X133480952Y-105885714D01*
X133290476Y-105838095D01*
X133195238Y-105790476D01*
X133100000Y-105695238D01*
X133052380Y-105552380D01*
X133052380Y-105457142D01*
X133100000Y-105314285D01*
X133147619Y-105266666D01*
X133147619Y-104885714D02*
X133100000Y-104838095D01*
X133052380Y-104742857D01*
X133052380Y-104504761D01*
X133100000Y-104409523D01*
X133147619Y-104361904D01*
X133242857Y-104314285D01*
X133338095Y-104314285D01*
X133480952Y-104361904D01*
X134052380Y-104933333D01*
X134052380Y-104314285D01*
%TO.C,C6*%
X138057142Y-140666666D02*
X138104761Y-140714285D01*
X138152380Y-140857142D01*
X138152380Y-140952380D01*
X138104761Y-141095238D01*
X138009523Y-141190476D01*
X137914285Y-141238095D01*
X137723809Y-141285714D01*
X137580952Y-141285714D01*
X137390476Y-141238095D01*
X137295238Y-141190476D01*
X137200000Y-141095238D01*
X137152380Y-140952380D01*
X137152380Y-140857142D01*
X137200000Y-140714285D01*
X137247619Y-140666666D01*
X137152380Y-139809523D02*
X137152380Y-140000000D01*
X137200000Y-140095238D01*
X137247619Y-140142857D01*
X137390476Y-140238095D01*
X137580952Y-140285714D01*
X137961904Y-140285714D01*
X138057142Y-140238095D01*
X138104761Y-140190476D01*
X138152380Y-140095238D01*
X138152380Y-139904761D01*
X138104761Y-139809523D01*
X138057142Y-139761904D01*
X137961904Y-139714285D01*
X137723809Y-139714285D01*
X137628571Y-139761904D01*
X137580952Y-139809523D01*
X137533333Y-139904761D01*
X137533333Y-140095238D01*
X137580952Y-140190476D01*
X137628571Y-140238095D01*
X137723809Y-140285714D01*
%TO.C,R3*%
X135452380Y-136666666D02*
X134976190Y-137000000D01*
X135452380Y-137238095D02*
X134452380Y-137238095D01*
X134452380Y-136857142D01*
X134500000Y-136761904D01*
X134547619Y-136714285D01*
X134642857Y-136666666D01*
X134785714Y-136666666D01*
X134880952Y-136714285D01*
X134928571Y-136761904D01*
X134976190Y-136857142D01*
X134976190Y-137238095D01*
X134452380Y-136333333D02*
X134452380Y-135714285D01*
X134833333Y-136047619D01*
X134833333Y-135904761D01*
X134880952Y-135809523D01*
X134928571Y-135761904D01*
X135023809Y-135714285D01*
X135261904Y-135714285D01*
X135357142Y-135761904D01*
X135404761Y-135809523D01*
X135452380Y-135904761D01*
X135452380Y-136190476D01*
X135404761Y-136285714D01*
X135357142Y-136333333D01*
%TO.C,D1*%
X118952380Y-118238095D02*
X117952380Y-118238095D01*
X117952380Y-118000000D01*
X118000000Y-117857142D01*
X118095238Y-117761904D01*
X118190476Y-117714285D01*
X118380952Y-117666666D01*
X118523809Y-117666666D01*
X118714285Y-117714285D01*
X118809523Y-117761904D01*
X118904761Y-117857142D01*
X118952380Y-118000000D01*
X118952380Y-118238095D01*
X118952380Y-116714285D02*
X118952380Y-117285714D01*
X118952380Y-117000000D02*
X117952380Y-117000000D01*
X118095238Y-117095238D01*
X118190476Y-117190476D01*
X118238095Y-117285714D01*
%TO.C,R1*%
X138833333Y-117952380D02*
X138500000Y-117476190D01*
X138261904Y-117952380D02*
X138261904Y-116952380D01*
X138642857Y-116952380D01*
X138738095Y-117000000D01*
X138785714Y-117047619D01*
X138833333Y-117142857D01*
X138833333Y-117285714D01*
X138785714Y-117380952D01*
X138738095Y-117428571D01*
X138642857Y-117476190D01*
X138261904Y-117476190D01*
X139785714Y-117952380D02*
X139214285Y-117952380D01*
X139500000Y-117952380D02*
X139500000Y-116952380D01*
X139404761Y-117095238D01*
X139309523Y-117190476D01*
X139214285Y-117238095D01*
%TO.C,U4*%
X131038095Y-139102380D02*
X131038095Y-139911904D01*
X131085714Y-140007142D01*
X131133333Y-140054761D01*
X131228571Y-140102380D01*
X131419047Y-140102380D01*
X131514285Y-140054761D01*
X131561904Y-140007142D01*
X131609523Y-139911904D01*
X131609523Y-139102380D01*
X132514285Y-139435714D02*
X132514285Y-140102380D01*
X132276190Y-139054761D02*
X132038095Y-139769047D01*
X132657142Y-139769047D01*
%TO.C,SW2*%
X143166666Y-140904761D02*
X143309523Y-140952380D01*
X143547619Y-140952380D01*
X143642857Y-140904761D01*
X143690476Y-140857142D01*
X143738095Y-140761904D01*
X143738095Y-140666666D01*
X143690476Y-140571428D01*
X143642857Y-140523809D01*
X143547619Y-140476190D01*
X143357142Y-140428571D01*
X143261904Y-140380952D01*
X143214285Y-140333333D01*
X143166666Y-140238095D01*
X143166666Y-140142857D01*
X143214285Y-140047619D01*
X143261904Y-140000000D01*
X143357142Y-139952380D01*
X143595238Y-139952380D01*
X143738095Y-140000000D01*
X144071428Y-139952380D02*
X144309523Y-140952380D01*
X144500000Y-140238095D01*
X144690476Y-140952380D01*
X144928571Y-139952380D01*
X145261904Y-140047619D02*
X145309523Y-140000000D01*
X145404761Y-139952380D01*
X145642857Y-139952380D01*
X145738095Y-140000000D01*
X145785714Y-140047619D01*
X145833333Y-140142857D01*
X145833333Y-140238095D01*
X145785714Y-140380952D01*
X145214285Y-140952380D01*
X145833333Y-140952380D01*
%TO.C,U3*%
X131738095Y-118952380D02*
X131738095Y-119761904D01*
X131785714Y-119857142D01*
X131833333Y-119904761D01*
X131928571Y-119952380D01*
X132119047Y-119952380D01*
X132214285Y-119904761D01*
X132261904Y-119857142D01*
X132309523Y-119761904D01*
X132309523Y-118952380D01*
X132690476Y-118952380D02*
X133309523Y-118952380D01*
X132976190Y-119333333D01*
X133119047Y-119333333D01*
X133214285Y-119380952D01*
X133261904Y-119428571D01*
X133309523Y-119523809D01*
X133309523Y-119761904D01*
X133261904Y-119857142D01*
X133214285Y-119904761D01*
X133119047Y-119952380D01*
X132833333Y-119952380D01*
X132738095Y-119904761D01*
X132690476Y-119857142D01*
%TO.C,J5*%
X124447380Y-145733333D02*
X125161666Y-145733333D01*
X125304523Y-145780952D01*
X125399761Y-145876190D01*
X125447380Y-146019047D01*
X125447380Y-146114285D01*
X124447380Y-144780952D02*
X124447380Y-145257142D01*
X124923571Y-145304761D01*
X124875952Y-145257142D01*
X124828333Y-145161904D01*
X124828333Y-144923809D01*
X124875952Y-144828571D01*
X124923571Y-144780952D01*
X125018809Y-144733333D01*
X125256904Y-144733333D01*
X125352142Y-144780952D01*
X125399761Y-144828571D01*
X125447380Y-144923809D01*
X125447380Y-145161904D01*
X125399761Y-145257142D01*
X125352142Y-145304761D01*
%TO.C,R2*%
X139333333Y-125452380D02*
X139000000Y-124976190D01*
X138761904Y-125452380D02*
X138761904Y-124452380D01*
X139142857Y-124452380D01*
X139238095Y-124500000D01*
X139285714Y-124547619D01*
X139333333Y-124642857D01*
X139333333Y-124785714D01*
X139285714Y-124880952D01*
X139238095Y-124928571D01*
X139142857Y-124976190D01*
X138761904Y-124976190D01*
X139714285Y-124547619D02*
X139761904Y-124500000D01*
X139857142Y-124452380D01*
X140095238Y-124452380D01*
X140190476Y-124500000D01*
X140238095Y-124547619D01*
X140285714Y-124642857D01*
X140285714Y-124738095D01*
X140238095Y-124880952D01*
X139666666Y-125452380D01*
X140285714Y-125452380D01*
%TO.C,J2*%
X114382380Y-108633333D02*
X115096666Y-108633333D01*
X115239523Y-108680952D01*
X115334761Y-108776190D01*
X115382380Y-108919047D01*
X115382380Y-109014285D01*
X114477619Y-108204761D02*
X114430000Y-108157142D01*
X114382380Y-108061904D01*
X114382380Y-107823809D01*
X114430000Y-107728571D01*
X114477619Y-107680952D01*
X114572857Y-107633333D01*
X114668095Y-107633333D01*
X114810952Y-107680952D01*
X115382380Y-108252380D01*
X115382380Y-107633333D01*
%TO.C,C4*%
X124927142Y-129566666D02*
X124974761Y-129614285D01*
X125022380Y-129757142D01*
X125022380Y-129852380D01*
X124974761Y-129995238D01*
X124879523Y-130090476D01*
X124784285Y-130138095D01*
X124593809Y-130185714D01*
X124450952Y-130185714D01*
X124260476Y-130138095D01*
X124165238Y-130090476D01*
X124070000Y-129995238D01*
X124022380Y-129852380D01*
X124022380Y-129757142D01*
X124070000Y-129614285D01*
X124117619Y-129566666D01*
X124355714Y-128709523D02*
X125022380Y-128709523D01*
X123974761Y-128947619D02*
X124689047Y-129185714D01*
X124689047Y-128566666D01*
%TO.C,SW1*%
X114666666Y-138904761D02*
X114809523Y-138952380D01*
X115047619Y-138952380D01*
X115142857Y-138904761D01*
X115190476Y-138857142D01*
X115238095Y-138761904D01*
X115238095Y-138666666D01*
X115190476Y-138571428D01*
X115142857Y-138523809D01*
X115047619Y-138476190D01*
X114857142Y-138428571D01*
X114761904Y-138380952D01*
X114714285Y-138333333D01*
X114666666Y-138238095D01*
X114666666Y-138142857D01*
X114714285Y-138047619D01*
X114761904Y-138000000D01*
X114857142Y-137952380D01*
X115095238Y-137952380D01*
X115238095Y-138000000D01*
X115571428Y-137952380D02*
X115809523Y-138952380D01*
X116000000Y-138238095D01*
X116190476Y-138952380D01*
X116428571Y-137952380D01*
X117333333Y-138952380D02*
X116761904Y-138952380D01*
X117047619Y-138952380D02*
X117047619Y-137952380D01*
X116952380Y-138095238D01*
X116857142Y-138190476D01*
X116761904Y-138238095D01*
%TO.C,J4*%
X125166666Y-115752380D02*
X125166666Y-116466666D01*
X125119047Y-116609523D01*
X125023809Y-116704761D01*
X124880952Y-116752380D01*
X124785714Y-116752380D01*
X126071428Y-116085714D02*
X126071428Y-116752380D01*
X125833333Y-115704761D02*
X125595238Y-116419047D01*
X126214285Y-116419047D01*
%TO.C,J6*%
X141666666Y-107552380D02*
X141666666Y-108266666D01*
X141619047Y-108409523D01*
X141523809Y-108504761D01*
X141380952Y-108552380D01*
X141285714Y-108552380D01*
X142571428Y-107552380D02*
X142380952Y-107552380D01*
X142285714Y-107600000D01*
X142238095Y-107647619D01*
X142142857Y-107790476D01*
X142095238Y-107980952D01*
X142095238Y-108361904D01*
X142142857Y-108457142D01*
X142190476Y-108504761D01*
X142285714Y-108552380D01*
X142476190Y-108552380D01*
X142571428Y-108504761D01*
X142619047Y-108457142D01*
X142666666Y-108361904D01*
X142666666Y-108123809D01*
X142619047Y-108028571D01*
X142571428Y-107980952D01*
X142476190Y-107933333D01*
X142285714Y-107933333D01*
X142190476Y-107980952D01*
X142142857Y-108028571D01*
X142095238Y-108123809D01*
%TO.C,J1*%
X105216666Y-121244880D02*
X105216666Y-121959166D01*
X105169047Y-122102023D01*
X105073809Y-122197261D01*
X104930952Y-122244880D01*
X104835714Y-122244880D01*
X106216666Y-122244880D02*
X105645238Y-122244880D01*
X105930952Y-122244880D02*
X105930952Y-121244880D01*
X105835714Y-121387738D01*
X105740476Y-121482976D01*
X105645238Y-121530595D01*
%TO.C,D2*%
X138452380Y-137238095D02*
X137452380Y-137238095D01*
X137452380Y-137000000D01*
X137500000Y-136857142D01*
X137595238Y-136761904D01*
X137690476Y-136714285D01*
X137880952Y-136666666D01*
X138023809Y-136666666D01*
X138214285Y-136714285D01*
X138309523Y-136761904D01*
X138404761Y-136857142D01*
X138452380Y-137000000D01*
X138452380Y-137238095D01*
X137547619Y-136285714D02*
X137500000Y-136238095D01*
X137452380Y-136142857D01*
X137452380Y-135904761D01*
X137500000Y-135809523D01*
X137547619Y-135761904D01*
X137642857Y-135714285D01*
X137738095Y-135714285D01*
X137880952Y-135761904D01*
X138452380Y-136333333D01*
X138452380Y-135714285D01*
%TO.C,J3*%
X108666666Y-124452380D02*
X108666666Y-125166666D01*
X108619047Y-125309523D01*
X108523809Y-125404761D01*
X108380952Y-125452380D01*
X108285714Y-125452380D01*
X109047619Y-124452380D02*
X109666666Y-124452380D01*
X109333333Y-124833333D01*
X109476190Y-124833333D01*
X109571428Y-124880952D01*
X109619047Y-124928571D01*
X109666666Y-125023809D01*
X109666666Y-125261904D01*
X109619047Y-125357142D01*
X109571428Y-125404761D01*
X109476190Y-125452380D01*
X109190476Y-125452380D01*
X109095238Y-125404761D01*
X109047619Y-125357142D01*
%TO.C,U2*%
X125238095Y-101752380D02*
X125238095Y-102561904D01*
X125285714Y-102657142D01*
X125333333Y-102704761D01*
X125428571Y-102752380D01*
X125619047Y-102752380D01*
X125714285Y-102704761D01*
X125761904Y-102657142D01*
X125809523Y-102561904D01*
X125809523Y-101752380D01*
X126238095Y-101847619D02*
X126285714Y-101800000D01*
X126380952Y-101752380D01*
X126619047Y-101752380D01*
X126714285Y-101800000D01*
X126761904Y-101847619D01*
X126809523Y-101942857D01*
X126809523Y-102038095D01*
X126761904Y-102180952D01*
X126190476Y-102752380D01*
X126809523Y-102752380D01*
D11*
%TO.C,C1*%
X122290000Y-113459420D02*
X122290000Y-113740580D01*
X123310000Y-113459420D02*
X123310000Y-113740580D01*
%TO.C,C5*%
X121590000Y-143559420D02*
X121590000Y-143840580D01*
X122610000Y-143559420D02*
X122610000Y-143840580D01*
%TO.C,U1*%
X128100000Y-124700000D02*
X127700000Y-124700000D01*
X127700000Y-124700000D02*
X127700000Y-125100000D01*
X132600000Y-124700000D02*
X133000000Y-124700000D01*
X133000000Y-130000000D02*
X133000000Y-129600000D01*
X127700000Y-130000000D02*
X127700000Y-129600000D01*
X133000000Y-124700000D02*
X133000000Y-125100000D01*
X132600000Y-130000000D02*
X133000000Y-130000000D01*
X127700000Y-125100000D02*
X127700000Y-125100000D01*
X128100000Y-130000000D02*
X127700000Y-130000000D01*
%TO.C,C3*%
X137990000Y-121440580D02*
X137990000Y-121159420D01*
X139010000Y-121440580D02*
X139010000Y-121159420D01*
%TO.C,C2*%
X131390000Y-105040580D02*
X131390000Y-104759420D01*
X132410000Y-105040580D02*
X132410000Y-104759420D01*
%TO.C,C6*%
X135490000Y-141340580D02*
X135490000Y-141059420D01*
X136510000Y-141340580D02*
X136510000Y-141059420D01*
%TO.C,TP1*%
X138300000Y-106600000D02*
X135900000Y-106600000D01*
X135900000Y-106600000D02*
X135900000Y-104200000D01*
X138300000Y-104200000D02*
X138300000Y-106600000D01*
X135900000Y-104200000D02*
X138300000Y-104200000D01*
%TO.C,R3*%
X134477500Y-133462742D02*
X134477500Y-133937258D01*
X135522500Y-133462742D02*
X135522500Y-133937258D01*
%TO.C,D1*%
X120350000Y-107700000D02*
X117050000Y-107700000D01*
X117050000Y-107700000D02*
X117050000Y-113100000D01*
X120350000Y-107700000D02*
X120350000Y-113100000D01*
%TO.C,R1*%
X135637258Y-117922500D02*
X135162742Y-117922500D01*
X135637258Y-116877500D02*
X135162742Y-116877500D01*
%TO.C,U4*%
X131200000Y-142600000D02*
X130700000Y-142600000D01*
X130700000Y-142600000D02*
X130700000Y-142100000D01*
X132900000Y-142100000D02*
X132900000Y-142600000D01*
X132900000Y-140900000D02*
X132900000Y-140900000D01*
X131200000Y-140400000D02*
X130700000Y-140400000D01*
X132900000Y-142600000D02*
X132400000Y-142600000D01*
X132400000Y-142600000D02*
X132400000Y-142600000D01*
X130700000Y-140400000D02*
X130700000Y-140400000D01*
X130700000Y-142100000D02*
X130700000Y-142100000D01*
X132900000Y-140400000D02*
X132900000Y-140900000D01*
X132400000Y-140400000D02*
X132900000Y-140400000D01*
%TO.C,SW2*%
X145650000Y-131000000D02*
X144150000Y-131000000D01*
X144150000Y-138000000D02*
X145650000Y-138000000D01*
X148150000Y-136750000D02*
X148150000Y-132250000D01*
X141650000Y-132250000D02*
X141650000Y-136750000D01*
%TO.C,U3*%
X135300000Y-120100000D02*
X135800000Y-120100000D01*
X134100000Y-120100000D02*
X133600000Y-120100000D01*
X135300000Y-122300000D02*
X135300000Y-122300000D01*
X134100000Y-122300000D02*
X133600000Y-122300000D01*
X133600000Y-121800000D02*
X133600000Y-121800000D01*
X135800000Y-120100000D02*
X135800000Y-120600000D01*
X135800000Y-122300000D02*
X135300000Y-122300000D01*
X133600000Y-120100000D02*
X133600000Y-120100000D01*
X135800000Y-120600000D02*
X135800000Y-120600000D01*
X133600000Y-122300000D02*
X133600000Y-121800000D01*
X135800000Y-121800000D02*
X135800000Y-122300000D01*
%TO.C,J5*%
X128595000Y-144070000D02*
X138815000Y-144070000D01*
X138815000Y-146730000D02*
X138815000Y-144070000D01*
X128595000Y-146730000D02*
X128595000Y-144070000D01*
X125995000Y-146730000D02*
X125995000Y-145400000D01*
X128595000Y-146730000D02*
X138815000Y-146730000D01*
X127325000Y-146730000D02*
X125995000Y-146730000D01*
%TO.C,R2*%
X135537258Y-123677500D02*
X135062742Y-123677500D01*
X135537258Y-124722500D02*
X135062742Y-124722500D01*
%TO.C,J2*%
X111330000Y-109630000D02*
X108730000Y-109630000D01*
X111330000Y-106970000D02*
X108730000Y-106970000D01*
X113930000Y-106970000D02*
X113930000Y-108300000D01*
X108730000Y-106970000D02*
X108730000Y-109630000D01*
X112600000Y-106970000D02*
X113930000Y-106970000D01*
X111330000Y-106970000D02*
X111330000Y-109630000D01*
%TO.C,C4*%
X125490000Y-129540580D02*
X125490000Y-129259420D01*
X126510000Y-129540580D02*
X126510000Y-129259420D01*
%TO.C,SW1*%
X113400000Y-146900000D02*
X117900000Y-146900000D01*
X119150000Y-144400000D02*
X119150000Y-142900000D01*
X112150000Y-142900000D02*
X112150000Y-144400000D01*
X117900000Y-140400000D02*
X113400000Y-140400000D01*
%TO.C,J4*%
X125620000Y-112170000D02*
X125620000Y-114830000D01*
X139650000Y-112170000D02*
X140980000Y-112170000D01*
X138380000Y-114830000D02*
X125620000Y-114830000D01*
X138380000Y-112170000D02*
X138380000Y-114830000D01*
X140980000Y-112170000D02*
X140980000Y-113500000D01*
X138380000Y-112170000D02*
X125620000Y-112170000D01*
%TO.C,J6*%
X148030000Y-111370000D02*
X148030000Y-129210000D01*
X145370000Y-111370000D02*
X148030000Y-111370000D01*
X145370000Y-110100000D02*
X145370000Y-108770000D01*
X145370000Y-129210000D02*
X148030000Y-129210000D01*
X145370000Y-108770000D02*
X146700000Y-108770000D01*
X145370000Y-111370000D02*
X145370000Y-129210000D01*
%TO.C,J1*%
X114900000Y-120642500D02*
X113000000Y-120642500D01*
X115100000Y-112292500D02*
X115100000Y-111242500D01*
X114900000Y-117942500D02*
X114900000Y-120642500D01*
X109000000Y-120642500D02*
X100200000Y-120642500D01*
X100200000Y-120642500D02*
X100200000Y-111442500D01*
X114050000Y-111242500D02*
X115100000Y-111242500D01*
X114900000Y-111442500D02*
X114900000Y-114042500D01*
X100200000Y-111442500D02*
X114900000Y-111442500D01*
%TO.C,D2*%
X139560000Y-134500000D02*
X139560000Y-131815000D01*
X139560000Y-131815000D02*
X137640000Y-131815000D01*
X137640000Y-131815000D02*
X137640000Y-134500000D01*
%TO.C,J3*%
X107670000Y-136650000D02*
X110330000Y-136650000D01*
X107670000Y-126370000D02*
X109000000Y-126370000D01*
X107670000Y-128970000D02*
X107670000Y-136650000D01*
X107670000Y-128970000D02*
X110330000Y-128970000D01*
X107670000Y-127700000D02*
X107670000Y-126370000D01*
X110330000Y-128970000D02*
X110330000Y-136650000D01*
%TO.C,U2*%
X127910000Y-110210000D02*
X127910000Y-108950000D01*
X121900000Y-103390000D02*
X127910000Y-103390000D01*
X127910000Y-103390000D02*
X127910000Y-104650000D01*
X124150000Y-110210000D02*
X127910000Y-110210000D01*
%TD*%
M02*
