%TF.GenerationSoftware,KiCad,Pcbnew,6.0.1-79c1e3a40b~116~ubuntu18.04.1*%
%TF.CreationDate,2023-02-22T20:49:33-05:00*%
%TF.ProjectId,a2bikelight,61326269-6b65-46c6-9967-68742e6b6963,rev?*%
%TF.SameCoordinates,Original*%
%TF.FileFunction,Copper,L2,Inr*%
%TF.FilePolarity,Positive*%
%FSLAX46Y46*%
G04 Gerber Fmt 4.6, Leading zero omitted, Abs format (unit mm)*
G04 Created by KiCad (PCBNEW 6.0.1-79c1e3a40b~116~ubuntu18.04.1) date 2023-02-22 20:49:33*
%MOMM*%
%LPD*%
G01*
G04 APERTURE LIST*
G04 Aperture macros list*
%AMRoundRect*
0 Rectangle with rounded corners*
0 $1 Rounding radius*
0 $2 $3 $4 $5 $6 $7 $8 $9 X,Y pos of 4 corners*
0 Add a 4 corners polygon primitive as box body*
4,1,4,$2,$3,$4,$5,$6,$7,$8,$9,$2,$3,0*
0 Add four circle primitives for the rounded corners*
1,1,$1+$1,$2,$3*
1,1,$1+$1,$4,$5*
1,1,$1+$1,$6,$7*
1,1,$1+$1,$8,$9*
0 Add four rect primitives between the rounded corners*
20,1,$1+$1,$2,$3,$4,$5,0*
20,1,$1+$1,$4,$5,$6,$7,0*
20,1,$1+$1,$6,$7,$8,$9,0*
20,1,$1+$1,$8,$9,$2,$3,0*%
G04 Aperture macros list end*
%TA.AperFunction,ComponentPad*%
%ADD10R,2.000000X2.000000*%
%TD*%
%TA.AperFunction,ComponentPad*%
%ADD11C,2.000000*%
%TD*%
%TA.AperFunction,ComponentPad*%
%ADD12R,1.700000X1.700000*%
%TD*%
%TA.AperFunction,ComponentPad*%
%ADD13O,1.700000X1.700000*%
%TD*%
%TA.AperFunction,ComponentPad*%
%ADD14R,3.500000X3.500000*%
%TD*%
%TA.AperFunction,ComponentPad*%
%ADD15RoundRect,0.750000X-0.750000X-1.000000X0.750000X-1.000000X0.750000X1.000000X-0.750000X1.000000X0*%
%TD*%
%TA.AperFunction,ComponentPad*%
%ADD16RoundRect,0.875000X-0.875000X-0.875000X0.875000X-0.875000X0.875000X0.875000X-0.875000X0.875000X0*%
%TD*%
%TA.AperFunction,ViaPad*%
%ADD17C,0.800000*%
%TD*%
G04 APERTURE END LIST*
D10*
%TO.N,GND*%
%TO.C,TP1*%
X137100000Y-105400000D03*
%TD*%
D11*
%TO.N,GND*%
%TO.C,SW2*%
X147150000Y-137750000D03*
X147150000Y-131250000D03*
%TO.N,BUTTON*%
X142650000Y-131250000D03*
X142650000Y-137750000D03*
%TD*%
D12*
%TO.N,Net-(J5-Pad1)*%
%TO.C,J5*%
X127325000Y-145400000D03*
D13*
%TO.N,Net-(J5-Pad2)*%
X129865000Y-145400000D03*
%TO.N,Net-(J5-Pad3)*%
X132405000Y-145400000D03*
%TO.N,Net-(C6-Pad1)*%
X134945000Y-145400000D03*
%TO.N,Net-(C6-Pad2)*%
X137485000Y-145400000D03*
%TD*%
D12*
%TO.N,Net-(D1-Pad2)*%
%TO.C,J2*%
X112600000Y-108300000D03*
D13*
%TO.N,GND*%
X110060000Y-108300000D03*
%TD*%
D11*
%TO.N,GND*%
%TO.C,SW1*%
X112400000Y-145900000D03*
X118900000Y-145900000D03*
%TO.N,NRESET*%
X112400000Y-141400000D03*
X118900000Y-141400000D03*
%TD*%
D12*
%TO.N,GND*%
%TO.C,J4*%
X139650000Y-113500000D03*
D13*
%TO.N,unconnected-(J4-Pad2)*%
X137110000Y-113500000D03*
%TO.N,unconnected-(J4-Pad3)*%
X134570000Y-113500000D03*
%TO.N,SERIAL_INCOMING*%
X132030000Y-113500000D03*
%TO.N,SERIAL_OUTGOING*%
X129490000Y-113500000D03*
%TO.N,unconnected-(J4-Pad6)*%
X126950000Y-113500000D03*
%TD*%
D12*
%TO.N,VIN*%
%TO.C,J6*%
X146700000Y-110100000D03*
D13*
%TO.N,+3V3*%
X146700000Y-112640000D03*
%TO.N,PD6*%
X146700000Y-115180000D03*
%TO.N,PD5*%
X146700000Y-117720000D03*
%TO.N,PD4*%
X146700000Y-120260000D03*
%TO.N,PB7*%
X146700000Y-122800000D03*
%TO.N,LIGHT*%
X146700000Y-125340000D03*
%TO.N,GND*%
X146700000Y-127880000D03*
%TD*%
D14*
%TO.N,Net-(D1-Pad2)*%
%TO.C,J1*%
X114000000Y-116042500D03*
D15*
%TO.N,GND*%
X108000000Y-116042500D03*
D16*
X111000000Y-120742500D03*
%TD*%
D12*
%TO.N,unconnected-(J3-Pad1)*%
%TO.C,J3*%
X109000000Y-127700000D03*
D13*
%TO.N,SWIM*%
X109000000Y-130240000D03*
%TO.N,GND*%
X109000000Y-132780000D03*
%TO.N,NRESET*%
X109000000Y-135320000D03*
%TD*%
D17*
%TO.N,GND*%
X122800000Y-115700000D03*
X120700000Y-104500000D03*
X124800000Y-104400000D03*
X122800000Y-102600000D03*
X120900000Y-103300000D03*
X138700000Y-131000000D03*
X131900000Y-102800000D03*
X126000000Y-127400000D03*
X138500000Y-119200000D03*
%TO.N,+3V3*%
X137300000Y-124200000D03*
X126000000Y-131400000D03*
X124900000Y-107500000D03*
X120700000Y-106100000D03*
X139000000Y-123600000D03*
X137400000Y-117400000D03*
X131700000Y-107400000D03*
X125000000Y-106400000D03*
X127000000Y-107500000D03*
X126900000Y-106000000D03*
X120900000Y-107600000D03*
%TD*%
%TA.AperFunction,Conductor*%
%TO.N,GND*%
G36*
X149434121Y-100528002D02*
G01*
X149480614Y-100581658D01*
X149492000Y-100634000D01*
X149492000Y-149366000D01*
X149471998Y-149434121D01*
X149418342Y-149480614D01*
X149366000Y-149492000D01*
X100634000Y-149492000D01*
X100565879Y-149471998D01*
X100519386Y-149418342D01*
X100508000Y-149366000D01*
X100508000Y-146047404D01*
X101736941Y-146047404D01*
X101737304Y-146051552D01*
X101737304Y-146051556D01*
X101744316Y-146131699D01*
X101763091Y-146346292D01*
X101764001Y-146350364D01*
X101764002Y-146350369D01*
X101822765Y-146613261D01*
X101828540Y-146639095D01*
X101932140Y-146920671D01*
X101934084Y-146924359D01*
X101934088Y-146924367D01*
X102070116Y-147182367D01*
X102072069Y-147186071D01*
X102245871Y-147430633D01*
X102450490Y-147650061D01*
X102682333Y-147840498D01*
X102937325Y-147998600D01*
X103210988Y-148121589D01*
X103385368Y-148173574D01*
X103494514Y-148206112D01*
X103494516Y-148206112D01*
X103498513Y-148207304D01*
X103502633Y-148207957D01*
X103502635Y-148207957D01*
X103621509Y-148226785D01*
X103794848Y-148254239D01*
X103837577Y-148256179D01*
X103887262Y-148258436D01*
X103887281Y-148258436D01*
X103888681Y-148258500D01*
X104076107Y-148258500D01*
X104299370Y-148243671D01*
X104303464Y-148242846D01*
X104303468Y-148242845D01*
X104444513Y-148214405D01*
X104593480Y-148184368D01*
X104877163Y-148086688D01*
X104880896Y-148084819D01*
X104880900Y-148084817D01*
X105141691Y-147954222D01*
X105141693Y-147954221D01*
X105145435Y-147952347D01*
X105393584Y-147783706D01*
X105617248Y-147583726D01*
X105619966Y-147580555D01*
X105809779Y-147359097D01*
X105809782Y-147359093D01*
X105812499Y-147355923D01*
X105814773Y-147352421D01*
X105814777Y-147352416D01*
X105957482Y-147132670D01*
X111532160Y-147132670D01*
X111537887Y-147140320D01*
X111709042Y-147245205D01*
X111717837Y-147249687D01*
X111927988Y-147336734D01*
X111937373Y-147339783D01*
X112158554Y-147392885D01*
X112168301Y-147394428D01*
X112395070Y-147412275D01*
X112404930Y-147412275D01*
X112631699Y-147394428D01*
X112641446Y-147392885D01*
X112862627Y-147339783D01*
X112872012Y-147336734D01*
X113082163Y-147249687D01*
X113090958Y-147245205D01*
X113258445Y-147142568D01*
X113267400Y-147132670D01*
X118032160Y-147132670D01*
X118037887Y-147140320D01*
X118209042Y-147245205D01*
X118217837Y-147249687D01*
X118427988Y-147336734D01*
X118437373Y-147339783D01*
X118658554Y-147392885D01*
X118668301Y-147394428D01*
X118895070Y-147412275D01*
X118904930Y-147412275D01*
X119131699Y-147394428D01*
X119141446Y-147392885D01*
X119362627Y-147339783D01*
X119372012Y-147336734D01*
X119582163Y-147249687D01*
X119590958Y-147245205D01*
X119758445Y-147142568D01*
X119767907Y-147132110D01*
X119764124Y-147123334D01*
X118912812Y-146272022D01*
X118898868Y-146264408D01*
X118897035Y-146264539D01*
X118890420Y-146268790D01*
X118038920Y-147120290D01*
X118032160Y-147132670D01*
X113267400Y-147132670D01*
X113267907Y-147132110D01*
X113264124Y-147123334D01*
X112412812Y-146272022D01*
X112398868Y-146264408D01*
X112397035Y-146264539D01*
X112390420Y-146268790D01*
X111538920Y-147120290D01*
X111532160Y-147132670D01*
X105957482Y-147132670D01*
X105973628Y-147107807D01*
X105973631Y-147107802D01*
X105975907Y-147104297D01*
X106104600Y-146833270D01*
X106125608Y-146767840D01*
X106195038Y-146551591D01*
X106195038Y-146551590D01*
X106196318Y-146547604D01*
X106230016Y-146360316D01*
X106248709Y-146256425D01*
X106248710Y-146256420D01*
X106249448Y-146252316D01*
X106256048Y-146106994D01*
X106262870Y-145956766D01*
X106262870Y-145956760D01*
X106263059Y-145952596D01*
X106259296Y-145909580D01*
X106258889Y-145904930D01*
X110887725Y-145904930D01*
X110905572Y-146131699D01*
X110907115Y-146141446D01*
X110960217Y-146362627D01*
X110963266Y-146372012D01*
X111050313Y-146582163D01*
X111054795Y-146590958D01*
X111157432Y-146758445D01*
X111167890Y-146767907D01*
X111176666Y-146764124D01*
X112027978Y-145912812D01*
X112034356Y-145901132D01*
X112764408Y-145901132D01*
X112764539Y-145902965D01*
X112768790Y-145909580D01*
X113620290Y-146761080D01*
X113632670Y-146767840D01*
X113640320Y-146762113D01*
X113745205Y-146590958D01*
X113749687Y-146582163D01*
X113836734Y-146372012D01*
X113839783Y-146362627D01*
X113892885Y-146141446D01*
X113894428Y-146131699D01*
X113912275Y-145904930D01*
X117387725Y-145904930D01*
X117405572Y-146131699D01*
X117407115Y-146141446D01*
X117460217Y-146362627D01*
X117463266Y-146372012D01*
X117550313Y-146582163D01*
X117554795Y-146590958D01*
X117657432Y-146758445D01*
X117667890Y-146767907D01*
X117676666Y-146764124D01*
X118527978Y-145912812D01*
X118534356Y-145901132D01*
X119264408Y-145901132D01*
X119264539Y-145902965D01*
X119268790Y-145909580D01*
X120120290Y-146761080D01*
X120132670Y-146767840D01*
X120140320Y-146762113D01*
X120245205Y-146590958D01*
X120249687Y-146582163D01*
X120336734Y-146372012D01*
X120339783Y-146362627D01*
X120355267Y-146298134D01*
X125966500Y-146298134D01*
X125973255Y-146360316D01*
X126024385Y-146496705D01*
X126111739Y-146613261D01*
X126228295Y-146700615D01*
X126364684Y-146751745D01*
X126426866Y-146758500D01*
X128223134Y-146758500D01*
X128285316Y-146751745D01*
X128421705Y-146700615D01*
X128538261Y-146613261D01*
X128625615Y-146496705D01*
X128647799Y-146437529D01*
X128669598Y-146379382D01*
X128712240Y-146322618D01*
X128778802Y-146297918D01*
X128848150Y-146313126D01*
X128882817Y-146341114D01*
X128911250Y-146373938D01*
X129083126Y-146516632D01*
X129276000Y-146629338D01*
X129484692Y-146709030D01*
X129489760Y-146710061D01*
X129489763Y-146710062D01*
X129597017Y-146731883D01*
X129703597Y-146753567D01*
X129708772Y-146753757D01*
X129708774Y-146753757D01*
X129921673Y-146761564D01*
X129921677Y-146761564D01*
X129926837Y-146761753D01*
X129931957Y-146761097D01*
X129931959Y-146761097D01*
X130143288Y-146734025D01*
X130143289Y-146734025D01*
X130148416Y-146733368D01*
X130153366Y-146731883D01*
X130357429Y-146670661D01*
X130357434Y-146670659D01*
X130362384Y-146669174D01*
X130562994Y-146570896D01*
X130744860Y-146441173D01*
X130903096Y-146283489D01*
X131033453Y-146102077D01*
X131034776Y-146103028D01*
X131081645Y-146059857D01*
X131151580Y-146047625D01*
X131217026Y-146075144D01*
X131244875Y-146106994D01*
X131304987Y-146205088D01*
X131451250Y-146373938D01*
X131623126Y-146516632D01*
X131816000Y-146629338D01*
X132024692Y-146709030D01*
X132029760Y-146710061D01*
X132029763Y-146710062D01*
X132137017Y-146731883D01*
X132243597Y-146753567D01*
X132248772Y-146753757D01*
X132248774Y-146753757D01*
X132461673Y-146761564D01*
X132461677Y-146761564D01*
X132466837Y-146761753D01*
X132471957Y-146761097D01*
X132471959Y-146761097D01*
X132683288Y-146734025D01*
X132683289Y-146734025D01*
X132688416Y-146733368D01*
X132693366Y-146731883D01*
X132897429Y-146670661D01*
X132897434Y-146670659D01*
X132902384Y-146669174D01*
X133102994Y-146570896D01*
X133284860Y-146441173D01*
X133443096Y-146283489D01*
X133573453Y-146102077D01*
X133574776Y-146103028D01*
X133621645Y-146059857D01*
X133691580Y-146047625D01*
X133757026Y-146075144D01*
X133784875Y-146106994D01*
X133844987Y-146205088D01*
X133991250Y-146373938D01*
X134163126Y-146516632D01*
X134356000Y-146629338D01*
X134564692Y-146709030D01*
X134569760Y-146710061D01*
X134569763Y-146710062D01*
X134677017Y-146731883D01*
X134783597Y-146753567D01*
X134788772Y-146753757D01*
X134788774Y-146753757D01*
X135001673Y-146761564D01*
X135001677Y-146761564D01*
X135006837Y-146761753D01*
X135011957Y-146761097D01*
X135011959Y-146761097D01*
X135223288Y-146734025D01*
X135223289Y-146734025D01*
X135228416Y-146733368D01*
X135233366Y-146731883D01*
X135437429Y-146670661D01*
X135437434Y-146670659D01*
X135442384Y-146669174D01*
X135642994Y-146570896D01*
X135824860Y-146441173D01*
X135983096Y-146283489D01*
X136113453Y-146102077D01*
X136114776Y-146103028D01*
X136161645Y-146059857D01*
X136231580Y-146047625D01*
X136297026Y-146075144D01*
X136324875Y-146106994D01*
X136384987Y-146205088D01*
X136531250Y-146373938D01*
X136703126Y-146516632D01*
X136896000Y-146629338D01*
X137104692Y-146709030D01*
X137109760Y-146710061D01*
X137109763Y-146710062D01*
X137217017Y-146731883D01*
X137323597Y-146753567D01*
X137328772Y-146753757D01*
X137328774Y-146753757D01*
X137541673Y-146761564D01*
X137541677Y-146761564D01*
X137546837Y-146761753D01*
X137551957Y-146761097D01*
X137551959Y-146761097D01*
X137763288Y-146734025D01*
X137763289Y-146734025D01*
X137768416Y-146733368D01*
X137773366Y-146731883D01*
X137977429Y-146670661D01*
X137977434Y-146670659D01*
X137982384Y-146669174D01*
X138182994Y-146570896D01*
X138364860Y-146441173D01*
X138523096Y-146283489D01*
X138653453Y-146102077D01*
X138674320Y-146059857D01*
X138680475Y-146047404D01*
X143736941Y-146047404D01*
X143737304Y-146051552D01*
X143737304Y-146051556D01*
X143744316Y-146131699D01*
X143763091Y-146346292D01*
X143764001Y-146350364D01*
X143764002Y-146350369D01*
X143822765Y-146613261D01*
X143828540Y-146639095D01*
X143932140Y-146920671D01*
X143934084Y-146924359D01*
X143934088Y-146924367D01*
X144070116Y-147182367D01*
X144072069Y-147186071D01*
X144245871Y-147430633D01*
X144450490Y-147650061D01*
X144682333Y-147840498D01*
X144937325Y-147998600D01*
X145210988Y-148121589D01*
X145385368Y-148173574D01*
X145494514Y-148206112D01*
X145494516Y-148206112D01*
X145498513Y-148207304D01*
X145502633Y-148207957D01*
X145502635Y-148207957D01*
X145621509Y-148226785D01*
X145794848Y-148254239D01*
X145837577Y-148256179D01*
X145887262Y-148258436D01*
X145887281Y-148258436D01*
X145888681Y-148258500D01*
X146076107Y-148258500D01*
X146299370Y-148243671D01*
X146303464Y-148242846D01*
X146303468Y-148242845D01*
X146444513Y-148214405D01*
X146593480Y-148184368D01*
X146877163Y-148086688D01*
X146880896Y-148084819D01*
X146880900Y-148084817D01*
X147141691Y-147954222D01*
X147141693Y-147954221D01*
X147145435Y-147952347D01*
X147393584Y-147783706D01*
X147617248Y-147583726D01*
X147619966Y-147580555D01*
X147809779Y-147359097D01*
X147809782Y-147359093D01*
X147812499Y-147355923D01*
X147814773Y-147352421D01*
X147814777Y-147352416D01*
X147973628Y-147107807D01*
X147973631Y-147107802D01*
X147975907Y-147104297D01*
X148104600Y-146833270D01*
X148125608Y-146767840D01*
X148195038Y-146551591D01*
X148195038Y-146551590D01*
X148196318Y-146547604D01*
X148230016Y-146360316D01*
X148248709Y-146256425D01*
X148248710Y-146256420D01*
X148249448Y-146252316D01*
X148256048Y-146106994D01*
X148262870Y-145956766D01*
X148262870Y-145956760D01*
X148263059Y-145952596D01*
X148259296Y-145909580D01*
X148237273Y-145657870D01*
X148236909Y-145653708D01*
X148195084Y-145466590D01*
X148172372Y-145364984D01*
X148172371Y-145364981D01*
X148171460Y-145360905D01*
X148067860Y-145079329D01*
X148065916Y-145075641D01*
X148065912Y-145075633D01*
X147929884Y-144817633D01*
X147929883Y-144817632D01*
X147927931Y-144813929D01*
X147754129Y-144569367D01*
X147549510Y-144349939D01*
X147317667Y-144159502D01*
X147062675Y-144001400D01*
X146789012Y-143878411D01*
X146575650Y-143814805D01*
X146505486Y-143793888D01*
X146505484Y-143793888D01*
X146501487Y-143792696D01*
X146497367Y-143792043D01*
X146497365Y-143792043D01*
X146378491Y-143773215D01*
X146205152Y-143745761D01*
X146162423Y-143743821D01*
X146112738Y-143741564D01*
X146112719Y-143741564D01*
X146111319Y-143741500D01*
X145923893Y-143741500D01*
X145700630Y-143756329D01*
X145696536Y-143757154D01*
X145696532Y-143757155D01*
X145555487Y-143785595D01*
X145406520Y-143815632D01*
X145122837Y-143913312D01*
X145119104Y-143915181D01*
X145119100Y-143915183D01*
X144866852Y-144041500D01*
X144854565Y-144047653D01*
X144783081Y-144096233D01*
X144694198Y-144156638D01*
X144606416Y-144216294D01*
X144382752Y-144416274D01*
X144380035Y-144419444D01*
X144380034Y-144419445D01*
X144248750Y-144572617D01*
X144187501Y-144644077D01*
X144185227Y-144647579D01*
X144185223Y-144647584D01*
X144074792Y-144817633D01*
X144024093Y-144895703D01*
X144022299Y-144899482D01*
X144022298Y-144899483D01*
X143970218Y-145009164D01*
X143895400Y-145166730D01*
X143894121Y-145170713D01*
X143894120Y-145170716D01*
X143881815Y-145209042D01*
X143803682Y-145452396D01*
X143750552Y-145747684D01*
X143750363Y-145751851D01*
X143750362Y-145751858D01*
X143743500Y-145902965D01*
X143736941Y-146047404D01*
X138680475Y-146047404D01*
X138750136Y-145906453D01*
X138750137Y-145906451D01*
X138752430Y-145901811D01*
X138817370Y-145688069D01*
X138846529Y-145466590D01*
X138848156Y-145400000D01*
X138829852Y-145177361D01*
X138775431Y-144960702D01*
X138686354Y-144755840D01*
X138611998Y-144640903D01*
X138567822Y-144572617D01*
X138567820Y-144572614D01*
X138565014Y-144568277D01*
X138414670Y-144403051D01*
X138410619Y-144399852D01*
X138410615Y-144399848D01*
X138243414Y-144267800D01*
X138243410Y-144267798D01*
X138239359Y-144264598D01*
X138043789Y-144156638D01*
X138038920Y-144154914D01*
X138038916Y-144154912D01*
X137838087Y-144083795D01*
X137838083Y-144083794D01*
X137833212Y-144082069D01*
X137828119Y-144081162D01*
X137828116Y-144081161D01*
X137618373Y-144043800D01*
X137618367Y-144043799D01*
X137613284Y-144042894D01*
X137539452Y-144041992D01*
X137395081Y-144040228D01*
X137395079Y-144040228D01*
X137389911Y-144040165D01*
X137169091Y-144073955D01*
X136956756Y-144143357D01*
X136929970Y-144157301D01*
X136816646Y-144216294D01*
X136758607Y-144246507D01*
X136754474Y-144249610D01*
X136754471Y-144249612D01*
X136624376Y-144347290D01*
X136579965Y-144380635D01*
X136576393Y-144384373D01*
X136468729Y-144497037D01*
X136425629Y-144542138D01*
X136318201Y-144699621D01*
X136263293Y-144744621D01*
X136192768Y-144752792D01*
X136129021Y-144721538D01*
X136108324Y-144697054D01*
X136027822Y-144572617D01*
X136027820Y-144572614D01*
X136025014Y-144568277D01*
X135874670Y-144403051D01*
X135870619Y-144399852D01*
X135870615Y-144399848D01*
X135703414Y-144267800D01*
X135703410Y-144267798D01*
X135699359Y-144264598D01*
X135503789Y-144156638D01*
X135498920Y-144154914D01*
X135498916Y-144154912D01*
X135298087Y-144083795D01*
X135298083Y-144083794D01*
X135293212Y-144082069D01*
X135288119Y-144081162D01*
X135288116Y-144081161D01*
X135078373Y-144043800D01*
X135078367Y-144043799D01*
X135073284Y-144042894D01*
X134999452Y-144041992D01*
X134855081Y-144040228D01*
X134855079Y-144040228D01*
X134849911Y-144040165D01*
X134629091Y-144073955D01*
X134416756Y-144143357D01*
X134389970Y-144157301D01*
X134276646Y-144216294D01*
X134218607Y-144246507D01*
X134214474Y-144249610D01*
X134214471Y-144249612D01*
X134084376Y-144347290D01*
X134039965Y-144380635D01*
X134036393Y-144384373D01*
X133928729Y-144497037D01*
X133885629Y-144542138D01*
X133778201Y-144699621D01*
X133723293Y-144744621D01*
X133652768Y-144752792D01*
X133589021Y-144721538D01*
X133568324Y-144697054D01*
X133487822Y-144572617D01*
X133487820Y-144572614D01*
X133485014Y-144568277D01*
X133334670Y-144403051D01*
X133330619Y-144399852D01*
X133330615Y-144399848D01*
X133163414Y-144267800D01*
X133163410Y-144267798D01*
X133159359Y-144264598D01*
X132963789Y-144156638D01*
X132958920Y-144154914D01*
X132958916Y-144154912D01*
X132758087Y-144083795D01*
X132758083Y-144083794D01*
X132753212Y-144082069D01*
X132748119Y-144081162D01*
X132748116Y-144081161D01*
X132538373Y-144043800D01*
X132538367Y-144043799D01*
X132533284Y-144042894D01*
X132459452Y-144041992D01*
X132315081Y-144040228D01*
X132315079Y-144040228D01*
X132309911Y-144040165D01*
X132089091Y-144073955D01*
X131876756Y-144143357D01*
X131849970Y-144157301D01*
X131736646Y-144216294D01*
X131678607Y-144246507D01*
X131674474Y-144249610D01*
X131674471Y-144249612D01*
X131544376Y-144347290D01*
X131499965Y-144380635D01*
X131496393Y-144384373D01*
X131388729Y-144497037D01*
X131345629Y-144542138D01*
X131238201Y-144699621D01*
X131183293Y-144744621D01*
X131112768Y-144752792D01*
X131049021Y-144721538D01*
X131028324Y-144697054D01*
X130947822Y-144572617D01*
X130947820Y-144572614D01*
X130945014Y-144568277D01*
X130794670Y-144403051D01*
X130790619Y-144399852D01*
X130790615Y-144399848D01*
X130623414Y-144267800D01*
X130623410Y-144267798D01*
X130619359Y-144264598D01*
X130423789Y-144156638D01*
X130418920Y-144154914D01*
X130418916Y-144154912D01*
X130218087Y-144083795D01*
X130218083Y-144083794D01*
X130213212Y-144082069D01*
X130208119Y-144081162D01*
X130208116Y-144081161D01*
X129998373Y-144043800D01*
X129998367Y-144043799D01*
X129993284Y-144042894D01*
X129919452Y-144041992D01*
X129775081Y-144040228D01*
X129775079Y-144040228D01*
X129769911Y-144040165D01*
X129549091Y-144073955D01*
X129336756Y-144143357D01*
X129309970Y-144157301D01*
X129196646Y-144216294D01*
X129138607Y-144246507D01*
X129134474Y-144249610D01*
X129134471Y-144249612D01*
X129004376Y-144347290D01*
X128959965Y-144380635D01*
X128903537Y-144439684D01*
X128879283Y-144465064D01*
X128817759Y-144500494D01*
X128746846Y-144497037D01*
X128689060Y-144455791D01*
X128670207Y-144422243D01*
X128628767Y-144311703D01*
X128625615Y-144303295D01*
X128538261Y-144186739D01*
X128421705Y-144099385D01*
X128285316Y-144048255D01*
X128223134Y-144041500D01*
X126426866Y-144041500D01*
X126364684Y-144048255D01*
X126228295Y-144099385D01*
X126111739Y-144186739D01*
X126024385Y-144303295D01*
X125973255Y-144439684D01*
X125966500Y-144501866D01*
X125966500Y-146298134D01*
X120355267Y-146298134D01*
X120392885Y-146141446D01*
X120394428Y-146131699D01*
X120412275Y-145904930D01*
X120412275Y-145895070D01*
X120394428Y-145668301D01*
X120392885Y-145658554D01*
X120339783Y-145437373D01*
X120336734Y-145427988D01*
X120249687Y-145217837D01*
X120245205Y-145209042D01*
X120142568Y-145041555D01*
X120132110Y-145032093D01*
X120123334Y-145035876D01*
X119272022Y-145887188D01*
X119264408Y-145901132D01*
X118534356Y-145901132D01*
X118535592Y-145898868D01*
X118535461Y-145897035D01*
X118531210Y-145890420D01*
X117679710Y-145038920D01*
X117667330Y-145032160D01*
X117659680Y-145037887D01*
X117554795Y-145209042D01*
X117550313Y-145217837D01*
X117463266Y-145427988D01*
X117460217Y-145437373D01*
X117407115Y-145658554D01*
X117405572Y-145668301D01*
X117387725Y-145895070D01*
X117387725Y-145904930D01*
X113912275Y-145904930D01*
X113912275Y-145895070D01*
X113894428Y-145668301D01*
X113892885Y-145658554D01*
X113839783Y-145437373D01*
X113836734Y-145427988D01*
X113749687Y-145217837D01*
X113745205Y-145209042D01*
X113642568Y-145041555D01*
X113632110Y-145032093D01*
X113623334Y-145035876D01*
X112772022Y-145887188D01*
X112764408Y-145901132D01*
X112034356Y-145901132D01*
X112035592Y-145898868D01*
X112035461Y-145897035D01*
X112031210Y-145890420D01*
X111179710Y-145038920D01*
X111167330Y-145032160D01*
X111159680Y-145037887D01*
X111054795Y-145209042D01*
X111050313Y-145217837D01*
X110963266Y-145427988D01*
X110960217Y-145437373D01*
X110907115Y-145658554D01*
X110905572Y-145668301D01*
X110887725Y-145895070D01*
X110887725Y-145904930D01*
X106258889Y-145904930D01*
X106237273Y-145657870D01*
X106236909Y-145653708D01*
X106195084Y-145466590D01*
X106172372Y-145364984D01*
X106172371Y-145364981D01*
X106171460Y-145360905D01*
X106067860Y-145079329D01*
X106065916Y-145075641D01*
X106065912Y-145075633D01*
X105929884Y-144817633D01*
X105929883Y-144817632D01*
X105927931Y-144813929D01*
X105824146Y-144667890D01*
X111532093Y-144667890D01*
X111535876Y-144676666D01*
X112387188Y-145527978D01*
X112401132Y-145535592D01*
X112402965Y-145535461D01*
X112409580Y-145531210D01*
X113261080Y-144679710D01*
X113267534Y-144667890D01*
X118032093Y-144667890D01*
X118035876Y-144676666D01*
X118887188Y-145527978D01*
X118901132Y-145535592D01*
X118902965Y-145535461D01*
X118909580Y-145531210D01*
X119761080Y-144679710D01*
X119767840Y-144667330D01*
X119762113Y-144659680D01*
X119590958Y-144554795D01*
X119582163Y-144550313D01*
X119372012Y-144463266D01*
X119362627Y-144460217D01*
X119141446Y-144407115D01*
X119131699Y-144405572D01*
X118904930Y-144387725D01*
X118895070Y-144387725D01*
X118668301Y-144405572D01*
X118658554Y-144407115D01*
X118437373Y-144460217D01*
X118427988Y-144463266D01*
X118217837Y-144550313D01*
X118209042Y-144554795D01*
X118041555Y-144657432D01*
X118032093Y-144667890D01*
X113267534Y-144667890D01*
X113267840Y-144667330D01*
X113262113Y-144659680D01*
X113090958Y-144554795D01*
X113082163Y-144550313D01*
X112872012Y-144463266D01*
X112862627Y-144460217D01*
X112641446Y-144407115D01*
X112631699Y-144405572D01*
X112404930Y-144387725D01*
X112395070Y-144387725D01*
X112168301Y-144405572D01*
X112158554Y-144407115D01*
X111937373Y-144460217D01*
X111927988Y-144463266D01*
X111717837Y-144550313D01*
X111709042Y-144554795D01*
X111541555Y-144657432D01*
X111532093Y-144667890D01*
X105824146Y-144667890D01*
X105754129Y-144569367D01*
X105549510Y-144349939D01*
X105317667Y-144159502D01*
X105062675Y-144001400D01*
X104789012Y-143878411D01*
X104575650Y-143814805D01*
X104505486Y-143793888D01*
X104505484Y-143793888D01*
X104501487Y-143792696D01*
X104497367Y-143792043D01*
X104497365Y-143792043D01*
X104378491Y-143773215D01*
X104205152Y-143745761D01*
X104162423Y-143743821D01*
X104112738Y-143741564D01*
X104112719Y-143741564D01*
X104111319Y-143741500D01*
X103923893Y-143741500D01*
X103700630Y-143756329D01*
X103696536Y-143757154D01*
X103696532Y-143757155D01*
X103555487Y-143785595D01*
X103406520Y-143815632D01*
X103122837Y-143913312D01*
X103119104Y-143915181D01*
X103119100Y-143915183D01*
X102866852Y-144041500D01*
X102854565Y-144047653D01*
X102783081Y-144096233D01*
X102694198Y-144156638D01*
X102606416Y-144216294D01*
X102382752Y-144416274D01*
X102380035Y-144419444D01*
X102380034Y-144419445D01*
X102248750Y-144572617D01*
X102187501Y-144644077D01*
X102185227Y-144647579D01*
X102185223Y-144647584D01*
X102074792Y-144817633D01*
X102024093Y-144895703D01*
X102022299Y-144899482D01*
X102022298Y-144899483D01*
X101970218Y-145009164D01*
X101895400Y-145166730D01*
X101894121Y-145170713D01*
X101894120Y-145170716D01*
X101881815Y-145209042D01*
X101803682Y-145452396D01*
X101750552Y-145747684D01*
X101750363Y-145751851D01*
X101750362Y-145751858D01*
X101743500Y-145902965D01*
X101736941Y-146047404D01*
X100508000Y-146047404D01*
X100508000Y-141400000D01*
X110886835Y-141400000D01*
X110905465Y-141636711D01*
X110960895Y-141867594D01*
X111051760Y-142086963D01*
X111054346Y-142091183D01*
X111173241Y-142285202D01*
X111173245Y-142285208D01*
X111175824Y-142289416D01*
X111330031Y-142469969D01*
X111510584Y-142624176D01*
X111514792Y-142626755D01*
X111514798Y-142626759D01*
X111708817Y-142745654D01*
X111713037Y-142748240D01*
X111717607Y-142750133D01*
X111717611Y-142750135D01*
X111927833Y-142837211D01*
X111932406Y-142839105D01*
X112012609Y-142858360D01*
X112158476Y-142893380D01*
X112158482Y-142893381D01*
X112163289Y-142894535D01*
X112400000Y-142913165D01*
X112636711Y-142894535D01*
X112641518Y-142893381D01*
X112641524Y-142893380D01*
X112787391Y-142858360D01*
X112867594Y-142839105D01*
X112872167Y-142837211D01*
X113082389Y-142750135D01*
X113082393Y-142750133D01*
X113086963Y-142748240D01*
X113091183Y-142745654D01*
X113285202Y-142626759D01*
X113285208Y-142626755D01*
X113289416Y-142624176D01*
X113469969Y-142469969D01*
X113624176Y-142289416D01*
X113626755Y-142285208D01*
X113626759Y-142285202D01*
X113745654Y-142091183D01*
X113748240Y-142086963D01*
X113839105Y-141867594D01*
X113894535Y-141636711D01*
X113913165Y-141400000D01*
X117386835Y-141400000D01*
X117405465Y-141636711D01*
X117460895Y-141867594D01*
X117551760Y-142086963D01*
X117554346Y-142091183D01*
X117673241Y-142285202D01*
X117673245Y-142285208D01*
X117675824Y-142289416D01*
X117830031Y-142469969D01*
X118010584Y-142624176D01*
X118014792Y-142626755D01*
X118014798Y-142626759D01*
X118208817Y-142745654D01*
X118213037Y-142748240D01*
X118217607Y-142750133D01*
X118217611Y-142750135D01*
X118427833Y-142837211D01*
X118432406Y-142839105D01*
X118512609Y-142858360D01*
X118658476Y-142893380D01*
X118658482Y-142893381D01*
X118663289Y-142894535D01*
X118900000Y-142913165D01*
X119136711Y-142894535D01*
X119141518Y-142893381D01*
X119141524Y-142893380D01*
X119287391Y-142858360D01*
X119367594Y-142839105D01*
X119372167Y-142837211D01*
X119582389Y-142750135D01*
X119582393Y-142750133D01*
X119586963Y-142748240D01*
X119591183Y-142745654D01*
X119785202Y-142626759D01*
X119785208Y-142626755D01*
X119789416Y-142624176D01*
X119969969Y-142469969D01*
X120124176Y-142289416D01*
X120126755Y-142285208D01*
X120126759Y-142285202D01*
X120245654Y-142091183D01*
X120248240Y-142086963D01*
X120339105Y-141867594D01*
X120394535Y-141636711D01*
X120413165Y-141400000D01*
X120394535Y-141163289D01*
X120339105Y-140932406D01*
X120248240Y-140713037D01*
X120245654Y-140708817D01*
X120126759Y-140514798D01*
X120126755Y-140514792D01*
X120124176Y-140510584D01*
X119969969Y-140330031D01*
X119789416Y-140175824D01*
X119785208Y-140173245D01*
X119785202Y-140173241D01*
X119591183Y-140054346D01*
X119586963Y-140051760D01*
X119582393Y-140049867D01*
X119582389Y-140049865D01*
X119372167Y-139962789D01*
X119372165Y-139962788D01*
X119367594Y-139960895D01*
X119287391Y-139941640D01*
X119141524Y-139906620D01*
X119141518Y-139906619D01*
X119136711Y-139905465D01*
X118900000Y-139886835D01*
X118663289Y-139905465D01*
X118658482Y-139906619D01*
X118658476Y-139906620D01*
X118512609Y-139941640D01*
X118432406Y-139960895D01*
X118427835Y-139962788D01*
X118427833Y-139962789D01*
X118217611Y-140049865D01*
X118217607Y-140049867D01*
X118213037Y-140051760D01*
X118208817Y-140054346D01*
X118014798Y-140173241D01*
X118014792Y-140173245D01*
X118010584Y-140175824D01*
X117830031Y-140330031D01*
X117675824Y-140510584D01*
X117673245Y-140514792D01*
X117673241Y-140514798D01*
X117554346Y-140708817D01*
X117551760Y-140713037D01*
X117460895Y-140932406D01*
X117405465Y-141163289D01*
X117386835Y-141400000D01*
X113913165Y-141400000D01*
X113894535Y-141163289D01*
X113839105Y-140932406D01*
X113748240Y-140713037D01*
X113745654Y-140708817D01*
X113626759Y-140514798D01*
X113626755Y-140514792D01*
X113624176Y-140510584D01*
X113469969Y-140330031D01*
X113289416Y-140175824D01*
X113285208Y-140173245D01*
X113285202Y-140173241D01*
X113091183Y-140054346D01*
X113086963Y-140051760D01*
X113082393Y-140049867D01*
X113082389Y-140049865D01*
X112872167Y-139962789D01*
X112872165Y-139962788D01*
X112867594Y-139960895D01*
X112787391Y-139941640D01*
X112641524Y-139906620D01*
X112641518Y-139906619D01*
X112636711Y-139905465D01*
X112400000Y-139886835D01*
X112163289Y-139905465D01*
X112158482Y-139906619D01*
X112158476Y-139906620D01*
X112012609Y-139941640D01*
X111932406Y-139960895D01*
X111927835Y-139962788D01*
X111927833Y-139962789D01*
X111717611Y-140049865D01*
X111717607Y-140049867D01*
X111713037Y-140051760D01*
X111708817Y-140054346D01*
X111514798Y-140173241D01*
X111514792Y-140173245D01*
X111510584Y-140175824D01*
X111330031Y-140330031D01*
X111175824Y-140510584D01*
X111173245Y-140514792D01*
X111173241Y-140514798D01*
X111054346Y-140708817D01*
X111051760Y-140713037D01*
X110960895Y-140932406D01*
X110905465Y-141163289D01*
X110886835Y-141400000D01*
X100508000Y-141400000D01*
X100508000Y-137750000D01*
X141136835Y-137750000D01*
X141155465Y-137986711D01*
X141210895Y-138217594D01*
X141212788Y-138222165D01*
X141212789Y-138222167D01*
X141299772Y-138432163D01*
X141301760Y-138436963D01*
X141304346Y-138441183D01*
X141423241Y-138635202D01*
X141423245Y-138635208D01*
X141425824Y-138639416D01*
X141580031Y-138819969D01*
X141760584Y-138974176D01*
X141764792Y-138976755D01*
X141764798Y-138976759D01*
X141958084Y-139095205D01*
X141963037Y-139098240D01*
X141967607Y-139100133D01*
X141967611Y-139100135D01*
X142177833Y-139187211D01*
X142182406Y-139189105D01*
X142262609Y-139208360D01*
X142408476Y-139243380D01*
X142408482Y-139243381D01*
X142413289Y-139244535D01*
X142650000Y-139263165D01*
X142886711Y-139244535D01*
X142891518Y-139243381D01*
X142891524Y-139243380D01*
X143037391Y-139208360D01*
X143117594Y-139189105D01*
X143122167Y-139187211D01*
X143332389Y-139100135D01*
X143332393Y-139100133D01*
X143336963Y-139098240D01*
X143341916Y-139095205D01*
X143525556Y-138982670D01*
X146282160Y-138982670D01*
X146287887Y-138990320D01*
X146459042Y-139095205D01*
X146467837Y-139099687D01*
X146677988Y-139186734D01*
X146687373Y-139189783D01*
X146908554Y-139242885D01*
X146918301Y-139244428D01*
X147145070Y-139262275D01*
X147154930Y-139262275D01*
X147381699Y-139244428D01*
X147391446Y-139242885D01*
X147612627Y-139189783D01*
X147622012Y-139186734D01*
X147832163Y-139099687D01*
X147840958Y-139095205D01*
X148008445Y-138992568D01*
X148017907Y-138982110D01*
X148014124Y-138973334D01*
X147162812Y-138122022D01*
X147148868Y-138114408D01*
X147147035Y-138114539D01*
X147140420Y-138118790D01*
X146288920Y-138970290D01*
X146282160Y-138982670D01*
X143525556Y-138982670D01*
X143535202Y-138976759D01*
X143535208Y-138976755D01*
X143539416Y-138974176D01*
X143719969Y-138819969D01*
X143874176Y-138639416D01*
X143876755Y-138635208D01*
X143876759Y-138635202D01*
X143995654Y-138441183D01*
X143998240Y-138436963D01*
X144000229Y-138432163D01*
X144087211Y-138222167D01*
X144087212Y-138222165D01*
X144089105Y-138217594D01*
X144144535Y-137986711D01*
X144162777Y-137754930D01*
X145637725Y-137754930D01*
X145655572Y-137981699D01*
X145657115Y-137991446D01*
X145710217Y-138212627D01*
X145713266Y-138222012D01*
X145800313Y-138432163D01*
X145804795Y-138440958D01*
X145907432Y-138608445D01*
X145917890Y-138617907D01*
X145926666Y-138614124D01*
X146777978Y-137762812D01*
X146784356Y-137751132D01*
X147514408Y-137751132D01*
X147514539Y-137752965D01*
X147518790Y-137759580D01*
X148370290Y-138611080D01*
X148382670Y-138617840D01*
X148390320Y-138612113D01*
X148495205Y-138440958D01*
X148499687Y-138432163D01*
X148586734Y-138222012D01*
X148589783Y-138212627D01*
X148642885Y-137991446D01*
X148644428Y-137981699D01*
X148662275Y-137754930D01*
X148662275Y-137745070D01*
X148644428Y-137518301D01*
X148642885Y-137508554D01*
X148589783Y-137287373D01*
X148586734Y-137277988D01*
X148499687Y-137067837D01*
X148495205Y-137059042D01*
X148392568Y-136891555D01*
X148382110Y-136882093D01*
X148373334Y-136885876D01*
X147522022Y-137737188D01*
X147514408Y-137751132D01*
X146784356Y-137751132D01*
X146785592Y-137748868D01*
X146785461Y-137747035D01*
X146781210Y-137740420D01*
X145929710Y-136888920D01*
X145917330Y-136882160D01*
X145909680Y-136887887D01*
X145804795Y-137059042D01*
X145800313Y-137067837D01*
X145713266Y-137277988D01*
X145710217Y-137287373D01*
X145657115Y-137508554D01*
X145655572Y-137518301D01*
X145637725Y-137745070D01*
X145637725Y-137754930D01*
X144162777Y-137754930D01*
X144163165Y-137750000D01*
X144144535Y-137513289D01*
X144089105Y-137282406D01*
X144087211Y-137277833D01*
X144000135Y-137067611D01*
X144000133Y-137067607D01*
X143998240Y-137063037D01*
X143995654Y-137058817D01*
X143876759Y-136864798D01*
X143876755Y-136864792D01*
X143874176Y-136860584D01*
X143719969Y-136680031D01*
X143539416Y-136525824D01*
X143535208Y-136523245D01*
X143535202Y-136523241D01*
X143526470Y-136517890D01*
X146282093Y-136517890D01*
X146285876Y-136526666D01*
X147137188Y-137377978D01*
X147151132Y-137385592D01*
X147152965Y-137385461D01*
X147159580Y-137381210D01*
X148011080Y-136529710D01*
X148017840Y-136517330D01*
X148012113Y-136509680D01*
X147840958Y-136404795D01*
X147832163Y-136400313D01*
X147622012Y-136313266D01*
X147612627Y-136310217D01*
X147391446Y-136257115D01*
X147381699Y-136255572D01*
X147154930Y-136237725D01*
X147145070Y-136237725D01*
X146918301Y-136255572D01*
X146908554Y-136257115D01*
X146687373Y-136310217D01*
X146677988Y-136313266D01*
X146467837Y-136400313D01*
X146459042Y-136404795D01*
X146291555Y-136507432D01*
X146282093Y-136517890D01*
X143526470Y-136517890D01*
X143341183Y-136404346D01*
X143336963Y-136401760D01*
X143332393Y-136399867D01*
X143332389Y-136399865D01*
X143122167Y-136312789D01*
X143122165Y-136312788D01*
X143117594Y-136310895D01*
X143030689Y-136290031D01*
X142891524Y-136256620D01*
X142891518Y-136256619D01*
X142886711Y-136255465D01*
X142650000Y-136236835D01*
X142413289Y-136255465D01*
X142408482Y-136256619D01*
X142408476Y-136256620D01*
X142269311Y-136290031D01*
X142182406Y-136310895D01*
X142177835Y-136312788D01*
X142177833Y-136312789D01*
X141967611Y-136399865D01*
X141967607Y-136399867D01*
X141963037Y-136401760D01*
X141958817Y-136404346D01*
X141764798Y-136523241D01*
X141764792Y-136523245D01*
X141760584Y-136525824D01*
X141580031Y-136680031D01*
X141425824Y-136860584D01*
X141423245Y-136864792D01*
X141423241Y-136864798D01*
X141304346Y-137058817D01*
X141301760Y-137063037D01*
X141299867Y-137067607D01*
X141299865Y-137067611D01*
X141212789Y-137277833D01*
X141210895Y-137282406D01*
X141155465Y-137513289D01*
X141136835Y-137750000D01*
X100508000Y-137750000D01*
X100508000Y-135286695D01*
X107637251Y-135286695D01*
X107637548Y-135291848D01*
X107637548Y-135291851D01*
X107643011Y-135386590D01*
X107650110Y-135509715D01*
X107651247Y-135514761D01*
X107651248Y-135514767D01*
X107671119Y-135602939D01*
X107699222Y-135727639D01*
X107783266Y-135934616D01*
X107899987Y-136125088D01*
X108046250Y-136293938D01*
X108218126Y-136436632D01*
X108411000Y-136549338D01*
X108619692Y-136629030D01*
X108624760Y-136630061D01*
X108624763Y-136630062D01*
X108732017Y-136651883D01*
X108838597Y-136673567D01*
X108843772Y-136673757D01*
X108843774Y-136673757D01*
X109056673Y-136681564D01*
X109056677Y-136681564D01*
X109061837Y-136681753D01*
X109066957Y-136681097D01*
X109066959Y-136681097D01*
X109278288Y-136654025D01*
X109278289Y-136654025D01*
X109283416Y-136653368D01*
X109288366Y-136651883D01*
X109492429Y-136590661D01*
X109492434Y-136590659D01*
X109497384Y-136589174D01*
X109697994Y-136490896D01*
X109879860Y-136361173D01*
X110038096Y-136203489D01*
X110097594Y-136120689D01*
X110165435Y-136026277D01*
X110168453Y-136022077D01*
X110267430Y-135821811D01*
X110332370Y-135608069D01*
X110361529Y-135386590D01*
X110363156Y-135320000D01*
X110344852Y-135097361D01*
X110290431Y-134880702D01*
X110201354Y-134675840D01*
X110080014Y-134488277D01*
X109929670Y-134323051D01*
X109925619Y-134319852D01*
X109925615Y-134319848D01*
X109758414Y-134187800D01*
X109758410Y-134187798D01*
X109754359Y-134184598D01*
X109712569Y-134161529D01*
X109662598Y-134111097D01*
X109647826Y-134041654D01*
X109672942Y-133975248D01*
X109700294Y-133948641D01*
X109875328Y-133823792D01*
X109883200Y-133817139D01*
X110034052Y-133666812D01*
X110040730Y-133658965D01*
X110165003Y-133486020D01*
X110170313Y-133477183D01*
X110264670Y-133286267D01*
X110268469Y-133276672D01*
X110330377Y-133072910D01*
X110332555Y-133062837D01*
X110333986Y-133051962D01*
X110331775Y-133037778D01*
X110318617Y-133034000D01*
X107683225Y-133034000D01*
X107669694Y-133037973D01*
X107668257Y-133047966D01*
X107698565Y-133182446D01*
X107701645Y-133192275D01*
X107781770Y-133389603D01*
X107786413Y-133398794D01*
X107897694Y-133580388D01*
X107903777Y-133588699D01*
X108043213Y-133749667D01*
X108050580Y-133756883D01*
X108214434Y-133892916D01*
X108222881Y-133898831D01*
X108291969Y-133939203D01*
X108340693Y-133990842D01*
X108353764Y-134060625D01*
X108327033Y-134126396D01*
X108286584Y-134159752D01*
X108273607Y-134166507D01*
X108269474Y-134169610D01*
X108269471Y-134169612D01*
X108245247Y-134187800D01*
X108094965Y-134300635D01*
X107940629Y-134462138D01*
X107814743Y-134646680D01*
X107720688Y-134849305D01*
X107660989Y-135064570D01*
X107637251Y-135286695D01*
X100508000Y-135286695D01*
X100508000Y-130206695D01*
X107637251Y-130206695D01*
X107637548Y-130211848D01*
X107637548Y-130211851D01*
X107643011Y-130306590D01*
X107650110Y-130429715D01*
X107651247Y-130434761D01*
X107651248Y-130434767D01*
X107664034Y-130491500D01*
X107699222Y-130647639D01*
X107783266Y-130854616D01*
X107785965Y-130859020D01*
X107889788Y-131028444D01*
X107899987Y-131045088D01*
X108046250Y-131213938D01*
X108218126Y-131356632D01*
X108281107Y-131393435D01*
X108291955Y-131399774D01*
X108340679Y-131451412D01*
X108353750Y-131521195D01*
X108327019Y-131586967D01*
X108286562Y-131620327D01*
X108278457Y-131624546D01*
X108269738Y-131630036D01*
X108099433Y-131757905D01*
X108091726Y-131764748D01*
X107944590Y-131918717D01*
X107938104Y-131926727D01*
X107818098Y-132102649D01*
X107813000Y-132111623D01*
X107723338Y-132304783D01*
X107719775Y-132314470D01*
X107664389Y-132514183D01*
X107665912Y-132522607D01*
X107678292Y-132526000D01*
X110318344Y-132526000D01*
X110331875Y-132522027D01*
X110333180Y-132512947D01*
X110291214Y-132345875D01*
X110287894Y-132336124D01*
X110202972Y-132140814D01*
X110198105Y-132131739D01*
X110082426Y-131952926D01*
X110076136Y-131944757D01*
X109932806Y-131787240D01*
X109925273Y-131780215D01*
X109758139Y-131648222D01*
X109749556Y-131642520D01*
X109712602Y-131622120D01*
X109662631Y-131571687D01*
X109647859Y-131502245D01*
X109672975Y-131435839D01*
X109700327Y-131409232D01*
X109713270Y-131400000D01*
X125086496Y-131400000D01*
X125087186Y-131406565D01*
X125097971Y-131509174D01*
X125106458Y-131589928D01*
X125165473Y-131771556D01*
X125260960Y-131936944D01*
X125388747Y-132078866D01*
X125543248Y-132191118D01*
X125549276Y-132193802D01*
X125549278Y-132193803D01*
X125711681Y-132266109D01*
X125717712Y-132268794D01*
X125811112Y-132288647D01*
X125898056Y-132307128D01*
X125898061Y-132307128D01*
X125904513Y-132308500D01*
X126095487Y-132308500D01*
X126101939Y-132307128D01*
X126101944Y-132307128D01*
X126188888Y-132288647D01*
X126282288Y-132268794D01*
X126288319Y-132266109D01*
X126450722Y-132193803D01*
X126450724Y-132193802D01*
X126456752Y-132191118D01*
X126611253Y-132078866D01*
X126739040Y-131936944D01*
X126834527Y-131771556D01*
X126893542Y-131589928D01*
X126902030Y-131509174D01*
X126912814Y-131406565D01*
X126913504Y-131400000D01*
X126899085Y-131262812D01*
X126897739Y-131250000D01*
X141136835Y-131250000D01*
X141155465Y-131486711D01*
X141156619Y-131491518D01*
X141156620Y-131491524D01*
X141179534Y-131586967D01*
X141210895Y-131717594D01*
X141212788Y-131722165D01*
X141212789Y-131722167D01*
X141299772Y-131932163D01*
X141301760Y-131936963D01*
X141304346Y-131941183D01*
X141423241Y-132135202D01*
X141423245Y-132135208D01*
X141425824Y-132139416D01*
X141466667Y-132187237D01*
X141570236Y-132308500D01*
X141580031Y-132319969D01*
X141760584Y-132474176D01*
X141764792Y-132476755D01*
X141764798Y-132476759D01*
X141958084Y-132595205D01*
X141963037Y-132598240D01*
X141967607Y-132600133D01*
X141967611Y-132600135D01*
X142177833Y-132687211D01*
X142182406Y-132689105D01*
X142262609Y-132708360D01*
X142408476Y-132743380D01*
X142408482Y-132743381D01*
X142413289Y-132744535D01*
X142650000Y-132763165D01*
X142886711Y-132744535D01*
X142891518Y-132743381D01*
X142891524Y-132743380D01*
X143037391Y-132708360D01*
X143117594Y-132689105D01*
X143122167Y-132687211D01*
X143332389Y-132600135D01*
X143332393Y-132600133D01*
X143336963Y-132598240D01*
X143341916Y-132595205D01*
X143525556Y-132482670D01*
X146282160Y-132482670D01*
X146287887Y-132490320D01*
X146459042Y-132595205D01*
X146467837Y-132599687D01*
X146677988Y-132686734D01*
X146687373Y-132689783D01*
X146908554Y-132742885D01*
X146918301Y-132744428D01*
X147145070Y-132762275D01*
X147154930Y-132762275D01*
X147381699Y-132744428D01*
X147391446Y-132742885D01*
X147612627Y-132689783D01*
X147622012Y-132686734D01*
X147832163Y-132599687D01*
X147840958Y-132595205D01*
X148008445Y-132492568D01*
X148017907Y-132482110D01*
X148014124Y-132473334D01*
X147162812Y-131622022D01*
X147148868Y-131614408D01*
X147147035Y-131614539D01*
X147140420Y-131618790D01*
X146288920Y-132470290D01*
X146282160Y-132482670D01*
X143525556Y-132482670D01*
X143535202Y-132476759D01*
X143535208Y-132476755D01*
X143539416Y-132474176D01*
X143719969Y-132319969D01*
X143729765Y-132308500D01*
X143833333Y-132187237D01*
X143874176Y-132139416D01*
X143876755Y-132135208D01*
X143876759Y-132135202D01*
X143995654Y-131941183D01*
X143998240Y-131936963D01*
X144000229Y-131932163D01*
X144087211Y-131722167D01*
X144087212Y-131722165D01*
X144089105Y-131717594D01*
X144120466Y-131586967D01*
X144143380Y-131491524D01*
X144143381Y-131491518D01*
X144144535Y-131486711D01*
X144162777Y-131254930D01*
X145637725Y-131254930D01*
X145655572Y-131481699D01*
X145657115Y-131491446D01*
X145710217Y-131712627D01*
X145713266Y-131722012D01*
X145800313Y-131932163D01*
X145804795Y-131940958D01*
X145907432Y-132108445D01*
X145917890Y-132117907D01*
X145926666Y-132114124D01*
X146777978Y-131262812D01*
X146784356Y-131251132D01*
X147514408Y-131251132D01*
X147514539Y-131252965D01*
X147518790Y-131259580D01*
X148370290Y-132111080D01*
X148382670Y-132117840D01*
X148390320Y-132112113D01*
X148495205Y-131940958D01*
X148499687Y-131932163D01*
X148586734Y-131722012D01*
X148589783Y-131712627D01*
X148642885Y-131491446D01*
X148644428Y-131481699D01*
X148662275Y-131254930D01*
X148662275Y-131245070D01*
X148644428Y-131018301D01*
X148642885Y-131008554D01*
X148589783Y-130787373D01*
X148586734Y-130777988D01*
X148499687Y-130567837D01*
X148495205Y-130559042D01*
X148392568Y-130391555D01*
X148382110Y-130382093D01*
X148373334Y-130385876D01*
X147522022Y-131237188D01*
X147514408Y-131251132D01*
X146784356Y-131251132D01*
X146785592Y-131248868D01*
X146785461Y-131247035D01*
X146781210Y-131240420D01*
X145929710Y-130388920D01*
X145917330Y-130382160D01*
X145909680Y-130387887D01*
X145804795Y-130559042D01*
X145800313Y-130567837D01*
X145713266Y-130777988D01*
X145710217Y-130787373D01*
X145657115Y-131008554D01*
X145655572Y-131018301D01*
X145637725Y-131245070D01*
X145637725Y-131254930D01*
X144162777Y-131254930D01*
X144163165Y-131250000D01*
X144144535Y-131013289D01*
X144089105Y-130782406D01*
X144065760Y-130726045D01*
X144000135Y-130567611D01*
X144000133Y-130567607D01*
X143998240Y-130563037D01*
X143977893Y-130529834D01*
X143876759Y-130364798D01*
X143876755Y-130364792D01*
X143874176Y-130360584D01*
X143719969Y-130180031D01*
X143539416Y-130025824D01*
X143535208Y-130023245D01*
X143535202Y-130023241D01*
X143526470Y-130017890D01*
X146282093Y-130017890D01*
X146285876Y-130026666D01*
X147137188Y-130877978D01*
X147151132Y-130885592D01*
X147152965Y-130885461D01*
X147159580Y-130881210D01*
X148011080Y-130029710D01*
X148017840Y-130017330D01*
X148012113Y-130009680D01*
X147840958Y-129904795D01*
X147832163Y-129900313D01*
X147622012Y-129813266D01*
X147612627Y-129810217D01*
X147391446Y-129757115D01*
X147381699Y-129755572D01*
X147154930Y-129737725D01*
X147145070Y-129737725D01*
X146918301Y-129755572D01*
X146908554Y-129757115D01*
X146687373Y-129810217D01*
X146677988Y-129813266D01*
X146467837Y-129900313D01*
X146459042Y-129904795D01*
X146291555Y-130007432D01*
X146282093Y-130017890D01*
X143526470Y-130017890D01*
X143341183Y-129904346D01*
X143336963Y-129901760D01*
X143332393Y-129899867D01*
X143332389Y-129899865D01*
X143122167Y-129812789D01*
X143122165Y-129812788D01*
X143117594Y-129810895D01*
X143037391Y-129791640D01*
X142891524Y-129756620D01*
X142891518Y-129756619D01*
X142886711Y-129755465D01*
X142650000Y-129736835D01*
X142413289Y-129755465D01*
X142408482Y-129756619D01*
X142408476Y-129756620D01*
X142262609Y-129791640D01*
X142182406Y-129810895D01*
X142177835Y-129812788D01*
X142177833Y-129812789D01*
X141967611Y-129899865D01*
X141967607Y-129899867D01*
X141963037Y-129901760D01*
X141958817Y-129904346D01*
X141764798Y-130023241D01*
X141764792Y-130023245D01*
X141760584Y-130025824D01*
X141580031Y-130180031D01*
X141425824Y-130360584D01*
X141423245Y-130364792D01*
X141423241Y-130364798D01*
X141322107Y-130529834D01*
X141301760Y-130563037D01*
X141299867Y-130567607D01*
X141299865Y-130567611D01*
X141234240Y-130726045D01*
X141210895Y-130782406D01*
X141155465Y-131013289D01*
X141136835Y-131250000D01*
X126897739Y-131250000D01*
X126894232Y-131216635D01*
X126894232Y-131216633D01*
X126893542Y-131210072D01*
X126834527Y-131028444D01*
X126823044Y-131008554D01*
X126784663Y-130942077D01*
X126739040Y-130863056D01*
X126727131Y-130849829D01*
X126615675Y-130726045D01*
X126615674Y-130726044D01*
X126611253Y-130721134D01*
X126456752Y-130608882D01*
X126450724Y-130606198D01*
X126450722Y-130606197D01*
X126288319Y-130533891D01*
X126288318Y-130533891D01*
X126282288Y-130531206D01*
X126188888Y-130511353D01*
X126101944Y-130492872D01*
X126101939Y-130492872D01*
X126095487Y-130491500D01*
X125904513Y-130491500D01*
X125898061Y-130492872D01*
X125898056Y-130492872D01*
X125811112Y-130511353D01*
X125717712Y-130531206D01*
X125711682Y-130533891D01*
X125711681Y-130533891D01*
X125549278Y-130606197D01*
X125549276Y-130606198D01*
X125543248Y-130608882D01*
X125388747Y-130721134D01*
X125384326Y-130726044D01*
X125384325Y-130726045D01*
X125272870Y-130849829D01*
X125260960Y-130863056D01*
X125215337Y-130942077D01*
X125176957Y-131008554D01*
X125165473Y-131028444D01*
X125106458Y-131210072D01*
X125105768Y-131216633D01*
X125105768Y-131216635D01*
X125100915Y-131262812D01*
X125086496Y-131400000D01*
X109713270Y-131400000D01*
X109723797Y-131392491D01*
X109879860Y-131281173D01*
X109916090Y-131245070D01*
X110034435Y-131127137D01*
X110038096Y-131123489D01*
X110097594Y-131040689D01*
X110165435Y-130946277D01*
X110168453Y-130942077D01*
X110196370Y-130885592D01*
X110265136Y-130746453D01*
X110265137Y-130746451D01*
X110267430Y-130741811D01*
X110332370Y-130528069D01*
X110361529Y-130306590D01*
X110363156Y-130240000D01*
X110344852Y-130017361D01*
X110290431Y-129800702D01*
X110201354Y-129595840D01*
X110080014Y-129408277D01*
X110076532Y-129404450D01*
X109932798Y-129246488D01*
X109901746Y-129182642D01*
X109910141Y-129112143D01*
X109955317Y-129057375D01*
X109981761Y-129043706D01*
X110088297Y-129003767D01*
X110096705Y-129000615D01*
X110213261Y-128913261D01*
X110300615Y-128796705D01*
X110351745Y-128660316D01*
X110358500Y-128598134D01*
X110358500Y-128147966D01*
X145368257Y-128147966D01*
X145398565Y-128282446D01*
X145401645Y-128292275D01*
X145481770Y-128489603D01*
X145486413Y-128498794D01*
X145597694Y-128680388D01*
X145603777Y-128688699D01*
X145743213Y-128849667D01*
X145750580Y-128856883D01*
X145914434Y-128992916D01*
X145922881Y-128998831D01*
X146106756Y-129106279D01*
X146116042Y-129110729D01*
X146315001Y-129186703D01*
X146324899Y-129189579D01*
X146428250Y-129210606D01*
X146442299Y-129209410D01*
X146446000Y-129199065D01*
X146446000Y-129198517D01*
X146954000Y-129198517D01*
X146958064Y-129212359D01*
X146971478Y-129214393D01*
X146978184Y-129213534D01*
X146988262Y-129211392D01*
X147192255Y-129150191D01*
X147201842Y-129146433D01*
X147393095Y-129052739D01*
X147401945Y-129047464D01*
X147575328Y-128923792D01*
X147583200Y-128917139D01*
X147734052Y-128766812D01*
X147740730Y-128758965D01*
X147865003Y-128586020D01*
X147870313Y-128577183D01*
X147964670Y-128386267D01*
X147968469Y-128376672D01*
X148030377Y-128172910D01*
X148032555Y-128162837D01*
X148033986Y-128151962D01*
X148031775Y-128137778D01*
X148018617Y-128134000D01*
X146972115Y-128134000D01*
X146956876Y-128138475D01*
X146955671Y-128139865D01*
X146954000Y-128147548D01*
X146954000Y-129198517D01*
X146446000Y-129198517D01*
X146446000Y-128152115D01*
X146441525Y-128136876D01*
X146440135Y-128135671D01*
X146432452Y-128134000D01*
X145383225Y-128134000D01*
X145369694Y-128137973D01*
X145368257Y-128147966D01*
X110358500Y-128147966D01*
X110358500Y-126801866D01*
X110351745Y-126739684D01*
X110300615Y-126603295D01*
X110213261Y-126486739D01*
X110096705Y-126399385D01*
X109960316Y-126348255D01*
X109898134Y-126341500D01*
X108101866Y-126341500D01*
X108039684Y-126348255D01*
X107903295Y-126399385D01*
X107786739Y-126486739D01*
X107699385Y-126603295D01*
X107648255Y-126739684D01*
X107641500Y-126801866D01*
X107641500Y-128598134D01*
X107648255Y-128660316D01*
X107699385Y-128796705D01*
X107786739Y-128913261D01*
X107903295Y-129000615D01*
X107911704Y-129003767D01*
X107911705Y-129003768D01*
X108020451Y-129044535D01*
X108077216Y-129087176D01*
X108101916Y-129153738D01*
X108086709Y-129223087D01*
X108067316Y-129249568D01*
X107940629Y-129382138D01*
X107814743Y-129566680D01*
X107799003Y-129600590D01*
X107727063Y-129755572D01*
X107720688Y-129769305D01*
X107660989Y-129984570D01*
X107637251Y-130206695D01*
X100508000Y-130206695D01*
X100508000Y-125306695D01*
X145337251Y-125306695D01*
X145337548Y-125311848D01*
X145337548Y-125311851D01*
X145343011Y-125406590D01*
X145350110Y-125529715D01*
X145351247Y-125534761D01*
X145351248Y-125534767D01*
X145371119Y-125622939D01*
X145399222Y-125747639D01*
X145483266Y-125954616D01*
X145599987Y-126145088D01*
X145746250Y-126313938D01*
X145918126Y-126456632D01*
X145960440Y-126481358D01*
X145991955Y-126499774D01*
X146040679Y-126551412D01*
X146053750Y-126621195D01*
X146027019Y-126686967D01*
X145986562Y-126720327D01*
X145978457Y-126724546D01*
X145969738Y-126730036D01*
X145799433Y-126857905D01*
X145791726Y-126864748D01*
X145644590Y-127018717D01*
X145638104Y-127026727D01*
X145518098Y-127202649D01*
X145513000Y-127211623D01*
X145423338Y-127404783D01*
X145419775Y-127414470D01*
X145364389Y-127614183D01*
X145365912Y-127622607D01*
X145378292Y-127626000D01*
X148018344Y-127626000D01*
X148031875Y-127622027D01*
X148033180Y-127612947D01*
X147991214Y-127445875D01*
X147987894Y-127436124D01*
X147902972Y-127240814D01*
X147898105Y-127231739D01*
X147782426Y-127052926D01*
X147776136Y-127044757D01*
X147632806Y-126887240D01*
X147625273Y-126880215D01*
X147458139Y-126748222D01*
X147449556Y-126742520D01*
X147412602Y-126722120D01*
X147362631Y-126671687D01*
X147347859Y-126602245D01*
X147372975Y-126535839D01*
X147400327Y-126509232D01*
X147439405Y-126481358D01*
X147579860Y-126381173D01*
X147738096Y-126223489D01*
X147797594Y-126140689D01*
X147865435Y-126046277D01*
X147868453Y-126042077D01*
X147967430Y-125841811D01*
X148032370Y-125628069D01*
X148061529Y-125406590D01*
X148063156Y-125340000D01*
X148044852Y-125117361D01*
X147990431Y-124900702D01*
X147901354Y-124695840D01*
X147861906Y-124634862D01*
X147782822Y-124512617D01*
X147782820Y-124512614D01*
X147780014Y-124508277D01*
X147629670Y-124343051D01*
X147625619Y-124339852D01*
X147625615Y-124339848D01*
X147458414Y-124207800D01*
X147458410Y-124207798D01*
X147454359Y-124204598D01*
X147413053Y-124181796D01*
X147363084Y-124131364D01*
X147348312Y-124061921D01*
X147373428Y-123995516D01*
X147400780Y-123968909D01*
X147444603Y-123937650D01*
X147579860Y-123841173D01*
X147624985Y-123796206D01*
X147734435Y-123687137D01*
X147738096Y-123683489D01*
X147797594Y-123600689D01*
X147865435Y-123506277D01*
X147868453Y-123502077D01*
X147910678Y-123416642D01*
X147965136Y-123306453D01*
X147965137Y-123306451D01*
X147967430Y-123301811D01*
X148032370Y-123088069D01*
X148061529Y-122866590D01*
X148063156Y-122800000D01*
X148044852Y-122577361D01*
X147990431Y-122360702D01*
X147901354Y-122155840D01*
X147780014Y-121968277D01*
X147629670Y-121803051D01*
X147625619Y-121799852D01*
X147625615Y-121799848D01*
X147458414Y-121667800D01*
X147458410Y-121667798D01*
X147454359Y-121664598D01*
X147413053Y-121641796D01*
X147363084Y-121591364D01*
X147348312Y-121521921D01*
X147373428Y-121455516D01*
X147400780Y-121428909D01*
X147444603Y-121397650D01*
X147579860Y-121301173D01*
X147738096Y-121143489D01*
X147797594Y-121060689D01*
X147865435Y-120966277D01*
X147868453Y-120962077D01*
X147967430Y-120761811D01*
X148032370Y-120548069D01*
X148061529Y-120326590D01*
X148063156Y-120260000D01*
X148044852Y-120037361D01*
X147990431Y-119820702D01*
X147901354Y-119615840D01*
X147780014Y-119428277D01*
X147629670Y-119263051D01*
X147625619Y-119259852D01*
X147625615Y-119259848D01*
X147458414Y-119127800D01*
X147458410Y-119127798D01*
X147454359Y-119124598D01*
X147413053Y-119101796D01*
X147363084Y-119051364D01*
X147348312Y-118981921D01*
X147373428Y-118915516D01*
X147400780Y-118888909D01*
X147444603Y-118857650D01*
X147579860Y-118761173D01*
X147738096Y-118603489D01*
X147797594Y-118520689D01*
X147865435Y-118426277D01*
X147868453Y-118422077D01*
X147920829Y-118316103D01*
X147965136Y-118226453D01*
X147965137Y-118226451D01*
X147967430Y-118221811D01*
X148032370Y-118008069D01*
X148061529Y-117786590D01*
X148061611Y-117783240D01*
X148063074Y-117723365D01*
X148063074Y-117723361D01*
X148063156Y-117720000D01*
X148044852Y-117497361D01*
X147990431Y-117280702D01*
X147901354Y-117075840D01*
X147780014Y-116888277D01*
X147629670Y-116723051D01*
X147625619Y-116719852D01*
X147625615Y-116719848D01*
X147458414Y-116587800D01*
X147458410Y-116587798D01*
X147454359Y-116584598D01*
X147413053Y-116561796D01*
X147363084Y-116511364D01*
X147348312Y-116441921D01*
X147373428Y-116375516D01*
X147400780Y-116348909D01*
X147470223Y-116299376D01*
X147579860Y-116221173D01*
X147738096Y-116063489D01*
X147797594Y-115980689D01*
X147865435Y-115886277D01*
X147868453Y-115882077D01*
X147914702Y-115788500D01*
X147965136Y-115686453D01*
X147965137Y-115686451D01*
X147967430Y-115681811D01*
X148032370Y-115468069D01*
X148061529Y-115246590D01*
X148063156Y-115180000D01*
X148044852Y-114957361D01*
X147990431Y-114740702D01*
X147901354Y-114535840D01*
X147843784Y-114446851D01*
X147782822Y-114352617D01*
X147782820Y-114352614D01*
X147780014Y-114348277D01*
X147629670Y-114183051D01*
X147625619Y-114179852D01*
X147625615Y-114179848D01*
X147458414Y-114047800D01*
X147458410Y-114047798D01*
X147454359Y-114044598D01*
X147413053Y-114021796D01*
X147363084Y-113971364D01*
X147348312Y-113901921D01*
X147373428Y-113835516D01*
X147400780Y-113808909D01*
X147469537Y-113759865D01*
X147579860Y-113681173D01*
X147738096Y-113523489D01*
X147754975Y-113500000D01*
X147865435Y-113346277D01*
X147868453Y-113342077D01*
X147900438Y-113277361D01*
X147965136Y-113146453D01*
X147965137Y-113146451D01*
X147967430Y-113141811D01*
X148032370Y-112928069D01*
X148061529Y-112706590D01*
X148062465Y-112668277D01*
X148063074Y-112643365D01*
X148063074Y-112643361D01*
X148063156Y-112640000D01*
X148044852Y-112417361D01*
X147990431Y-112200702D01*
X147901354Y-111995840D01*
X147780014Y-111808277D01*
X147776532Y-111804450D01*
X147632798Y-111646488D01*
X147601746Y-111582642D01*
X147610141Y-111512143D01*
X147655317Y-111457375D01*
X147681761Y-111443706D01*
X147788297Y-111403767D01*
X147796705Y-111400615D01*
X147913261Y-111313261D01*
X148000615Y-111196705D01*
X148051745Y-111060316D01*
X148058500Y-110998134D01*
X148058500Y-109201866D01*
X148051745Y-109139684D01*
X148000615Y-109003295D01*
X147913261Y-108886739D01*
X147796705Y-108799385D01*
X147660316Y-108748255D01*
X147598134Y-108741500D01*
X145801866Y-108741500D01*
X145739684Y-108748255D01*
X145603295Y-108799385D01*
X145486739Y-108886739D01*
X145399385Y-109003295D01*
X145348255Y-109139684D01*
X145341500Y-109201866D01*
X145341500Y-110998134D01*
X145348255Y-111060316D01*
X145399385Y-111196705D01*
X145486739Y-111313261D01*
X145603295Y-111400615D01*
X145611704Y-111403767D01*
X145611705Y-111403768D01*
X145720451Y-111444535D01*
X145777216Y-111487176D01*
X145801916Y-111553738D01*
X145786709Y-111623087D01*
X145767316Y-111649568D01*
X145640629Y-111782138D01*
X145514743Y-111966680D01*
X145499003Y-112000590D01*
X145427074Y-112155548D01*
X145420688Y-112169305D01*
X145360989Y-112384570D01*
X145337251Y-112606695D01*
X145337548Y-112611848D01*
X145337548Y-112611851D01*
X145343011Y-112706590D01*
X145350110Y-112829715D01*
X145351247Y-112834761D01*
X145351248Y-112834767D01*
X145371119Y-112922939D01*
X145399222Y-113047639D01*
X145437461Y-113141811D01*
X145481273Y-113249707D01*
X145483266Y-113254616D01*
X145599987Y-113445088D01*
X145746250Y-113613938D01*
X145918126Y-113756632D01*
X145965817Y-113784500D01*
X145991445Y-113799476D01*
X146040169Y-113851114D01*
X146053240Y-113920897D01*
X146026509Y-113986669D01*
X145986055Y-114020027D01*
X145973607Y-114026507D01*
X145969474Y-114029610D01*
X145969471Y-114029612D01*
X145799100Y-114157530D01*
X145794965Y-114160635D01*
X145791393Y-114164373D01*
X145653194Y-114308990D01*
X145640629Y-114322138D01*
X145514743Y-114506680D01*
X145476971Y-114588054D01*
X145459211Y-114626315D01*
X145420688Y-114709305D01*
X145360989Y-114924570D01*
X145337251Y-115146695D01*
X145337548Y-115151848D01*
X145337548Y-115151851D01*
X145343011Y-115246590D01*
X145350110Y-115369715D01*
X145351247Y-115374761D01*
X145351248Y-115374767D01*
X145371119Y-115462939D01*
X145399222Y-115587639D01*
X145437461Y-115681811D01*
X145480783Y-115788500D01*
X145483266Y-115794616D01*
X145599987Y-115985088D01*
X145746250Y-116153938D01*
X145918126Y-116296632D01*
X145988595Y-116337811D01*
X145991445Y-116339476D01*
X146040169Y-116391114D01*
X146053240Y-116460897D01*
X146026509Y-116526669D01*
X145986055Y-116560027D01*
X145973607Y-116566507D01*
X145969474Y-116569610D01*
X145969471Y-116569612D01*
X145799100Y-116697530D01*
X145794965Y-116700635D01*
X145640629Y-116862138D01*
X145514743Y-117046680D01*
X145467715Y-117147993D01*
X145424420Y-117241266D01*
X145420688Y-117249305D01*
X145360989Y-117464570D01*
X145337251Y-117686695D01*
X145337548Y-117691848D01*
X145337548Y-117691851D01*
X145343011Y-117786590D01*
X145350110Y-117909715D01*
X145351247Y-117914761D01*
X145351248Y-117914767D01*
X145372275Y-118008069D01*
X145399222Y-118127639D01*
X145448087Y-118247980D01*
X145468495Y-118298238D01*
X145483266Y-118334616D01*
X145485965Y-118339020D01*
X145586216Y-118502615D01*
X145599987Y-118525088D01*
X145746250Y-118693938D01*
X145918126Y-118836632D01*
X145988595Y-118877811D01*
X145991445Y-118879476D01*
X146040169Y-118931114D01*
X146053240Y-119000897D01*
X146026509Y-119066669D01*
X145986055Y-119100027D01*
X145973607Y-119106507D01*
X145969474Y-119109610D01*
X145969471Y-119109612D01*
X145945247Y-119127800D01*
X145794965Y-119240635D01*
X145640629Y-119402138D01*
X145637715Y-119406410D01*
X145637714Y-119406411D01*
X145552556Y-119531249D01*
X145514743Y-119586680D01*
X145420688Y-119789305D01*
X145360989Y-120004570D01*
X145337251Y-120226695D01*
X145337548Y-120231848D01*
X145337548Y-120231851D01*
X145343011Y-120326590D01*
X145350110Y-120449715D01*
X145351247Y-120454761D01*
X145351248Y-120454767D01*
X145371119Y-120542939D01*
X145399222Y-120667639D01*
X145483266Y-120874616D01*
X145485965Y-120879020D01*
X145566259Y-121010048D01*
X145599987Y-121065088D01*
X145746250Y-121233938D01*
X145918126Y-121376632D01*
X145988595Y-121417811D01*
X145991445Y-121419476D01*
X146040169Y-121471114D01*
X146053240Y-121540897D01*
X146026509Y-121606669D01*
X145986055Y-121640027D01*
X145973607Y-121646507D01*
X145969474Y-121649610D01*
X145969471Y-121649612D01*
X145799100Y-121777530D01*
X145794965Y-121780635D01*
X145640629Y-121942138D01*
X145514743Y-122126680D01*
X145420688Y-122329305D01*
X145360989Y-122544570D01*
X145337251Y-122766695D01*
X145337548Y-122771848D01*
X145337548Y-122771851D01*
X145343008Y-122866538D01*
X145350110Y-122989715D01*
X145351247Y-122994761D01*
X145351248Y-122994767D01*
X145365532Y-123058148D01*
X145399222Y-123207639D01*
X145437461Y-123301811D01*
X145480938Y-123408882D01*
X145483266Y-123414616D01*
X145485965Y-123419020D01*
X145551550Y-123526045D01*
X145599987Y-123605088D01*
X145746250Y-123773938D01*
X145918126Y-123916632D01*
X145988595Y-123957811D01*
X145991445Y-123959476D01*
X146040169Y-124011114D01*
X146053240Y-124080897D01*
X146026509Y-124146669D01*
X145986055Y-124180027D01*
X145973607Y-124186507D01*
X145969474Y-124189610D01*
X145969471Y-124189612D01*
X145799100Y-124317530D01*
X145794965Y-124320635D01*
X145640629Y-124482138D01*
X145637715Y-124486410D01*
X145637714Y-124486411D01*
X145579632Y-124571556D01*
X145514743Y-124666680D01*
X145420688Y-124869305D01*
X145360989Y-125084570D01*
X145337251Y-125306695D01*
X100508000Y-125306695D01*
X100508000Y-124200000D01*
X136386496Y-124200000D01*
X136406458Y-124389928D01*
X136465473Y-124571556D01*
X136560960Y-124736944D01*
X136688747Y-124878866D01*
X136843248Y-124991118D01*
X136849276Y-124993802D01*
X136849278Y-124993803D01*
X137011681Y-125066109D01*
X137017712Y-125068794D01*
X137091932Y-125084570D01*
X137198056Y-125107128D01*
X137198061Y-125107128D01*
X137204513Y-125108500D01*
X137395487Y-125108500D01*
X137401939Y-125107128D01*
X137401944Y-125107128D01*
X137508068Y-125084570D01*
X137582288Y-125068794D01*
X137588319Y-125066109D01*
X137750722Y-124993803D01*
X137750724Y-124993802D01*
X137756752Y-124991118D01*
X137911253Y-124878866D01*
X138039040Y-124736944D01*
X138134527Y-124571556D01*
X138193542Y-124389928D01*
X138194233Y-124383358D01*
X138195425Y-124372022D01*
X138222439Y-124306366D01*
X138280662Y-124265738D01*
X138351607Y-124263037D01*
X138394794Y-124283260D01*
X138543248Y-124391118D01*
X138549276Y-124393802D01*
X138549278Y-124393803D01*
X138711681Y-124466109D01*
X138717712Y-124468794D01*
X138800593Y-124486411D01*
X138898056Y-124507128D01*
X138898061Y-124507128D01*
X138904513Y-124508500D01*
X139095487Y-124508500D01*
X139101939Y-124507128D01*
X139101944Y-124507128D01*
X139199407Y-124486411D01*
X139282288Y-124468794D01*
X139288319Y-124466109D01*
X139450722Y-124393803D01*
X139450724Y-124393802D01*
X139456752Y-124391118D01*
X139611253Y-124278866D01*
X139615675Y-124273955D01*
X139734621Y-124141852D01*
X139734622Y-124141851D01*
X139739040Y-124136944D01*
X139834527Y-123971556D01*
X139893542Y-123789928D01*
X139907393Y-123658148D01*
X139912814Y-123606565D01*
X139913504Y-123600000D01*
X139904753Y-123516740D01*
X139894232Y-123416635D01*
X139894232Y-123416633D01*
X139893542Y-123410072D01*
X139834527Y-123228444D01*
X139825279Y-123212425D01*
X139742341Y-123068774D01*
X139739040Y-123063056D01*
X139682715Y-123000500D01*
X139615675Y-122926045D01*
X139615674Y-122926044D01*
X139611253Y-122921134D01*
X139456752Y-122808882D01*
X139450724Y-122806198D01*
X139450722Y-122806197D01*
X139288319Y-122733891D01*
X139288318Y-122733891D01*
X139282288Y-122731206D01*
X139188887Y-122711353D01*
X139101944Y-122692872D01*
X139101939Y-122692872D01*
X139095487Y-122691500D01*
X138904513Y-122691500D01*
X138898061Y-122692872D01*
X138898056Y-122692872D01*
X138811113Y-122711353D01*
X138717712Y-122731206D01*
X138711682Y-122733891D01*
X138711681Y-122733891D01*
X138549278Y-122806197D01*
X138549276Y-122806198D01*
X138543248Y-122808882D01*
X138388747Y-122921134D01*
X138384326Y-122926044D01*
X138384325Y-122926045D01*
X138317286Y-123000500D01*
X138260960Y-123063056D01*
X138257659Y-123068774D01*
X138174722Y-123212425D01*
X138165473Y-123228444D01*
X138106458Y-123410072D01*
X138105768Y-123416635D01*
X138105767Y-123416642D01*
X138104575Y-123427978D01*
X138077561Y-123493634D01*
X138019338Y-123534262D01*
X137948393Y-123536963D01*
X137905205Y-123516740D01*
X137762094Y-123412763D01*
X137762093Y-123412762D01*
X137756752Y-123408882D01*
X137750724Y-123406198D01*
X137750722Y-123406197D01*
X137588319Y-123333891D01*
X137588318Y-123333891D01*
X137582288Y-123331206D01*
X137488888Y-123311353D01*
X137401944Y-123292872D01*
X137401939Y-123292872D01*
X137395487Y-123291500D01*
X137204513Y-123291500D01*
X137198061Y-123292872D01*
X137198056Y-123292872D01*
X137111112Y-123311353D01*
X137017712Y-123331206D01*
X137011682Y-123333891D01*
X137011681Y-123333891D01*
X136849278Y-123406197D01*
X136849276Y-123406198D01*
X136843248Y-123408882D01*
X136688747Y-123521134D01*
X136684326Y-123526044D01*
X136684325Y-123526045D01*
X136613155Y-123605088D01*
X136560960Y-123663056D01*
X136465473Y-123828444D01*
X136406458Y-124010072D01*
X136405768Y-124016633D01*
X136405768Y-124016635D01*
X136392101Y-124146669D01*
X136386496Y-124200000D01*
X100508000Y-124200000D01*
X100508000Y-121708131D01*
X108742000Y-121708131D01*
X108742091Y-121711516D01*
X108744882Y-121763045D01*
X108745955Y-121771689D01*
X108789080Y-121992518D01*
X108791994Y-122002746D01*
X108871364Y-122212240D01*
X108875962Y-122221838D01*
X108989493Y-122414960D01*
X108995646Y-122423649D01*
X109140101Y-122594892D01*
X109147608Y-122602399D01*
X109318851Y-122746854D01*
X109327540Y-122753007D01*
X109520662Y-122866538D01*
X109530260Y-122871136D01*
X109739754Y-122950506D01*
X109749982Y-122953420D01*
X109970811Y-122996545D01*
X109979455Y-122997618D01*
X110030984Y-123000409D01*
X110034369Y-123000500D01*
X110727885Y-123000500D01*
X110743124Y-122996025D01*
X110744329Y-122994635D01*
X110746000Y-122986952D01*
X110746000Y-122982385D01*
X111254000Y-122982385D01*
X111258475Y-122997624D01*
X111259865Y-122998829D01*
X111267548Y-123000500D01*
X111965631Y-123000500D01*
X111969016Y-123000409D01*
X112020545Y-122997618D01*
X112029189Y-122996545D01*
X112250018Y-122953420D01*
X112260246Y-122950506D01*
X112469740Y-122871136D01*
X112479338Y-122866538D01*
X112672460Y-122753007D01*
X112681149Y-122746854D01*
X112852392Y-122602399D01*
X112859899Y-122594892D01*
X113004354Y-122423649D01*
X113010507Y-122414960D01*
X113124038Y-122221838D01*
X113128636Y-122212240D01*
X113208006Y-122002746D01*
X113210920Y-121992518D01*
X113254045Y-121771689D01*
X113255118Y-121763045D01*
X113257909Y-121711516D01*
X113258000Y-121708131D01*
X113258000Y-121014615D01*
X113253525Y-120999376D01*
X113252135Y-120998171D01*
X113244452Y-120996500D01*
X111272115Y-120996500D01*
X111256876Y-121000975D01*
X111255671Y-121002365D01*
X111254000Y-121010048D01*
X111254000Y-122982385D01*
X110746000Y-122982385D01*
X110746000Y-121014615D01*
X110741525Y-120999376D01*
X110740135Y-120998171D01*
X110732452Y-120996500D01*
X108760115Y-120996500D01*
X108744876Y-121000975D01*
X108743671Y-121002365D01*
X108742000Y-121010048D01*
X108742000Y-121708131D01*
X100508000Y-121708131D01*
X100508000Y-120470385D01*
X108742000Y-120470385D01*
X108746475Y-120485624D01*
X108747865Y-120486829D01*
X108755548Y-120488500D01*
X110727885Y-120488500D01*
X110743124Y-120484025D01*
X110744329Y-120482635D01*
X110746000Y-120474952D01*
X110746000Y-120470385D01*
X111254000Y-120470385D01*
X111258475Y-120485624D01*
X111259865Y-120486829D01*
X111267548Y-120488500D01*
X113239885Y-120488500D01*
X113255124Y-120484025D01*
X113256329Y-120482635D01*
X113258000Y-120474952D01*
X113258000Y-119776870D01*
X113257909Y-119773484D01*
X113255118Y-119721955D01*
X113254045Y-119713311D01*
X113210920Y-119492482D01*
X113208006Y-119482254D01*
X113128636Y-119272760D01*
X113124038Y-119263162D01*
X113010507Y-119070040D01*
X113004354Y-119061351D01*
X112859899Y-118890108D01*
X112852392Y-118882601D01*
X112681149Y-118738146D01*
X112672460Y-118731993D01*
X112479338Y-118618462D01*
X112469740Y-118613864D01*
X112287520Y-118544827D01*
X112230904Y-118501988D01*
X112206436Y-118435341D01*
X112221885Y-118366045D01*
X112272345Y-118316103D01*
X112332160Y-118301000D01*
X115798134Y-118301000D01*
X115860316Y-118294245D01*
X115996705Y-118243115D01*
X116113261Y-118155761D01*
X116200615Y-118039205D01*
X116251745Y-117902816D01*
X116258500Y-117840634D01*
X116258500Y-117400000D01*
X136486496Y-117400000D01*
X136506458Y-117589928D01*
X136565473Y-117771556D01*
X136568776Y-117777278D01*
X136568777Y-117777279D01*
X136602686Y-117836010D01*
X136660960Y-117936944D01*
X136665378Y-117941851D01*
X136665379Y-117941852D01*
X136753036Y-118039205D01*
X136788747Y-118078866D01*
X136943248Y-118191118D01*
X136949276Y-118193802D01*
X136949278Y-118193803D01*
X137111681Y-118266109D01*
X137117712Y-118268794D01*
X137181648Y-118282384D01*
X137298056Y-118307128D01*
X137298061Y-118307128D01*
X137304513Y-118308500D01*
X137495487Y-118308500D01*
X137501939Y-118307128D01*
X137501944Y-118307128D01*
X137618352Y-118282384D01*
X137682288Y-118268794D01*
X137688319Y-118266109D01*
X137850722Y-118193803D01*
X137850724Y-118193802D01*
X137856752Y-118191118D01*
X138011253Y-118078866D01*
X138046964Y-118039205D01*
X138134621Y-117941852D01*
X138134622Y-117941851D01*
X138139040Y-117936944D01*
X138197314Y-117836010D01*
X138231223Y-117777279D01*
X138231224Y-117777278D01*
X138234527Y-117771556D01*
X138293542Y-117589928D01*
X138313504Y-117400000D01*
X138301493Y-117285720D01*
X138294232Y-117216635D01*
X138294232Y-117216633D01*
X138293542Y-117210072D01*
X138234527Y-117028444D01*
X138139040Y-116863056D01*
X138011253Y-116721134D01*
X137856752Y-116608882D01*
X137850724Y-116606198D01*
X137850722Y-116606197D01*
X137688319Y-116533891D01*
X137688318Y-116533891D01*
X137682288Y-116531206D01*
X137588888Y-116511353D01*
X137501944Y-116492872D01*
X137501939Y-116492872D01*
X137495487Y-116491500D01*
X137304513Y-116491500D01*
X137298061Y-116492872D01*
X137298056Y-116492872D01*
X137211112Y-116511353D01*
X137117712Y-116531206D01*
X137111682Y-116533891D01*
X137111681Y-116533891D01*
X136949278Y-116606197D01*
X136949276Y-116606198D01*
X136943248Y-116608882D01*
X136788747Y-116721134D01*
X136660960Y-116863056D01*
X136565473Y-117028444D01*
X136506458Y-117210072D01*
X136505768Y-117216633D01*
X136505768Y-117216635D01*
X136498507Y-117285720D01*
X136486496Y-117400000D01*
X116258500Y-117400000D01*
X116258500Y-114244366D01*
X116251745Y-114182184D01*
X116200615Y-114045795D01*
X116113261Y-113929239D01*
X115996705Y-113841885D01*
X115860316Y-113790755D01*
X115798134Y-113784000D01*
X112201866Y-113784000D01*
X112139684Y-113790755D01*
X112003295Y-113841885D01*
X111886739Y-113929239D01*
X111799385Y-114045795D01*
X111748255Y-114182184D01*
X111741500Y-114244366D01*
X111741500Y-117840634D01*
X111748255Y-117902816D01*
X111799385Y-118039205D01*
X111886739Y-118155761D01*
X112003295Y-118243115D01*
X112011700Y-118246266D01*
X112014831Y-118247980D01*
X112064977Y-118298238D01*
X112079991Y-118367629D01*
X112055106Y-118434122D01*
X111998222Y-118476605D01*
X111954322Y-118484500D01*
X111272115Y-118484500D01*
X111256876Y-118488975D01*
X111255671Y-118490365D01*
X111254000Y-118498048D01*
X111254000Y-120470385D01*
X110746000Y-120470385D01*
X110746000Y-118502615D01*
X110741525Y-118487376D01*
X110740135Y-118486171D01*
X110732452Y-118484500D01*
X110034370Y-118484500D01*
X110030984Y-118484591D01*
X109979455Y-118487382D01*
X109970811Y-118488455D01*
X109749982Y-118531580D01*
X109739754Y-118534494D01*
X109530260Y-118613864D01*
X109520662Y-118618462D01*
X109327540Y-118731993D01*
X109318851Y-118738146D01*
X109147608Y-118882601D01*
X109140101Y-118890108D01*
X108995646Y-119061351D01*
X108989493Y-119070040D01*
X108875962Y-119263162D01*
X108871364Y-119272760D01*
X108791994Y-119482254D01*
X108789080Y-119492482D01*
X108745955Y-119713311D01*
X108744882Y-119721955D01*
X108742091Y-119773484D01*
X108742000Y-119776870D01*
X108742000Y-120470385D01*
X100508000Y-120470385D01*
X100508000Y-117102461D01*
X105992001Y-117102461D01*
X105992209Y-117107571D01*
X106003082Y-117241267D01*
X106004852Y-117251820D01*
X106057967Y-117458685D01*
X106061701Y-117469231D01*
X106150510Y-117663205D01*
X106156046Y-117672912D01*
X106277803Y-117848097D01*
X106284976Y-117856676D01*
X106435824Y-118007524D01*
X106444403Y-118014697D01*
X106619588Y-118136454D01*
X106629295Y-118141990D01*
X106823269Y-118230799D01*
X106833815Y-118234533D01*
X107040679Y-118287647D01*
X107051234Y-118289418D01*
X107184930Y-118300293D01*
X107190036Y-118300500D01*
X107727885Y-118300500D01*
X107743124Y-118296025D01*
X107744329Y-118294635D01*
X107746000Y-118286952D01*
X107746000Y-118282384D01*
X108254000Y-118282384D01*
X108258475Y-118297623D01*
X108259865Y-118298828D01*
X108267548Y-118300499D01*
X108809961Y-118300499D01*
X108815071Y-118300291D01*
X108948767Y-118289418D01*
X108959320Y-118287648D01*
X109166185Y-118234533D01*
X109176731Y-118230799D01*
X109370705Y-118141990D01*
X109380412Y-118136454D01*
X109555597Y-118014697D01*
X109564176Y-118007524D01*
X109715024Y-117856676D01*
X109722197Y-117848097D01*
X109843954Y-117672912D01*
X109849490Y-117663205D01*
X109938299Y-117469231D01*
X109942033Y-117458685D01*
X109995147Y-117251821D01*
X109996918Y-117241266D01*
X110007793Y-117107570D01*
X110008000Y-117102464D01*
X110008000Y-116314615D01*
X110003525Y-116299376D01*
X110002135Y-116298171D01*
X109994452Y-116296500D01*
X108272115Y-116296500D01*
X108256876Y-116300975D01*
X108255671Y-116302365D01*
X108254000Y-116310048D01*
X108254000Y-118282384D01*
X107746000Y-118282384D01*
X107746000Y-116314615D01*
X107741525Y-116299376D01*
X107740135Y-116298171D01*
X107732452Y-116296500D01*
X106010116Y-116296500D01*
X105994877Y-116300975D01*
X105993672Y-116302365D01*
X105992001Y-116310048D01*
X105992001Y-117102461D01*
X100508000Y-117102461D01*
X100508000Y-115770385D01*
X105992000Y-115770385D01*
X105996475Y-115785624D01*
X105997865Y-115786829D01*
X106005548Y-115788500D01*
X107727885Y-115788500D01*
X107743124Y-115784025D01*
X107744329Y-115782635D01*
X107746000Y-115774952D01*
X107746000Y-115770385D01*
X108254000Y-115770385D01*
X108258475Y-115785624D01*
X108259865Y-115786829D01*
X108267548Y-115788500D01*
X109989884Y-115788500D01*
X110005123Y-115784025D01*
X110006328Y-115782635D01*
X110007999Y-115774952D01*
X110007999Y-114982539D01*
X110007791Y-114977429D01*
X109996918Y-114843733D01*
X109995148Y-114833180D01*
X109942033Y-114626315D01*
X109938299Y-114615769D01*
X109849490Y-114421795D01*
X109843954Y-114412088D01*
X109722197Y-114236903D01*
X109715024Y-114228324D01*
X109564176Y-114077476D01*
X109555597Y-114070303D01*
X109380412Y-113948546D01*
X109370705Y-113943010D01*
X109176731Y-113854201D01*
X109166185Y-113850467D01*
X108959321Y-113797353D01*
X108948766Y-113795582D01*
X108815070Y-113784707D01*
X108809964Y-113784500D01*
X108272115Y-113784500D01*
X108256876Y-113788975D01*
X108255671Y-113790365D01*
X108254000Y-113798048D01*
X108254000Y-115770385D01*
X107746000Y-115770385D01*
X107746000Y-113802616D01*
X107741525Y-113787377D01*
X107740135Y-113786172D01*
X107732452Y-113784501D01*
X107190039Y-113784501D01*
X107184929Y-113784709D01*
X107051233Y-113795582D01*
X107040680Y-113797352D01*
X106833815Y-113850467D01*
X106823269Y-113854201D01*
X106629295Y-113943010D01*
X106619588Y-113948546D01*
X106444403Y-114070303D01*
X106435824Y-114077476D01*
X106284976Y-114228324D01*
X106277803Y-114236903D01*
X106156046Y-114412088D01*
X106150510Y-114421795D01*
X106061701Y-114615769D01*
X106057967Y-114626315D01*
X106004853Y-114833179D01*
X106003082Y-114843734D01*
X105992207Y-114977430D01*
X105992000Y-114982536D01*
X105992000Y-115770385D01*
X100508000Y-115770385D01*
X100508000Y-113466695D01*
X125587251Y-113466695D01*
X125587548Y-113471848D01*
X125587548Y-113471851D01*
X125595741Y-113613938D01*
X125600110Y-113689715D01*
X125601247Y-113694761D01*
X125601248Y-113694767D01*
X125624367Y-113797352D01*
X125649222Y-113907639D01*
X125733266Y-114114616D01*
X125773240Y-114179848D01*
X125847291Y-114300688D01*
X125849987Y-114305088D01*
X125996250Y-114473938D01*
X126168126Y-114616632D01*
X126361000Y-114729338D01*
X126365825Y-114731180D01*
X126365826Y-114731181D01*
X126390759Y-114740702D01*
X126569692Y-114809030D01*
X126574760Y-114810061D01*
X126574763Y-114810062D01*
X126682017Y-114831883D01*
X126788597Y-114853567D01*
X126793772Y-114853757D01*
X126793774Y-114853757D01*
X127006673Y-114861564D01*
X127006677Y-114861564D01*
X127011837Y-114861753D01*
X127016957Y-114861097D01*
X127016959Y-114861097D01*
X127228288Y-114834025D01*
X127228289Y-114834025D01*
X127233416Y-114833368D01*
X127238366Y-114831883D01*
X127442429Y-114770661D01*
X127442434Y-114770659D01*
X127447384Y-114769174D01*
X127647994Y-114670896D01*
X127829860Y-114541173D01*
X127988096Y-114383489D01*
X128029111Y-114326411D01*
X128118453Y-114202077D01*
X128119776Y-114203028D01*
X128166645Y-114159857D01*
X128236580Y-114147625D01*
X128302026Y-114175144D01*
X128329875Y-114206994D01*
X128389987Y-114305088D01*
X128536250Y-114473938D01*
X128708126Y-114616632D01*
X128901000Y-114729338D01*
X128905825Y-114731180D01*
X128905826Y-114731181D01*
X128930759Y-114740702D01*
X129109692Y-114809030D01*
X129114760Y-114810061D01*
X129114763Y-114810062D01*
X129222017Y-114831883D01*
X129328597Y-114853567D01*
X129333772Y-114853757D01*
X129333774Y-114853757D01*
X129546673Y-114861564D01*
X129546677Y-114861564D01*
X129551837Y-114861753D01*
X129556957Y-114861097D01*
X129556959Y-114861097D01*
X129768288Y-114834025D01*
X129768289Y-114834025D01*
X129773416Y-114833368D01*
X129778366Y-114831883D01*
X129982429Y-114770661D01*
X129982434Y-114770659D01*
X129987384Y-114769174D01*
X130187994Y-114670896D01*
X130369860Y-114541173D01*
X130528096Y-114383489D01*
X130569111Y-114326411D01*
X130658453Y-114202077D01*
X130659776Y-114203028D01*
X130706645Y-114159857D01*
X130776580Y-114147625D01*
X130842026Y-114175144D01*
X130869875Y-114206994D01*
X130929987Y-114305088D01*
X131076250Y-114473938D01*
X131248126Y-114616632D01*
X131441000Y-114729338D01*
X131445825Y-114731180D01*
X131445826Y-114731181D01*
X131470759Y-114740702D01*
X131649692Y-114809030D01*
X131654760Y-114810061D01*
X131654763Y-114810062D01*
X131762017Y-114831883D01*
X131868597Y-114853567D01*
X131873772Y-114853757D01*
X131873774Y-114853757D01*
X132086673Y-114861564D01*
X132086677Y-114861564D01*
X132091837Y-114861753D01*
X132096957Y-114861097D01*
X132096959Y-114861097D01*
X132308288Y-114834025D01*
X132308289Y-114834025D01*
X132313416Y-114833368D01*
X132318366Y-114831883D01*
X132522429Y-114770661D01*
X132522434Y-114770659D01*
X132527384Y-114769174D01*
X132727994Y-114670896D01*
X132909860Y-114541173D01*
X133068096Y-114383489D01*
X133109111Y-114326411D01*
X133198453Y-114202077D01*
X133199776Y-114203028D01*
X133246645Y-114159857D01*
X133316580Y-114147625D01*
X133382026Y-114175144D01*
X133409875Y-114206994D01*
X133469987Y-114305088D01*
X133616250Y-114473938D01*
X133788126Y-114616632D01*
X133981000Y-114729338D01*
X133985825Y-114731180D01*
X133985826Y-114731181D01*
X134010759Y-114740702D01*
X134189692Y-114809030D01*
X134194760Y-114810061D01*
X134194763Y-114810062D01*
X134302017Y-114831883D01*
X134408597Y-114853567D01*
X134413772Y-114853757D01*
X134413774Y-114853757D01*
X134626673Y-114861564D01*
X134626677Y-114861564D01*
X134631837Y-114861753D01*
X134636957Y-114861097D01*
X134636959Y-114861097D01*
X134848288Y-114834025D01*
X134848289Y-114834025D01*
X134853416Y-114833368D01*
X134858366Y-114831883D01*
X135062429Y-114770661D01*
X135062434Y-114770659D01*
X135067384Y-114769174D01*
X135267994Y-114670896D01*
X135449860Y-114541173D01*
X135608096Y-114383489D01*
X135649111Y-114326411D01*
X135738453Y-114202077D01*
X135739776Y-114203028D01*
X135786645Y-114159857D01*
X135856580Y-114147625D01*
X135922026Y-114175144D01*
X135949875Y-114206994D01*
X136009987Y-114305088D01*
X136156250Y-114473938D01*
X136328126Y-114616632D01*
X136521000Y-114729338D01*
X136525825Y-114731180D01*
X136525826Y-114731181D01*
X136550759Y-114740702D01*
X136729692Y-114809030D01*
X136734760Y-114810061D01*
X136734763Y-114810062D01*
X136842017Y-114831883D01*
X136948597Y-114853567D01*
X136953772Y-114853757D01*
X136953774Y-114853757D01*
X137166673Y-114861564D01*
X137166677Y-114861564D01*
X137171837Y-114861753D01*
X137176957Y-114861097D01*
X137176959Y-114861097D01*
X137388288Y-114834025D01*
X137388289Y-114834025D01*
X137393416Y-114833368D01*
X137398366Y-114831883D01*
X137602429Y-114770661D01*
X137602434Y-114770659D01*
X137607384Y-114769174D01*
X137807994Y-114670896D01*
X137989860Y-114541173D01*
X138019763Y-114511375D01*
X138098479Y-114432933D01*
X138160851Y-114399017D01*
X138231658Y-114404205D01*
X138288419Y-114446851D01*
X138305401Y-114477954D01*
X138346676Y-114588054D01*
X138355214Y-114603649D01*
X138431715Y-114705724D01*
X138444276Y-114718285D01*
X138546351Y-114794786D01*
X138561946Y-114803324D01*
X138682394Y-114848478D01*
X138697649Y-114852105D01*
X138748514Y-114857631D01*
X138755328Y-114858000D01*
X139377885Y-114858000D01*
X139393124Y-114853525D01*
X139394329Y-114852135D01*
X139396000Y-114844452D01*
X139396000Y-114839884D01*
X139904000Y-114839884D01*
X139908475Y-114855123D01*
X139909865Y-114856328D01*
X139917548Y-114857999D01*
X140544669Y-114857999D01*
X140551490Y-114857629D01*
X140602352Y-114852105D01*
X140617604Y-114848479D01*
X140738054Y-114803324D01*
X140753649Y-114794786D01*
X140855724Y-114718285D01*
X140868285Y-114705724D01*
X140944786Y-114603649D01*
X140953324Y-114588054D01*
X140998478Y-114467606D01*
X141002105Y-114452351D01*
X141007631Y-114401486D01*
X141008000Y-114394672D01*
X141008000Y-113772115D01*
X141003525Y-113756876D01*
X141002135Y-113755671D01*
X140994452Y-113754000D01*
X139922115Y-113754000D01*
X139906876Y-113758475D01*
X139905671Y-113759865D01*
X139904000Y-113767548D01*
X139904000Y-114839884D01*
X139396000Y-114839884D01*
X139396000Y-113227885D01*
X139904000Y-113227885D01*
X139908475Y-113243124D01*
X139909865Y-113244329D01*
X139917548Y-113246000D01*
X140989884Y-113246000D01*
X141005123Y-113241525D01*
X141006328Y-113240135D01*
X141007999Y-113232452D01*
X141007999Y-112605331D01*
X141007629Y-112598510D01*
X141002105Y-112547648D01*
X140998479Y-112532396D01*
X140953324Y-112411946D01*
X140944786Y-112396351D01*
X140868285Y-112294276D01*
X140855724Y-112281715D01*
X140753649Y-112205214D01*
X140738054Y-112196676D01*
X140617606Y-112151522D01*
X140602351Y-112147895D01*
X140551486Y-112142369D01*
X140544672Y-112142000D01*
X139922115Y-112142000D01*
X139906876Y-112146475D01*
X139905671Y-112147865D01*
X139904000Y-112155548D01*
X139904000Y-113227885D01*
X139396000Y-113227885D01*
X139396000Y-112160116D01*
X139391525Y-112144877D01*
X139390135Y-112143672D01*
X139382452Y-112142001D01*
X138755331Y-112142001D01*
X138748510Y-112142371D01*
X138697648Y-112147895D01*
X138682396Y-112151521D01*
X138561946Y-112196676D01*
X138546351Y-112205214D01*
X138444276Y-112281715D01*
X138431715Y-112294276D01*
X138355214Y-112396351D01*
X138346676Y-112411946D01*
X138305297Y-112522322D01*
X138262655Y-112579087D01*
X138196093Y-112603786D01*
X138126744Y-112588578D01*
X138094121Y-112562891D01*
X138043151Y-112506876D01*
X138043145Y-112506870D01*
X138039670Y-112503051D01*
X138035619Y-112499852D01*
X138035615Y-112499848D01*
X137868414Y-112367800D01*
X137868410Y-112367798D01*
X137864359Y-112364598D01*
X137668789Y-112256638D01*
X137663920Y-112254914D01*
X137663916Y-112254912D01*
X137463087Y-112183795D01*
X137463083Y-112183794D01*
X137458212Y-112182069D01*
X137453119Y-112181162D01*
X137453116Y-112181161D01*
X137243373Y-112143800D01*
X137243367Y-112143799D01*
X137238284Y-112142894D01*
X137164452Y-112141992D01*
X137020081Y-112140228D01*
X137020079Y-112140228D01*
X137014911Y-112140165D01*
X136794091Y-112173955D01*
X136581756Y-112243357D01*
X136383607Y-112346507D01*
X136379474Y-112349610D01*
X136379471Y-112349612D01*
X136289238Y-112417361D01*
X136204965Y-112480635D01*
X136050629Y-112642138D01*
X135943201Y-112799621D01*
X135888293Y-112844621D01*
X135817768Y-112852792D01*
X135754021Y-112821538D01*
X135733324Y-112797054D01*
X135652822Y-112672617D01*
X135652820Y-112672614D01*
X135650014Y-112668277D01*
X135499670Y-112503051D01*
X135495619Y-112499852D01*
X135495615Y-112499848D01*
X135328414Y-112367800D01*
X135328410Y-112367798D01*
X135324359Y-112364598D01*
X135128789Y-112256638D01*
X135123920Y-112254914D01*
X135123916Y-112254912D01*
X134923087Y-112183795D01*
X134923083Y-112183794D01*
X134918212Y-112182069D01*
X134913119Y-112181162D01*
X134913116Y-112181161D01*
X134703373Y-112143800D01*
X134703367Y-112143799D01*
X134698284Y-112142894D01*
X134624452Y-112141992D01*
X134480081Y-112140228D01*
X134480079Y-112140228D01*
X134474911Y-112140165D01*
X134254091Y-112173955D01*
X134041756Y-112243357D01*
X133843607Y-112346507D01*
X133839474Y-112349610D01*
X133839471Y-112349612D01*
X133749238Y-112417361D01*
X133664965Y-112480635D01*
X133510629Y-112642138D01*
X133403201Y-112799621D01*
X133348293Y-112844621D01*
X133277768Y-112852792D01*
X133214021Y-112821538D01*
X133193324Y-112797054D01*
X133112822Y-112672617D01*
X133112820Y-112672614D01*
X133110014Y-112668277D01*
X132959670Y-112503051D01*
X132955619Y-112499852D01*
X132955615Y-112499848D01*
X132788414Y-112367800D01*
X132788410Y-112367798D01*
X132784359Y-112364598D01*
X132588789Y-112256638D01*
X132583920Y-112254914D01*
X132583916Y-112254912D01*
X132383087Y-112183795D01*
X132383083Y-112183794D01*
X132378212Y-112182069D01*
X132373119Y-112181162D01*
X132373116Y-112181161D01*
X132163373Y-112143800D01*
X132163367Y-112143799D01*
X132158284Y-112142894D01*
X132084452Y-112141992D01*
X131940081Y-112140228D01*
X131940079Y-112140228D01*
X131934911Y-112140165D01*
X131714091Y-112173955D01*
X131501756Y-112243357D01*
X131303607Y-112346507D01*
X131299474Y-112349610D01*
X131299471Y-112349612D01*
X131209238Y-112417361D01*
X131124965Y-112480635D01*
X130970629Y-112642138D01*
X130863201Y-112799621D01*
X130808293Y-112844621D01*
X130737768Y-112852792D01*
X130674021Y-112821538D01*
X130653324Y-112797054D01*
X130572822Y-112672617D01*
X130572820Y-112672614D01*
X130570014Y-112668277D01*
X130419670Y-112503051D01*
X130415619Y-112499852D01*
X130415615Y-112499848D01*
X130248414Y-112367800D01*
X130248410Y-112367798D01*
X130244359Y-112364598D01*
X130048789Y-112256638D01*
X130043920Y-112254914D01*
X130043916Y-112254912D01*
X129843087Y-112183795D01*
X129843083Y-112183794D01*
X129838212Y-112182069D01*
X129833119Y-112181162D01*
X129833116Y-112181161D01*
X129623373Y-112143800D01*
X129623367Y-112143799D01*
X129618284Y-112142894D01*
X129544452Y-112141992D01*
X129400081Y-112140228D01*
X129400079Y-112140228D01*
X129394911Y-112140165D01*
X129174091Y-112173955D01*
X128961756Y-112243357D01*
X128763607Y-112346507D01*
X128759474Y-112349610D01*
X128759471Y-112349612D01*
X128669238Y-112417361D01*
X128584965Y-112480635D01*
X128430629Y-112642138D01*
X128323201Y-112799621D01*
X128268293Y-112844621D01*
X128197768Y-112852792D01*
X128134021Y-112821538D01*
X128113324Y-112797054D01*
X128032822Y-112672617D01*
X128032820Y-112672614D01*
X128030014Y-112668277D01*
X127879670Y-112503051D01*
X127875619Y-112499852D01*
X127875615Y-112499848D01*
X127708414Y-112367800D01*
X127708410Y-112367798D01*
X127704359Y-112364598D01*
X127508789Y-112256638D01*
X127503920Y-112254914D01*
X127503916Y-112254912D01*
X127303087Y-112183795D01*
X127303083Y-112183794D01*
X127298212Y-112182069D01*
X127293119Y-112181162D01*
X127293116Y-112181161D01*
X127083373Y-112143800D01*
X127083367Y-112143799D01*
X127078284Y-112142894D01*
X127004452Y-112141992D01*
X126860081Y-112140228D01*
X126860079Y-112140228D01*
X126854911Y-112140165D01*
X126634091Y-112173955D01*
X126421756Y-112243357D01*
X126223607Y-112346507D01*
X126219474Y-112349610D01*
X126219471Y-112349612D01*
X126129238Y-112417361D01*
X126044965Y-112480635D01*
X125890629Y-112642138D01*
X125764743Y-112826680D01*
X125670688Y-113029305D01*
X125610989Y-113244570D01*
X125587251Y-113466695D01*
X100508000Y-113466695D01*
X100508000Y-108567966D01*
X108728257Y-108567966D01*
X108758565Y-108702446D01*
X108761645Y-108712275D01*
X108841770Y-108909603D01*
X108846413Y-108918794D01*
X108957694Y-109100388D01*
X108963777Y-109108699D01*
X109103213Y-109269667D01*
X109110580Y-109276883D01*
X109274434Y-109412916D01*
X109282881Y-109418831D01*
X109466756Y-109526279D01*
X109476042Y-109530729D01*
X109675001Y-109606703D01*
X109684899Y-109609579D01*
X109788250Y-109630606D01*
X109802299Y-109629410D01*
X109806000Y-109619065D01*
X109806000Y-109618517D01*
X110314000Y-109618517D01*
X110318064Y-109632359D01*
X110331478Y-109634393D01*
X110338184Y-109633534D01*
X110348262Y-109631392D01*
X110552255Y-109570191D01*
X110561842Y-109566433D01*
X110753095Y-109472739D01*
X110761945Y-109467464D01*
X110935328Y-109343792D01*
X110943193Y-109337145D01*
X111047897Y-109232805D01*
X111110268Y-109198889D01*
X111181075Y-109204077D01*
X111237837Y-109246723D01*
X111254819Y-109277826D01*
X111299385Y-109396705D01*
X111386739Y-109513261D01*
X111503295Y-109600615D01*
X111639684Y-109651745D01*
X111701866Y-109658500D01*
X113498134Y-109658500D01*
X113560316Y-109651745D01*
X113696705Y-109600615D01*
X113813261Y-109513261D01*
X113900615Y-109396705D01*
X113951745Y-109260316D01*
X113958500Y-109198134D01*
X113958500Y-107401866D01*
X113951745Y-107339684D01*
X113900615Y-107203295D01*
X113813261Y-107086739D01*
X113696705Y-106999385D01*
X113560316Y-106948255D01*
X113498134Y-106941500D01*
X111701866Y-106941500D01*
X111639684Y-106948255D01*
X111503295Y-106999385D01*
X111386739Y-107086739D01*
X111299385Y-107203295D01*
X111296233Y-107211703D01*
X111296232Y-107211705D01*
X111254722Y-107322433D01*
X111212081Y-107379198D01*
X111145519Y-107403898D01*
X111076170Y-107388691D01*
X111043546Y-107363004D01*
X110992799Y-107307234D01*
X110985273Y-107300215D01*
X110818139Y-107168222D01*
X110809552Y-107162517D01*
X110623117Y-107059599D01*
X110613705Y-107055369D01*
X110412959Y-106984280D01*
X110402988Y-106981646D01*
X110331837Y-106968972D01*
X110318540Y-106970432D01*
X110314000Y-106984989D01*
X110314000Y-109618517D01*
X109806000Y-109618517D01*
X109806000Y-108572115D01*
X109801525Y-108556876D01*
X109800135Y-108555671D01*
X109792452Y-108554000D01*
X108743225Y-108554000D01*
X108729694Y-108557973D01*
X108728257Y-108567966D01*
X100508000Y-108567966D01*
X100508000Y-108034183D01*
X108724389Y-108034183D01*
X108725912Y-108042607D01*
X108738292Y-108046000D01*
X109787885Y-108046000D01*
X109803124Y-108041525D01*
X109804329Y-108040135D01*
X109806000Y-108032452D01*
X109806000Y-106983102D01*
X109802082Y-106969758D01*
X109787806Y-106967771D01*
X109749324Y-106973660D01*
X109739288Y-106976051D01*
X109536868Y-107042212D01*
X109527359Y-107046209D01*
X109338463Y-107144542D01*
X109329738Y-107150036D01*
X109159433Y-107277905D01*
X109151726Y-107284748D01*
X109004590Y-107438717D01*
X108998104Y-107446727D01*
X108878098Y-107622649D01*
X108873000Y-107631623D01*
X108783338Y-107824783D01*
X108779775Y-107834470D01*
X108724389Y-108034183D01*
X100508000Y-108034183D01*
X100508000Y-104047404D01*
X101736941Y-104047404D01*
X101763091Y-104346292D01*
X101764001Y-104350364D01*
X101764002Y-104350369D01*
X101827628Y-104635016D01*
X101828540Y-104639095D01*
X101932140Y-104920671D01*
X101934084Y-104924359D01*
X101934088Y-104924367D01*
X102049426Y-105143124D01*
X102072069Y-105186071D01*
X102245871Y-105430633D01*
X102450490Y-105650061D01*
X102682333Y-105840498D01*
X102937325Y-105998600D01*
X103210988Y-106121589D01*
X103385368Y-106173574D01*
X103494514Y-106206112D01*
X103494516Y-106206112D01*
X103498513Y-106207304D01*
X103502633Y-106207957D01*
X103502635Y-106207957D01*
X103515989Y-106210072D01*
X103794848Y-106254239D01*
X103837577Y-106256179D01*
X103887262Y-106258436D01*
X103887281Y-106258436D01*
X103888681Y-106258500D01*
X104076107Y-106258500D01*
X104299370Y-106243671D01*
X104303464Y-106242846D01*
X104303468Y-106242845D01*
X104466002Y-106210072D01*
X104593480Y-106184368D01*
X104838502Y-106100000D01*
X119786496Y-106100000D01*
X119787186Y-106106565D01*
X119797843Y-106207957D01*
X119806458Y-106289928D01*
X119865473Y-106471556D01*
X119868776Y-106477278D01*
X119868777Y-106477279D01*
X119883253Y-106502352D01*
X119960960Y-106636944D01*
X119965378Y-106641851D01*
X119965379Y-106641852D01*
X119994285Y-106673955D01*
X120088747Y-106778866D01*
X120125964Y-106805906D01*
X120173881Y-106840720D01*
X120217235Y-106896943D01*
X120223310Y-106967679D01*
X120193458Y-107026964D01*
X120160960Y-107063056D01*
X120065473Y-107228444D01*
X120006458Y-107410072D01*
X119986496Y-107600000D01*
X119987186Y-107606565D01*
X120005129Y-107777279D01*
X120006458Y-107789928D01*
X120065473Y-107971556D01*
X120160960Y-108136944D01*
X120165378Y-108141851D01*
X120165379Y-108141852D01*
X120279678Y-108268794D01*
X120288747Y-108278866D01*
X120443248Y-108391118D01*
X120449276Y-108393802D01*
X120449278Y-108393803D01*
X120611681Y-108466109D01*
X120617712Y-108468794D01*
X120711113Y-108488647D01*
X120798056Y-108507128D01*
X120798061Y-108507128D01*
X120804513Y-108508500D01*
X120995487Y-108508500D01*
X121001939Y-108507128D01*
X121001944Y-108507128D01*
X121088888Y-108488647D01*
X121182288Y-108468794D01*
X121188319Y-108466109D01*
X121350722Y-108393803D01*
X121350724Y-108393802D01*
X121356752Y-108391118D01*
X121511253Y-108278866D01*
X121520322Y-108268794D01*
X121634621Y-108141852D01*
X121634622Y-108141851D01*
X121639040Y-108136944D01*
X121734527Y-107971556D01*
X121793542Y-107789928D01*
X121794872Y-107777279D01*
X121812814Y-107606565D01*
X121813504Y-107600000D01*
X121802994Y-107500000D01*
X123986496Y-107500000D01*
X123987186Y-107506565D01*
X123996608Y-107596206D01*
X124006458Y-107689928D01*
X124065473Y-107871556D01*
X124160960Y-108036944D01*
X124288747Y-108178866D01*
X124309306Y-108193803D01*
X124426385Y-108278866D01*
X124443248Y-108291118D01*
X124449276Y-108293802D01*
X124449278Y-108293803D01*
X124611681Y-108366109D01*
X124617712Y-108368794D01*
X124704479Y-108387237D01*
X124798056Y-108407128D01*
X124798061Y-108407128D01*
X124804513Y-108408500D01*
X124995487Y-108408500D01*
X125001939Y-108407128D01*
X125001944Y-108407128D01*
X125095521Y-108387237D01*
X125182288Y-108368794D01*
X125188319Y-108366109D01*
X125350722Y-108293803D01*
X125350724Y-108293802D01*
X125356752Y-108291118D01*
X125373616Y-108278866D01*
X125490694Y-108193803D01*
X125511253Y-108178866D01*
X125639040Y-108036944D01*
X125734527Y-107871556D01*
X125793542Y-107689928D01*
X125803393Y-107596206D01*
X125812814Y-107506565D01*
X125813504Y-107500000D01*
X125803403Y-107403898D01*
X125794232Y-107316635D01*
X125794232Y-107316633D01*
X125793542Y-107310072D01*
X125734527Y-107128444D01*
X125714695Y-107094094D01*
X125697958Y-107025099D01*
X125721179Y-106958007D01*
X125730170Y-106946795D01*
X125739040Y-106936944D01*
X125834527Y-106771556D01*
X125893542Y-106589928D01*
X125898903Y-106538921D01*
X125925916Y-106473264D01*
X125984138Y-106432634D01*
X126055083Y-106429931D01*
X126116227Y-106466013D01*
X126133332Y-106489091D01*
X126160960Y-106536944D01*
X126165378Y-106541851D01*
X126165379Y-106541852D01*
X126283495Y-106673033D01*
X126288747Y-106678866D01*
X126307744Y-106692668D01*
X126313428Y-106696798D01*
X126356782Y-106753021D01*
X126362857Y-106823757D01*
X126333003Y-106883044D01*
X126280058Y-106941846D01*
X126260960Y-106963056D01*
X126165473Y-107128444D01*
X126106458Y-107310072D01*
X126105768Y-107316633D01*
X126105768Y-107316635D01*
X126096597Y-107403898D01*
X126086496Y-107500000D01*
X126087186Y-107506565D01*
X126096608Y-107596206D01*
X126106458Y-107689928D01*
X126165473Y-107871556D01*
X126260960Y-108036944D01*
X126388747Y-108178866D01*
X126409306Y-108193803D01*
X126526385Y-108278866D01*
X126543248Y-108291118D01*
X126549276Y-108293802D01*
X126549278Y-108293803D01*
X126711681Y-108366109D01*
X126717712Y-108368794D01*
X126804479Y-108387237D01*
X126898056Y-108407128D01*
X126898061Y-108407128D01*
X126904513Y-108408500D01*
X127095487Y-108408500D01*
X127101939Y-108407128D01*
X127101944Y-108407128D01*
X127195521Y-108387237D01*
X127282288Y-108368794D01*
X127288319Y-108366109D01*
X127450722Y-108293803D01*
X127450724Y-108293802D01*
X127456752Y-108291118D01*
X127473616Y-108278866D01*
X127590694Y-108193803D01*
X127611253Y-108178866D01*
X127739040Y-108036944D01*
X127834527Y-107871556D01*
X127893542Y-107689928D01*
X127903393Y-107596206D01*
X127912814Y-107506565D01*
X127913504Y-107500000D01*
X127903403Y-107403898D01*
X127902993Y-107400000D01*
X130786496Y-107400000D01*
X130806458Y-107589928D01*
X130865473Y-107771556D01*
X130960960Y-107936944D01*
X131088747Y-108078866D01*
X131187843Y-108150864D01*
X131226385Y-108178866D01*
X131243248Y-108191118D01*
X131249276Y-108193802D01*
X131249278Y-108193803D01*
X131411681Y-108266109D01*
X131417712Y-108268794D01*
X131483365Y-108282749D01*
X131598056Y-108307128D01*
X131598061Y-108307128D01*
X131604513Y-108308500D01*
X131795487Y-108308500D01*
X131801939Y-108307128D01*
X131801944Y-108307128D01*
X131916635Y-108282749D01*
X131982288Y-108268794D01*
X131988319Y-108266109D01*
X132150722Y-108193803D01*
X132150724Y-108193802D01*
X132156752Y-108191118D01*
X132173616Y-108178866D01*
X132212157Y-108150864D01*
X132311253Y-108078866D01*
X132439040Y-107936944D01*
X132534527Y-107771556D01*
X132593542Y-107589928D01*
X132613504Y-107400000D01*
X132606387Y-107332285D01*
X132594232Y-107216635D01*
X132594232Y-107216633D01*
X132593542Y-107210072D01*
X132534527Y-107028444D01*
X132439040Y-106863056D01*
X132368684Y-106784917D01*
X132315675Y-106726045D01*
X132315674Y-106726044D01*
X132311253Y-106721134D01*
X132156752Y-106608882D01*
X132150724Y-106606198D01*
X132150722Y-106606197D01*
X131988319Y-106533891D01*
X131988318Y-106533891D01*
X131982288Y-106531206D01*
X131888887Y-106511353D01*
X131801944Y-106492872D01*
X131801939Y-106492872D01*
X131795487Y-106491500D01*
X131604513Y-106491500D01*
X131598061Y-106492872D01*
X131598056Y-106492872D01*
X131511113Y-106511353D01*
X131417712Y-106531206D01*
X131411682Y-106533891D01*
X131411681Y-106533891D01*
X131249278Y-106606197D01*
X131249276Y-106606198D01*
X131243248Y-106608882D01*
X131088747Y-106721134D01*
X131084326Y-106726044D01*
X131084325Y-106726045D01*
X131031317Y-106784917D01*
X130960960Y-106863056D01*
X130865473Y-107028444D01*
X130806458Y-107210072D01*
X130805768Y-107216633D01*
X130805768Y-107216635D01*
X130793613Y-107332285D01*
X130786496Y-107400000D01*
X127902993Y-107400000D01*
X127894232Y-107316635D01*
X127894232Y-107316633D01*
X127893542Y-107310072D01*
X127834527Y-107128444D01*
X127739040Y-106963056D01*
X127719943Y-106941846D01*
X127615675Y-106826045D01*
X127615674Y-106826044D01*
X127611253Y-106821134D01*
X127586572Y-106803202D01*
X127543218Y-106746979D01*
X127537143Y-106676243D01*
X127566997Y-106616956D01*
X127634621Y-106541852D01*
X127634622Y-106541851D01*
X127639040Y-106536944D01*
X127692315Y-106444669D01*
X135592001Y-106444669D01*
X135592371Y-106451490D01*
X135597895Y-106502352D01*
X135601521Y-106517604D01*
X135646676Y-106638054D01*
X135655214Y-106653649D01*
X135731715Y-106755724D01*
X135744276Y-106768285D01*
X135846351Y-106844786D01*
X135861946Y-106853324D01*
X135982394Y-106898478D01*
X135997649Y-106902105D01*
X136048514Y-106907631D01*
X136055328Y-106908000D01*
X136827885Y-106908000D01*
X136843124Y-106903525D01*
X136844329Y-106902135D01*
X136846000Y-106894452D01*
X136846000Y-106889884D01*
X137354000Y-106889884D01*
X137358475Y-106905123D01*
X137359865Y-106906328D01*
X137367548Y-106907999D01*
X138144669Y-106907999D01*
X138151490Y-106907629D01*
X138202352Y-106902105D01*
X138217604Y-106898479D01*
X138338054Y-106853324D01*
X138353649Y-106844786D01*
X138455724Y-106768285D01*
X138468285Y-106755724D01*
X138544786Y-106653649D01*
X138553324Y-106638054D01*
X138598478Y-106517606D01*
X138602105Y-106502351D01*
X138607631Y-106451486D01*
X138608000Y-106444672D01*
X138608000Y-105672115D01*
X138603525Y-105656876D01*
X138602135Y-105655671D01*
X138594452Y-105654000D01*
X137372115Y-105654000D01*
X137356876Y-105658475D01*
X137355671Y-105659865D01*
X137354000Y-105667548D01*
X137354000Y-106889884D01*
X136846000Y-106889884D01*
X136846000Y-105672115D01*
X136841525Y-105656876D01*
X136840135Y-105655671D01*
X136832452Y-105654000D01*
X135610116Y-105654000D01*
X135594877Y-105658475D01*
X135593672Y-105659865D01*
X135592001Y-105667548D01*
X135592001Y-106444669D01*
X127692315Y-106444669D01*
X127734527Y-106371556D01*
X127793542Y-106189928D01*
X127804590Y-106084817D01*
X127812814Y-106006565D01*
X127813504Y-106000000D01*
X127804052Y-105910072D01*
X127794232Y-105816635D01*
X127794232Y-105816633D01*
X127793542Y-105810072D01*
X127734527Y-105628444D01*
X127639040Y-105463056D01*
X127539420Y-105352416D01*
X127515675Y-105326045D01*
X127515674Y-105326044D01*
X127511253Y-105321134D01*
X127356752Y-105208882D01*
X127350724Y-105206198D01*
X127350722Y-105206197D01*
X127188319Y-105133891D01*
X127188318Y-105133891D01*
X127182288Y-105131206D01*
X127166664Y-105127885D01*
X135592000Y-105127885D01*
X135596475Y-105143124D01*
X135597865Y-105144329D01*
X135605548Y-105146000D01*
X136827885Y-105146000D01*
X136843124Y-105141525D01*
X136844329Y-105140135D01*
X136846000Y-105132452D01*
X136846000Y-105127885D01*
X137354000Y-105127885D01*
X137358475Y-105143124D01*
X137359865Y-105144329D01*
X137367548Y-105146000D01*
X138589884Y-105146000D01*
X138605123Y-105141525D01*
X138606328Y-105140135D01*
X138607999Y-105132452D01*
X138607999Y-104355331D01*
X138607629Y-104348510D01*
X138602105Y-104297648D01*
X138598479Y-104282396D01*
X138553324Y-104161946D01*
X138544786Y-104146351D01*
X138470629Y-104047404D01*
X143736941Y-104047404D01*
X143763091Y-104346292D01*
X143764001Y-104350364D01*
X143764002Y-104350369D01*
X143827628Y-104635016D01*
X143828540Y-104639095D01*
X143932140Y-104920671D01*
X143934084Y-104924359D01*
X143934088Y-104924367D01*
X144049426Y-105143124D01*
X144072069Y-105186071D01*
X144245871Y-105430633D01*
X144450490Y-105650061D01*
X144682333Y-105840498D01*
X144937325Y-105998600D01*
X145210988Y-106121589D01*
X145385368Y-106173574D01*
X145494514Y-106206112D01*
X145494516Y-106206112D01*
X145498513Y-106207304D01*
X145502633Y-106207957D01*
X145502635Y-106207957D01*
X145515989Y-106210072D01*
X145794848Y-106254239D01*
X145837577Y-106256179D01*
X145887262Y-106258436D01*
X145887281Y-106258436D01*
X145888681Y-106258500D01*
X146076107Y-106258500D01*
X146299370Y-106243671D01*
X146303464Y-106242846D01*
X146303468Y-106242845D01*
X146466002Y-106210072D01*
X146593480Y-106184368D01*
X146877163Y-106086688D01*
X146880896Y-106084819D01*
X146880900Y-106084817D01*
X147141691Y-105954222D01*
X147141693Y-105954221D01*
X147145435Y-105952347D01*
X147276823Y-105863056D01*
X147390125Y-105786057D01*
X147390128Y-105786055D01*
X147393584Y-105783706D01*
X147617248Y-105583726D01*
X147619966Y-105580555D01*
X147809779Y-105359097D01*
X147809782Y-105359093D01*
X147812499Y-105355923D01*
X147814773Y-105352421D01*
X147814777Y-105352416D01*
X147973628Y-105107807D01*
X147973631Y-105107802D01*
X147975907Y-105104297D01*
X147981984Y-105091500D01*
X148102804Y-104837052D01*
X148104600Y-104833270D01*
X148196318Y-104547604D01*
X148230913Y-104355331D01*
X148248709Y-104256425D01*
X148248710Y-104256420D01*
X148249448Y-104252316D01*
X148254261Y-104146351D01*
X148262870Y-103956766D01*
X148262870Y-103956760D01*
X148263059Y-103952596D01*
X148259343Y-103910116D01*
X148237273Y-103657870D01*
X148236909Y-103653708D01*
X148192832Y-103456515D01*
X148172372Y-103364984D01*
X148172371Y-103364981D01*
X148171460Y-103360905D01*
X148067860Y-103079329D01*
X148065916Y-103075641D01*
X148065912Y-103075633D01*
X147929884Y-102817633D01*
X147929883Y-102817632D01*
X147927931Y-102813929D01*
X147754129Y-102569367D01*
X147549510Y-102349939D01*
X147317667Y-102159502D01*
X147062675Y-102001400D01*
X146789012Y-101878411D01*
X146575650Y-101814805D01*
X146505486Y-101793888D01*
X146505484Y-101793888D01*
X146501487Y-101792696D01*
X146497367Y-101792043D01*
X146497365Y-101792043D01*
X146378491Y-101773215D01*
X146205152Y-101745761D01*
X146162423Y-101743821D01*
X146112738Y-101741564D01*
X146112719Y-101741564D01*
X146111319Y-101741500D01*
X145923893Y-101741500D01*
X145700630Y-101756329D01*
X145696536Y-101757154D01*
X145696532Y-101757155D01*
X145555487Y-101785595D01*
X145406520Y-101815632D01*
X145122837Y-101913312D01*
X145119104Y-101915181D01*
X145119100Y-101915183D01*
X144858309Y-102045778D01*
X144854565Y-102047653D01*
X144606416Y-102216294D01*
X144382752Y-102416274D01*
X144380035Y-102419444D01*
X144380034Y-102419445D01*
X144254155Y-102566311D01*
X144187501Y-102644077D01*
X144185227Y-102647579D01*
X144185223Y-102647584D01*
X144074792Y-102817633D01*
X144024093Y-102895703D01*
X143895400Y-103166730D01*
X143803682Y-103452396D01*
X143750552Y-103747684D01*
X143750363Y-103751851D01*
X143750362Y-103751858D01*
X143741057Y-103956766D01*
X143736941Y-104047404D01*
X138470629Y-104047404D01*
X138468285Y-104044276D01*
X138455724Y-104031715D01*
X138353649Y-103955214D01*
X138338054Y-103946676D01*
X138217606Y-103901522D01*
X138202351Y-103897895D01*
X138151486Y-103892369D01*
X138144672Y-103892000D01*
X137372115Y-103892000D01*
X137356876Y-103896475D01*
X137355671Y-103897865D01*
X137354000Y-103905548D01*
X137354000Y-105127885D01*
X136846000Y-105127885D01*
X136846000Y-103910116D01*
X136841525Y-103894877D01*
X136840135Y-103893672D01*
X136832452Y-103892001D01*
X136055331Y-103892001D01*
X136048510Y-103892371D01*
X135997648Y-103897895D01*
X135982396Y-103901521D01*
X135861946Y-103946676D01*
X135846351Y-103955214D01*
X135744276Y-104031715D01*
X135731715Y-104044276D01*
X135655214Y-104146351D01*
X135646676Y-104161946D01*
X135601522Y-104282394D01*
X135597895Y-104297649D01*
X135592369Y-104348514D01*
X135592000Y-104355328D01*
X135592000Y-105127885D01*
X127166664Y-105127885D01*
X127072205Y-105107807D01*
X127001944Y-105092872D01*
X127001939Y-105092872D01*
X126995487Y-105091500D01*
X126804513Y-105091500D01*
X126798061Y-105092872D01*
X126798056Y-105092872D01*
X126727795Y-105107807D01*
X126617712Y-105131206D01*
X126611682Y-105133891D01*
X126611681Y-105133891D01*
X126449278Y-105206197D01*
X126449276Y-105206198D01*
X126443248Y-105208882D01*
X126288747Y-105321134D01*
X126284326Y-105326044D01*
X126284325Y-105326045D01*
X126260581Y-105352416D01*
X126160960Y-105463056D01*
X126065473Y-105628444D01*
X126006458Y-105810072D01*
X126005768Y-105816633D01*
X126005768Y-105816635D01*
X126001097Y-105861079D01*
X125974084Y-105926736D01*
X125915862Y-105967366D01*
X125844917Y-105970069D01*
X125783773Y-105933987D01*
X125766668Y-105910909D01*
X125742341Y-105868774D01*
X125739040Y-105863056D01*
X125720711Y-105842699D01*
X125615675Y-105726045D01*
X125615674Y-105726044D01*
X125611253Y-105721134D01*
X125456752Y-105608882D01*
X125450724Y-105606198D01*
X125450722Y-105606197D01*
X125288319Y-105533891D01*
X125288318Y-105533891D01*
X125282288Y-105531206D01*
X125188887Y-105511353D01*
X125101944Y-105492872D01*
X125101939Y-105492872D01*
X125095487Y-105491500D01*
X124904513Y-105491500D01*
X124898061Y-105492872D01*
X124898056Y-105492872D01*
X124811113Y-105511353D01*
X124717712Y-105531206D01*
X124711682Y-105533891D01*
X124711681Y-105533891D01*
X124549278Y-105606197D01*
X124549276Y-105606198D01*
X124543248Y-105608882D01*
X124388747Y-105721134D01*
X124384326Y-105726044D01*
X124384325Y-105726045D01*
X124279290Y-105842699D01*
X124260960Y-105863056D01*
X124165473Y-106028444D01*
X124106458Y-106210072D01*
X124105768Y-106216633D01*
X124105768Y-106216635D01*
X124101816Y-106254239D01*
X124086496Y-106400000D01*
X124087186Y-106406565D01*
X124098857Y-106517604D01*
X124106458Y-106589928D01*
X124165473Y-106771556D01*
X124173187Y-106784917D01*
X124185305Y-106805906D01*
X124202042Y-106874901D01*
X124178821Y-106941993D01*
X124169830Y-106953205D01*
X124160960Y-106963056D01*
X124065473Y-107128444D01*
X124006458Y-107310072D01*
X124005768Y-107316633D01*
X124005768Y-107316635D01*
X123996597Y-107403898D01*
X123986496Y-107500000D01*
X121802994Y-107500000D01*
X121793542Y-107410072D01*
X121734527Y-107228444D01*
X121639040Y-107063056D01*
X121606546Y-107026967D01*
X121515675Y-106926045D01*
X121515674Y-106926044D01*
X121511253Y-106921134D01*
X121426119Y-106859280D01*
X121382765Y-106803057D01*
X121376690Y-106732321D01*
X121406542Y-106673036D01*
X121439040Y-106636944D01*
X121516747Y-106502352D01*
X121531223Y-106477279D01*
X121531224Y-106477278D01*
X121534527Y-106471556D01*
X121593542Y-106289928D01*
X121602158Y-106207957D01*
X121612814Y-106106565D01*
X121613504Y-106100000D01*
X121596056Y-105933987D01*
X121594232Y-105916635D01*
X121594232Y-105916633D01*
X121593542Y-105910072D01*
X121534527Y-105728444D01*
X121439040Y-105563056D01*
X121311253Y-105421134D01*
X121180375Y-105326045D01*
X121162094Y-105312763D01*
X121162093Y-105312762D01*
X121156752Y-105308882D01*
X121150724Y-105306198D01*
X121150722Y-105306197D01*
X120988319Y-105233891D01*
X120988318Y-105233891D01*
X120982288Y-105231206D01*
X120888888Y-105211353D01*
X120801944Y-105192872D01*
X120801939Y-105192872D01*
X120795487Y-105191500D01*
X120604513Y-105191500D01*
X120598061Y-105192872D01*
X120598056Y-105192872D01*
X120511113Y-105211353D01*
X120417712Y-105231206D01*
X120411682Y-105233891D01*
X120411681Y-105233891D01*
X120249278Y-105306197D01*
X120249276Y-105306198D01*
X120243248Y-105308882D01*
X120237907Y-105312762D01*
X120237906Y-105312763D01*
X120219625Y-105326045D01*
X120088747Y-105421134D01*
X119960960Y-105563056D01*
X119865473Y-105728444D01*
X119806458Y-105910072D01*
X119805768Y-105916633D01*
X119805768Y-105916635D01*
X119803944Y-105933987D01*
X119786496Y-106100000D01*
X104838502Y-106100000D01*
X104877163Y-106086688D01*
X104880896Y-106084819D01*
X104880900Y-106084817D01*
X105141691Y-105954222D01*
X105141693Y-105954221D01*
X105145435Y-105952347D01*
X105276823Y-105863056D01*
X105390125Y-105786057D01*
X105390128Y-105786055D01*
X105393584Y-105783706D01*
X105617248Y-105583726D01*
X105619966Y-105580555D01*
X105809779Y-105359097D01*
X105809782Y-105359093D01*
X105812499Y-105355923D01*
X105814773Y-105352421D01*
X105814777Y-105352416D01*
X105973628Y-105107807D01*
X105973631Y-105107802D01*
X105975907Y-105104297D01*
X105981984Y-105091500D01*
X106102804Y-104837052D01*
X106104600Y-104833270D01*
X106196318Y-104547604D01*
X106230913Y-104355331D01*
X106248709Y-104256425D01*
X106248710Y-104256420D01*
X106249448Y-104252316D01*
X106254261Y-104146351D01*
X106262870Y-103956766D01*
X106262870Y-103956760D01*
X106263059Y-103952596D01*
X106259343Y-103910116D01*
X106237273Y-103657870D01*
X106236909Y-103653708D01*
X106192832Y-103456515D01*
X106172372Y-103364984D01*
X106172371Y-103364981D01*
X106171460Y-103360905D01*
X106067860Y-103079329D01*
X106065916Y-103075641D01*
X106065912Y-103075633D01*
X105929884Y-102817633D01*
X105929883Y-102817632D01*
X105927931Y-102813929D01*
X105754129Y-102569367D01*
X105549510Y-102349939D01*
X105317667Y-102159502D01*
X105062675Y-102001400D01*
X104789012Y-101878411D01*
X104575650Y-101814805D01*
X104505486Y-101793888D01*
X104505484Y-101793888D01*
X104501487Y-101792696D01*
X104497367Y-101792043D01*
X104497365Y-101792043D01*
X104378491Y-101773215D01*
X104205152Y-101745761D01*
X104162423Y-101743821D01*
X104112738Y-101741564D01*
X104112719Y-101741564D01*
X104111319Y-101741500D01*
X103923893Y-101741500D01*
X103700630Y-101756329D01*
X103696536Y-101757154D01*
X103696532Y-101757155D01*
X103555487Y-101785595D01*
X103406520Y-101815632D01*
X103122837Y-101913312D01*
X103119104Y-101915181D01*
X103119100Y-101915183D01*
X102858309Y-102045778D01*
X102854565Y-102047653D01*
X102606416Y-102216294D01*
X102382752Y-102416274D01*
X102380035Y-102419444D01*
X102380034Y-102419445D01*
X102254155Y-102566311D01*
X102187501Y-102644077D01*
X102185227Y-102647579D01*
X102185223Y-102647584D01*
X102074792Y-102817633D01*
X102024093Y-102895703D01*
X101895400Y-103166730D01*
X101803682Y-103452396D01*
X101750552Y-103747684D01*
X101750363Y-103751851D01*
X101750362Y-103751858D01*
X101741057Y-103956766D01*
X101736941Y-104047404D01*
X100508000Y-104047404D01*
X100508000Y-100634000D01*
X100528002Y-100565879D01*
X100581658Y-100519386D01*
X100634000Y-100508000D01*
X149366000Y-100508000D01*
X149434121Y-100528002D01*
G37*
%TD.AperFunction*%
%TD*%
M02*
