%TF.GenerationSoftware,KiCad,Pcbnew,6.0.1-79c1e3a40b~116~ubuntu18.04.1*%
%TF.CreationDate,2023-02-22T20:49:34-05:00*%
%TF.ProjectId,a2bikelight,61326269-6b65-46c6-9967-68742e6b6963,rev?*%
%TF.SameCoordinates,Original*%
%TF.FileFunction,Soldermask,Top*%
%TF.FilePolarity,Negative*%
%FSLAX46Y46*%
G04 Gerber Fmt 4.6, Leading zero omitted, Abs format (unit mm)*
G04 Created by KiCad (PCBNEW 6.0.1-79c1e3a40b~116~ubuntu18.04.1) date 2023-02-22 20:49:34*
%MOMM*%
%LPD*%
G01*
G04 APERTURE LIST*
G04 Aperture macros list*
%AMRoundRect*
0 Rectangle with rounded corners*
0 $1 Rounding radius*
0 $2 $3 $4 $5 $6 $7 $8 $9 X,Y pos of 4 corners*
0 Add a 4 corners polygon primitive as box body*
4,1,4,$2,$3,$4,$5,$6,$7,$8,$9,$2,$3,0*
0 Add four circle primitives for the rounded corners*
1,1,$1+$1,$2,$3*
1,1,$1+$1,$4,$5*
1,1,$1+$1,$6,$7*
1,1,$1+$1,$8,$9*
0 Add four rect primitives between the rounded corners*
20,1,$1+$1,$2,$3,$4,$5,0*
20,1,$1+$1,$4,$5,$6,$7,0*
20,1,$1+$1,$6,$7,$8,$9,0*
20,1,$1+$1,$8,$9,$2,$3,0*%
G04 Aperture macros list end*
%ADD10RoundRect,0.225000X-0.250000X0.225000X-0.250000X-0.225000X0.250000X-0.225000X0.250000X0.225000X0*%
%ADD11C,3.500000*%
%ADD12R,0.600000X0.300000*%
%ADD13R,0.300000X0.600000*%
%ADD14R,3.450000X3.450000*%
%ADD15RoundRect,0.225000X0.250000X-0.225000X0.250000X0.225000X-0.250000X0.225000X-0.250000X-0.225000X0*%
%ADD16R,2.000000X2.000000*%
%ADD17RoundRect,0.200000X-0.275000X0.200000X-0.275000X-0.200000X0.275000X-0.200000X0.275000X0.200000X0*%
%ADD18R,1.800000X2.500000*%
%ADD19RoundRect,0.200000X0.200000X0.275000X-0.200000X0.275000X-0.200000X-0.275000X0.200000X-0.275000X0*%
%ADD20R,0.375000X0.350000*%
%ADD21R,0.350000X0.375000*%
%ADD22C,2.000000*%
%ADD23R,1.700000X1.700000*%
%ADD24O,1.700000X1.700000*%
%ADD25R,3.500000X3.500000*%
%ADD26RoundRect,0.750000X-0.750000X-1.000000X0.750000X-1.000000X0.750000X1.000000X-0.750000X1.000000X0*%
%ADD27RoundRect,0.875000X-0.875000X-0.875000X0.875000X-0.875000X0.875000X0.875000X-0.875000X0.875000X0*%
%ADD28RoundRect,0.243750X-0.456250X0.243750X-0.456250X-0.243750X0.456250X-0.243750X0.456250X0.243750X0*%
%ADD29R,2.000000X1.500000*%
%ADD30R,2.000000X3.800000*%
G04 APERTURE END LIST*
D10*
%TO.C,C1*%
X122800000Y-112825000D03*
X122800000Y-114375000D03*
%TD*%
D11*
%TO.C,H1*%
X146000000Y-104000000D03*
%TD*%
D10*
%TO.C,C5*%
X122100000Y-142925000D03*
X122100000Y-144475000D03*
%TD*%
D12*
%TO.C,U1*%
X128000000Y-125600000D03*
X128000000Y-126100000D03*
X128000000Y-126600000D03*
X128000000Y-127100000D03*
X128000000Y-127600000D03*
X128000000Y-128100000D03*
X128000000Y-128600000D03*
X128000000Y-129100000D03*
D13*
X128600000Y-129700000D03*
X129100000Y-129700000D03*
X129600000Y-129700000D03*
X130100000Y-129700000D03*
X130600000Y-129700000D03*
X131100000Y-129700000D03*
X131600000Y-129700000D03*
X132100000Y-129700000D03*
D12*
X132700000Y-129100000D03*
X132700000Y-128600000D03*
X132700000Y-128100000D03*
X132700000Y-127600000D03*
X132700000Y-127100000D03*
X132700000Y-126600000D03*
X132700000Y-126100000D03*
X132700000Y-125600000D03*
D13*
X132100000Y-125000000D03*
X131600000Y-125000000D03*
X131100000Y-125000000D03*
X130600000Y-125000000D03*
X130100000Y-125000000D03*
X129600000Y-125000000D03*
X129100000Y-125000000D03*
X128600000Y-125000000D03*
D14*
X130350000Y-127350000D03*
%TD*%
D15*
%TO.C,C3*%
X138500000Y-122075000D03*
X138500000Y-120525000D03*
%TD*%
%TO.C,C2*%
X131900000Y-105675000D03*
X131900000Y-104125000D03*
%TD*%
%TO.C,C6*%
X136000000Y-141975000D03*
X136000000Y-140425000D03*
%TD*%
D16*
%TO.C,TP1*%
X137100000Y-105400000D03*
%TD*%
D11*
%TO.C,H4*%
X104000000Y-104000000D03*
%TD*%
D17*
%TO.C,R3*%
X135000000Y-132875000D03*
X135000000Y-134525000D03*
%TD*%
D18*
%TO.C,D1*%
X118700000Y-109100000D03*
X118700000Y-113100000D03*
%TD*%
D19*
%TO.C,R1*%
X136225000Y-117400000D03*
X134575000Y-117400000D03*
%TD*%
D20*
%TO.C,U4*%
X131037500Y-140750000D03*
X131037500Y-141250000D03*
X131037500Y-141750000D03*
X131037500Y-142250000D03*
D21*
X131550000Y-142262500D03*
X132050000Y-142262500D03*
D20*
X132562500Y-142250000D03*
X132562500Y-141750000D03*
X132562500Y-141250000D03*
X132562500Y-140750000D03*
D21*
X132050000Y-140737500D03*
X131550000Y-140737500D03*
%TD*%
D22*
%TO.C,SW2*%
X147150000Y-137750000D03*
X147150000Y-131250000D03*
X142650000Y-131250000D03*
X142650000Y-137750000D03*
%TD*%
D20*
%TO.C,U3*%
X133937500Y-120450000D03*
X133937500Y-120950000D03*
X133937500Y-121450000D03*
X133937500Y-121950000D03*
D21*
X134450000Y-121962500D03*
X134950000Y-121962500D03*
D20*
X135462500Y-121950000D03*
X135462500Y-121450000D03*
X135462500Y-120950000D03*
X135462500Y-120450000D03*
D21*
X134950000Y-120437500D03*
X134450000Y-120437500D03*
%TD*%
D11*
%TO.C,H3*%
X104000000Y-146000000D03*
%TD*%
D23*
%TO.C,J5*%
X127325000Y-145400000D03*
D24*
X129865000Y-145400000D03*
X132405000Y-145400000D03*
X134945000Y-145400000D03*
X137485000Y-145400000D03*
%TD*%
D19*
%TO.C,R2*%
X136125000Y-124200000D03*
X134475000Y-124200000D03*
%TD*%
D23*
%TO.C,J2*%
X112600000Y-108300000D03*
D24*
X110060000Y-108300000D03*
%TD*%
D11*
%TO.C,H2*%
X146000000Y-146000000D03*
%TD*%
D15*
%TO.C,C4*%
X126000000Y-130175000D03*
X126000000Y-128625000D03*
%TD*%
D22*
%TO.C,SW1*%
X112400000Y-145900000D03*
X118900000Y-145900000D03*
X112400000Y-141400000D03*
X118900000Y-141400000D03*
%TD*%
D23*
%TO.C,J4*%
X139650000Y-113500000D03*
D24*
X137110000Y-113500000D03*
X134570000Y-113500000D03*
X132030000Y-113500000D03*
X129490000Y-113500000D03*
X126950000Y-113500000D03*
%TD*%
D23*
%TO.C,J6*%
X146700000Y-110100000D03*
D24*
X146700000Y-112640000D03*
X146700000Y-115180000D03*
X146700000Y-117720000D03*
X146700000Y-120260000D03*
X146700000Y-122800000D03*
X146700000Y-125340000D03*
X146700000Y-127880000D03*
%TD*%
D25*
%TO.C,J1*%
X114000000Y-116042500D03*
D26*
X108000000Y-116042500D03*
D27*
X111000000Y-120742500D03*
%TD*%
D28*
%TO.C,D2*%
X138600000Y-132562500D03*
X138600000Y-134437500D03*
%TD*%
D23*
%TO.C,J3*%
X109000000Y-127700000D03*
D24*
X109000000Y-130240000D03*
X109000000Y-132780000D03*
X109000000Y-135320000D03*
%TD*%
D29*
%TO.C,U2*%
X122850000Y-104500000D03*
D30*
X129150000Y-106800000D03*
D29*
X122850000Y-106800000D03*
X122850000Y-109100000D03*
%TD*%
M02*
