%TF.GenerationSoftware,KiCad,Pcbnew,6.0.9-8da3e8f707~117~ubuntu22.04.1*%
%TF.CreationDate,2023-05-10T19:22:08-04:00*%
%TF.ProjectId,a2bikelight,61326269-6b65-46c6-9967-68742e6b6963,rev?*%
%TF.SameCoordinates,Original*%
%TF.FileFunction,Copper,L1,Top*%
%TF.FilePolarity,Positive*%
%FSLAX46Y46*%
G04 Gerber Fmt 4.6, Leading zero omitted, Abs format (unit mm)*
G04 Created by KiCad (PCBNEW 6.0.9-8da3e8f707~117~ubuntu22.04.1) date 2023-05-10 19:22:08*
%MOMM*%
%LPD*%
G01*
G04 APERTURE LIST*
G04 Aperture macros list*
%AMRoundRect*
0 Rectangle with rounded corners*
0 $1 Rounding radius*
0 $2 $3 $4 $5 $6 $7 $8 $9 X,Y pos of 4 corners*
0 Add a 4 corners polygon primitive as box body*
4,1,4,$2,$3,$4,$5,$6,$7,$8,$9,$2,$3,0*
0 Add four circle primitives for the rounded corners*
1,1,$1+$1,$2,$3*
1,1,$1+$1,$4,$5*
1,1,$1+$1,$6,$7*
1,1,$1+$1,$8,$9*
0 Add four rect primitives between the rounded corners*
20,1,$1+$1,$2,$3,$4,$5,0*
20,1,$1+$1,$4,$5,$6,$7,0*
20,1,$1+$1,$6,$7,$8,$9,0*
20,1,$1+$1,$8,$9,$2,$3,0*%
G04 Aperture macros list end*
%TA.AperFunction,ComponentPad*%
%ADD10R,1.700000X1.700000*%
%TD*%
%TA.AperFunction,ComponentPad*%
%ADD11O,1.700000X1.700000*%
%TD*%
%TA.AperFunction,SMDPad,CuDef*%
%ADD12RoundRect,0.150000X0.150000X-0.587500X0.150000X0.587500X-0.150000X0.587500X-0.150000X-0.587500X0*%
%TD*%
%TA.AperFunction,SMDPad,CuDef*%
%ADD13RoundRect,0.225000X-0.250000X0.225000X-0.250000X-0.225000X0.250000X-0.225000X0.250000X0.225000X0*%
%TD*%
%TA.AperFunction,SMDPad,CuDef*%
%ADD14R,0.600000X0.300000*%
%TD*%
%TA.AperFunction,SMDPad,CuDef*%
%ADD15R,0.300000X0.600000*%
%TD*%
%TA.AperFunction,SMDPad,CuDef*%
%ADD16R,3.450000X3.450000*%
%TD*%
%TA.AperFunction,SMDPad,CuDef*%
%ADD17RoundRect,0.225000X0.250000X-0.225000X0.250000X0.225000X-0.250000X0.225000X-0.250000X-0.225000X0*%
%TD*%
%TA.AperFunction,ComponentPad*%
%ADD18R,2.000000X2.000000*%
%TD*%
%TA.AperFunction,SMDPad,CuDef*%
%ADD19RoundRect,0.200000X-0.275000X0.200000X-0.275000X-0.200000X0.275000X-0.200000X0.275000X0.200000X0*%
%TD*%
%TA.AperFunction,SMDPad,CuDef*%
%ADD20R,1.800000X2.500000*%
%TD*%
%TA.AperFunction,SMDPad,CuDef*%
%ADD21RoundRect,0.200000X0.200000X0.275000X-0.200000X0.275000X-0.200000X-0.275000X0.200000X-0.275000X0*%
%TD*%
%TA.AperFunction,ComponentPad*%
%ADD22C,2.000000*%
%TD*%
%TA.AperFunction,SMDPad,CuDef*%
%ADD23R,0.375000X0.350000*%
%TD*%
%TA.AperFunction,SMDPad,CuDef*%
%ADD24R,0.350000X0.375000*%
%TD*%
%TA.AperFunction,SMDPad,CuDef*%
%ADD25RoundRect,0.250000X1.425000X-0.362500X1.425000X0.362500X-1.425000X0.362500X-1.425000X-0.362500X0*%
%TD*%
%TA.AperFunction,SMDPad,CuDef*%
%ADD26RoundRect,0.250000X0.262500X0.450000X-0.262500X0.450000X-0.262500X-0.450000X0.262500X-0.450000X0*%
%TD*%
%TA.AperFunction,ComponentPad*%
%ADD27R,3.500000X3.500000*%
%TD*%
%TA.AperFunction,ComponentPad*%
%ADD28RoundRect,0.750000X-0.750000X-1.000000X0.750000X-1.000000X0.750000X1.000000X-0.750000X1.000000X0*%
%TD*%
%TA.AperFunction,ComponentPad*%
%ADD29RoundRect,0.875000X-0.875000X-0.875000X0.875000X-0.875000X0.875000X0.875000X-0.875000X0.875000X0*%
%TD*%
%TA.AperFunction,SMDPad,CuDef*%
%ADD30RoundRect,0.243750X0.456250X-0.243750X0.456250X0.243750X-0.456250X0.243750X-0.456250X-0.243750X0*%
%TD*%
%TA.AperFunction,SMDPad,CuDef*%
%ADD31R,2.000000X1.500000*%
%TD*%
%TA.AperFunction,SMDPad,CuDef*%
%ADD32R,2.000000X3.800000*%
%TD*%
%TA.AperFunction,ViaPad*%
%ADD33C,0.800000*%
%TD*%
%TA.AperFunction,Conductor*%
%ADD34C,0.250000*%
%TD*%
%TA.AperFunction,Conductor*%
%ADD35C,0.500000*%
%TD*%
G04 APERTURE END LIST*
D10*
%TO.P,J5,1,Pin_1*%
%TO.N,Net-(J5-Pad1)*%
X140600000Y-132925000D03*
D11*
%TO.P,J5,2,Pin_2*%
%TO.N,Net-(J5-Pad2)*%
X140600000Y-135465000D03*
%TD*%
D12*
%TO.P,Q1,3,D*%
%TO.N,Net-(J5-Pad1)*%
X146300000Y-132162500D03*
%TO.P,Q1,2,S*%
%TO.N,VIN*%
X147250000Y-134037500D03*
%TO.P,Q1,1,G*%
%TO.N,LIGHT*%
X145350000Y-134037500D03*
%TD*%
D13*
%TO.P,C1,1*%
%TO.N,VIN*%
X122800000Y-112825000D03*
%TO.P,C1,2*%
%TO.N,GND*%
X122800000Y-114375000D03*
%TD*%
%TO.P,C6,1*%
%TO.N,NRESET*%
X122100000Y-142925000D03*
%TO.P,C6,2*%
%TO.N,GND*%
X122100000Y-144475000D03*
%TD*%
D14*
%TO.P,U1,1,NRST/PA1*%
%TO.N,NRESET*%
X128000000Y-125600000D03*
%TO.P,U1,2,PA2*%
%TO.N,unconnected-(U1-Pad2)*%
X128000000Y-126100000D03*
%TO.P,U1,3,PA3*%
%TO.N,unconnected-(U1-Pad3)*%
X128000000Y-126600000D03*
%TO.P,U1,4,PA4*%
%TO.N,unconnected-(U1-Pad4)*%
X128000000Y-127100000D03*
%TO.P,U1,5,PA5*%
%TO.N,unconnected-(U1-Pad5)*%
X128000000Y-127600000D03*
%TO.P,U1,6,PA6*%
%TO.N,unconnected-(U1-Pad6)*%
X128000000Y-128100000D03*
%TO.P,U1,7,VSS1*%
%TO.N,GND*%
X128000000Y-128600000D03*
%TO.P,U1,8,VDD1*%
%TO.N,+3V3*%
X128000000Y-129100000D03*
D15*
%TO.P,U1,9,PD0*%
%TO.N,BUTTON*%
X128600000Y-129700000D03*
%TO.P,U1,10,PD1*%
%TO.N,unconnected-(U1-Pad10)*%
X129100000Y-129700000D03*
%TO.P,U1,11,PD2*%
%TO.N,LIGHT*%
X129600000Y-129700000D03*
%TO.P,U1,12,PD3*%
%TO.N,unconnected-(U1-Pad12)*%
X130100000Y-129700000D03*
%TO.P,U1,13,PB0*%
%TO.N,unconnected-(U1-Pad13)*%
X130600000Y-129700000D03*
%TO.P,U1,14,PB1*%
%TO.N,unconnected-(U1-Pad14)*%
X131100000Y-129700000D03*
%TO.P,U1,15,PB2*%
%TO.N,unconnected-(U1-Pad15)*%
X131600000Y-129700000D03*
%TO.P,U1,16,PB3*%
%TO.N,unconnected-(U1-Pad16)*%
X132100000Y-129700000D03*
D14*
%TO.P,U1,17,PB4*%
%TO.N,unconnected-(U1-Pad17)*%
X132700000Y-129100000D03*
%TO.P,U1,18,PB5*%
%TO.N,unconnected-(U1-Pad18)*%
X132700000Y-128600000D03*
%TO.P,U1,19,PB6*%
%TO.N,unconnected-(U1-Pad19)*%
X132700000Y-128100000D03*
%TO.P,U1,20,PB7*%
%TO.N,PB7*%
X132700000Y-127600000D03*
%TO.P,U1,21,PD4*%
%TO.N,PD4*%
X132700000Y-127100000D03*
%TO.P,U1,22,PD5*%
%TO.N,PD5*%
X132700000Y-126600000D03*
%TO.P,U1,23,PD6*%
%TO.N,PD6*%
X132700000Y-126100000D03*
%TO.P,U1,24,PD7*%
%TO.N,ACCEL_INT*%
X132700000Y-125600000D03*
D15*
%TO.P,U1,25,PC0*%
%TO.N,I2C_SDA*%
X132100000Y-125000000D03*
%TO.P,U1,26,PC1*%
%TO.N,I2C_SCL*%
X131600000Y-125000000D03*
%TO.P,U1,27,PC2*%
%TO.N,SERIAL_INCOMING*%
X131100000Y-125000000D03*
%TO.P,U1,28,PC3*%
%TO.N,SERIAL_OUTGOING*%
X130600000Y-125000000D03*
%TO.P,U1,29,PC4*%
%TO.N,unconnected-(U1-Pad29)*%
X130100000Y-125000000D03*
%TO.P,U1,30,PC5*%
%TO.N,unconnected-(U1-Pad30)*%
X129600000Y-125000000D03*
%TO.P,U1,31,PC6*%
%TO.N,unconnected-(U1-Pad31)*%
X129100000Y-125000000D03*
%TO.P,U1,32,PA0*%
%TO.N,SWIM*%
X128600000Y-125000000D03*
D16*
%TO.P,U1,33,thermal*%
%TO.N,GND*%
X130350000Y-127350000D03*
%TD*%
D17*
%TO.P,C3,1*%
%TO.N,+3V3*%
X138500000Y-122075000D03*
%TO.P,C3,2*%
%TO.N,GND*%
X138500000Y-120525000D03*
%TD*%
%TO.P,C2,1*%
%TO.N,+3V3*%
X131900000Y-105675000D03*
%TO.P,C2,2*%
%TO.N,GND*%
X131900000Y-104125000D03*
%TD*%
D18*
%TO.P,TP1,1,1*%
%TO.N,GND*%
X137100000Y-105400000D03*
%TD*%
D19*
%TO.P,R5,1*%
%TO.N,LIGHT*%
X129200000Y-131675000D03*
%TO.P,R5,2*%
%TO.N,Net-(D2-Pad2)*%
X129200000Y-133325000D03*
%TD*%
D20*
%TO.P,D1,1,K*%
%TO.N,VIN*%
X118700000Y-109100000D03*
%TO.P,D1,2,A*%
%TO.N,Net-(D1-Pad2)*%
X118700000Y-113100000D03*
%TD*%
D21*
%TO.P,R1,1*%
%TO.N,+3V3*%
X136225000Y-117400000D03*
%TO.P,R1,2*%
%TO.N,I2C_SCL*%
X134575000Y-117400000D03*
%TD*%
D22*
%TO.P,SW1,1,1*%
%TO.N,GND*%
X125150000Y-145850000D03*
X131650000Y-145850000D03*
%TO.P,SW1,2,2*%
%TO.N,BUTTON*%
X131650000Y-141350000D03*
X125150000Y-141350000D03*
%TD*%
D23*
%TO.P,U3,1*%
%TO.N,unconnected-(U3-Pad1)*%
X133937500Y-120450000D03*
%TO.P,U3,2,SDA*%
%TO.N,I2C_SDA*%
X133937500Y-120950000D03*
%TO.P,U3,3*%
%TO.N,unconnected-(U3-Pad3)*%
X133937500Y-121450000D03*
%TO.P,U3,4*%
%TO.N,unconnected-(U3-Pad4)*%
X133937500Y-121950000D03*
D24*
%TO.P,U3,5,INT*%
%TO.N,ACCEL_INT*%
X134450000Y-121962500D03*
%TO.P,U3,6*%
%TO.N,unconnected-(U3-Pad6)*%
X134950000Y-121962500D03*
D23*
%TO.P,U3,7,VDD*%
%TO.N,+3V3*%
X135462500Y-121950000D03*
%TO.P,U3,8*%
%TO.N,unconnected-(U3-Pad8)*%
X135462500Y-121450000D03*
%TO.P,U3,9,GND*%
%TO.N,GND*%
X135462500Y-120950000D03*
%TO.P,U3,10*%
%TO.N,unconnected-(U3-Pad10)*%
X135462500Y-120450000D03*
D24*
%TO.P,U3,11*%
%TO.N,unconnected-(U3-Pad11)*%
X134950000Y-120437500D03*
%TO.P,U3,12,SCL*%
%TO.N,I2C_SCL*%
X134450000Y-120437500D03*
%TD*%
D21*
%TO.P,R2,1*%
%TO.N,+3V3*%
X136125000Y-124200000D03*
%TO.P,R2,2*%
%TO.N,I2C_SDA*%
X134475000Y-124200000D03*
%TD*%
D10*
%TO.P,J2,1,Pin_1*%
%TO.N,Net-(D1-Pad2)*%
X112600000Y-108300000D03*
D11*
%TO.P,J2,2,Pin_2*%
%TO.N,GND*%
X110060000Y-108300000D03*
%TD*%
D17*
%TO.P,C4,1*%
%TO.N,+3V3*%
X126000000Y-130175000D03*
%TO.P,C4,2*%
%TO.N,GND*%
X126000000Y-128625000D03*
%TD*%
D22*
%TO.P,SW2,1,1*%
%TO.N,GND*%
X112400000Y-145900000D03*
X118900000Y-145900000D03*
%TO.P,SW2,2,2*%
%TO.N,NRESET*%
X112400000Y-141400000D03*
X118900000Y-141400000D03*
%TD*%
D25*
%TO.P,R4,1*%
%TO.N,Net-(J5-Pad2)*%
X136100000Y-137162500D03*
%TO.P,R4,2*%
%TO.N,GND*%
X136100000Y-131237500D03*
%TD*%
D10*
%TO.P,J4,1,Pin_1*%
%TO.N,GND*%
X139650000Y-113500000D03*
D11*
%TO.P,J4,2,Pin_2*%
%TO.N,unconnected-(J4-Pad2)*%
X137110000Y-113500000D03*
%TO.P,J4,3,Pin_3*%
%TO.N,unconnected-(J4-Pad3)*%
X134570000Y-113500000D03*
%TO.P,J4,4,Pin_4*%
%TO.N,SERIAL_INCOMING*%
X132030000Y-113500000D03*
%TO.P,J4,5,Pin_5*%
%TO.N,SERIAL_OUTGOING*%
X129490000Y-113500000D03*
%TO.P,J4,6,Pin_6*%
%TO.N,unconnected-(J4-Pad6)*%
X126950000Y-113500000D03*
%TD*%
D26*
%TO.P,R3,2*%
%TO.N,LIGHT*%
X145187500Y-136600000D03*
%TO.P,R3,1*%
%TO.N,VIN*%
X147012500Y-136600000D03*
%TD*%
D10*
%TO.P,J6,1,Pin_1*%
%TO.N,VIN*%
X146700000Y-110100000D03*
D11*
%TO.P,J6,2,Pin_2*%
%TO.N,+3V3*%
X146700000Y-112640000D03*
%TO.P,J6,3,Pin_3*%
%TO.N,PD6*%
X146700000Y-115180000D03*
%TO.P,J6,4,Pin_4*%
%TO.N,PD5*%
X146700000Y-117720000D03*
%TO.P,J6,5,Pin_5*%
%TO.N,PD4*%
X146700000Y-120260000D03*
%TO.P,J6,6,Pin_6*%
%TO.N,PB7*%
X146700000Y-122800000D03*
%TO.P,J6,7,Pin_7*%
%TO.N,LIGHT*%
X146700000Y-125340000D03*
%TO.P,J6,8,Pin_8*%
%TO.N,GND*%
X146700000Y-127880000D03*
%TD*%
D27*
%TO.P,J1,1*%
%TO.N,Net-(D1-Pad2)*%
X114000000Y-116042500D03*
D28*
%TO.P,J1,2*%
%TO.N,GND*%
X108000000Y-116042500D03*
D29*
%TO.P,J1,3*%
X111000000Y-120742500D03*
%TD*%
D30*
%TO.P,D2,1,K*%
%TO.N,GND*%
X129200000Y-137237500D03*
%TO.P,D2,2,A*%
%TO.N,Net-(D2-Pad2)*%
X129200000Y-135362500D03*
%TD*%
D10*
%TO.P,J3,1,Pin_1*%
%TO.N,unconnected-(J3-Pad1)*%
X109000000Y-127700000D03*
D11*
%TO.P,J3,2,Pin_2*%
%TO.N,SWIM*%
X109000000Y-130240000D03*
%TO.P,J3,3,Pin_3*%
%TO.N,GND*%
X109000000Y-132780000D03*
%TO.P,J3,4,Pin_4*%
%TO.N,NRESET*%
X109000000Y-135320000D03*
%TD*%
D31*
%TO.P,U2,1,GND*%
%TO.N,GND*%
X122850000Y-104500000D03*
D32*
%TO.P,U2,2,VO*%
%TO.N,+3V3*%
X129150000Y-106800000D03*
D31*
X122850000Y-106800000D03*
%TO.P,U2,3,VI*%
%TO.N,VIN*%
X122850000Y-109100000D03*
%TD*%
D33*
%TO.N,GND*%
X135300000Y-132700000D03*
X136900000Y-132800000D03*
X135800000Y-129300000D03*
X136800000Y-129300000D03*
X129200000Y-138800000D03*
X131300000Y-128200000D03*
X129400000Y-128200000D03*
X131300000Y-126300000D03*
X129400000Y-126300000D03*
X122800000Y-115700000D03*
X120700000Y-104500000D03*
X124800000Y-104400000D03*
X122800000Y-102600000D03*
X120900000Y-103300000D03*
X131900000Y-102800000D03*
X126000000Y-127400000D03*
X138500000Y-119200000D03*
%TO.N,+3V3*%
X137300000Y-124200000D03*
X126000000Y-131400000D03*
X124900000Y-107500000D03*
X120700000Y-106100000D03*
X139000000Y-123600000D03*
X137400000Y-117400000D03*
X131700000Y-107400000D03*
X125000000Y-106400000D03*
X127000000Y-107500000D03*
X126900000Y-106000000D03*
X120900000Y-107600000D03*
%TD*%
D34*
%TO.N,LIGHT*%
X145187500Y-136600000D02*
X142687500Y-139100000D01*
X142687500Y-139100000D02*
X134800000Y-139100000D01*
X132400000Y-134875000D02*
X129200000Y-131675000D01*
X134800000Y-139100000D02*
X132400000Y-136700000D01*
X132400000Y-136700000D02*
X132400000Y-134875000D01*
X145187500Y-136600000D02*
X145187500Y-134200000D01*
X145187500Y-134200000D02*
X145350000Y-134037500D01*
D35*
%TO.N,GND*%
X136100000Y-131900000D02*
X135300000Y-132700000D01*
X136100000Y-131237500D02*
X136100000Y-131900000D01*
X136100000Y-132000000D02*
X136900000Y-132800000D01*
X136100000Y-131237500D02*
X136100000Y-132000000D01*
X136100000Y-129600000D02*
X135800000Y-129300000D01*
X136100000Y-131237500D02*
X136100000Y-129600000D01*
X136100000Y-130000000D02*
X136800000Y-129300000D01*
X136100000Y-131237500D02*
X136100000Y-130000000D01*
%TO.N,Net-(J5-Pad1)*%
X140600000Y-132925000D02*
X141362500Y-132162500D01*
X141362500Y-132162500D02*
X146300000Y-132162500D01*
%TO.N,Net-(J5-Pad2)*%
X136100000Y-137162500D02*
X138902500Y-137162500D01*
X138902500Y-137162500D02*
X140600000Y-135465000D01*
D34*
%TO.N,BUTTON*%
X125150000Y-141350000D02*
X131650000Y-141350000D01*
D35*
%TO.N,VIN*%
X147250000Y-134037500D02*
X147250000Y-136362500D01*
X147250000Y-136362500D02*
X147012500Y-136600000D01*
X146700000Y-110100000D02*
X148700000Y-112100000D01*
X148700000Y-112100000D02*
X148700000Y-132587500D01*
X148700000Y-132587500D02*
X147250000Y-134037500D01*
D34*
%TO.N,LIGHT*%
X129200000Y-131675000D02*
X132325000Y-131675000D01*
X132325000Y-131675000D02*
X136000000Y-128000000D01*
X136000000Y-128000000D02*
X144040000Y-128000000D01*
X144040000Y-128000000D02*
X146700000Y-125340000D01*
%TO.N,GND*%
X129200000Y-137237500D02*
X129200000Y-138800000D01*
%TO.N,Net-(D2-Pad2)*%
X129200000Y-133325000D02*
X129200000Y-135362500D01*
%TO.N,LIGHT*%
X129600000Y-129700000D02*
X129600000Y-131275000D01*
X129600000Y-131275000D02*
X129200000Y-131675000D01*
%TO.N,BUTTON*%
X128600000Y-129700000D02*
X128600000Y-129850000D01*
X128600000Y-129850000D02*
X127600000Y-130850000D01*
X127600000Y-130850000D02*
X127600000Y-138900000D01*
X127600000Y-138900000D02*
X125150000Y-141350000D01*
%TO.N,PD4*%
X146700000Y-120260000D02*
X145140000Y-120260000D01*
X145140000Y-120260000D02*
X144500000Y-120900000D01*
X144500000Y-120900000D02*
X144500000Y-125400000D01*
X144500000Y-125400000D02*
X142800000Y-127100000D01*
X142800000Y-127100000D02*
X132700000Y-127100000D01*
D35*
%TO.N,VIN*%
X122850000Y-109100000D02*
X125100000Y-109100000D01*
X122800000Y-109150000D02*
X122850000Y-109100000D01*
X122800000Y-112825000D02*
X122800000Y-109150000D01*
X125100000Y-109100000D02*
X126100000Y-110100000D01*
X126100000Y-110100000D02*
X146700000Y-110100000D01*
X118700000Y-109100000D02*
X122850000Y-109100000D01*
D34*
%TO.N,GND*%
X138500000Y-120525000D02*
X138500000Y-119200000D01*
X135462500Y-120950000D02*
X138075000Y-120950000D01*
X118900000Y-145900000D02*
X120325000Y-144475000D01*
D35*
X122850000Y-104500000D02*
X120700000Y-104500000D01*
D34*
X127975000Y-128625000D02*
X128000000Y-128600000D01*
D35*
X131900000Y-104125000D02*
X131900000Y-102800000D01*
X122850000Y-104500000D02*
X122100000Y-104500000D01*
X122800000Y-114375000D02*
X122800000Y-115700000D01*
X124700000Y-104500000D02*
X124800000Y-104400000D01*
D34*
X126000000Y-128625000D02*
X126000000Y-127400000D01*
X120325000Y-144475000D02*
X122100000Y-144475000D01*
D35*
X122850000Y-102650000D02*
X122800000Y-102600000D01*
D34*
X138075000Y-120950000D02*
X138500000Y-120525000D01*
D35*
X122850000Y-104500000D02*
X122850000Y-102650000D01*
D34*
X126000000Y-128625000D02*
X127975000Y-128625000D01*
D35*
X122100000Y-104500000D02*
X120900000Y-103300000D01*
X122850000Y-104500000D02*
X124700000Y-104500000D01*
D34*
%TO.N,+3V3*%
X126000000Y-130175000D02*
X126000000Y-131400000D01*
D35*
X129150000Y-106800000D02*
X130775000Y-106800000D01*
X127700000Y-106800000D02*
X127000000Y-107500000D01*
D34*
X138500000Y-122075000D02*
X138500000Y-123100000D01*
D35*
X122850000Y-106800000D02*
X121700000Y-106800000D01*
X124600000Y-106800000D02*
X125000000Y-106400000D01*
X127700000Y-106800000D02*
X126900000Y-106000000D01*
D34*
X138375000Y-121950000D02*
X138500000Y-122075000D01*
D35*
X121400000Y-106800000D02*
X120700000Y-106100000D01*
D34*
X127075000Y-129100000D02*
X126000000Y-130175000D01*
X128000000Y-129100000D02*
X127075000Y-129100000D01*
D35*
X122850000Y-106800000D02*
X124200000Y-106800000D01*
X122850000Y-106800000D02*
X121400000Y-106800000D01*
D34*
X136225000Y-117400000D02*
X137400000Y-117400000D01*
D35*
X131100000Y-106800000D02*
X131700000Y-107400000D01*
X122850000Y-106800000D02*
X124600000Y-106800000D01*
X130775000Y-106800000D02*
X131900000Y-105675000D01*
X124200000Y-106800000D02*
X124900000Y-107500000D01*
D34*
X135462500Y-121950000D02*
X138375000Y-121950000D01*
D35*
X121700000Y-106800000D02*
X120900000Y-107600000D01*
X129150000Y-106800000D02*
X131100000Y-106800000D01*
D34*
X138500000Y-123100000D02*
X139000000Y-123600000D01*
D35*
X129150000Y-106800000D02*
X127700000Y-106800000D01*
D34*
X136125000Y-124200000D02*
X137300000Y-124200000D01*
%TO.N,NRESET*%
X118900000Y-141400000D02*
X112400000Y-141400000D01*
X114080000Y-135320000D02*
X109000000Y-135320000D01*
X112400000Y-141400000D02*
X112400000Y-138720000D01*
X112400000Y-138720000D02*
X109000000Y-135320000D01*
X122100000Y-142925000D02*
X120425000Y-142925000D01*
X123800000Y-125600000D02*
X114080000Y-135320000D01*
X120425000Y-142925000D02*
X118900000Y-141400000D01*
X128000000Y-125600000D02*
X123800000Y-125600000D01*
D35*
%TO.N,Net-(D1-Pad2)*%
X116942500Y-113100000D02*
X118700000Y-113100000D01*
X114000000Y-109700000D02*
X112600000Y-108300000D01*
X114000000Y-116042500D02*
X116942500Y-113100000D01*
X114000000Y-116042500D02*
X114000000Y-109700000D01*
D34*
%TO.N,SWIM*%
X109000000Y-130240000D02*
X117260000Y-130240000D01*
X122500000Y-125000000D02*
X128600000Y-125000000D01*
X117260000Y-130240000D02*
X122500000Y-125000000D01*
%TO.N,SERIAL_INCOMING*%
X131100000Y-114430000D02*
X132030000Y-113500000D01*
X131100000Y-125000000D02*
X131100000Y-114430000D01*
%TO.N,SERIAL_OUTGOING*%
X130600000Y-114610000D02*
X129490000Y-113500000D01*
X130600000Y-125000000D02*
X130600000Y-114610000D01*
%TO.N,I2C_SCL*%
X133200000Y-117400000D02*
X134575000Y-117400000D01*
X134450000Y-120437500D02*
X134450000Y-117525000D01*
X134450000Y-117525000D02*
X134575000Y-117400000D01*
X131600000Y-125000000D02*
X131600000Y-119000000D01*
X131600000Y-119000000D02*
X133200000Y-117400000D01*
%TO.N,I2C_SDA*%
X132100000Y-125000000D02*
X132100000Y-122395978D01*
X132100000Y-125000000D02*
X133675000Y-125000000D01*
X133545978Y-120950000D02*
X133937500Y-120950000D01*
X133675000Y-125000000D02*
X134475000Y-124200000D01*
X132100000Y-122395978D02*
X133545978Y-120950000D01*
%TO.N,ACCEL_INT*%
X135000000Y-123000000D02*
X134450000Y-122450000D01*
X137400000Y-125600000D02*
X138100000Y-124900000D01*
X132700000Y-125600000D02*
X137400000Y-125600000D01*
X134450000Y-122450000D02*
X134450000Y-121962500D01*
X138100000Y-124900000D02*
X138100000Y-123700000D01*
X137400000Y-123000000D02*
X135000000Y-123000000D01*
X138100000Y-123700000D02*
X137400000Y-123000000D01*
%TO.N,PB7*%
X145100000Y-124400000D02*
X146700000Y-122800000D01*
X143400000Y-127600000D02*
X145100000Y-125900000D01*
X132700000Y-127600000D02*
X143400000Y-127600000D01*
X145100000Y-125900000D02*
X145100000Y-124400000D01*
%TO.N,PD5*%
X143800000Y-125200000D02*
X143800000Y-120620000D01*
X132700000Y-126600000D02*
X142400000Y-126600000D01*
X142400000Y-126600000D02*
X143800000Y-125200000D01*
X143800000Y-120620000D02*
X146700000Y-117720000D01*
%TO.N,PD6*%
X143300000Y-118580000D02*
X146700000Y-115180000D01*
X143300000Y-124700000D02*
X143300000Y-118580000D01*
X132700000Y-126100000D02*
X141900000Y-126100000D01*
X141900000Y-126100000D02*
X143300000Y-124700000D01*
%TD*%
M02*
