%TF.GenerationSoftware,KiCad,Pcbnew,6.0.9-8da3e8f707~117~ubuntu22.04.1*%
%TF.CreationDate,2023-05-10T19:22:08-04:00*%
%TF.ProjectId,a2bikelight,61326269-6b65-46c6-9967-68742e6b6963,rev?*%
%TF.SameCoordinates,Original*%
%TF.FileFunction,Copper,L3,Inr*%
%TF.FilePolarity,Positive*%
%FSLAX46Y46*%
G04 Gerber Fmt 4.6, Leading zero omitted, Abs format (unit mm)*
G04 Created by KiCad (PCBNEW 6.0.9-8da3e8f707~117~ubuntu22.04.1) date 2023-05-10 19:22:08*
%MOMM*%
%LPD*%
G01*
G04 APERTURE LIST*
G04 Aperture macros list*
%AMRoundRect*
0 Rectangle with rounded corners*
0 $1 Rounding radius*
0 $2 $3 $4 $5 $6 $7 $8 $9 X,Y pos of 4 corners*
0 Add a 4 corners polygon primitive as box body*
4,1,4,$2,$3,$4,$5,$6,$7,$8,$9,$2,$3,0*
0 Add four circle primitives for the rounded corners*
1,1,$1+$1,$2,$3*
1,1,$1+$1,$4,$5*
1,1,$1+$1,$6,$7*
1,1,$1+$1,$8,$9*
0 Add four rect primitives between the rounded corners*
20,1,$1+$1,$2,$3,$4,$5,0*
20,1,$1+$1,$4,$5,$6,$7,0*
20,1,$1+$1,$6,$7,$8,$9,0*
20,1,$1+$1,$8,$9,$2,$3,0*%
G04 Aperture macros list end*
%TA.AperFunction,ComponentPad*%
%ADD10R,1.700000X1.700000*%
%TD*%
%TA.AperFunction,ComponentPad*%
%ADD11O,1.700000X1.700000*%
%TD*%
%TA.AperFunction,ComponentPad*%
%ADD12R,2.000000X2.000000*%
%TD*%
%TA.AperFunction,ComponentPad*%
%ADD13C,2.000000*%
%TD*%
%TA.AperFunction,ComponentPad*%
%ADD14R,3.500000X3.500000*%
%TD*%
%TA.AperFunction,ComponentPad*%
%ADD15RoundRect,0.750000X-0.750000X-1.000000X0.750000X-1.000000X0.750000X1.000000X-0.750000X1.000000X0*%
%TD*%
%TA.AperFunction,ComponentPad*%
%ADD16RoundRect,0.875000X-0.875000X-0.875000X0.875000X-0.875000X0.875000X0.875000X-0.875000X0.875000X0*%
%TD*%
%TA.AperFunction,ViaPad*%
%ADD17C,0.800000*%
%TD*%
G04 APERTURE END LIST*
D10*
%TO.N,Net-(J5-Pad1)*%
%TO.C,J5*%
X140600000Y-132925000D03*
D11*
%TO.N,Net-(J5-Pad2)*%
X140600000Y-135465000D03*
%TD*%
D12*
%TO.N,GND*%
%TO.C,TP1*%
X137100000Y-105400000D03*
%TD*%
D13*
%TO.N,GND*%
%TO.C,SW1*%
X125150000Y-145850000D03*
X131650000Y-145850000D03*
%TO.N,BUTTON*%
X131650000Y-141350000D03*
X125150000Y-141350000D03*
%TD*%
D10*
%TO.N,Net-(D1-Pad2)*%
%TO.C,J2*%
X112600000Y-108300000D03*
D11*
%TO.N,GND*%
X110060000Y-108300000D03*
%TD*%
D13*
%TO.N,GND*%
%TO.C,SW2*%
X112400000Y-145900000D03*
X118900000Y-145900000D03*
%TO.N,NRESET*%
X112400000Y-141400000D03*
X118900000Y-141400000D03*
%TD*%
D10*
%TO.N,GND*%
%TO.C,J4*%
X139650000Y-113500000D03*
D11*
%TO.N,unconnected-(J4-Pad2)*%
X137110000Y-113500000D03*
%TO.N,unconnected-(J4-Pad3)*%
X134570000Y-113500000D03*
%TO.N,SERIAL_INCOMING*%
X132030000Y-113500000D03*
%TO.N,SERIAL_OUTGOING*%
X129490000Y-113500000D03*
%TO.N,unconnected-(J4-Pad6)*%
X126950000Y-113500000D03*
%TD*%
D10*
%TO.N,VIN*%
%TO.C,J6*%
X146700000Y-110100000D03*
D11*
%TO.N,+3V3*%
X146700000Y-112640000D03*
%TO.N,PD6*%
X146700000Y-115180000D03*
%TO.N,PD5*%
X146700000Y-117720000D03*
%TO.N,PD4*%
X146700000Y-120260000D03*
%TO.N,PB7*%
X146700000Y-122800000D03*
%TO.N,LIGHT*%
X146700000Y-125340000D03*
%TO.N,GND*%
X146700000Y-127880000D03*
%TD*%
D14*
%TO.N,Net-(D1-Pad2)*%
%TO.C,J1*%
X114000000Y-116042500D03*
D15*
%TO.N,GND*%
X108000000Y-116042500D03*
D16*
X111000000Y-120742500D03*
%TD*%
D10*
%TO.N,unconnected-(J3-Pad1)*%
%TO.C,J3*%
X109000000Y-127700000D03*
D11*
%TO.N,SWIM*%
X109000000Y-130240000D03*
%TO.N,GND*%
X109000000Y-132780000D03*
%TO.N,NRESET*%
X109000000Y-135320000D03*
%TD*%
D17*
%TO.N,GND*%
X135300000Y-132700000D03*
X136900000Y-132800000D03*
X135800000Y-129300000D03*
X136800000Y-129300000D03*
X129200000Y-138800000D03*
X131300000Y-128200000D03*
X129400000Y-128200000D03*
X131300000Y-126300000D03*
X129400000Y-126300000D03*
X122800000Y-115700000D03*
X120700000Y-104500000D03*
X124800000Y-104400000D03*
X122800000Y-102600000D03*
X120900000Y-103300000D03*
X131900000Y-102800000D03*
X126000000Y-127400000D03*
X138500000Y-119200000D03*
%TO.N,+3V3*%
X137300000Y-124200000D03*
X126000000Y-131400000D03*
X124900000Y-107500000D03*
X120700000Y-106100000D03*
X139000000Y-123600000D03*
X137400000Y-117400000D03*
X131700000Y-107400000D03*
X125000000Y-106400000D03*
X127000000Y-107500000D03*
X126900000Y-106000000D03*
X120900000Y-107600000D03*
%TD*%
%TA.AperFunction,Conductor*%
%TO.N,+3V3*%
G36*
X149433621Y-100528502D02*
G01*
X149480114Y-100582158D01*
X149491500Y-100634500D01*
X149491500Y-149365500D01*
X149471498Y-149433621D01*
X149417842Y-149480114D01*
X149365500Y-149491500D01*
X100634500Y-149491500D01*
X100566379Y-149471498D01*
X100519886Y-149417842D01*
X100508500Y-149365500D01*
X100508500Y-146047404D01*
X101736941Y-146047404D01*
X101737304Y-146051552D01*
X101737304Y-146051556D01*
X101745176Y-146141524D01*
X101763091Y-146346292D01*
X101764001Y-146350364D01*
X101764002Y-146350369D01*
X101816887Y-146586963D01*
X101828540Y-146639095D01*
X101932140Y-146920671D01*
X101934084Y-146924359D01*
X101934088Y-146924367D01*
X102040797Y-147126759D01*
X102072069Y-147186071D01*
X102245871Y-147430633D01*
X102450490Y-147650061D01*
X102682333Y-147840498D01*
X102937325Y-147998600D01*
X103210988Y-148121589D01*
X103385368Y-148173574D01*
X103494514Y-148206112D01*
X103494516Y-148206112D01*
X103498513Y-148207304D01*
X103502633Y-148207957D01*
X103502635Y-148207957D01*
X103621509Y-148226785D01*
X103794848Y-148254239D01*
X103837577Y-148256179D01*
X103887262Y-148258436D01*
X103887281Y-148258436D01*
X103888681Y-148258500D01*
X104076107Y-148258500D01*
X104299370Y-148243671D01*
X104303464Y-148242846D01*
X104303468Y-148242845D01*
X104444513Y-148214405D01*
X104593480Y-148184368D01*
X104877163Y-148086688D01*
X104880896Y-148084819D01*
X104880900Y-148084817D01*
X105141691Y-147954222D01*
X105141693Y-147954221D01*
X105145435Y-147952347D01*
X105393584Y-147783706D01*
X105617248Y-147583726D01*
X105619966Y-147580555D01*
X105809779Y-147359097D01*
X105809782Y-147359093D01*
X105812499Y-147355923D01*
X105814773Y-147352421D01*
X105814777Y-147352416D01*
X105973628Y-147107807D01*
X105973631Y-147107802D01*
X105975907Y-147104297D01*
X105990210Y-147074176D01*
X106102804Y-146837052D01*
X106104600Y-146833270D01*
X106134734Y-146739416D01*
X106195038Y-146551591D01*
X106195038Y-146551590D01*
X106196318Y-146547604D01*
X106227884Y-146372167D01*
X106248709Y-146256425D01*
X106248710Y-146256420D01*
X106249448Y-146252316D01*
X106254480Y-146141524D01*
X106262870Y-145956766D01*
X106262870Y-145956760D01*
X106263059Y-145952596D01*
X106258458Y-145900000D01*
X110886835Y-145900000D01*
X110905465Y-146136711D01*
X110960895Y-146367594D01*
X110962788Y-146372165D01*
X110962789Y-146372167D01*
X111037109Y-146551591D01*
X111051760Y-146586963D01*
X111054346Y-146591183D01*
X111173241Y-146785202D01*
X111173245Y-146785208D01*
X111175824Y-146789416D01*
X111330031Y-146969969D01*
X111510584Y-147124176D01*
X111514792Y-147126755D01*
X111514798Y-147126759D01*
X111634537Y-147200135D01*
X111713037Y-147248240D01*
X111717607Y-147250133D01*
X111717611Y-147250135D01*
X111927833Y-147337211D01*
X111932406Y-147339105D01*
X112002458Y-147355923D01*
X112158476Y-147393380D01*
X112158482Y-147393381D01*
X112163289Y-147394535D01*
X112400000Y-147413165D01*
X112636711Y-147394535D01*
X112641518Y-147393381D01*
X112641524Y-147393380D01*
X112797542Y-147355923D01*
X112867594Y-147339105D01*
X112872167Y-147337211D01*
X113082389Y-147250135D01*
X113082393Y-147250133D01*
X113086963Y-147248240D01*
X113165463Y-147200135D01*
X113285202Y-147126759D01*
X113285208Y-147126755D01*
X113289416Y-147124176D01*
X113469969Y-146969969D01*
X113624176Y-146789416D01*
X113626755Y-146785208D01*
X113626759Y-146785202D01*
X113745654Y-146591183D01*
X113748240Y-146586963D01*
X113762892Y-146551591D01*
X113837211Y-146372167D01*
X113837212Y-146372165D01*
X113839105Y-146367594D01*
X113894535Y-146136711D01*
X113913165Y-145900000D01*
X117386835Y-145900000D01*
X117405465Y-146136711D01*
X117460895Y-146367594D01*
X117462788Y-146372165D01*
X117462789Y-146372167D01*
X117537109Y-146551591D01*
X117551760Y-146586963D01*
X117554346Y-146591183D01*
X117673241Y-146785202D01*
X117673245Y-146785208D01*
X117675824Y-146789416D01*
X117830031Y-146969969D01*
X118010584Y-147124176D01*
X118014792Y-147126755D01*
X118014798Y-147126759D01*
X118134537Y-147200135D01*
X118213037Y-147248240D01*
X118217607Y-147250133D01*
X118217611Y-147250135D01*
X118427833Y-147337211D01*
X118432406Y-147339105D01*
X118502458Y-147355923D01*
X118658476Y-147393380D01*
X118658482Y-147393381D01*
X118663289Y-147394535D01*
X118900000Y-147413165D01*
X119136711Y-147394535D01*
X119141518Y-147393381D01*
X119141524Y-147393380D01*
X119297542Y-147355923D01*
X119367594Y-147339105D01*
X119372167Y-147337211D01*
X119582389Y-147250135D01*
X119582393Y-147250133D01*
X119586963Y-147248240D01*
X119665463Y-147200135D01*
X119785202Y-147126759D01*
X119785208Y-147126755D01*
X119789416Y-147124176D01*
X119969969Y-146969969D01*
X120124176Y-146789416D01*
X120126755Y-146785208D01*
X120126759Y-146785202D01*
X120245654Y-146591183D01*
X120248240Y-146586963D01*
X120262892Y-146551591D01*
X120337211Y-146372167D01*
X120337212Y-146372165D01*
X120339105Y-146367594D01*
X120394535Y-146136711D01*
X120413165Y-145900000D01*
X120409230Y-145850000D01*
X123636835Y-145850000D01*
X123655465Y-146086711D01*
X123710895Y-146317594D01*
X123712788Y-146322165D01*
X123712789Y-146322167D01*
X123733500Y-146372167D01*
X123801760Y-146536963D01*
X123804346Y-146541183D01*
X123923241Y-146735202D01*
X123923245Y-146735208D01*
X123925824Y-146739416D01*
X124080031Y-146919969D01*
X124260584Y-147074176D01*
X124264792Y-147076755D01*
X124264798Y-147076759D01*
X124336936Y-147120965D01*
X124463037Y-147198240D01*
X124467607Y-147200133D01*
X124467611Y-147200135D01*
X124577505Y-147245654D01*
X124682406Y-147289105D01*
X124762609Y-147308360D01*
X124908476Y-147343380D01*
X124908482Y-147343381D01*
X124913289Y-147344535D01*
X125150000Y-147363165D01*
X125386711Y-147344535D01*
X125391518Y-147343381D01*
X125391524Y-147343380D01*
X125537391Y-147308360D01*
X125617594Y-147289105D01*
X125722495Y-147245654D01*
X125832389Y-147200135D01*
X125832393Y-147200133D01*
X125836963Y-147198240D01*
X125963064Y-147120965D01*
X126035202Y-147076759D01*
X126035208Y-147076755D01*
X126039416Y-147074176D01*
X126219969Y-146919969D01*
X126374176Y-146739416D01*
X126376755Y-146735208D01*
X126376759Y-146735202D01*
X126495654Y-146541183D01*
X126498240Y-146536963D01*
X126566501Y-146372167D01*
X126587211Y-146322167D01*
X126587212Y-146322165D01*
X126589105Y-146317594D01*
X126644535Y-146086711D01*
X126663165Y-145850000D01*
X130136835Y-145850000D01*
X130155465Y-146086711D01*
X130210895Y-146317594D01*
X130212788Y-146322165D01*
X130212789Y-146322167D01*
X130233500Y-146372167D01*
X130301760Y-146536963D01*
X130304346Y-146541183D01*
X130423241Y-146735202D01*
X130423245Y-146735208D01*
X130425824Y-146739416D01*
X130580031Y-146919969D01*
X130760584Y-147074176D01*
X130764792Y-147076755D01*
X130764798Y-147076759D01*
X130836936Y-147120965D01*
X130963037Y-147198240D01*
X130967607Y-147200133D01*
X130967611Y-147200135D01*
X131077505Y-147245654D01*
X131182406Y-147289105D01*
X131262609Y-147308360D01*
X131408476Y-147343380D01*
X131408482Y-147343381D01*
X131413289Y-147344535D01*
X131650000Y-147363165D01*
X131886711Y-147344535D01*
X131891518Y-147343381D01*
X131891524Y-147343380D01*
X132037391Y-147308360D01*
X132117594Y-147289105D01*
X132222495Y-147245654D01*
X132332389Y-147200135D01*
X132332393Y-147200133D01*
X132336963Y-147198240D01*
X132463064Y-147120965D01*
X132535202Y-147076759D01*
X132535208Y-147076755D01*
X132539416Y-147074176D01*
X132719969Y-146919969D01*
X132874176Y-146739416D01*
X132876755Y-146735208D01*
X132876759Y-146735202D01*
X132995654Y-146541183D01*
X132998240Y-146536963D01*
X133066501Y-146372167D01*
X133087211Y-146322167D01*
X133087212Y-146322165D01*
X133089105Y-146317594D01*
X133144535Y-146086711D01*
X133147629Y-146047404D01*
X143736941Y-146047404D01*
X143737304Y-146051552D01*
X143737304Y-146051556D01*
X143745176Y-146141524D01*
X143763091Y-146346292D01*
X143764001Y-146350364D01*
X143764002Y-146350369D01*
X143816887Y-146586963D01*
X143828540Y-146639095D01*
X143932140Y-146920671D01*
X143934084Y-146924359D01*
X143934088Y-146924367D01*
X144040797Y-147126759D01*
X144072069Y-147186071D01*
X144245871Y-147430633D01*
X144450490Y-147650061D01*
X144682333Y-147840498D01*
X144937325Y-147998600D01*
X145210988Y-148121589D01*
X145385368Y-148173574D01*
X145494514Y-148206112D01*
X145494516Y-148206112D01*
X145498513Y-148207304D01*
X145502633Y-148207957D01*
X145502635Y-148207957D01*
X145621509Y-148226785D01*
X145794848Y-148254239D01*
X145837577Y-148256179D01*
X145887262Y-148258436D01*
X145887281Y-148258436D01*
X145888681Y-148258500D01*
X146076107Y-148258500D01*
X146299370Y-148243671D01*
X146303464Y-148242846D01*
X146303468Y-148242845D01*
X146444513Y-148214405D01*
X146593480Y-148184368D01*
X146877163Y-148086688D01*
X146880896Y-148084819D01*
X146880900Y-148084817D01*
X147141691Y-147954222D01*
X147141693Y-147954221D01*
X147145435Y-147952347D01*
X147393584Y-147783706D01*
X147617248Y-147583726D01*
X147619966Y-147580555D01*
X147809779Y-147359097D01*
X147809782Y-147359093D01*
X147812499Y-147355923D01*
X147814773Y-147352421D01*
X147814777Y-147352416D01*
X147973628Y-147107807D01*
X147973631Y-147107802D01*
X147975907Y-147104297D01*
X147990210Y-147074176D01*
X148102804Y-146837052D01*
X148104600Y-146833270D01*
X148134734Y-146739416D01*
X148195038Y-146551591D01*
X148195038Y-146551590D01*
X148196318Y-146547604D01*
X148227884Y-146372167D01*
X148248709Y-146256425D01*
X148248710Y-146256420D01*
X148249448Y-146252316D01*
X148254480Y-146141524D01*
X148262870Y-145956766D01*
X148262870Y-145956760D01*
X148263059Y-145952596D01*
X148258458Y-145900000D01*
X148237273Y-145657870D01*
X148236909Y-145653708D01*
X148227875Y-145613289D01*
X148172372Y-145364984D01*
X148172371Y-145364981D01*
X148171460Y-145360905D01*
X148067860Y-145079329D01*
X148065916Y-145075641D01*
X148065912Y-145075633D01*
X147929884Y-144817633D01*
X147929883Y-144817632D01*
X147927931Y-144813929D01*
X147754129Y-144569367D01*
X147549510Y-144349939D01*
X147317667Y-144159502D01*
X147062675Y-144001400D01*
X146789012Y-143878411D01*
X146575650Y-143814805D01*
X146505486Y-143793888D01*
X146505484Y-143793888D01*
X146501487Y-143792696D01*
X146497367Y-143792043D01*
X146497365Y-143792043D01*
X146378491Y-143773215D01*
X146205152Y-143745761D01*
X146162423Y-143743821D01*
X146112738Y-143741564D01*
X146112719Y-143741564D01*
X146111319Y-143741500D01*
X145923893Y-143741500D01*
X145700630Y-143756329D01*
X145696536Y-143757154D01*
X145696532Y-143757155D01*
X145555487Y-143785595D01*
X145406520Y-143815632D01*
X145122837Y-143913312D01*
X145119104Y-143915181D01*
X145119100Y-143915183D01*
X144858309Y-144045778D01*
X144854565Y-144047653D01*
X144606416Y-144216294D01*
X144382752Y-144416274D01*
X144380035Y-144419444D01*
X144380034Y-144419445D01*
X144200394Y-144629035D01*
X144187501Y-144644077D01*
X144185227Y-144647579D01*
X144185223Y-144647584D01*
X144026372Y-144892193D01*
X144024093Y-144895703D01*
X143895400Y-145166730D01*
X143894121Y-145170713D01*
X143894120Y-145170716D01*
X143811568Y-145427833D01*
X143803682Y-145452396D01*
X143750552Y-145747684D01*
X143750363Y-145751851D01*
X143750362Y-145751858D01*
X143743635Y-145900000D01*
X143736941Y-146047404D01*
X133147629Y-146047404D01*
X133163165Y-145850000D01*
X133144535Y-145613289D01*
X133089105Y-145382406D01*
X132998240Y-145163037D01*
X132949346Y-145083249D01*
X132876759Y-144964798D01*
X132876755Y-144964792D01*
X132874176Y-144960584D01*
X132719969Y-144780031D01*
X132539416Y-144625824D01*
X132535208Y-144623245D01*
X132535202Y-144623241D01*
X132341183Y-144504346D01*
X132336963Y-144501760D01*
X132332393Y-144499867D01*
X132332389Y-144499865D01*
X132122167Y-144412789D01*
X132122165Y-144412788D01*
X132117594Y-144410895D01*
X132017377Y-144386835D01*
X131891524Y-144356620D01*
X131891518Y-144356619D01*
X131886711Y-144355465D01*
X131650000Y-144336835D01*
X131413289Y-144355465D01*
X131408482Y-144356619D01*
X131408476Y-144356620D01*
X131282623Y-144386835D01*
X131182406Y-144410895D01*
X131177835Y-144412788D01*
X131177833Y-144412789D01*
X130967611Y-144499865D01*
X130967607Y-144499867D01*
X130963037Y-144501760D01*
X130958817Y-144504346D01*
X130764798Y-144623241D01*
X130764792Y-144623245D01*
X130760584Y-144625824D01*
X130580031Y-144780031D01*
X130425824Y-144960584D01*
X130423245Y-144964792D01*
X130423241Y-144964798D01*
X130350654Y-145083249D01*
X130301760Y-145163037D01*
X130210895Y-145382406D01*
X130155465Y-145613289D01*
X130136835Y-145850000D01*
X126663165Y-145850000D01*
X126644535Y-145613289D01*
X126589105Y-145382406D01*
X126498240Y-145163037D01*
X126449346Y-145083249D01*
X126376759Y-144964798D01*
X126376755Y-144964792D01*
X126374176Y-144960584D01*
X126219969Y-144780031D01*
X126039416Y-144625824D01*
X126035208Y-144623245D01*
X126035202Y-144623241D01*
X125841183Y-144504346D01*
X125836963Y-144501760D01*
X125832393Y-144499867D01*
X125832389Y-144499865D01*
X125622167Y-144412789D01*
X125622165Y-144412788D01*
X125617594Y-144410895D01*
X125517377Y-144386835D01*
X125391524Y-144356620D01*
X125391518Y-144356619D01*
X125386711Y-144355465D01*
X125150000Y-144336835D01*
X124913289Y-144355465D01*
X124908482Y-144356619D01*
X124908476Y-144356620D01*
X124782623Y-144386835D01*
X124682406Y-144410895D01*
X124677835Y-144412788D01*
X124677833Y-144412789D01*
X124467611Y-144499865D01*
X124467607Y-144499867D01*
X124463037Y-144501760D01*
X124458817Y-144504346D01*
X124264798Y-144623241D01*
X124264792Y-144623245D01*
X124260584Y-144625824D01*
X124080031Y-144780031D01*
X123925824Y-144960584D01*
X123923245Y-144964792D01*
X123923241Y-144964798D01*
X123850654Y-145083249D01*
X123801760Y-145163037D01*
X123710895Y-145382406D01*
X123655465Y-145613289D01*
X123636835Y-145850000D01*
X120409230Y-145850000D01*
X120394535Y-145663289D01*
X120393235Y-145657870D01*
X120340260Y-145437218D01*
X120339105Y-145432406D01*
X120320388Y-145387218D01*
X120250135Y-145217611D01*
X120250133Y-145217607D01*
X120248240Y-145213037D01*
X120215014Y-145158817D01*
X120126759Y-145014798D01*
X120126755Y-145014792D01*
X120124176Y-145010584D01*
X119969969Y-144830031D01*
X119789416Y-144675824D01*
X119785208Y-144673245D01*
X119785202Y-144673241D01*
X119591183Y-144554346D01*
X119586963Y-144551760D01*
X119582393Y-144549867D01*
X119582389Y-144549865D01*
X119372167Y-144462789D01*
X119372165Y-144462788D01*
X119367594Y-144460895D01*
X119287391Y-144441640D01*
X119141524Y-144406620D01*
X119141518Y-144406619D01*
X119136711Y-144405465D01*
X118900000Y-144386835D01*
X118663289Y-144405465D01*
X118658482Y-144406619D01*
X118658476Y-144406620D01*
X118512609Y-144441640D01*
X118432406Y-144460895D01*
X118427835Y-144462788D01*
X118427833Y-144462789D01*
X118217611Y-144549865D01*
X118217607Y-144549867D01*
X118213037Y-144551760D01*
X118208817Y-144554346D01*
X118014798Y-144673241D01*
X118014792Y-144673245D01*
X118010584Y-144675824D01*
X117830031Y-144830031D01*
X117675824Y-145010584D01*
X117673245Y-145014792D01*
X117673241Y-145014798D01*
X117584986Y-145158817D01*
X117551760Y-145213037D01*
X117549867Y-145217607D01*
X117549865Y-145217611D01*
X117479612Y-145387218D01*
X117460895Y-145432406D01*
X117459740Y-145437218D01*
X117406766Y-145657870D01*
X117405465Y-145663289D01*
X117386835Y-145900000D01*
X113913165Y-145900000D01*
X113894535Y-145663289D01*
X113893235Y-145657870D01*
X113840260Y-145437218D01*
X113839105Y-145432406D01*
X113820388Y-145387218D01*
X113750135Y-145217611D01*
X113750133Y-145217607D01*
X113748240Y-145213037D01*
X113715014Y-145158817D01*
X113626759Y-145014798D01*
X113626755Y-145014792D01*
X113624176Y-145010584D01*
X113469969Y-144830031D01*
X113289416Y-144675824D01*
X113285208Y-144673245D01*
X113285202Y-144673241D01*
X113091183Y-144554346D01*
X113086963Y-144551760D01*
X113082393Y-144549867D01*
X113082389Y-144549865D01*
X112872167Y-144462789D01*
X112872165Y-144462788D01*
X112867594Y-144460895D01*
X112787391Y-144441640D01*
X112641524Y-144406620D01*
X112641518Y-144406619D01*
X112636711Y-144405465D01*
X112400000Y-144386835D01*
X112163289Y-144405465D01*
X112158482Y-144406619D01*
X112158476Y-144406620D01*
X112012609Y-144441640D01*
X111932406Y-144460895D01*
X111927835Y-144462788D01*
X111927833Y-144462789D01*
X111717611Y-144549865D01*
X111717607Y-144549867D01*
X111713037Y-144551760D01*
X111708817Y-144554346D01*
X111514798Y-144673241D01*
X111514792Y-144673245D01*
X111510584Y-144675824D01*
X111330031Y-144830031D01*
X111175824Y-145010584D01*
X111173245Y-145014792D01*
X111173241Y-145014798D01*
X111084986Y-145158817D01*
X111051760Y-145213037D01*
X111049867Y-145217607D01*
X111049865Y-145217611D01*
X110979612Y-145387218D01*
X110960895Y-145432406D01*
X110959740Y-145437218D01*
X110906766Y-145657870D01*
X110905465Y-145663289D01*
X110886835Y-145900000D01*
X106258458Y-145900000D01*
X106237273Y-145657870D01*
X106236909Y-145653708D01*
X106227875Y-145613289D01*
X106172372Y-145364984D01*
X106172371Y-145364981D01*
X106171460Y-145360905D01*
X106067860Y-145079329D01*
X106065916Y-145075641D01*
X106065912Y-145075633D01*
X105929884Y-144817633D01*
X105929883Y-144817632D01*
X105927931Y-144813929D01*
X105754129Y-144569367D01*
X105549510Y-144349939D01*
X105317667Y-144159502D01*
X105062675Y-144001400D01*
X104789012Y-143878411D01*
X104575650Y-143814805D01*
X104505486Y-143793888D01*
X104505484Y-143793888D01*
X104501487Y-143792696D01*
X104497367Y-143792043D01*
X104497365Y-143792043D01*
X104378491Y-143773215D01*
X104205152Y-143745761D01*
X104162423Y-143743821D01*
X104112738Y-143741564D01*
X104112719Y-143741564D01*
X104111319Y-143741500D01*
X103923893Y-143741500D01*
X103700630Y-143756329D01*
X103696536Y-143757154D01*
X103696532Y-143757155D01*
X103555487Y-143785595D01*
X103406520Y-143815632D01*
X103122837Y-143913312D01*
X103119104Y-143915181D01*
X103119100Y-143915183D01*
X102858309Y-144045778D01*
X102854565Y-144047653D01*
X102606416Y-144216294D01*
X102382752Y-144416274D01*
X102380035Y-144419444D01*
X102380034Y-144419445D01*
X102200394Y-144629035D01*
X102187501Y-144644077D01*
X102185227Y-144647579D01*
X102185223Y-144647584D01*
X102026372Y-144892193D01*
X102024093Y-144895703D01*
X101895400Y-145166730D01*
X101894121Y-145170713D01*
X101894120Y-145170716D01*
X101811568Y-145427833D01*
X101803682Y-145452396D01*
X101750552Y-145747684D01*
X101750363Y-145751851D01*
X101750362Y-145751858D01*
X101743635Y-145900000D01*
X101736941Y-146047404D01*
X100508500Y-146047404D01*
X100508500Y-141400000D01*
X110886835Y-141400000D01*
X110905465Y-141636711D01*
X110960895Y-141867594D01*
X111051760Y-142086963D01*
X111054346Y-142091183D01*
X111173241Y-142285202D01*
X111173245Y-142285208D01*
X111175824Y-142289416D01*
X111330031Y-142469969D01*
X111510584Y-142624176D01*
X111514792Y-142626755D01*
X111514798Y-142626759D01*
X111634537Y-142700135D01*
X111713037Y-142748240D01*
X111717607Y-142750133D01*
X111717611Y-142750135D01*
X111927833Y-142837211D01*
X111932406Y-142839105D01*
X112012609Y-142858360D01*
X112158476Y-142893380D01*
X112158482Y-142893381D01*
X112163289Y-142894535D01*
X112400000Y-142913165D01*
X112636711Y-142894535D01*
X112641518Y-142893381D01*
X112641524Y-142893380D01*
X112787391Y-142858360D01*
X112867594Y-142839105D01*
X112872167Y-142837211D01*
X113082389Y-142750135D01*
X113082393Y-142750133D01*
X113086963Y-142748240D01*
X113165463Y-142700135D01*
X113285202Y-142626759D01*
X113285208Y-142626755D01*
X113289416Y-142624176D01*
X113469969Y-142469969D01*
X113624176Y-142289416D01*
X113626755Y-142285208D01*
X113626759Y-142285202D01*
X113745654Y-142091183D01*
X113748240Y-142086963D01*
X113839105Y-141867594D01*
X113894535Y-141636711D01*
X113913165Y-141400000D01*
X117386835Y-141400000D01*
X117405465Y-141636711D01*
X117460895Y-141867594D01*
X117551760Y-142086963D01*
X117554346Y-142091183D01*
X117673241Y-142285202D01*
X117673245Y-142285208D01*
X117675824Y-142289416D01*
X117830031Y-142469969D01*
X118010584Y-142624176D01*
X118014792Y-142626755D01*
X118014798Y-142626759D01*
X118134537Y-142700135D01*
X118213037Y-142748240D01*
X118217607Y-142750133D01*
X118217611Y-142750135D01*
X118427833Y-142837211D01*
X118432406Y-142839105D01*
X118512609Y-142858360D01*
X118658476Y-142893380D01*
X118658482Y-142893381D01*
X118663289Y-142894535D01*
X118900000Y-142913165D01*
X119136711Y-142894535D01*
X119141518Y-142893381D01*
X119141524Y-142893380D01*
X119287391Y-142858360D01*
X119367594Y-142839105D01*
X119372167Y-142837211D01*
X119582389Y-142750135D01*
X119582393Y-142750133D01*
X119586963Y-142748240D01*
X119665463Y-142700135D01*
X119785202Y-142626759D01*
X119785208Y-142626755D01*
X119789416Y-142624176D01*
X119969969Y-142469969D01*
X120124176Y-142289416D01*
X120126755Y-142285208D01*
X120126759Y-142285202D01*
X120245654Y-142091183D01*
X120248240Y-142086963D01*
X120339105Y-141867594D01*
X120394535Y-141636711D01*
X120413165Y-141400000D01*
X120409230Y-141350000D01*
X123636835Y-141350000D01*
X123655465Y-141586711D01*
X123710895Y-141817594D01*
X123712788Y-141822165D01*
X123712789Y-141822167D01*
X123733500Y-141872167D01*
X123801760Y-142036963D01*
X123804346Y-142041183D01*
X123923241Y-142235202D01*
X123923245Y-142235208D01*
X123925824Y-142239416D01*
X124080031Y-142419969D01*
X124260584Y-142574176D01*
X124264792Y-142576755D01*
X124264798Y-142576759D01*
X124336936Y-142620965D01*
X124463037Y-142698240D01*
X124467607Y-142700133D01*
X124467611Y-142700135D01*
X124577505Y-142745654D01*
X124682406Y-142789105D01*
X124762609Y-142808360D01*
X124908476Y-142843380D01*
X124908482Y-142843381D01*
X124913289Y-142844535D01*
X125150000Y-142863165D01*
X125386711Y-142844535D01*
X125391518Y-142843381D01*
X125391524Y-142843380D01*
X125537391Y-142808360D01*
X125617594Y-142789105D01*
X125722495Y-142745654D01*
X125832389Y-142700135D01*
X125832393Y-142700133D01*
X125836963Y-142698240D01*
X125963064Y-142620965D01*
X126035202Y-142576759D01*
X126035208Y-142576755D01*
X126039416Y-142574176D01*
X126219969Y-142419969D01*
X126374176Y-142239416D01*
X126376755Y-142235208D01*
X126376759Y-142235202D01*
X126495654Y-142041183D01*
X126498240Y-142036963D01*
X126566501Y-141872167D01*
X126587211Y-141822167D01*
X126587212Y-141822165D01*
X126589105Y-141817594D01*
X126644535Y-141586711D01*
X126663165Y-141350000D01*
X130136835Y-141350000D01*
X130155465Y-141586711D01*
X130210895Y-141817594D01*
X130212788Y-141822165D01*
X130212789Y-141822167D01*
X130233500Y-141872167D01*
X130301760Y-142036963D01*
X130304346Y-142041183D01*
X130423241Y-142235202D01*
X130423245Y-142235208D01*
X130425824Y-142239416D01*
X130580031Y-142419969D01*
X130760584Y-142574176D01*
X130764792Y-142576755D01*
X130764798Y-142576759D01*
X130836936Y-142620965D01*
X130963037Y-142698240D01*
X130967607Y-142700133D01*
X130967611Y-142700135D01*
X131077505Y-142745654D01*
X131182406Y-142789105D01*
X131262609Y-142808360D01*
X131408476Y-142843380D01*
X131408482Y-142843381D01*
X131413289Y-142844535D01*
X131650000Y-142863165D01*
X131886711Y-142844535D01*
X131891518Y-142843381D01*
X131891524Y-142843380D01*
X132037391Y-142808360D01*
X132117594Y-142789105D01*
X132222495Y-142745654D01*
X132332389Y-142700135D01*
X132332393Y-142700133D01*
X132336963Y-142698240D01*
X132463064Y-142620965D01*
X132535202Y-142576759D01*
X132535208Y-142576755D01*
X132539416Y-142574176D01*
X132719969Y-142419969D01*
X132874176Y-142239416D01*
X132876755Y-142235208D01*
X132876759Y-142235202D01*
X132995654Y-142041183D01*
X132998240Y-142036963D01*
X133066501Y-141872167D01*
X133087211Y-141822167D01*
X133087212Y-141822165D01*
X133089105Y-141817594D01*
X133144535Y-141586711D01*
X133163165Y-141350000D01*
X133144535Y-141113289D01*
X133089105Y-140882406D01*
X132998240Y-140663037D01*
X132907399Y-140514798D01*
X132876759Y-140464798D01*
X132876755Y-140464792D01*
X132874176Y-140460584D01*
X132719969Y-140280031D01*
X132539416Y-140125824D01*
X132535208Y-140123245D01*
X132535202Y-140123241D01*
X132341183Y-140004346D01*
X132336963Y-140001760D01*
X132332393Y-139999867D01*
X132332389Y-139999865D01*
X132122167Y-139912789D01*
X132122165Y-139912788D01*
X132117594Y-139910895D01*
X132017377Y-139886835D01*
X131891524Y-139856620D01*
X131891518Y-139856619D01*
X131886711Y-139855465D01*
X131650000Y-139836835D01*
X131413289Y-139855465D01*
X131408482Y-139856619D01*
X131408476Y-139856620D01*
X131282623Y-139886835D01*
X131182406Y-139910895D01*
X131177835Y-139912788D01*
X131177833Y-139912789D01*
X130967611Y-139999865D01*
X130967607Y-139999867D01*
X130963037Y-140001760D01*
X130958817Y-140004346D01*
X130764798Y-140123241D01*
X130764792Y-140123245D01*
X130760584Y-140125824D01*
X130580031Y-140280031D01*
X130425824Y-140460584D01*
X130423245Y-140464792D01*
X130423241Y-140464798D01*
X130392601Y-140514798D01*
X130301760Y-140663037D01*
X130210895Y-140882406D01*
X130155465Y-141113289D01*
X130136835Y-141350000D01*
X126663165Y-141350000D01*
X126644535Y-141113289D01*
X126589105Y-140882406D01*
X126498240Y-140663037D01*
X126407399Y-140514798D01*
X126376759Y-140464798D01*
X126376755Y-140464792D01*
X126374176Y-140460584D01*
X126219969Y-140280031D01*
X126039416Y-140125824D01*
X126035208Y-140123245D01*
X126035202Y-140123241D01*
X125841183Y-140004346D01*
X125836963Y-140001760D01*
X125832393Y-139999867D01*
X125832389Y-139999865D01*
X125622167Y-139912789D01*
X125622165Y-139912788D01*
X125617594Y-139910895D01*
X125517377Y-139886835D01*
X125391524Y-139856620D01*
X125391518Y-139856619D01*
X125386711Y-139855465D01*
X125150000Y-139836835D01*
X124913289Y-139855465D01*
X124908482Y-139856619D01*
X124908476Y-139856620D01*
X124782623Y-139886835D01*
X124682406Y-139910895D01*
X124677835Y-139912788D01*
X124677833Y-139912789D01*
X124467611Y-139999865D01*
X124467607Y-139999867D01*
X124463037Y-140001760D01*
X124458817Y-140004346D01*
X124264798Y-140123241D01*
X124264792Y-140123245D01*
X124260584Y-140125824D01*
X124080031Y-140280031D01*
X123925824Y-140460584D01*
X123923245Y-140464792D01*
X123923241Y-140464798D01*
X123892601Y-140514798D01*
X123801760Y-140663037D01*
X123710895Y-140882406D01*
X123655465Y-141113289D01*
X123636835Y-141350000D01*
X120409230Y-141350000D01*
X120394535Y-141163289D01*
X120339105Y-140932406D01*
X120320388Y-140887218D01*
X120250135Y-140717611D01*
X120250133Y-140717607D01*
X120248240Y-140713037D01*
X120215014Y-140658817D01*
X120126759Y-140514798D01*
X120126755Y-140514792D01*
X120124176Y-140510584D01*
X119969969Y-140330031D01*
X119789416Y-140175824D01*
X119785208Y-140173245D01*
X119785202Y-140173241D01*
X119591183Y-140054346D01*
X119586963Y-140051760D01*
X119582393Y-140049867D01*
X119582389Y-140049865D01*
X119372167Y-139962789D01*
X119372165Y-139962788D01*
X119367594Y-139960895D01*
X119287391Y-139941640D01*
X119141524Y-139906620D01*
X119141518Y-139906619D01*
X119136711Y-139905465D01*
X118900000Y-139886835D01*
X118663289Y-139905465D01*
X118658482Y-139906619D01*
X118658476Y-139906620D01*
X118512609Y-139941640D01*
X118432406Y-139960895D01*
X118427835Y-139962788D01*
X118427833Y-139962789D01*
X118217611Y-140049865D01*
X118217607Y-140049867D01*
X118213037Y-140051760D01*
X118208817Y-140054346D01*
X118014798Y-140173241D01*
X118014792Y-140173245D01*
X118010584Y-140175824D01*
X117830031Y-140330031D01*
X117675824Y-140510584D01*
X117673245Y-140514792D01*
X117673241Y-140514798D01*
X117584986Y-140658817D01*
X117551760Y-140713037D01*
X117549867Y-140717607D01*
X117549865Y-140717611D01*
X117479612Y-140887218D01*
X117460895Y-140932406D01*
X117405465Y-141163289D01*
X117386835Y-141400000D01*
X113913165Y-141400000D01*
X113894535Y-141163289D01*
X113839105Y-140932406D01*
X113820388Y-140887218D01*
X113750135Y-140717611D01*
X113750133Y-140717607D01*
X113748240Y-140713037D01*
X113715014Y-140658817D01*
X113626759Y-140514798D01*
X113626755Y-140514792D01*
X113624176Y-140510584D01*
X113469969Y-140330031D01*
X113289416Y-140175824D01*
X113285208Y-140173245D01*
X113285202Y-140173241D01*
X113091183Y-140054346D01*
X113086963Y-140051760D01*
X113082393Y-140049867D01*
X113082389Y-140049865D01*
X112872167Y-139962789D01*
X112872165Y-139962788D01*
X112867594Y-139960895D01*
X112787391Y-139941640D01*
X112641524Y-139906620D01*
X112641518Y-139906619D01*
X112636711Y-139905465D01*
X112400000Y-139886835D01*
X112163289Y-139905465D01*
X112158482Y-139906619D01*
X112158476Y-139906620D01*
X112012609Y-139941640D01*
X111932406Y-139960895D01*
X111927835Y-139962788D01*
X111927833Y-139962789D01*
X111717611Y-140049865D01*
X111717607Y-140049867D01*
X111713037Y-140051760D01*
X111708817Y-140054346D01*
X111514798Y-140173241D01*
X111514792Y-140173245D01*
X111510584Y-140175824D01*
X111330031Y-140330031D01*
X111175824Y-140510584D01*
X111173245Y-140514792D01*
X111173241Y-140514798D01*
X111084986Y-140658817D01*
X111051760Y-140713037D01*
X111049867Y-140717607D01*
X111049865Y-140717611D01*
X110979612Y-140887218D01*
X110960895Y-140932406D01*
X110905465Y-141163289D01*
X110886835Y-141400000D01*
X100508500Y-141400000D01*
X100508500Y-138800000D01*
X128286496Y-138800000D01*
X128306458Y-138989928D01*
X128365473Y-139171556D01*
X128460960Y-139336944D01*
X128588747Y-139478866D01*
X128743248Y-139591118D01*
X128749276Y-139593802D01*
X128749278Y-139593803D01*
X128911681Y-139666109D01*
X128917712Y-139668794D01*
X129011113Y-139688647D01*
X129098056Y-139707128D01*
X129098061Y-139707128D01*
X129104513Y-139708500D01*
X129295487Y-139708500D01*
X129301939Y-139707128D01*
X129301944Y-139707128D01*
X129388887Y-139688647D01*
X129482288Y-139668794D01*
X129488319Y-139666109D01*
X129650722Y-139593803D01*
X129650724Y-139593802D01*
X129656752Y-139591118D01*
X129811253Y-139478866D01*
X129939040Y-139336944D01*
X130034527Y-139171556D01*
X130093542Y-138989928D01*
X130113504Y-138800000D01*
X130093542Y-138610072D01*
X130034527Y-138428444D01*
X129939040Y-138263056D01*
X129811253Y-138121134D01*
X129656752Y-138008882D01*
X129650724Y-138006198D01*
X129650722Y-138006197D01*
X129488319Y-137933891D01*
X129488318Y-137933891D01*
X129482288Y-137931206D01*
X129388887Y-137911353D01*
X129301944Y-137892872D01*
X129301939Y-137892872D01*
X129295487Y-137891500D01*
X129104513Y-137891500D01*
X129098061Y-137892872D01*
X129098056Y-137892872D01*
X129011113Y-137911353D01*
X128917712Y-137931206D01*
X128911682Y-137933891D01*
X128911681Y-137933891D01*
X128749278Y-138006197D01*
X128749276Y-138006198D01*
X128743248Y-138008882D01*
X128588747Y-138121134D01*
X128460960Y-138263056D01*
X128365473Y-138428444D01*
X128306458Y-138610072D01*
X128286496Y-138800000D01*
X100508500Y-138800000D01*
X100508500Y-135286695D01*
X107637251Y-135286695D01*
X107637548Y-135291848D01*
X107637548Y-135291851D01*
X107645611Y-135431695D01*
X107650110Y-135509715D01*
X107651247Y-135514761D01*
X107651248Y-135514767D01*
X107671119Y-135602939D01*
X107699222Y-135727639D01*
X107783266Y-135934616D01*
X107785965Y-135939020D01*
X107874821Y-136084020D01*
X107899987Y-136125088D01*
X108046250Y-136293938D01*
X108218126Y-136436632D01*
X108411000Y-136549338D01*
X108619692Y-136629030D01*
X108624760Y-136630061D01*
X108624763Y-136630062D01*
X108732017Y-136651883D01*
X108838597Y-136673567D01*
X108843772Y-136673757D01*
X108843774Y-136673757D01*
X109056673Y-136681564D01*
X109056677Y-136681564D01*
X109061837Y-136681753D01*
X109066957Y-136681097D01*
X109066959Y-136681097D01*
X109278288Y-136654025D01*
X109278289Y-136654025D01*
X109283416Y-136653368D01*
X109288366Y-136651883D01*
X109492429Y-136590661D01*
X109492434Y-136590659D01*
X109497384Y-136589174D01*
X109697994Y-136490896D01*
X109879860Y-136361173D01*
X109892589Y-136348489D01*
X110034435Y-136207137D01*
X110038096Y-136203489D01*
X110097594Y-136120689D01*
X110165435Y-136026277D01*
X110168453Y-136022077D01*
X110198216Y-135961857D01*
X110265136Y-135826453D01*
X110265137Y-135826451D01*
X110267430Y-135821811D01*
X110332370Y-135608069D01*
X110355591Y-135431695D01*
X139237251Y-135431695D01*
X139237548Y-135436848D01*
X139237548Y-135436851D01*
X139243011Y-135531590D01*
X139250110Y-135654715D01*
X139251247Y-135659761D01*
X139251248Y-135659767D01*
X139265408Y-135722596D01*
X139299222Y-135872639D01*
X139383266Y-136079616D01*
X139499987Y-136270088D01*
X139646250Y-136438938D01*
X139818126Y-136581632D01*
X140011000Y-136694338D01*
X140219692Y-136774030D01*
X140224760Y-136775061D01*
X140224763Y-136775062D01*
X140332017Y-136796883D01*
X140438597Y-136818567D01*
X140443772Y-136818757D01*
X140443774Y-136818757D01*
X140656673Y-136826564D01*
X140656677Y-136826564D01*
X140661837Y-136826753D01*
X140666957Y-136826097D01*
X140666959Y-136826097D01*
X140878288Y-136799025D01*
X140878289Y-136799025D01*
X140883416Y-136798368D01*
X140888366Y-136796883D01*
X141092429Y-136735661D01*
X141092434Y-136735659D01*
X141097384Y-136734174D01*
X141297994Y-136635896D01*
X141479860Y-136506173D01*
X141495191Y-136490896D01*
X141622359Y-136364171D01*
X141638096Y-136348489D01*
X141697594Y-136265689D01*
X141765435Y-136171277D01*
X141768453Y-136167077D01*
X141867430Y-135966811D01*
X141932370Y-135753069D01*
X141961529Y-135531590D01*
X141961940Y-135514767D01*
X141963074Y-135468365D01*
X141963074Y-135468361D01*
X141963156Y-135465000D01*
X141944852Y-135242361D01*
X141890431Y-135025702D01*
X141801354Y-134820840D01*
X141707549Y-134675840D01*
X141682822Y-134637617D01*
X141682820Y-134637614D01*
X141680014Y-134633277D01*
X141676532Y-134629450D01*
X141532798Y-134471488D01*
X141501746Y-134407642D01*
X141510141Y-134337143D01*
X141555317Y-134282375D01*
X141581761Y-134268706D01*
X141688297Y-134228767D01*
X141696705Y-134225615D01*
X141813261Y-134138261D01*
X141900615Y-134021705D01*
X141951745Y-133885316D01*
X141958500Y-133823134D01*
X141958500Y-132026866D01*
X141951745Y-131964684D01*
X141900615Y-131828295D01*
X141813261Y-131711739D01*
X141696705Y-131624385D01*
X141560316Y-131573255D01*
X141498134Y-131566500D01*
X139701866Y-131566500D01*
X139639684Y-131573255D01*
X139503295Y-131624385D01*
X139386739Y-131711739D01*
X139299385Y-131828295D01*
X139248255Y-131964684D01*
X139241500Y-132026866D01*
X139241500Y-133823134D01*
X139248255Y-133885316D01*
X139299385Y-134021705D01*
X139386739Y-134138261D01*
X139503295Y-134225615D01*
X139511704Y-134228767D01*
X139511705Y-134228768D01*
X139620451Y-134269535D01*
X139677216Y-134312176D01*
X139701916Y-134378738D01*
X139686709Y-134448087D01*
X139667316Y-134474568D01*
X139540629Y-134607138D01*
X139537715Y-134611410D01*
X139537714Y-134611411D01*
X139496730Y-134671492D01*
X139414743Y-134791680D01*
X139320688Y-134994305D01*
X139260989Y-135209570D01*
X139237251Y-135431695D01*
X110355591Y-135431695D01*
X110361529Y-135386590D01*
X110363156Y-135320000D01*
X110344852Y-135097361D01*
X110290431Y-134880702D01*
X110201354Y-134675840D01*
X110080014Y-134488277D01*
X109929670Y-134323051D01*
X109925619Y-134319852D01*
X109925615Y-134319848D01*
X109758414Y-134187800D01*
X109758410Y-134187798D01*
X109754359Y-134184598D01*
X109713053Y-134161796D01*
X109663084Y-134111364D01*
X109648312Y-134041921D01*
X109673428Y-133975516D01*
X109700780Y-133948909D01*
X109744603Y-133917650D01*
X109879860Y-133821173D01*
X110038096Y-133663489D01*
X110097594Y-133580689D01*
X110165435Y-133486277D01*
X110168453Y-133482077D01*
X110267430Y-133281811D01*
X110332370Y-133068069D01*
X110361529Y-132846590D01*
X110362507Y-132806565D01*
X110363074Y-132783365D01*
X110363074Y-132783361D01*
X110363156Y-132780000D01*
X110356579Y-132700000D01*
X134386496Y-132700000D01*
X134406458Y-132889928D01*
X134465473Y-133071556D01*
X134560960Y-133236944D01*
X134565378Y-133241851D01*
X134565379Y-133241852D01*
X134605024Y-133285882D01*
X134688747Y-133378866D01*
X134787843Y-133450864D01*
X134826385Y-133478866D01*
X134843248Y-133491118D01*
X134849276Y-133493802D01*
X134849278Y-133493803D01*
X135011681Y-133566109D01*
X135017712Y-133568794D01*
X135094369Y-133585088D01*
X135198056Y-133607128D01*
X135198061Y-133607128D01*
X135204513Y-133608500D01*
X135395487Y-133608500D01*
X135401939Y-133607128D01*
X135401944Y-133607128D01*
X135505631Y-133585088D01*
X135582288Y-133568794D01*
X135588319Y-133566109D01*
X135750722Y-133493803D01*
X135750724Y-133493802D01*
X135756752Y-133491118D01*
X135773616Y-133478866D01*
X135812157Y-133450864D01*
X135911253Y-133378866D01*
X135962664Y-133321769D01*
X136023109Y-133284530D01*
X136094093Y-133285882D01*
X136153078Y-133325396D01*
X136157775Y-133331428D01*
X136160960Y-133336944D01*
X136288747Y-133478866D01*
X136443248Y-133591118D01*
X136449276Y-133593802D01*
X136449278Y-133593803D01*
X136611681Y-133666109D01*
X136617712Y-133668794D01*
X136711113Y-133688647D01*
X136798056Y-133707128D01*
X136798061Y-133707128D01*
X136804513Y-133708500D01*
X136995487Y-133708500D01*
X137001939Y-133707128D01*
X137001944Y-133707128D01*
X137088887Y-133688647D01*
X137182288Y-133668794D01*
X137188319Y-133666109D01*
X137350722Y-133593803D01*
X137350724Y-133593802D01*
X137356752Y-133591118D01*
X137511253Y-133478866D01*
X137639040Y-133336944D01*
X137722478Y-133192425D01*
X137731223Y-133177279D01*
X137731224Y-133177278D01*
X137734527Y-133171556D01*
X137793542Y-132989928D01*
X137795136Y-132974767D01*
X137812814Y-132806565D01*
X137813504Y-132800000D01*
X137808443Y-132751851D01*
X137794232Y-132616635D01*
X137794232Y-132616633D01*
X137793542Y-132610072D01*
X137734527Y-132428444D01*
X137639040Y-132263056D01*
X137596194Y-132215470D01*
X137515675Y-132126045D01*
X137515671Y-132126041D01*
X137511253Y-132121134D01*
X137376829Y-132023469D01*
X137362094Y-132012763D01*
X137362093Y-132012762D01*
X137356752Y-132008882D01*
X137350724Y-132006198D01*
X137350722Y-132006197D01*
X137188319Y-131933891D01*
X137188318Y-131933891D01*
X137182288Y-131931206D01*
X137088888Y-131911353D01*
X137001944Y-131892872D01*
X137001939Y-131892872D01*
X136995487Y-131891500D01*
X136804513Y-131891500D01*
X136798061Y-131892872D01*
X136798056Y-131892872D01*
X136711112Y-131911353D01*
X136617712Y-131931206D01*
X136611682Y-131933891D01*
X136611681Y-131933891D01*
X136449278Y-132006197D01*
X136449276Y-132006198D01*
X136443248Y-132008882D01*
X136437907Y-132012762D01*
X136437906Y-132012763D01*
X136423171Y-132023469D01*
X136288747Y-132121134D01*
X136237337Y-132178231D01*
X136176891Y-132215470D01*
X136105907Y-132214118D01*
X136046922Y-132174604D01*
X136042225Y-132168572D01*
X136039040Y-132163056D01*
X135911253Y-132021134D01*
X135756752Y-131908882D01*
X135750724Y-131906198D01*
X135750722Y-131906197D01*
X135588319Y-131833891D01*
X135588318Y-131833891D01*
X135582288Y-131831206D01*
X135488888Y-131811353D01*
X135401944Y-131792872D01*
X135401939Y-131792872D01*
X135395487Y-131791500D01*
X135204513Y-131791500D01*
X135198061Y-131792872D01*
X135198056Y-131792872D01*
X135111112Y-131811353D01*
X135017712Y-131831206D01*
X135011682Y-131833891D01*
X135011681Y-131833891D01*
X134849278Y-131906197D01*
X134849276Y-131906198D01*
X134843248Y-131908882D01*
X134688747Y-132021134D01*
X134560960Y-132163056D01*
X134503225Y-132263056D01*
X134479234Y-132304610D01*
X134465473Y-132328444D01*
X134406458Y-132510072D01*
X134405768Y-132516633D01*
X134405768Y-132516635D01*
X134395948Y-132610072D01*
X134386496Y-132700000D01*
X110356579Y-132700000D01*
X110344852Y-132557361D01*
X110290431Y-132340702D01*
X110201354Y-132135840D01*
X110130856Y-132026866D01*
X110082822Y-131952617D01*
X110082820Y-131952614D01*
X110080014Y-131948277D01*
X109929670Y-131783051D01*
X109925619Y-131779852D01*
X109925615Y-131779848D01*
X109758414Y-131647800D01*
X109758410Y-131647798D01*
X109754359Y-131644598D01*
X109713053Y-131621796D01*
X109663084Y-131571364D01*
X109648312Y-131501921D01*
X109673428Y-131435516D01*
X109700780Y-131408909D01*
X109744603Y-131377650D01*
X109879860Y-131281173D01*
X110038096Y-131123489D01*
X110097594Y-131040689D01*
X110165435Y-130946277D01*
X110168453Y-130942077D01*
X110267430Y-130741811D01*
X110332370Y-130528069D01*
X110361529Y-130306590D01*
X110363156Y-130240000D01*
X110344852Y-130017361D01*
X110290431Y-129800702D01*
X110201354Y-129595840D01*
X110136898Y-129496206D01*
X110082822Y-129412617D01*
X110082820Y-129412614D01*
X110080014Y-129408277D01*
X110076532Y-129404450D01*
X109981490Y-129300000D01*
X134886496Y-129300000D01*
X134906458Y-129489928D01*
X134965473Y-129671556D01*
X135060960Y-129836944D01*
X135188747Y-129978866D01*
X135234823Y-130012342D01*
X135300000Y-130059696D01*
X135343248Y-130091118D01*
X135349276Y-130093802D01*
X135349278Y-130093803D01*
X135351248Y-130094680D01*
X135517712Y-130168794D01*
X135611113Y-130188647D01*
X135698056Y-130207128D01*
X135698061Y-130207128D01*
X135704513Y-130208500D01*
X135895487Y-130208500D01*
X135901939Y-130207128D01*
X135901944Y-130207128D01*
X135988887Y-130188647D01*
X136082288Y-130168794D01*
X136248752Y-130094680D01*
X136319118Y-130085246D01*
X136351247Y-130094680D01*
X136517712Y-130168794D01*
X136611113Y-130188647D01*
X136698056Y-130207128D01*
X136698061Y-130207128D01*
X136704513Y-130208500D01*
X136895487Y-130208500D01*
X136901939Y-130207128D01*
X136901944Y-130207128D01*
X136988887Y-130188647D01*
X137082288Y-130168794D01*
X137248752Y-130094680D01*
X137250722Y-130093803D01*
X137250724Y-130093802D01*
X137256752Y-130091118D01*
X137300001Y-130059696D01*
X137365177Y-130012342D01*
X137411253Y-129978866D01*
X137539040Y-129836944D01*
X137634527Y-129671556D01*
X137693542Y-129489928D01*
X137713504Y-129300000D01*
X137707880Y-129246488D01*
X137694232Y-129116635D01*
X137694232Y-129116633D01*
X137693542Y-129110072D01*
X137634527Y-128928444D01*
X137539040Y-128763056D01*
X137468838Y-128685088D01*
X137415675Y-128626045D01*
X137415674Y-128626044D01*
X137411253Y-128621134D01*
X137312157Y-128549136D01*
X137262094Y-128512763D01*
X137262093Y-128512762D01*
X137256752Y-128508882D01*
X137250724Y-128506198D01*
X137250722Y-128506197D01*
X137088319Y-128433891D01*
X137088318Y-128433891D01*
X137082288Y-128431206D01*
X136988888Y-128411353D01*
X136901944Y-128392872D01*
X136901939Y-128392872D01*
X136895487Y-128391500D01*
X136704513Y-128391500D01*
X136698061Y-128392872D01*
X136698056Y-128392872D01*
X136611112Y-128411353D01*
X136517712Y-128431206D01*
X136351248Y-128505320D01*
X136280882Y-128514754D01*
X136248753Y-128505320D01*
X136082288Y-128431206D01*
X135988888Y-128411353D01*
X135901944Y-128392872D01*
X135901939Y-128392872D01*
X135895487Y-128391500D01*
X135704513Y-128391500D01*
X135698061Y-128392872D01*
X135698056Y-128392872D01*
X135611112Y-128411353D01*
X135517712Y-128431206D01*
X135511682Y-128433891D01*
X135511681Y-128433891D01*
X135349278Y-128506197D01*
X135349276Y-128506198D01*
X135343248Y-128508882D01*
X135337907Y-128512762D01*
X135337906Y-128512763D01*
X135287843Y-128549136D01*
X135188747Y-128621134D01*
X135184326Y-128626044D01*
X135184325Y-128626045D01*
X135131163Y-128685088D01*
X135060960Y-128763056D01*
X134965473Y-128928444D01*
X134906458Y-129110072D01*
X134905768Y-129116633D01*
X134905768Y-129116635D01*
X134892120Y-129246488D01*
X134886496Y-129300000D01*
X109981490Y-129300000D01*
X109932798Y-129246488D01*
X109901746Y-129182642D01*
X109910141Y-129112143D01*
X109955317Y-129057375D01*
X109981761Y-129043706D01*
X110088297Y-129003767D01*
X110096705Y-129000615D01*
X110213261Y-128913261D01*
X110300615Y-128796705D01*
X110351745Y-128660316D01*
X110358500Y-128598134D01*
X110358500Y-127400000D01*
X125086496Y-127400000D01*
X125087186Y-127406565D01*
X125099228Y-127521134D01*
X125106458Y-127589928D01*
X125165473Y-127771556D01*
X125260960Y-127936944D01*
X125388747Y-128078866D01*
X125543248Y-128191118D01*
X125549276Y-128193802D01*
X125549278Y-128193803D01*
X125711681Y-128266109D01*
X125717712Y-128268794D01*
X125806370Y-128287639D01*
X125898056Y-128307128D01*
X125898061Y-128307128D01*
X125904513Y-128308500D01*
X126095487Y-128308500D01*
X126101939Y-128307128D01*
X126101944Y-128307128D01*
X126193630Y-128287639D01*
X126282288Y-128268794D01*
X126288319Y-128266109D01*
X126436803Y-128200000D01*
X128486496Y-128200000D01*
X128506458Y-128389928D01*
X128565473Y-128571556D01*
X128660960Y-128736944D01*
X128788747Y-128878866D01*
X128943248Y-128991118D01*
X128949276Y-128993802D01*
X128949278Y-128993803D01*
X129061363Y-129043706D01*
X129117712Y-129068794D01*
X129201045Y-129086507D01*
X129298056Y-129107128D01*
X129298061Y-129107128D01*
X129304513Y-129108500D01*
X129495487Y-129108500D01*
X129501939Y-129107128D01*
X129501944Y-129107128D01*
X129598955Y-129086507D01*
X129682288Y-129068794D01*
X129738637Y-129043706D01*
X129850722Y-128993803D01*
X129850724Y-128993802D01*
X129856752Y-128991118D01*
X130011253Y-128878866D01*
X130139040Y-128736944D01*
X130234527Y-128571556D01*
X130235626Y-128568174D01*
X130280874Y-128514940D01*
X130348802Y-128494291D01*
X130417109Y-128513644D01*
X130464383Y-128568200D01*
X130465473Y-128571556D01*
X130560960Y-128736944D01*
X130688747Y-128878866D01*
X130843248Y-128991118D01*
X130849276Y-128993802D01*
X130849278Y-128993803D01*
X130961363Y-129043706D01*
X131017712Y-129068794D01*
X131101045Y-129086507D01*
X131198056Y-129107128D01*
X131198061Y-129107128D01*
X131204513Y-129108500D01*
X131395487Y-129108500D01*
X131401939Y-129107128D01*
X131401944Y-129107128D01*
X131498955Y-129086507D01*
X131582288Y-129068794D01*
X131638637Y-129043706D01*
X131750722Y-128993803D01*
X131750724Y-128993802D01*
X131756752Y-128991118D01*
X131911253Y-128878866D01*
X132039040Y-128736944D01*
X132134527Y-128571556D01*
X132193542Y-128389928D01*
X132213504Y-128200000D01*
X132201181Y-128082749D01*
X132194232Y-128016635D01*
X132194232Y-128016633D01*
X132193542Y-128010072D01*
X132140457Y-127846695D01*
X145337251Y-127846695D01*
X145337548Y-127851848D01*
X145337548Y-127851851D01*
X145343011Y-127946590D01*
X145350110Y-128069715D01*
X145351247Y-128074761D01*
X145351248Y-128074767D01*
X145352172Y-128078866D01*
X145399222Y-128287639D01*
X145483266Y-128494616D01*
X145495607Y-128514754D01*
X145579993Y-128652460D01*
X145599987Y-128685088D01*
X145746250Y-128853938D01*
X145918126Y-128996632D01*
X146111000Y-129109338D01*
X146115825Y-129111180D01*
X146115826Y-129111181D01*
X146130109Y-129116635D01*
X146319692Y-129189030D01*
X146324760Y-129190061D01*
X146324763Y-129190062D01*
X146432017Y-129211883D01*
X146538597Y-129233567D01*
X146543772Y-129233757D01*
X146543774Y-129233757D01*
X146756673Y-129241564D01*
X146756677Y-129241564D01*
X146761837Y-129241753D01*
X146766957Y-129241097D01*
X146766959Y-129241097D01*
X146978288Y-129214025D01*
X146978289Y-129214025D01*
X146983416Y-129213368D01*
X146988366Y-129211883D01*
X147192429Y-129150661D01*
X147192434Y-129150659D01*
X147197384Y-129149174D01*
X147397994Y-129050896D01*
X147579860Y-128921173D01*
X147738096Y-128763489D01*
X147757171Y-128736944D01*
X147865435Y-128586277D01*
X147868453Y-128582077D01*
X147870825Y-128577279D01*
X147965136Y-128386453D01*
X147965137Y-128386451D01*
X147967430Y-128381811D01*
X148022669Y-128200000D01*
X148030865Y-128173023D01*
X148030865Y-128173021D01*
X148032370Y-128168069D01*
X148061529Y-127946590D01*
X148061765Y-127936944D01*
X148063074Y-127883365D01*
X148063074Y-127883361D01*
X148063156Y-127880000D01*
X148044852Y-127657361D01*
X147990431Y-127440702D01*
X147901354Y-127235840D01*
X147857980Y-127168794D01*
X147782822Y-127052617D01*
X147782820Y-127052614D01*
X147780014Y-127048277D01*
X147629670Y-126883051D01*
X147625619Y-126879852D01*
X147625615Y-126879848D01*
X147458414Y-126747800D01*
X147458410Y-126747798D01*
X147454359Y-126744598D01*
X147413053Y-126721796D01*
X147363084Y-126671364D01*
X147348312Y-126601921D01*
X147373428Y-126535516D01*
X147400780Y-126508909D01*
X147444603Y-126477650D01*
X147579860Y-126381173D01*
X147738096Y-126223489D01*
X147797594Y-126140689D01*
X147865435Y-126046277D01*
X147868453Y-126042077D01*
X147896633Y-125985060D01*
X147965136Y-125846453D01*
X147965137Y-125846451D01*
X147967430Y-125841811D01*
X148032370Y-125628069D01*
X148061529Y-125406590D01*
X148063156Y-125340000D01*
X148044852Y-125117361D01*
X147990431Y-124900702D01*
X147901354Y-124695840D01*
X147780014Y-124508277D01*
X147629670Y-124343051D01*
X147625619Y-124339852D01*
X147625615Y-124339848D01*
X147458414Y-124207800D01*
X147458410Y-124207798D01*
X147454359Y-124204598D01*
X147413053Y-124181796D01*
X147363084Y-124131364D01*
X147348312Y-124061921D01*
X147373428Y-123995516D01*
X147400780Y-123968909D01*
X147444603Y-123937650D01*
X147579860Y-123841173D01*
X147738096Y-123683489D01*
X147797594Y-123600689D01*
X147865435Y-123506277D01*
X147868453Y-123502077D01*
X147967430Y-123301811D01*
X148032370Y-123088069D01*
X148061529Y-122866590D01*
X148063156Y-122800000D01*
X148044852Y-122577361D01*
X147990431Y-122360702D01*
X147901354Y-122155840D01*
X147861906Y-122094862D01*
X147782822Y-121972617D01*
X147782820Y-121972614D01*
X147780014Y-121968277D01*
X147629670Y-121803051D01*
X147625619Y-121799852D01*
X147625615Y-121799848D01*
X147458414Y-121667800D01*
X147458410Y-121667798D01*
X147454359Y-121664598D01*
X147413053Y-121641796D01*
X147363084Y-121591364D01*
X147348312Y-121521921D01*
X147373428Y-121455516D01*
X147400780Y-121428909D01*
X147444603Y-121397650D01*
X147579860Y-121301173D01*
X147738096Y-121143489D01*
X147797594Y-121060689D01*
X147865435Y-120966277D01*
X147868453Y-120962077D01*
X147967430Y-120761811D01*
X148032370Y-120548069D01*
X148061529Y-120326590D01*
X148063156Y-120260000D01*
X148044852Y-120037361D01*
X147990431Y-119820702D01*
X147901354Y-119615840D01*
X147780014Y-119428277D01*
X147629670Y-119263051D01*
X147625619Y-119259852D01*
X147625615Y-119259848D01*
X147458414Y-119127800D01*
X147458410Y-119127798D01*
X147454359Y-119124598D01*
X147413053Y-119101796D01*
X147363084Y-119051364D01*
X147348312Y-118981921D01*
X147373428Y-118915516D01*
X147400780Y-118888909D01*
X147444603Y-118857650D01*
X147579860Y-118761173D01*
X147738096Y-118603489D01*
X147797594Y-118520689D01*
X147865435Y-118426277D01*
X147868453Y-118422077D01*
X147873057Y-118412763D01*
X147965136Y-118226453D01*
X147965137Y-118226451D01*
X147967430Y-118221811D01*
X148032370Y-118008069D01*
X148061529Y-117786590D01*
X148063156Y-117720000D01*
X148044852Y-117497361D01*
X147990431Y-117280702D01*
X147901354Y-117075840D01*
X147780014Y-116888277D01*
X147629670Y-116723051D01*
X147625619Y-116719852D01*
X147625615Y-116719848D01*
X147458414Y-116587800D01*
X147458410Y-116587798D01*
X147454359Y-116584598D01*
X147413053Y-116561796D01*
X147363084Y-116511364D01*
X147348312Y-116441921D01*
X147373428Y-116375516D01*
X147400780Y-116348909D01*
X147444603Y-116317650D01*
X147579860Y-116221173D01*
X147738096Y-116063489D01*
X147797594Y-115980689D01*
X147865435Y-115886277D01*
X147868453Y-115882077D01*
X147958441Y-115700000D01*
X147965136Y-115686453D01*
X147965137Y-115686451D01*
X147967430Y-115681811D01*
X147999900Y-115574940D01*
X148030865Y-115473023D01*
X148030865Y-115473021D01*
X148032370Y-115468069D01*
X148061529Y-115246590D01*
X148063156Y-115180000D01*
X148044852Y-114957361D01*
X147990431Y-114740702D01*
X147901354Y-114535840D01*
X147812268Y-114398134D01*
X147782822Y-114352617D01*
X147782820Y-114352614D01*
X147780014Y-114348277D01*
X147629670Y-114183051D01*
X147625619Y-114179852D01*
X147625615Y-114179848D01*
X147458414Y-114047800D01*
X147458410Y-114047798D01*
X147454359Y-114044598D01*
X147412569Y-114021529D01*
X147362598Y-113971097D01*
X147347826Y-113901654D01*
X147372942Y-113835248D01*
X147400294Y-113808641D01*
X147575328Y-113683792D01*
X147583200Y-113677139D01*
X147734052Y-113526812D01*
X147740730Y-113518965D01*
X147865003Y-113346020D01*
X147870313Y-113337183D01*
X147964670Y-113146267D01*
X147968469Y-113136672D01*
X148030377Y-112932910D01*
X148032555Y-112922837D01*
X148033986Y-112911962D01*
X148031775Y-112897778D01*
X148018617Y-112894000D01*
X145383225Y-112894000D01*
X145369694Y-112897973D01*
X145368257Y-112907966D01*
X145398565Y-113042446D01*
X145401645Y-113052275D01*
X145481770Y-113249603D01*
X145486413Y-113258794D01*
X145597694Y-113440388D01*
X145603777Y-113448699D01*
X145743213Y-113609667D01*
X145750580Y-113616883D01*
X145914434Y-113752916D01*
X145922881Y-113758831D01*
X145991969Y-113799203D01*
X146040693Y-113850842D01*
X146053764Y-113920625D01*
X146027033Y-113986396D01*
X145986584Y-114019752D01*
X145973607Y-114026507D01*
X145969474Y-114029610D01*
X145969471Y-114029612D01*
X145799100Y-114157530D01*
X145794965Y-114160635D01*
X145791393Y-114164373D01*
X145653194Y-114308990D01*
X145640629Y-114322138D01*
X145514743Y-114506680D01*
X145420688Y-114709305D01*
X145360989Y-114924570D01*
X145337251Y-115146695D01*
X145337548Y-115151848D01*
X145337548Y-115151851D01*
X145343011Y-115246590D01*
X145350110Y-115369715D01*
X145351247Y-115374761D01*
X145351248Y-115374767D01*
X145371119Y-115462939D01*
X145399222Y-115587639D01*
X145483266Y-115794616D01*
X145599987Y-115985088D01*
X145746250Y-116153938D01*
X145918126Y-116296632D01*
X145988595Y-116337811D01*
X145991445Y-116339476D01*
X146040169Y-116391114D01*
X146053240Y-116460897D01*
X146026509Y-116526669D01*
X145986055Y-116560027D01*
X145973607Y-116566507D01*
X145969474Y-116569610D01*
X145969471Y-116569612D01*
X145917677Y-116608500D01*
X145794965Y-116700635D01*
X145640629Y-116862138D01*
X145514743Y-117046680D01*
X145420688Y-117249305D01*
X145360989Y-117464570D01*
X145337251Y-117686695D01*
X145337548Y-117691848D01*
X145337548Y-117691851D01*
X145343011Y-117786590D01*
X145350110Y-117909715D01*
X145351247Y-117914761D01*
X145351248Y-117914767D01*
X145371119Y-118002939D01*
X145399222Y-118127639D01*
X145460673Y-118278976D01*
X145467220Y-118295098D01*
X145483266Y-118334616D01*
X145485965Y-118339020D01*
X145577233Y-118487956D01*
X145599987Y-118525088D01*
X145746250Y-118693938D01*
X145918126Y-118836632D01*
X145988595Y-118877811D01*
X145991445Y-118879476D01*
X146040169Y-118931114D01*
X146053240Y-119000897D01*
X146026509Y-119066669D01*
X145986055Y-119100027D01*
X145973607Y-119106507D01*
X145969474Y-119109610D01*
X145969471Y-119109612D01*
X145840342Y-119206565D01*
X145794965Y-119240635D01*
X145640629Y-119402138D01*
X145514743Y-119586680D01*
X145499003Y-119620590D01*
X145428049Y-119773448D01*
X145420688Y-119789305D01*
X145360989Y-120004570D01*
X145337251Y-120226695D01*
X145337548Y-120231848D01*
X145337548Y-120231851D01*
X145343011Y-120326590D01*
X145350110Y-120449715D01*
X145351247Y-120454761D01*
X145351248Y-120454767D01*
X145371119Y-120542939D01*
X145399222Y-120667639D01*
X145483266Y-120874616D01*
X145599987Y-121065088D01*
X145746250Y-121233938D01*
X145918126Y-121376632D01*
X145988595Y-121417811D01*
X145991445Y-121419476D01*
X146040169Y-121471114D01*
X146053240Y-121540897D01*
X146026509Y-121606669D01*
X145986055Y-121640027D01*
X145973607Y-121646507D01*
X145969474Y-121649610D01*
X145969471Y-121649612D01*
X145812516Y-121767457D01*
X145794965Y-121780635D01*
X145640629Y-121942138D01*
X145637715Y-121946410D01*
X145637714Y-121946411D01*
X145599195Y-122002878D01*
X145514743Y-122126680D01*
X145420688Y-122329305D01*
X145360989Y-122544570D01*
X145337251Y-122766695D01*
X145337548Y-122771848D01*
X145337548Y-122771851D01*
X145343011Y-122866590D01*
X145350110Y-122989715D01*
X145351247Y-122994761D01*
X145351248Y-122994767D01*
X145352653Y-123001000D01*
X145399222Y-123207639D01*
X145483266Y-123414616D01*
X145599987Y-123605088D01*
X145746250Y-123773938D01*
X145918126Y-123916632D01*
X145988595Y-123957811D01*
X145991445Y-123959476D01*
X146040169Y-124011114D01*
X146053240Y-124080897D01*
X146026509Y-124146669D01*
X145986055Y-124180027D01*
X145973607Y-124186507D01*
X145969474Y-124189610D01*
X145969471Y-124189612D01*
X145945247Y-124207800D01*
X145794965Y-124320635D01*
X145640629Y-124482138D01*
X145514743Y-124666680D01*
X145420688Y-124869305D01*
X145360989Y-125084570D01*
X145337251Y-125306695D01*
X145337548Y-125311848D01*
X145337548Y-125311851D01*
X145343011Y-125406590D01*
X145350110Y-125529715D01*
X145351247Y-125534761D01*
X145351248Y-125534767D01*
X145369837Y-125617251D01*
X145399222Y-125747639D01*
X145483266Y-125954616D01*
X145599987Y-126145088D01*
X145746250Y-126313938D01*
X145918126Y-126456632D01*
X145960440Y-126481358D01*
X145991445Y-126499476D01*
X146040169Y-126551114D01*
X146053240Y-126620897D01*
X146026509Y-126686669D01*
X145986055Y-126720027D01*
X145973607Y-126726507D01*
X145969474Y-126729610D01*
X145969471Y-126729612D01*
X145799100Y-126857530D01*
X145794965Y-126860635D01*
X145640629Y-127022138D01*
X145514743Y-127206680D01*
X145499003Y-127240590D01*
X145428055Y-127393435D01*
X145420688Y-127409305D01*
X145360989Y-127624570D01*
X145337251Y-127846695D01*
X132140457Y-127846695D01*
X132134527Y-127828444D01*
X132039040Y-127663056D01*
X132009013Y-127629707D01*
X131915675Y-127526045D01*
X131915674Y-127526044D01*
X131911253Y-127521134D01*
X131756752Y-127408882D01*
X131750726Y-127406199D01*
X131750719Y-127406195D01*
X131658432Y-127365107D01*
X131604336Y-127319127D01*
X131583686Y-127251200D01*
X131603038Y-127182892D01*
X131658432Y-127134893D01*
X131750719Y-127093805D01*
X131750726Y-127093801D01*
X131756752Y-127091118D01*
X131911253Y-126978866D01*
X131915675Y-126973955D01*
X132034621Y-126841852D01*
X132034622Y-126841851D01*
X132039040Y-126836944D01*
X132108145Y-126717251D01*
X132131223Y-126677279D01*
X132131224Y-126677278D01*
X132134527Y-126671556D01*
X132193542Y-126489928D01*
X132204973Y-126381173D01*
X132212814Y-126306565D01*
X132213504Y-126300000D01*
X132205846Y-126227137D01*
X132194232Y-126116635D01*
X132194232Y-126116633D01*
X132193542Y-126110072D01*
X132134527Y-125928444D01*
X132039040Y-125763056D01*
X132025159Y-125747639D01*
X131915675Y-125626045D01*
X131915674Y-125626044D01*
X131911253Y-125621134D01*
X131756752Y-125508882D01*
X131750724Y-125506198D01*
X131750722Y-125506197D01*
X131588319Y-125433891D01*
X131588318Y-125433891D01*
X131582288Y-125431206D01*
X131488887Y-125411353D01*
X131401944Y-125392872D01*
X131401939Y-125392872D01*
X131395487Y-125391500D01*
X131204513Y-125391500D01*
X131198061Y-125392872D01*
X131198056Y-125392872D01*
X131111113Y-125411353D01*
X131017712Y-125431206D01*
X131011682Y-125433891D01*
X131011681Y-125433891D01*
X130849278Y-125506197D01*
X130849276Y-125506198D01*
X130843248Y-125508882D01*
X130688747Y-125621134D01*
X130684326Y-125626044D01*
X130684325Y-125626045D01*
X130574842Y-125747639D01*
X130560960Y-125763056D01*
X130465473Y-125928444D01*
X130464374Y-125931826D01*
X130419126Y-125985060D01*
X130351198Y-126005709D01*
X130282891Y-125986356D01*
X130235617Y-125931800D01*
X130234527Y-125928444D01*
X130139040Y-125763056D01*
X130125159Y-125747639D01*
X130015675Y-125626045D01*
X130015674Y-125626044D01*
X130011253Y-125621134D01*
X129856752Y-125508882D01*
X129850724Y-125506198D01*
X129850722Y-125506197D01*
X129688319Y-125433891D01*
X129688318Y-125433891D01*
X129682288Y-125431206D01*
X129588887Y-125411353D01*
X129501944Y-125392872D01*
X129501939Y-125392872D01*
X129495487Y-125391500D01*
X129304513Y-125391500D01*
X129298061Y-125392872D01*
X129298056Y-125392872D01*
X129211113Y-125411353D01*
X129117712Y-125431206D01*
X129111682Y-125433891D01*
X129111681Y-125433891D01*
X128949278Y-125506197D01*
X128949276Y-125506198D01*
X128943248Y-125508882D01*
X128788747Y-125621134D01*
X128784326Y-125626044D01*
X128784325Y-125626045D01*
X128674842Y-125747639D01*
X128660960Y-125763056D01*
X128565473Y-125928444D01*
X128506458Y-126110072D01*
X128505768Y-126116633D01*
X128505768Y-126116635D01*
X128494154Y-126227137D01*
X128486496Y-126300000D01*
X128487186Y-126306565D01*
X128495028Y-126381173D01*
X128506458Y-126489928D01*
X128565473Y-126671556D01*
X128568776Y-126677278D01*
X128568777Y-126677279D01*
X128591855Y-126717251D01*
X128660960Y-126836944D01*
X128665378Y-126841851D01*
X128665379Y-126841852D01*
X128784325Y-126973955D01*
X128788747Y-126978866D01*
X128943248Y-127091118D01*
X128949274Y-127093801D01*
X128949281Y-127093805D01*
X129041568Y-127134893D01*
X129095664Y-127180873D01*
X129116314Y-127248800D01*
X129096962Y-127317108D01*
X129041568Y-127365107D01*
X128949281Y-127406195D01*
X128949274Y-127406199D01*
X128943248Y-127408882D01*
X128788747Y-127521134D01*
X128784326Y-127526044D01*
X128784325Y-127526045D01*
X128690988Y-127629707D01*
X128660960Y-127663056D01*
X128565473Y-127828444D01*
X128506458Y-128010072D01*
X128505768Y-128016633D01*
X128505768Y-128016635D01*
X128498819Y-128082749D01*
X128486496Y-128200000D01*
X126436803Y-128200000D01*
X126450722Y-128193803D01*
X126450724Y-128193802D01*
X126456752Y-128191118D01*
X126611253Y-128078866D01*
X126739040Y-127936944D01*
X126834527Y-127771556D01*
X126893542Y-127589928D01*
X126900773Y-127521134D01*
X126912814Y-127406565D01*
X126913504Y-127400000D01*
X126897865Y-127251200D01*
X126894232Y-127216635D01*
X126894232Y-127216633D01*
X126893542Y-127210072D01*
X126834527Y-127028444D01*
X126739040Y-126863056D01*
X126734065Y-126857530D01*
X126615675Y-126726045D01*
X126615674Y-126726044D01*
X126611253Y-126721134D01*
X126465090Y-126614940D01*
X126462094Y-126612763D01*
X126462093Y-126612762D01*
X126456752Y-126608882D01*
X126450724Y-126606198D01*
X126450722Y-126606197D01*
X126288319Y-126533891D01*
X126288318Y-126533891D01*
X126282288Y-126531206D01*
X126188888Y-126511353D01*
X126101944Y-126492872D01*
X126101939Y-126492872D01*
X126095487Y-126491500D01*
X125904513Y-126491500D01*
X125898061Y-126492872D01*
X125898056Y-126492872D01*
X125811112Y-126511353D01*
X125717712Y-126531206D01*
X125711682Y-126533891D01*
X125711681Y-126533891D01*
X125549278Y-126606197D01*
X125549276Y-126606198D01*
X125543248Y-126608882D01*
X125537907Y-126612762D01*
X125537906Y-126612763D01*
X125534910Y-126614940D01*
X125388747Y-126721134D01*
X125384326Y-126726044D01*
X125384325Y-126726045D01*
X125265936Y-126857530D01*
X125260960Y-126863056D01*
X125165473Y-127028444D01*
X125106458Y-127210072D01*
X125105768Y-127216633D01*
X125105768Y-127216635D01*
X125102135Y-127251200D01*
X125086496Y-127400000D01*
X110358500Y-127400000D01*
X110358500Y-126801866D01*
X110351745Y-126739684D01*
X110300615Y-126603295D01*
X110213261Y-126486739D01*
X110096705Y-126399385D01*
X109960316Y-126348255D01*
X109898134Y-126341500D01*
X108101866Y-126341500D01*
X108039684Y-126348255D01*
X107903295Y-126399385D01*
X107786739Y-126486739D01*
X107699385Y-126603295D01*
X107648255Y-126739684D01*
X107641500Y-126801866D01*
X107641500Y-128598134D01*
X107648255Y-128660316D01*
X107699385Y-128796705D01*
X107786739Y-128913261D01*
X107903295Y-129000615D01*
X107911704Y-129003767D01*
X107911705Y-129003768D01*
X108020451Y-129044535D01*
X108077216Y-129087176D01*
X108101916Y-129153738D01*
X108086709Y-129223087D01*
X108067316Y-129249568D01*
X107940629Y-129382138D01*
X107814743Y-129566680D01*
X107720688Y-129769305D01*
X107660989Y-129984570D01*
X107637251Y-130206695D01*
X107637548Y-130211848D01*
X107637548Y-130211851D01*
X107643011Y-130306590D01*
X107650110Y-130429715D01*
X107651247Y-130434761D01*
X107651248Y-130434767D01*
X107671119Y-130522939D01*
X107699222Y-130647639D01*
X107783266Y-130854616D01*
X107899987Y-131045088D01*
X108046250Y-131213938D01*
X108218126Y-131356632D01*
X108288595Y-131397811D01*
X108291445Y-131399476D01*
X108340169Y-131451114D01*
X108353240Y-131520897D01*
X108326509Y-131586669D01*
X108286055Y-131620027D01*
X108273607Y-131626507D01*
X108269474Y-131629610D01*
X108269471Y-131629612D01*
X108099100Y-131757530D01*
X108094965Y-131760635D01*
X108091393Y-131764373D01*
X107955863Y-131906197D01*
X107940629Y-131922138D01*
X107937715Y-131926410D01*
X107937714Y-131926411D01*
X107871506Y-132023469D01*
X107814743Y-132106680D01*
X107720688Y-132309305D01*
X107660989Y-132524570D01*
X107637251Y-132746695D01*
X107637548Y-132751848D01*
X107637548Y-132751851D01*
X107649812Y-132964547D01*
X107650110Y-132969715D01*
X107651247Y-132974761D01*
X107651248Y-132974767D01*
X107653186Y-132983365D01*
X107699222Y-133187639D01*
X107737461Y-133281811D01*
X107776871Y-133378866D01*
X107783266Y-133394616D01*
X107785965Y-133399020D01*
X107888357Y-133566109D01*
X107899987Y-133585088D01*
X108046250Y-133753938D01*
X108218126Y-133896632D01*
X108288595Y-133937811D01*
X108291445Y-133939476D01*
X108340169Y-133991114D01*
X108353240Y-134060897D01*
X108326509Y-134126669D01*
X108286055Y-134160027D01*
X108273607Y-134166507D01*
X108269474Y-134169610D01*
X108269471Y-134169612D01*
X108099100Y-134297530D01*
X108094965Y-134300635D01*
X107940629Y-134462138D01*
X107814743Y-134646680D01*
X107799003Y-134680590D01*
X107747437Y-134791680D01*
X107720688Y-134849305D01*
X107660989Y-135064570D01*
X107637251Y-135286695D01*
X100508500Y-135286695D01*
X100508500Y-121709864D01*
X108741500Y-121709864D01*
X108744619Y-121767457D01*
X108789620Y-121997893D01*
X108872804Y-122217452D01*
X108991791Y-122419856D01*
X109143181Y-122599319D01*
X109322644Y-122750709D01*
X109327248Y-122753415D01*
X109327250Y-122753417D01*
X109349837Y-122766695D01*
X109525048Y-122869696D01*
X109744607Y-122952880D01*
X109975043Y-122997881D01*
X109979401Y-122998117D01*
X110030948Y-123000909D01*
X110030963Y-123000909D01*
X110032636Y-123001000D01*
X111967364Y-123001000D01*
X111969037Y-123000909D01*
X111969052Y-123000909D01*
X112020599Y-122998117D01*
X112024957Y-122997881D01*
X112255393Y-122952880D01*
X112474952Y-122869696D01*
X112650163Y-122766695D01*
X112672750Y-122753417D01*
X112672752Y-122753415D01*
X112677356Y-122750709D01*
X112856819Y-122599319D01*
X113008209Y-122419856D01*
X113127196Y-122217452D01*
X113210380Y-121997893D01*
X113255381Y-121767457D01*
X113258500Y-121709864D01*
X113258500Y-119775136D01*
X113256698Y-119741852D01*
X113255617Y-119721901D01*
X113255381Y-119717543D01*
X113210380Y-119487107D01*
X113127196Y-119267548D01*
X113087487Y-119200000D01*
X137586496Y-119200000D01*
X137587186Y-119206565D01*
X137594120Y-119272534D01*
X137606458Y-119389928D01*
X137665473Y-119571556D01*
X137668776Y-119577278D01*
X137668777Y-119577279D01*
X137688530Y-119611492D01*
X137760960Y-119736944D01*
X137765378Y-119741851D01*
X137765379Y-119741852D01*
X137808106Y-119789305D01*
X137888747Y-119878866D01*
X138043248Y-119991118D01*
X138049276Y-119993802D01*
X138049278Y-119993803D01*
X138211681Y-120066109D01*
X138217712Y-120068794D01*
X138311112Y-120088647D01*
X138398056Y-120107128D01*
X138398061Y-120107128D01*
X138404513Y-120108500D01*
X138595487Y-120108500D01*
X138601939Y-120107128D01*
X138601944Y-120107128D01*
X138688888Y-120088647D01*
X138782288Y-120068794D01*
X138788319Y-120066109D01*
X138950722Y-119993803D01*
X138950724Y-119993802D01*
X138956752Y-119991118D01*
X139111253Y-119878866D01*
X139191894Y-119789305D01*
X139234621Y-119741852D01*
X139234622Y-119741851D01*
X139239040Y-119736944D01*
X139311470Y-119611492D01*
X139331223Y-119577279D01*
X139331224Y-119577278D01*
X139334527Y-119571556D01*
X139393542Y-119389928D01*
X139405881Y-119272534D01*
X139412814Y-119206565D01*
X139413504Y-119200000D01*
X139393542Y-119010072D01*
X139334527Y-118828444D01*
X139239040Y-118663056D01*
X139188691Y-118607137D01*
X139115675Y-118526045D01*
X139115674Y-118526044D01*
X139111253Y-118521134D01*
X138974913Y-118422077D01*
X138962094Y-118412763D01*
X138962093Y-118412762D01*
X138956752Y-118408882D01*
X138950724Y-118406198D01*
X138950722Y-118406197D01*
X138788319Y-118333891D01*
X138788318Y-118333891D01*
X138782288Y-118331206D01*
X138688888Y-118311353D01*
X138601944Y-118292872D01*
X138601939Y-118292872D01*
X138595487Y-118291500D01*
X138404513Y-118291500D01*
X138398061Y-118292872D01*
X138398056Y-118292872D01*
X138311112Y-118311353D01*
X138217712Y-118331206D01*
X138211682Y-118333891D01*
X138211681Y-118333891D01*
X138049278Y-118406197D01*
X138049276Y-118406198D01*
X138043248Y-118408882D01*
X138037907Y-118412762D01*
X138037906Y-118412763D01*
X138025087Y-118422077D01*
X137888747Y-118521134D01*
X137884326Y-118526044D01*
X137884325Y-118526045D01*
X137811310Y-118607137D01*
X137760960Y-118663056D01*
X137665473Y-118828444D01*
X137606458Y-119010072D01*
X137586496Y-119200000D01*
X113087487Y-119200000D01*
X113008209Y-119065144D01*
X112856819Y-118885681D01*
X112677356Y-118734291D01*
X112474952Y-118615304D01*
X112288932Y-118544827D01*
X112232317Y-118501988D01*
X112207849Y-118435340D01*
X112223298Y-118366045D01*
X112273759Y-118316102D01*
X112333573Y-118301000D01*
X115798134Y-118301000D01*
X115860316Y-118294245D01*
X115996705Y-118243115D01*
X116113261Y-118155761D01*
X116200615Y-118039205D01*
X116251745Y-117902816D01*
X116258500Y-117840634D01*
X116258500Y-115700000D01*
X121886496Y-115700000D01*
X121906458Y-115889928D01*
X121965473Y-116071556D01*
X122060960Y-116236944D01*
X122065378Y-116241851D01*
X122065379Y-116241852D01*
X122163563Y-116350896D01*
X122188747Y-116378866D01*
X122205605Y-116391114D01*
X122301653Y-116460897D01*
X122343248Y-116491118D01*
X122349276Y-116493802D01*
X122349278Y-116493803D01*
X122388721Y-116511364D01*
X122517712Y-116568794D01*
X122592064Y-116584598D01*
X122698056Y-116607128D01*
X122698061Y-116607128D01*
X122704513Y-116608500D01*
X122895487Y-116608500D01*
X122901939Y-116607128D01*
X122901944Y-116607128D01*
X123007936Y-116584598D01*
X123082288Y-116568794D01*
X123211279Y-116511364D01*
X123250722Y-116493803D01*
X123250724Y-116493802D01*
X123256752Y-116491118D01*
X123298348Y-116460897D01*
X123394395Y-116391114D01*
X123411253Y-116378866D01*
X123436437Y-116350896D01*
X123534621Y-116241852D01*
X123534622Y-116241851D01*
X123539040Y-116236944D01*
X123634527Y-116071556D01*
X123693542Y-115889928D01*
X123713504Y-115700000D01*
X123701695Y-115587639D01*
X123694232Y-115516635D01*
X123694232Y-115516633D01*
X123693542Y-115510072D01*
X123634527Y-115328444D01*
X123539040Y-115163056D01*
X123411253Y-115021134D01*
X123278345Y-114924570D01*
X123262094Y-114912763D01*
X123262093Y-114912762D01*
X123256752Y-114908882D01*
X123250724Y-114906198D01*
X123250722Y-114906197D01*
X123088319Y-114833891D01*
X123088318Y-114833891D01*
X123082288Y-114831206D01*
X122969279Y-114807185D01*
X122901944Y-114792872D01*
X122901939Y-114792872D01*
X122895487Y-114791500D01*
X122704513Y-114791500D01*
X122698061Y-114792872D01*
X122698056Y-114792872D01*
X122630721Y-114807185D01*
X122517712Y-114831206D01*
X122511682Y-114833891D01*
X122511681Y-114833891D01*
X122349278Y-114906197D01*
X122349276Y-114906198D01*
X122343248Y-114908882D01*
X122337907Y-114912762D01*
X122337906Y-114912763D01*
X122321655Y-114924570D01*
X122188747Y-115021134D01*
X122060960Y-115163056D01*
X121965473Y-115328444D01*
X121906458Y-115510072D01*
X121905768Y-115516633D01*
X121905768Y-115516635D01*
X121898305Y-115587639D01*
X121886496Y-115700000D01*
X116258500Y-115700000D01*
X116258500Y-114244366D01*
X116251745Y-114182184D01*
X116200615Y-114045795D01*
X116113261Y-113929239D01*
X115996705Y-113841885D01*
X115860316Y-113790755D01*
X115798134Y-113784000D01*
X112201866Y-113784000D01*
X112139684Y-113790755D01*
X112003295Y-113841885D01*
X111886739Y-113929239D01*
X111799385Y-114045795D01*
X111748255Y-114182184D01*
X111741500Y-114244366D01*
X111741500Y-117840634D01*
X111748255Y-117902816D01*
X111799385Y-118039205D01*
X111886739Y-118155761D01*
X112003295Y-118243115D01*
X112011696Y-118246264D01*
X112013918Y-118247481D01*
X112064064Y-118297740D01*
X112079077Y-118367131D01*
X112054191Y-118433623D01*
X111997307Y-118476105D01*
X111953408Y-118484000D01*
X110032636Y-118484000D01*
X110030963Y-118484091D01*
X110030948Y-118484091D01*
X109980773Y-118486809D01*
X109975043Y-118487119D01*
X109970757Y-118487956D01*
X109760635Y-118528990D01*
X109744607Y-118532120D01*
X109525048Y-118615304D01*
X109322644Y-118734291D01*
X109143181Y-118885681D01*
X108991791Y-119065144D01*
X108872804Y-119267548D01*
X108789620Y-119487107D01*
X108744619Y-119717543D01*
X108744383Y-119721901D01*
X108743303Y-119741852D01*
X108741500Y-119775136D01*
X108741500Y-121709864D01*
X100508500Y-121709864D01*
X100508500Y-117105042D01*
X105991500Y-117105042D01*
X106003022Y-117246700D01*
X106004356Y-117251895D01*
X106004356Y-117251896D01*
X106057495Y-117458861D01*
X106058890Y-117464294D01*
X106152409Y-117668555D01*
X106155609Y-117673159D01*
X106155610Y-117673161D01*
X106168600Y-117691851D01*
X106280620Y-117853027D01*
X106439473Y-118011880D01*
X106623945Y-118140091D01*
X106828206Y-118233610D01*
X106833638Y-118235005D01*
X106833639Y-118235005D01*
X106882231Y-118247481D01*
X107045800Y-118289478D01*
X107087528Y-118292872D01*
X107184908Y-118300793D01*
X107184918Y-118300793D01*
X107187458Y-118301000D01*
X108812542Y-118301000D01*
X108815082Y-118300793D01*
X108815092Y-118300793D01*
X108912472Y-118292872D01*
X108954200Y-118289478D01*
X109117770Y-118247481D01*
X109166361Y-118235005D01*
X109166362Y-118235005D01*
X109171794Y-118233610D01*
X109376055Y-118140091D01*
X109560527Y-118011880D01*
X109719380Y-117853027D01*
X109831400Y-117691851D01*
X109844390Y-117673161D01*
X109844391Y-117673159D01*
X109847591Y-117668555D01*
X109941110Y-117464294D01*
X109942505Y-117458861D01*
X109995644Y-117251896D01*
X109995644Y-117251895D01*
X109996978Y-117246700D01*
X110008500Y-117105042D01*
X110008500Y-114979958D01*
X109996978Y-114838300D01*
X109995331Y-114831883D01*
X109942505Y-114626139D01*
X109942505Y-114626138D01*
X109941110Y-114620706D01*
X109847591Y-114416445D01*
X109827222Y-114387137D01*
X109810546Y-114363144D01*
X109719380Y-114231973D01*
X109560527Y-114073120D01*
X109376055Y-113944909D01*
X109171794Y-113851390D01*
X109166361Y-113849995D01*
X108959396Y-113796856D01*
X108959395Y-113796856D01*
X108954200Y-113795522D01*
X108885105Y-113789902D01*
X108815092Y-113784207D01*
X108815082Y-113784207D01*
X108812542Y-113784000D01*
X107187458Y-113784000D01*
X107184918Y-113784207D01*
X107184908Y-113784207D01*
X107114895Y-113789902D01*
X107045800Y-113795522D01*
X107040605Y-113796856D01*
X107040604Y-113796856D01*
X106833639Y-113849995D01*
X106828206Y-113851390D01*
X106623945Y-113944909D01*
X106439473Y-114073120D01*
X106280620Y-114231973D01*
X106189454Y-114363144D01*
X106172779Y-114387137D01*
X106152409Y-114416445D01*
X106058890Y-114620706D01*
X106057495Y-114626138D01*
X106057495Y-114626139D01*
X106004670Y-114831883D01*
X106003022Y-114838300D01*
X105991500Y-114979958D01*
X105991500Y-117105042D01*
X100508500Y-117105042D01*
X100508500Y-113466695D01*
X125587251Y-113466695D01*
X125587548Y-113471848D01*
X125587548Y-113471851D01*
X125595911Y-113616883D01*
X125600110Y-113689715D01*
X125601247Y-113694761D01*
X125601248Y-113694767D01*
X125622688Y-113789902D01*
X125649222Y-113907639D01*
X125733266Y-114114616D01*
X125770685Y-114175678D01*
X125847291Y-114300688D01*
X125849987Y-114305088D01*
X125996250Y-114473938D01*
X126168126Y-114616632D01*
X126361000Y-114729338D01*
X126365825Y-114731180D01*
X126365826Y-114731181D01*
X126390759Y-114740702D01*
X126569692Y-114809030D01*
X126574760Y-114810061D01*
X126574763Y-114810062D01*
X126671946Y-114829834D01*
X126788597Y-114853567D01*
X126793772Y-114853757D01*
X126793774Y-114853757D01*
X127006673Y-114861564D01*
X127006677Y-114861564D01*
X127011837Y-114861753D01*
X127016957Y-114861097D01*
X127016959Y-114861097D01*
X127228288Y-114834025D01*
X127228289Y-114834025D01*
X127233416Y-114833368D01*
X127238366Y-114831883D01*
X127442429Y-114770661D01*
X127442434Y-114770659D01*
X127447384Y-114769174D01*
X127647994Y-114670896D01*
X127829860Y-114541173D01*
X127988096Y-114383489D01*
X128029111Y-114326411D01*
X128118453Y-114202077D01*
X128119776Y-114203028D01*
X128166645Y-114159857D01*
X128236580Y-114147625D01*
X128302026Y-114175144D01*
X128329875Y-114206994D01*
X128389987Y-114305088D01*
X128536250Y-114473938D01*
X128708126Y-114616632D01*
X128901000Y-114729338D01*
X128905825Y-114731180D01*
X128905826Y-114731181D01*
X128930759Y-114740702D01*
X129109692Y-114809030D01*
X129114760Y-114810061D01*
X129114763Y-114810062D01*
X129211946Y-114829834D01*
X129328597Y-114853567D01*
X129333772Y-114853757D01*
X129333774Y-114853757D01*
X129546673Y-114861564D01*
X129546677Y-114861564D01*
X129551837Y-114861753D01*
X129556957Y-114861097D01*
X129556959Y-114861097D01*
X129768288Y-114834025D01*
X129768289Y-114834025D01*
X129773416Y-114833368D01*
X129778366Y-114831883D01*
X129982429Y-114770661D01*
X129982434Y-114770659D01*
X129987384Y-114769174D01*
X130187994Y-114670896D01*
X130369860Y-114541173D01*
X130528096Y-114383489D01*
X130569111Y-114326411D01*
X130658453Y-114202077D01*
X130659776Y-114203028D01*
X130706645Y-114159857D01*
X130776580Y-114147625D01*
X130842026Y-114175144D01*
X130869875Y-114206994D01*
X130929987Y-114305088D01*
X131076250Y-114473938D01*
X131248126Y-114616632D01*
X131441000Y-114729338D01*
X131445825Y-114731180D01*
X131445826Y-114731181D01*
X131470759Y-114740702D01*
X131649692Y-114809030D01*
X131654760Y-114810061D01*
X131654763Y-114810062D01*
X131751946Y-114829834D01*
X131868597Y-114853567D01*
X131873772Y-114853757D01*
X131873774Y-114853757D01*
X132086673Y-114861564D01*
X132086677Y-114861564D01*
X132091837Y-114861753D01*
X132096957Y-114861097D01*
X132096959Y-114861097D01*
X132308288Y-114834025D01*
X132308289Y-114834025D01*
X132313416Y-114833368D01*
X132318366Y-114831883D01*
X132522429Y-114770661D01*
X132522434Y-114770659D01*
X132527384Y-114769174D01*
X132727994Y-114670896D01*
X132909860Y-114541173D01*
X133068096Y-114383489D01*
X133109111Y-114326411D01*
X133198453Y-114202077D01*
X133199776Y-114203028D01*
X133246645Y-114159857D01*
X133316580Y-114147625D01*
X133382026Y-114175144D01*
X133409875Y-114206994D01*
X133469987Y-114305088D01*
X133616250Y-114473938D01*
X133788126Y-114616632D01*
X133981000Y-114729338D01*
X133985825Y-114731180D01*
X133985826Y-114731181D01*
X134010759Y-114740702D01*
X134189692Y-114809030D01*
X134194760Y-114810061D01*
X134194763Y-114810062D01*
X134291946Y-114829834D01*
X134408597Y-114853567D01*
X134413772Y-114853757D01*
X134413774Y-114853757D01*
X134626673Y-114861564D01*
X134626677Y-114861564D01*
X134631837Y-114861753D01*
X134636957Y-114861097D01*
X134636959Y-114861097D01*
X134848288Y-114834025D01*
X134848289Y-114834025D01*
X134853416Y-114833368D01*
X134858366Y-114831883D01*
X135062429Y-114770661D01*
X135062434Y-114770659D01*
X135067384Y-114769174D01*
X135267994Y-114670896D01*
X135449860Y-114541173D01*
X135608096Y-114383489D01*
X135649111Y-114326411D01*
X135738453Y-114202077D01*
X135739776Y-114203028D01*
X135786645Y-114159857D01*
X135856580Y-114147625D01*
X135922026Y-114175144D01*
X135949875Y-114206994D01*
X136009987Y-114305088D01*
X136156250Y-114473938D01*
X136328126Y-114616632D01*
X136521000Y-114729338D01*
X136525825Y-114731180D01*
X136525826Y-114731181D01*
X136550759Y-114740702D01*
X136729692Y-114809030D01*
X136734760Y-114810061D01*
X136734763Y-114810062D01*
X136831946Y-114829834D01*
X136948597Y-114853567D01*
X136953772Y-114853757D01*
X136953774Y-114853757D01*
X137166673Y-114861564D01*
X137166677Y-114861564D01*
X137171837Y-114861753D01*
X137176957Y-114861097D01*
X137176959Y-114861097D01*
X137388288Y-114834025D01*
X137388289Y-114834025D01*
X137393416Y-114833368D01*
X137398366Y-114831883D01*
X137602429Y-114770661D01*
X137602434Y-114770659D01*
X137607384Y-114769174D01*
X137807994Y-114670896D01*
X137989860Y-114541173D01*
X138098091Y-114433319D01*
X138160462Y-114399404D01*
X138231268Y-114404592D01*
X138288030Y-114447238D01*
X138305012Y-114478341D01*
X138349385Y-114596705D01*
X138436739Y-114713261D01*
X138553295Y-114800615D01*
X138689684Y-114851745D01*
X138751866Y-114858500D01*
X140548134Y-114858500D01*
X140610316Y-114851745D01*
X140746705Y-114800615D01*
X140863261Y-114713261D01*
X140950615Y-114596705D01*
X141001745Y-114460316D01*
X141008500Y-114398134D01*
X141008500Y-112601866D01*
X141001745Y-112539684D01*
X140950615Y-112403295D01*
X140863261Y-112286739D01*
X140746705Y-112199385D01*
X140610316Y-112148255D01*
X140548134Y-112141500D01*
X138751866Y-112141500D01*
X138689684Y-112148255D01*
X138553295Y-112199385D01*
X138436739Y-112286739D01*
X138349385Y-112403295D01*
X138346233Y-112411703D01*
X138304919Y-112521907D01*
X138262277Y-112578671D01*
X138195716Y-112603371D01*
X138126367Y-112588163D01*
X138093743Y-112562476D01*
X138043151Y-112506875D01*
X138043142Y-112506866D01*
X138039670Y-112503051D01*
X138035619Y-112499852D01*
X138035615Y-112499848D01*
X137868414Y-112367800D01*
X137868410Y-112367798D01*
X137864359Y-112364598D01*
X137668789Y-112256638D01*
X137663920Y-112254914D01*
X137663916Y-112254912D01*
X137463087Y-112183795D01*
X137463083Y-112183794D01*
X137458212Y-112182069D01*
X137453119Y-112181162D01*
X137453116Y-112181161D01*
X137243373Y-112143800D01*
X137243367Y-112143799D01*
X137238284Y-112142894D01*
X137164452Y-112141992D01*
X137020081Y-112140228D01*
X137020079Y-112140228D01*
X137014911Y-112140165D01*
X136794091Y-112173955D01*
X136581756Y-112243357D01*
X136383607Y-112346507D01*
X136379474Y-112349610D01*
X136379471Y-112349612D01*
X136209100Y-112477530D01*
X136204965Y-112480635D01*
X136165525Y-112521907D01*
X136111280Y-112578671D01*
X136050629Y-112642138D01*
X135943201Y-112799621D01*
X135888293Y-112844621D01*
X135817768Y-112852792D01*
X135754021Y-112821538D01*
X135733324Y-112797054D01*
X135652822Y-112672617D01*
X135652820Y-112672614D01*
X135650014Y-112668277D01*
X135499670Y-112503051D01*
X135495619Y-112499852D01*
X135495615Y-112499848D01*
X135328414Y-112367800D01*
X135328410Y-112367798D01*
X135324359Y-112364598D01*
X135128789Y-112256638D01*
X135123920Y-112254914D01*
X135123916Y-112254912D01*
X134923087Y-112183795D01*
X134923083Y-112183794D01*
X134918212Y-112182069D01*
X134913119Y-112181162D01*
X134913116Y-112181161D01*
X134703373Y-112143800D01*
X134703367Y-112143799D01*
X134698284Y-112142894D01*
X134624452Y-112141992D01*
X134480081Y-112140228D01*
X134480079Y-112140228D01*
X134474911Y-112140165D01*
X134254091Y-112173955D01*
X134041756Y-112243357D01*
X133843607Y-112346507D01*
X133839474Y-112349610D01*
X133839471Y-112349612D01*
X133669100Y-112477530D01*
X133664965Y-112480635D01*
X133625525Y-112521907D01*
X133571280Y-112578671D01*
X133510629Y-112642138D01*
X133403201Y-112799621D01*
X133348293Y-112844621D01*
X133277768Y-112852792D01*
X133214021Y-112821538D01*
X133193324Y-112797054D01*
X133112822Y-112672617D01*
X133112820Y-112672614D01*
X133110014Y-112668277D01*
X132959670Y-112503051D01*
X132955619Y-112499852D01*
X132955615Y-112499848D01*
X132788414Y-112367800D01*
X132788410Y-112367798D01*
X132784359Y-112364598D01*
X132588789Y-112256638D01*
X132583920Y-112254914D01*
X132583916Y-112254912D01*
X132383087Y-112183795D01*
X132383083Y-112183794D01*
X132378212Y-112182069D01*
X132373119Y-112181162D01*
X132373116Y-112181161D01*
X132163373Y-112143800D01*
X132163367Y-112143799D01*
X132158284Y-112142894D01*
X132084452Y-112141992D01*
X131940081Y-112140228D01*
X131940079Y-112140228D01*
X131934911Y-112140165D01*
X131714091Y-112173955D01*
X131501756Y-112243357D01*
X131303607Y-112346507D01*
X131299474Y-112349610D01*
X131299471Y-112349612D01*
X131129100Y-112477530D01*
X131124965Y-112480635D01*
X131085525Y-112521907D01*
X131031280Y-112578671D01*
X130970629Y-112642138D01*
X130863201Y-112799621D01*
X130808293Y-112844621D01*
X130737768Y-112852792D01*
X130674021Y-112821538D01*
X130653324Y-112797054D01*
X130572822Y-112672617D01*
X130572820Y-112672614D01*
X130570014Y-112668277D01*
X130419670Y-112503051D01*
X130415619Y-112499852D01*
X130415615Y-112499848D01*
X130248414Y-112367800D01*
X130248410Y-112367798D01*
X130244359Y-112364598D01*
X130048789Y-112256638D01*
X130043920Y-112254914D01*
X130043916Y-112254912D01*
X129843087Y-112183795D01*
X129843083Y-112183794D01*
X129838212Y-112182069D01*
X129833119Y-112181162D01*
X129833116Y-112181161D01*
X129623373Y-112143800D01*
X129623367Y-112143799D01*
X129618284Y-112142894D01*
X129544452Y-112141992D01*
X129400081Y-112140228D01*
X129400079Y-112140228D01*
X129394911Y-112140165D01*
X129174091Y-112173955D01*
X128961756Y-112243357D01*
X128763607Y-112346507D01*
X128759474Y-112349610D01*
X128759471Y-112349612D01*
X128589100Y-112477530D01*
X128584965Y-112480635D01*
X128545525Y-112521907D01*
X128491280Y-112578671D01*
X128430629Y-112642138D01*
X128323201Y-112799621D01*
X128268293Y-112844621D01*
X128197768Y-112852792D01*
X128134021Y-112821538D01*
X128113324Y-112797054D01*
X128032822Y-112672617D01*
X128032820Y-112672614D01*
X128030014Y-112668277D01*
X127879670Y-112503051D01*
X127875619Y-112499852D01*
X127875615Y-112499848D01*
X127708414Y-112367800D01*
X127708410Y-112367798D01*
X127704359Y-112364598D01*
X127508789Y-112256638D01*
X127503920Y-112254914D01*
X127503916Y-112254912D01*
X127303087Y-112183795D01*
X127303083Y-112183794D01*
X127298212Y-112182069D01*
X127293119Y-112181162D01*
X127293116Y-112181161D01*
X127083373Y-112143800D01*
X127083367Y-112143799D01*
X127078284Y-112142894D01*
X127004452Y-112141992D01*
X126860081Y-112140228D01*
X126860079Y-112140228D01*
X126854911Y-112140165D01*
X126634091Y-112173955D01*
X126421756Y-112243357D01*
X126223607Y-112346507D01*
X126219474Y-112349610D01*
X126219471Y-112349612D01*
X126049100Y-112477530D01*
X126044965Y-112480635D01*
X126005525Y-112521907D01*
X125951280Y-112578671D01*
X125890629Y-112642138D01*
X125764743Y-112826680D01*
X125670688Y-113029305D01*
X125610989Y-113244570D01*
X125587251Y-113466695D01*
X100508500Y-113466695D01*
X100508500Y-110998134D01*
X145341500Y-110998134D01*
X145348255Y-111060316D01*
X145399385Y-111196705D01*
X145486739Y-111313261D01*
X145603295Y-111400615D01*
X145611704Y-111403767D01*
X145611705Y-111403768D01*
X145720960Y-111444726D01*
X145777725Y-111487367D01*
X145802425Y-111553929D01*
X145787218Y-111623278D01*
X145767825Y-111649759D01*
X145644590Y-111778717D01*
X145638104Y-111786727D01*
X145518098Y-111962649D01*
X145513000Y-111971623D01*
X145423338Y-112164783D01*
X145419775Y-112174470D01*
X145364389Y-112374183D01*
X145365912Y-112382607D01*
X145378292Y-112386000D01*
X148018344Y-112386000D01*
X148031875Y-112382027D01*
X148033180Y-112372947D01*
X147991214Y-112205875D01*
X147987894Y-112196124D01*
X147902972Y-112000814D01*
X147898105Y-111991739D01*
X147782426Y-111812926D01*
X147776136Y-111804757D01*
X147632293Y-111646677D01*
X147601241Y-111582831D01*
X147609635Y-111512333D01*
X147654812Y-111457564D01*
X147681256Y-111443895D01*
X147788297Y-111403767D01*
X147796705Y-111400615D01*
X147913261Y-111313261D01*
X148000615Y-111196705D01*
X148051745Y-111060316D01*
X148058500Y-110998134D01*
X148058500Y-109201866D01*
X148051745Y-109139684D01*
X148000615Y-109003295D01*
X147913261Y-108886739D01*
X147796705Y-108799385D01*
X147660316Y-108748255D01*
X147598134Y-108741500D01*
X145801866Y-108741500D01*
X145739684Y-108748255D01*
X145603295Y-108799385D01*
X145486739Y-108886739D01*
X145399385Y-109003295D01*
X145348255Y-109139684D01*
X145341500Y-109201866D01*
X145341500Y-110998134D01*
X100508500Y-110998134D01*
X100508500Y-108266695D01*
X108697251Y-108266695D01*
X108710110Y-108489715D01*
X108711247Y-108494761D01*
X108711248Y-108494767D01*
X108735304Y-108601508D01*
X108759222Y-108707639D01*
X108843266Y-108914616D01*
X108959987Y-109105088D01*
X109106250Y-109273938D01*
X109278126Y-109416632D01*
X109471000Y-109529338D01*
X109679692Y-109609030D01*
X109684760Y-109610061D01*
X109684763Y-109610062D01*
X109792017Y-109631883D01*
X109898597Y-109653567D01*
X109903772Y-109653757D01*
X109903774Y-109653757D01*
X110116673Y-109661564D01*
X110116677Y-109661564D01*
X110121837Y-109661753D01*
X110126957Y-109661097D01*
X110126959Y-109661097D01*
X110338288Y-109634025D01*
X110338289Y-109634025D01*
X110343416Y-109633368D01*
X110348366Y-109631883D01*
X110552429Y-109570661D01*
X110552434Y-109570659D01*
X110557384Y-109569174D01*
X110757994Y-109470896D01*
X110939860Y-109341173D01*
X111048091Y-109233319D01*
X111110462Y-109199404D01*
X111181268Y-109204592D01*
X111238030Y-109247238D01*
X111255012Y-109278341D01*
X111299385Y-109396705D01*
X111386739Y-109513261D01*
X111503295Y-109600615D01*
X111639684Y-109651745D01*
X111701866Y-109658500D01*
X113498134Y-109658500D01*
X113560316Y-109651745D01*
X113696705Y-109600615D01*
X113813261Y-109513261D01*
X113900615Y-109396705D01*
X113951745Y-109260316D01*
X113958500Y-109198134D01*
X113958500Y-107401866D01*
X113951745Y-107339684D01*
X113900615Y-107203295D01*
X113813261Y-107086739D01*
X113696705Y-106999385D01*
X113560316Y-106948255D01*
X113498134Y-106941500D01*
X111701866Y-106941500D01*
X111639684Y-106948255D01*
X111503295Y-106999385D01*
X111386739Y-107086739D01*
X111299385Y-107203295D01*
X111296233Y-107211703D01*
X111254919Y-107321907D01*
X111212277Y-107378671D01*
X111145716Y-107403371D01*
X111076367Y-107388163D01*
X111043743Y-107362476D01*
X110993151Y-107306875D01*
X110993142Y-107306866D01*
X110989670Y-107303051D01*
X110985619Y-107299852D01*
X110985615Y-107299848D01*
X110818414Y-107167800D01*
X110818410Y-107167798D01*
X110814359Y-107164598D01*
X110618789Y-107056638D01*
X110613920Y-107054914D01*
X110613916Y-107054912D01*
X110413087Y-106983795D01*
X110413083Y-106983794D01*
X110408212Y-106982069D01*
X110403119Y-106981162D01*
X110403116Y-106981161D01*
X110193373Y-106943800D01*
X110193367Y-106943799D01*
X110188284Y-106942894D01*
X110114452Y-106941992D01*
X109970081Y-106940228D01*
X109970079Y-106940228D01*
X109964911Y-106940165D01*
X109744091Y-106973955D01*
X109531756Y-107043357D01*
X109333607Y-107146507D01*
X109329474Y-107149610D01*
X109329471Y-107149612D01*
X109159100Y-107277530D01*
X109154965Y-107280635D01*
X109115525Y-107321907D01*
X109061280Y-107378671D01*
X109000629Y-107442138D01*
X108874743Y-107626680D01*
X108780688Y-107829305D01*
X108720989Y-108044570D01*
X108697251Y-108266695D01*
X100508500Y-108266695D01*
X100508500Y-106448134D01*
X135591500Y-106448134D01*
X135598255Y-106510316D01*
X135649385Y-106646705D01*
X135736739Y-106763261D01*
X135853295Y-106850615D01*
X135989684Y-106901745D01*
X136051866Y-106908500D01*
X138148134Y-106908500D01*
X138210316Y-106901745D01*
X138346705Y-106850615D01*
X138463261Y-106763261D01*
X138550615Y-106646705D01*
X138601745Y-106510316D01*
X138608500Y-106448134D01*
X138608500Y-104351866D01*
X138601745Y-104289684D01*
X138550615Y-104153295D01*
X138471254Y-104047404D01*
X143736941Y-104047404D01*
X143737304Y-104051552D01*
X143737304Y-104051556D01*
X143746941Y-104161703D01*
X143763091Y-104346292D01*
X143764001Y-104350364D01*
X143764002Y-104350369D01*
X143816083Y-104583365D01*
X143828540Y-104639095D01*
X143932140Y-104920671D01*
X143934084Y-104924359D01*
X143934088Y-104924367D01*
X144030805Y-105107807D01*
X144072069Y-105186071D01*
X144245871Y-105430633D01*
X144450490Y-105650061D01*
X144682333Y-105840498D01*
X144937325Y-105998600D01*
X145210988Y-106121589D01*
X145385368Y-106173574D01*
X145494514Y-106206112D01*
X145494516Y-106206112D01*
X145498513Y-106207304D01*
X145502633Y-106207957D01*
X145502635Y-106207957D01*
X145621509Y-106226785D01*
X145794848Y-106254239D01*
X145837577Y-106256179D01*
X145887262Y-106258436D01*
X145887281Y-106258436D01*
X145888681Y-106258500D01*
X146076107Y-106258500D01*
X146299370Y-106243671D01*
X146303464Y-106242846D01*
X146303468Y-106242845D01*
X146444513Y-106214405D01*
X146593480Y-106184368D01*
X146877163Y-106086688D01*
X146880896Y-106084819D01*
X146880900Y-106084817D01*
X147141691Y-105954222D01*
X147141693Y-105954221D01*
X147145435Y-105952347D01*
X147393584Y-105783706D01*
X147617248Y-105583726D01*
X147619966Y-105580555D01*
X147809779Y-105359097D01*
X147809782Y-105359093D01*
X147812499Y-105355923D01*
X147814773Y-105352421D01*
X147814777Y-105352416D01*
X147973628Y-105107807D01*
X147973631Y-105107802D01*
X147975907Y-105104297D01*
X147990315Y-105073955D01*
X148029782Y-104990836D01*
X148104600Y-104833270D01*
X148124415Y-104771556D01*
X148195038Y-104551591D01*
X148195038Y-104551590D01*
X148196318Y-104547604D01*
X148230922Y-104355283D01*
X148248709Y-104256425D01*
X148248710Y-104256420D01*
X148249448Y-104252316D01*
X148251069Y-104216635D01*
X148262870Y-103956766D01*
X148262870Y-103956760D01*
X148263059Y-103952596D01*
X148262503Y-103946233D01*
X148238971Y-103677272D01*
X148236909Y-103653708D01*
X148226890Y-103608882D01*
X148172372Y-103364984D01*
X148172371Y-103364981D01*
X148171460Y-103360905D01*
X148067860Y-103079329D01*
X148065916Y-103075641D01*
X148065912Y-103075633D01*
X147929884Y-102817633D01*
X147929883Y-102817632D01*
X147927931Y-102813929D01*
X147754129Y-102569367D01*
X147549510Y-102349939D01*
X147317667Y-102159502D01*
X147062675Y-102001400D01*
X146789012Y-101878411D01*
X146575650Y-101814805D01*
X146505486Y-101793888D01*
X146505484Y-101793888D01*
X146501487Y-101792696D01*
X146497367Y-101792043D01*
X146497365Y-101792043D01*
X146378491Y-101773215D01*
X146205152Y-101745761D01*
X146162423Y-101743821D01*
X146112738Y-101741564D01*
X146112719Y-101741564D01*
X146111319Y-101741500D01*
X145923893Y-101741500D01*
X145700630Y-101756329D01*
X145696536Y-101757154D01*
X145696532Y-101757155D01*
X145555487Y-101785595D01*
X145406520Y-101815632D01*
X145122837Y-101913312D01*
X145119104Y-101915181D01*
X145119100Y-101915183D01*
X144858309Y-102045778D01*
X144854565Y-102047653D01*
X144606416Y-102216294D01*
X144382752Y-102416274D01*
X144380035Y-102419444D01*
X144380034Y-102419445D01*
X144207166Y-102621134D01*
X144187501Y-102644077D01*
X144185227Y-102647579D01*
X144185223Y-102647584D01*
X144026372Y-102892193D01*
X144024093Y-102895703D01*
X143895400Y-103166730D01*
X143894121Y-103170713D01*
X143894120Y-103170716D01*
X143842586Y-103331226D01*
X143803682Y-103452396D01*
X143802941Y-103456515D01*
X143756028Y-103717251D01*
X143750552Y-103747684D01*
X143750363Y-103751851D01*
X143750362Y-103751858D01*
X143737425Y-104036739D01*
X143736941Y-104047404D01*
X138471254Y-104047404D01*
X138463261Y-104036739D01*
X138346705Y-103949385D01*
X138210316Y-103898255D01*
X138148134Y-103891500D01*
X136051866Y-103891500D01*
X135989684Y-103898255D01*
X135853295Y-103949385D01*
X135736739Y-104036739D01*
X135649385Y-104153295D01*
X135598255Y-104289684D01*
X135591500Y-104351866D01*
X135591500Y-106448134D01*
X100508500Y-106448134D01*
X100508500Y-104047404D01*
X101736941Y-104047404D01*
X101737304Y-104051552D01*
X101737304Y-104051556D01*
X101746941Y-104161703D01*
X101763091Y-104346292D01*
X101764001Y-104350364D01*
X101764002Y-104350369D01*
X101816083Y-104583365D01*
X101828540Y-104639095D01*
X101932140Y-104920671D01*
X101934084Y-104924359D01*
X101934088Y-104924367D01*
X102030805Y-105107807D01*
X102072069Y-105186071D01*
X102245871Y-105430633D01*
X102450490Y-105650061D01*
X102682333Y-105840498D01*
X102937325Y-105998600D01*
X103210988Y-106121589D01*
X103385368Y-106173574D01*
X103494514Y-106206112D01*
X103494516Y-106206112D01*
X103498513Y-106207304D01*
X103502633Y-106207957D01*
X103502635Y-106207957D01*
X103621509Y-106226785D01*
X103794848Y-106254239D01*
X103837577Y-106256179D01*
X103887262Y-106258436D01*
X103887281Y-106258436D01*
X103888681Y-106258500D01*
X104076107Y-106258500D01*
X104299370Y-106243671D01*
X104303464Y-106242846D01*
X104303468Y-106242845D01*
X104444513Y-106214405D01*
X104593480Y-106184368D01*
X104877163Y-106086688D01*
X104880896Y-106084819D01*
X104880900Y-106084817D01*
X105141691Y-105954222D01*
X105141693Y-105954221D01*
X105145435Y-105952347D01*
X105393584Y-105783706D01*
X105617248Y-105583726D01*
X105619966Y-105580555D01*
X105809779Y-105359097D01*
X105809782Y-105359093D01*
X105812499Y-105355923D01*
X105814773Y-105352421D01*
X105814777Y-105352416D01*
X105973628Y-105107807D01*
X105973631Y-105107802D01*
X105975907Y-105104297D01*
X105990315Y-105073955D01*
X106029782Y-104990836D01*
X106104600Y-104833270D01*
X106124415Y-104771556D01*
X106195038Y-104551591D01*
X106195038Y-104551590D01*
X106196318Y-104547604D01*
X106204883Y-104500000D01*
X119786496Y-104500000D01*
X119787186Y-104506565D01*
X119800687Y-104635016D01*
X119806458Y-104689928D01*
X119865473Y-104871556D01*
X119868776Y-104877278D01*
X119868777Y-104877279D01*
X119899924Y-104931226D01*
X119960960Y-105036944D01*
X120088747Y-105178866D01*
X120243248Y-105291118D01*
X120249276Y-105293802D01*
X120249278Y-105293803D01*
X120380926Y-105352416D01*
X120417712Y-105368794D01*
X120511113Y-105388647D01*
X120598056Y-105407128D01*
X120598061Y-105407128D01*
X120604513Y-105408500D01*
X120795487Y-105408500D01*
X120801939Y-105407128D01*
X120801944Y-105407128D01*
X120888887Y-105388647D01*
X120982288Y-105368794D01*
X121019074Y-105352416D01*
X121150722Y-105293803D01*
X121150724Y-105293802D01*
X121156752Y-105291118D01*
X121311253Y-105178866D01*
X121439040Y-105036944D01*
X121500076Y-104931226D01*
X121531223Y-104877279D01*
X121531224Y-104877278D01*
X121534527Y-104871556D01*
X121593542Y-104689928D01*
X121599314Y-104635016D01*
X121612814Y-104506565D01*
X121613504Y-104500000D01*
X121602994Y-104400000D01*
X123886496Y-104400000D01*
X123887186Y-104406565D01*
X123902429Y-104551591D01*
X123906458Y-104589928D01*
X123965473Y-104771556D01*
X124060960Y-104936944D01*
X124188747Y-105078866D01*
X124218547Y-105100517D01*
X124326385Y-105178866D01*
X124343248Y-105191118D01*
X124349276Y-105193802D01*
X124349278Y-105193803D01*
X124511681Y-105266109D01*
X124517712Y-105268794D01*
X124604479Y-105287237D01*
X124698056Y-105307128D01*
X124698061Y-105307128D01*
X124704513Y-105308500D01*
X124895487Y-105308500D01*
X124901939Y-105307128D01*
X124901944Y-105307128D01*
X124995521Y-105287237D01*
X125082288Y-105268794D01*
X125088319Y-105266109D01*
X125250722Y-105193803D01*
X125250724Y-105193802D01*
X125256752Y-105191118D01*
X125273616Y-105178866D01*
X125381453Y-105100517D01*
X125411253Y-105078866D01*
X125539040Y-104936944D01*
X125634527Y-104771556D01*
X125693542Y-104589928D01*
X125697572Y-104551591D01*
X125712814Y-104406565D01*
X125713504Y-104400000D01*
X125704052Y-104310072D01*
X125694232Y-104216635D01*
X125694232Y-104216633D01*
X125693542Y-104210072D01*
X125634527Y-104028444D01*
X125539040Y-103863056D01*
X125524111Y-103846475D01*
X125415675Y-103726045D01*
X125415674Y-103726044D01*
X125411253Y-103721134D01*
X125256752Y-103608882D01*
X125250724Y-103606198D01*
X125250722Y-103606197D01*
X125088319Y-103533891D01*
X125088318Y-103533891D01*
X125082288Y-103531206D01*
X124988887Y-103511353D01*
X124901944Y-103492872D01*
X124901939Y-103492872D01*
X124895487Y-103491500D01*
X124704513Y-103491500D01*
X124698061Y-103492872D01*
X124698056Y-103492872D01*
X124611113Y-103511353D01*
X124517712Y-103531206D01*
X124511682Y-103533891D01*
X124511681Y-103533891D01*
X124349278Y-103606197D01*
X124349276Y-103606198D01*
X124343248Y-103608882D01*
X124188747Y-103721134D01*
X124184326Y-103726044D01*
X124184325Y-103726045D01*
X124075890Y-103846475D01*
X124060960Y-103863056D01*
X123965473Y-104028444D01*
X123906458Y-104210072D01*
X123905768Y-104216633D01*
X123905768Y-104216635D01*
X123895948Y-104310072D01*
X123886496Y-104400000D01*
X121602994Y-104400000D01*
X121597935Y-104351866D01*
X121594232Y-104316635D01*
X121594232Y-104316633D01*
X121593542Y-104310072D01*
X121534527Y-104128444D01*
X121518588Y-104100837D01*
X121501849Y-104031841D01*
X121525068Y-103964749D01*
X121534070Y-103953525D01*
X121534907Y-103952596D01*
X121639040Y-103836944D01*
X121713197Y-103708500D01*
X121731223Y-103677279D01*
X121731224Y-103677278D01*
X121734527Y-103671556D01*
X121793542Y-103489928D01*
X121796046Y-103466109D01*
X121812814Y-103306565D01*
X121813504Y-103300000D01*
X121799440Y-103166191D01*
X121812212Y-103096354D01*
X121860714Y-103044508D01*
X121929547Y-103027113D01*
X121996857Y-103049694D01*
X122033869Y-103090021D01*
X122060960Y-103136944D01*
X122188747Y-103278866D01*
X122287843Y-103350864D01*
X122301664Y-103360905D01*
X122343248Y-103391118D01*
X122349276Y-103393802D01*
X122349278Y-103393803D01*
X122511681Y-103466109D01*
X122517712Y-103468794D01*
X122583365Y-103482749D01*
X122698056Y-103507128D01*
X122698061Y-103507128D01*
X122704513Y-103508500D01*
X122895487Y-103508500D01*
X122901939Y-103507128D01*
X122901944Y-103507128D01*
X123016635Y-103482749D01*
X123082288Y-103468794D01*
X123088319Y-103466109D01*
X123250722Y-103393803D01*
X123250724Y-103393802D01*
X123256752Y-103391118D01*
X123298337Y-103360905D01*
X123312157Y-103350864D01*
X123411253Y-103278866D01*
X123539040Y-103136944D01*
X123634527Y-102971556D01*
X123690269Y-102800000D01*
X130986496Y-102800000D01*
X130987186Y-102806565D01*
X131005129Y-102977279D01*
X131006458Y-102989928D01*
X131065473Y-103171556D01*
X131160960Y-103336944D01*
X131165378Y-103341851D01*
X131165379Y-103341852D01*
X131279678Y-103468794D01*
X131288747Y-103478866D01*
X131443248Y-103591118D01*
X131449276Y-103593802D01*
X131449278Y-103593803D01*
X131574671Y-103649631D01*
X131617712Y-103668794D01*
X131711112Y-103688647D01*
X131798056Y-103707128D01*
X131798061Y-103707128D01*
X131804513Y-103708500D01*
X131995487Y-103708500D01*
X132001939Y-103707128D01*
X132001944Y-103707128D01*
X132088888Y-103688647D01*
X132182288Y-103668794D01*
X132225329Y-103649631D01*
X132350722Y-103593803D01*
X132350724Y-103593802D01*
X132356752Y-103591118D01*
X132511253Y-103478866D01*
X132520322Y-103468794D01*
X132634621Y-103341852D01*
X132634622Y-103341851D01*
X132639040Y-103336944D01*
X132734527Y-103171556D01*
X132793542Y-102989928D01*
X132794872Y-102977279D01*
X132812814Y-102806565D01*
X132813504Y-102800000D01*
X132797116Y-102644077D01*
X132794232Y-102616635D01*
X132794232Y-102616633D01*
X132793542Y-102610072D01*
X132734527Y-102428444D01*
X132729332Y-102419445D01*
X132642341Y-102268774D01*
X132639040Y-102263056D01*
X132596936Y-102216294D01*
X132515675Y-102126045D01*
X132515674Y-102126044D01*
X132511253Y-102121134D01*
X132356752Y-102008882D01*
X132350724Y-102006198D01*
X132350722Y-102006197D01*
X132188319Y-101933891D01*
X132188318Y-101933891D01*
X132182288Y-101931206D01*
X132088888Y-101911353D01*
X132001944Y-101892872D01*
X132001939Y-101892872D01*
X131995487Y-101891500D01*
X131804513Y-101891500D01*
X131798061Y-101892872D01*
X131798056Y-101892872D01*
X131711113Y-101911353D01*
X131617712Y-101931206D01*
X131611682Y-101933891D01*
X131611681Y-101933891D01*
X131449278Y-102006197D01*
X131449276Y-102006198D01*
X131443248Y-102008882D01*
X131288747Y-102121134D01*
X131284326Y-102126044D01*
X131284325Y-102126045D01*
X131203065Y-102216294D01*
X131160960Y-102263056D01*
X131157659Y-102268774D01*
X131070669Y-102419445D01*
X131065473Y-102428444D01*
X131006458Y-102610072D01*
X131005768Y-102616633D01*
X131005768Y-102616635D01*
X131002884Y-102644077D01*
X130986496Y-102800000D01*
X123690269Y-102800000D01*
X123693542Y-102789928D01*
X123695766Y-102768774D01*
X123712814Y-102606565D01*
X123712814Y-102606564D01*
X123713504Y-102600000D01*
X123696134Y-102434729D01*
X123694232Y-102416635D01*
X123694232Y-102416633D01*
X123693542Y-102410072D01*
X123634527Y-102228444D01*
X123539040Y-102063056D01*
X123422740Y-101933891D01*
X123415675Y-101926045D01*
X123415674Y-101926044D01*
X123411253Y-101921134D01*
X123266043Y-101815632D01*
X123262094Y-101812763D01*
X123262093Y-101812762D01*
X123256752Y-101808882D01*
X123250724Y-101806198D01*
X123250722Y-101806197D01*
X123088319Y-101733891D01*
X123088318Y-101733891D01*
X123082288Y-101731206D01*
X122988887Y-101711353D01*
X122901944Y-101692872D01*
X122901939Y-101692872D01*
X122895487Y-101691500D01*
X122704513Y-101691500D01*
X122698061Y-101692872D01*
X122698056Y-101692872D01*
X122611113Y-101711353D01*
X122517712Y-101731206D01*
X122511682Y-101733891D01*
X122511681Y-101733891D01*
X122349278Y-101806197D01*
X122349276Y-101806198D01*
X122343248Y-101808882D01*
X122337907Y-101812762D01*
X122337906Y-101812763D01*
X122333957Y-101815632D01*
X122188747Y-101921134D01*
X122184326Y-101926044D01*
X122184325Y-101926045D01*
X122177261Y-101933891D01*
X122060960Y-102063056D01*
X121965473Y-102228444D01*
X121906458Y-102410072D01*
X121905768Y-102416633D01*
X121905768Y-102416635D01*
X121903866Y-102434729D01*
X121886496Y-102600000D01*
X121889234Y-102626045D01*
X121900560Y-102733807D01*
X121887788Y-102803646D01*
X121839286Y-102855492D01*
X121770453Y-102872887D01*
X121703143Y-102850306D01*
X121666131Y-102809979D01*
X121662475Y-102803646D01*
X121639040Y-102763056D01*
X121511253Y-102621134D01*
X121356752Y-102508882D01*
X121350724Y-102506198D01*
X121350722Y-102506197D01*
X121188319Y-102433891D01*
X121188318Y-102433891D01*
X121182288Y-102431206D01*
X121082861Y-102410072D01*
X121001944Y-102392872D01*
X121001939Y-102392872D01*
X120995487Y-102391500D01*
X120804513Y-102391500D01*
X120798061Y-102392872D01*
X120798056Y-102392872D01*
X120717139Y-102410072D01*
X120617712Y-102431206D01*
X120611682Y-102433891D01*
X120611681Y-102433891D01*
X120449278Y-102506197D01*
X120449276Y-102506198D01*
X120443248Y-102508882D01*
X120288747Y-102621134D01*
X120160960Y-102763056D01*
X120129450Y-102817633D01*
X120086403Y-102892193D01*
X120065473Y-102928444D01*
X120006458Y-103110072D01*
X120005768Y-103116633D01*
X120005768Y-103116635D01*
X120000503Y-103166730D01*
X119986496Y-103300000D01*
X119987186Y-103306565D01*
X120003955Y-103466109D01*
X120006458Y-103489928D01*
X120065473Y-103671556D01*
X120068772Y-103677271D01*
X120068773Y-103677272D01*
X120081412Y-103699163D01*
X120098151Y-103768159D01*
X120074932Y-103835251D01*
X120065931Y-103846474D01*
X120051000Y-103863056D01*
X119966624Y-103956766D01*
X119960960Y-103963056D01*
X119865473Y-104128444D01*
X119806458Y-104310072D01*
X119805768Y-104316633D01*
X119805768Y-104316635D01*
X119802065Y-104351866D01*
X119786496Y-104500000D01*
X106204883Y-104500000D01*
X106230922Y-104355283D01*
X106248709Y-104256425D01*
X106248710Y-104256420D01*
X106249448Y-104252316D01*
X106251069Y-104216635D01*
X106262870Y-103956766D01*
X106262870Y-103956760D01*
X106263059Y-103952596D01*
X106262503Y-103946233D01*
X106238971Y-103677272D01*
X106236909Y-103653708D01*
X106226890Y-103608882D01*
X106172372Y-103364984D01*
X106172371Y-103364981D01*
X106171460Y-103360905D01*
X106067860Y-103079329D01*
X106065916Y-103075641D01*
X106065912Y-103075633D01*
X105929884Y-102817633D01*
X105929883Y-102817632D01*
X105927931Y-102813929D01*
X105754129Y-102569367D01*
X105549510Y-102349939D01*
X105317667Y-102159502D01*
X105062675Y-102001400D01*
X104789012Y-101878411D01*
X104575650Y-101814805D01*
X104505486Y-101793888D01*
X104505484Y-101793888D01*
X104501487Y-101792696D01*
X104497367Y-101792043D01*
X104497365Y-101792043D01*
X104378491Y-101773215D01*
X104205152Y-101745761D01*
X104162423Y-101743821D01*
X104112738Y-101741564D01*
X104112719Y-101741564D01*
X104111319Y-101741500D01*
X103923893Y-101741500D01*
X103700630Y-101756329D01*
X103696536Y-101757154D01*
X103696532Y-101757155D01*
X103555487Y-101785595D01*
X103406520Y-101815632D01*
X103122837Y-101913312D01*
X103119104Y-101915181D01*
X103119100Y-101915183D01*
X102858309Y-102045778D01*
X102854565Y-102047653D01*
X102606416Y-102216294D01*
X102382752Y-102416274D01*
X102380035Y-102419444D01*
X102380034Y-102419445D01*
X102207166Y-102621134D01*
X102187501Y-102644077D01*
X102185227Y-102647579D01*
X102185223Y-102647584D01*
X102026372Y-102892193D01*
X102024093Y-102895703D01*
X101895400Y-103166730D01*
X101894121Y-103170713D01*
X101894120Y-103170716D01*
X101842586Y-103331226D01*
X101803682Y-103452396D01*
X101802941Y-103456515D01*
X101756028Y-103717251D01*
X101750552Y-103747684D01*
X101750363Y-103751851D01*
X101750362Y-103751858D01*
X101737425Y-104036739D01*
X101736941Y-104047404D01*
X100508500Y-104047404D01*
X100508500Y-100634500D01*
X100528502Y-100566379D01*
X100582158Y-100519886D01*
X100634500Y-100508500D01*
X149365500Y-100508500D01*
X149433621Y-100528502D01*
G37*
%TD.AperFunction*%
%TD*%
M02*
