M48
; DRILL file {KiCad 6.0.1-79c1e3a40b~116~ubuntu18.04.1} date Wed 22 Feb 2023 08:49:39 PM EST
; FORMAT={-:-/ absolute / inch / decimal}
; #@! TF.CreationDate,2023-02-22T20:49:39-05:00
; #@! TF.GenerationSoftware,Kicad,Pcbnew,6.0.1-79c1e3a40b~116~ubuntu18.04.1
; #@! TF.FileFunction,Plated,1,4,PTH
FMAT,2
INCH
; #@! TA.AperFunction,Plated,PTH,ViaDrill
T1C0.0157
; #@! TA.AperFunction,Plated,PTH,ComponentDrill
T2C0.0394
; #@! TA.AperFunction,Plated,PTH,ComponentDrill
T3C0.0433
%
G90
G05
T1
X4.752Y-4.1142
X4.752Y-4.1772
X4.7598Y-4.0669
X4.7598Y-4.2362
X4.8346Y-4.0394
X4.8346Y-4.5551
X4.9134Y-4.1102
X4.9173Y-4.2323
X4.9213Y-4.189
X4.9606Y-5.0157
X4.9606Y-5.1732
X4.9961Y-4.1732
X5.0Y-4.2323
X5.185Y-4.2283
X5.1929Y-4.0472
X5.4055Y-4.8898
X5.4094Y-4.622
X5.4528Y-4.6929
X5.4606Y-5.1575
X5.4724Y-4.8661
T2
X4.2913Y-5.0276
X4.2913Y-5.1276
X4.2913Y-5.2276
X4.2913Y-5.3276
X4.3331Y-4.2638
X4.4331Y-4.2638
X4.998Y-4.4685
X5.0128Y-5.7244
X5.098Y-4.4685
X5.1128Y-5.7244
X5.198Y-4.4685
X5.2128Y-5.7244
X5.298Y-4.4685
X5.3128Y-5.7244
X5.3976Y-4.1496
X5.398Y-4.4685
X5.4128Y-5.7244
X5.498Y-4.4685
X5.7756Y-4.3346
X5.7756Y-4.4346
X5.7756Y-4.5346
X5.7756Y-4.6346
X5.7756Y-4.7346
X5.7756Y-4.8346
X5.7756Y-4.9346
X5.7756Y-5.0346
T3
X4.4252Y-5.5669
X4.4252Y-5.7441
X4.6811Y-5.5669
X4.6811Y-5.7441
X5.6161Y-5.1673
X5.6161Y-5.4232
X5.7933Y-5.1673
X5.7933Y-5.4232
T2
G00X4.252Y-4.5292
M15
G01X4.252Y-4.608
M16
G05
G00X4.3307Y-4.7536
M15
G01X4.4094Y-4.7536
M16
G05
G00X4.4882Y-4.5292
M15
G01X4.4882Y-4.608
M16
G05
T0
M30
