%TF.GenerationSoftware,KiCad,Pcbnew,6.0.1-79c1e3a40b~116~ubuntu18.04.1*%
%TF.CreationDate,2023-02-22T20:49:33-05:00*%
%TF.ProjectId,a2bikelight,61326269-6b65-46c6-9967-68742e6b6963,rev?*%
%TF.SameCoordinates,Original*%
%TF.FileFunction,Copper,L3,Inr*%
%TF.FilePolarity,Positive*%
%FSLAX46Y46*%
G04 Gerber Fmt 4.6, Leading zero omitted, Abs format (unit mm)*
G04 Created by KiCad (PCBNEW 6.0.1-79c1e3a40b~116~ubuntu18.04.1) date 2023-02-22 20:49:33*
%MOMM*%
%LPD*%
G01*
G04 APERTURE LIST*
G04 Aperture macros list*
%AMRoundRect*
0 Rectangle with rounded corners*
0 $1 Rounding radius*
0 $2 $3 $4 $5 $6 $7 $8 $9 X,Y pos of 4 corners*
0 Add a 4 corners polygon primitive as box body*
4,1,4,$2,$3,$4,$5,$6,$7,$8,$9,$2,$3,0*
0 Add four circle primitives for the rounded corners*
1,1,$1+$1,$2,$3*
1,1,$1+$1,$4,$5*
1,1,$1+$1,$6,$7*
1,1,$1+$1,$8,$9*
0 Add four rect primitives between the rounded corners*
20,1,$1+$1,$2,$3,$4,$5,0*
20,1,$1+$1,$4,$5,$6,$7,0*
20,1,$1+$1,$6,$7,$8,$9,0*
20,1,$1+$1,$8,$9,$2,$3,0*%
G04 Aperture macros list end*
%TA.AperFunction,ComponentPad*%
%ADD10R,2.000000X2.000000*%
%TD*%
%TA.AperFunction,ComponentPad*%
%ADD11C,2.000000*%
%TD*%
%TA.AperFunction,ComponentPad*%
%ADD12R,1.700000X1.700000*%
%TD*%
%TA.AperFunction,ComponentPad*%
%ADD13O,1.700000X1.700000*%
%TD*%
%TA.AperFunction,ComponentPad*%
%ADD14R,3.500000X3.500000*%
%TD*%
%TA.AperFunction,ComponentPad*%
%ADD15RoundRect,0.750000X-0.750000X-1.000000X0.750000X-1.000000X0.750000X1.000000X-0.750000X1.000000X0*%
%TD*%
%TA.AperFunction,ComponentPad*%
%ADD16RoundRect,0.875000X-0.875000X-0.875000X0.875000X-0.875000X0.875000X0.875000X-0.875000X0.875000X0*%
%TD*%
%TA.AperFunction,ViaPad*%
%ADD17C,0.800000*%
%TD*%
G04 APERTURE END LIST*
D10*
%TO.N,GND*%
%TO.C,TP1*%
X137100000Y-105400000D03*
%TD*%
D11*
%TO.N,GND*%
%TO.C,SW2*%
X147150000Y-137750000D03*
X147150000Y-131250000D03*
%TO.N,BUTTON*%
X142650000Y-131250000D03*
X142650000Y-137750000D03*
%TD*%
D12*
%TO.N,Net-(J5-Pad1)*%
%TO.C,J5*%
X127325000Y-145400000D03*
D13*
%TO.N,Net-(J5-Pad2)*%
X129865000Y-145400000D03*
%TO.N,Net-(J5-Pad3)*%
X132405000Y-145400000D03*
%TO.N,Net-(C6-Pad1)*%
X134945000Y-145400000D03*
%TO.N,Net-(C6-Pad2)*%
X137485000Y-145400000D03*
%TD*%
D12*
%TO.N,Net-(D1-Pad2)*%
%TO.C,J2*%
X112600000Y-108300000D03*
D13*
%TO.N,GND*%
X110060000Y-108300000D03*
%TD*%
D11*
%TO.N,GND*%
%TO.C,SW1*%
X112400000Y-145900000D03*
X118900000Y-145900000D03*
%TO.N,NRESET*%
X112400000Y-141400000D03*
X118900000Y-141400000D03*
%TD*%
D12*
%TO.N,GND*%
%TO.C,J4*%
X139650000Y-113500000D03*
D13*
%TO.N,unconnected-(J4-Pad2)*%
X137110000Y-113500000D03*
%TO.N,unconnected-(J4-Pad3)*%
X134570000Y-113500000D03*
%TO.N,SERIAL_INCOMING*%
X132030000Y-113500000D03*
%TO.N,SERIAL_OUTGOING*%
X129490000Y-113500000D03*
%TO.N,unconnected-(J4-Pad6)*%
X126950000Y-113500000D03*
%TD*%
D12*
%TO.N,VIN*%
%TO.C,J6*%
X146700000Y-110100000D03*
D13*
%TO.N,+3V3*%
X146700000Y-112640000D03*
%TO.N,PD6*%
X146700000Y-115180000D03*
%TO.N,PD5*%
X146700000Y-117720000D03*
%TO.N,PD4*%
X146700000Y-120260000D03*
%TO.N,PB7*%
X146700000Y-122800000D03*
%TO.N,LIGHT*%
X146700000Y-125340000D03*
%TO.N,GND*%
X146700000Y-127880000D03*
%TD*%
D14*
%TO.N,Net-(D1-Pad2)*%
%TO.C,J1*%
X114000000Y-116042500D03*
D15*
%TO.N,GND*%
X108000000Y-116042500D03*
D16*
X111000000Y-120742500D03*
%TD*%
D12*
%TO.N,unconnected-(J3-Pad1)*%
%TO.C,J3*%
X109000000Y-127700000D03*
D13*
%TO.N,SWIM*%
X109000000Y-130240000D03*
%TO.N,GND*%
X109000000Y-132780000D03*
%TO.N,NRESET*%
X109000000Y-135320000D03*
%TD*%
D17*
%TO.N,GND*%
X122800000Y-115700000D03*
X120700000Y-104500000D03*
X124800000Y-104400000D03*
X122800000Y-102600000D03*
X120900000Y-103300000D03*
X138700000Y-131000000D03*
X131900000Y-102800000D03*
X126000000Y-127400000D03*
X138500000Y-119200000D03*
%TO.N,+3V3*%
X137300000Y-124200000D03*
X126000000Y-131400000D03*
X124900000Y-107500000D03*
X120700000Y-106100000D03*
X139000000Y-123600000D03*
X137400000Y-117400000D03*
X131700000Y-107400000D03*
X125000000Y-106400000D03*
X127000000Y-107500000D03*
X126900000Y-106000000D03*
X120900000Y-107600000D03*
%TD*%
%TA.AperFunction,Conductor*%
%TO.N,+3V3*%
G36*
X149434121Y-100528002D02*
G01*
X149480614Y-100581658D01*
X149492000Y-100634000D01*
X149492000Y-149366000D01*
X149471998Y-149434121D01*
X149418342Y-149480614D01*
X149366000Y-149492000D01*
X100634000Y-149492000D01*
X100565879Y-149471998D01*
X100519386Y-149418342D01*
X100508000Y-149366000D01*
X100508000Y-146047404D01*
X101736941Y-146047404D01*
X101737304Y-146051552D01*
X101737304Y-146051556D01*
X101745176Y-146141524D01*
X101763091Y-146346292D01*
X101764001Y-146350364D01*
X101764002Y-146350369D01*
X101822765Y-146613261D01*
X101828540Y-146639095D01*
X101932140Y-146920671D01*
X101934084Y-146924359D01*
X101934088Y-146924367D01*
X102040797Y-147126759D01*
X102072069Y-147186071D01*
X102245871Y-147430633D01*
X102450490Y-147650061D01*
X102682333Y-147840498D01*
X102937325Y-147998600D01*
X103210988Y-148121589D01*
X103385368Y-148173574D01*
X103494514Y-148206112D01*
X103494516Y-148206112D01*
X103498513Y-148207304D01*
X103502633Y-148207957D01*
X103502635Y-148207957D01*
X103621509Y-148226785D01*
X103794848Y-148254239D01*
X103837577Y-148256179D01*
X103887262Y-148258436D01*
X103887281Y-148258436D01*
X103888681Y-148258500D01*
X104076107Y-148258500D01*
X104299370Y-148243671D01*
X104303464Y-148242846D01*
X104303468Y-148242845D01*
X104444513Y-148214405D01*
X104593480Y-148184368D01*
X104877163Y-148086688D01*
X104880896Y-148084819D01*
X104880900Y-148084817D01*
X105141691Y-147954222D01*
X105141693Y-147954221D01*
X105145435Y-147952347D01*
X105393584Y-147783706D01*
X105617248Y-147583726D01*
X105619966Y-147580555D01*
X105809779Y-147359097D01*
X105809782Y-147359093D01*
X105812499Y-147355923D01*
X105814773Y-147352421D01*
X105814777Y-147352416D01*
X105973628Y-147107807D01*
X105973631Y-147107802D01*
X105975907Y-147104297D01*
X106104600Y-146833270D01*
X106127623Y-146761564D01*
X106195038Y-146551591D01*
X106195038Y-146551590D01*
X106196318Y-146547604D01*
X106228685Y-146367715D01*
X106248709Y-146256425D01*
X106248710Y-146256420D01*
X106249448Y-146252316D01*
X106254480Y-146141524D01*
X106262870Y-145956766D01*
X106262870Y-145956760D01*
X106263059Y-145952596D01*
X106258458Y-145900000D01*
X110886835Y-145900000D01*
X110905465Y-146136711D01*
X110906619Y-146141518D01*
X110906620Y-146141524D01*
X110932217Y-146248142D01*
X110960895Y-146367594D01*
X110962788Y-146372165D01*
X110962789Y-146372167D01*
X111045105Y-146570896D01*
X111051760Y-146586963D01*
X111054346Y-146591183D01*
X111173241Y-146785202D01*
X111173245Y-146785208D01*
X111175824Y-146789416D01*
X111330031Y-146969969D01*
X111510584Y-147124176D01*
X111514792Y-147126755D01*
X111514798Y-147126759D01*
X111708817Y-147245654D01*
X111713037Y-147248240D01*
X111717607Y-147250133D01*
X111717611Y-147250135D01*
X111927833Y-147337211D01*
X111932406Y-147339105D01*
X112002458Y-147355923D01*
X112158476Y-147393380D01*
X112158482Y-147393381D01*
X112163289Y-147394535D01*
X112400000Y-147413165D01*
X112636711Y-147394535D01*
X112641518Y-147393381D01*
X112641524Y-147393380D01*
X112797542Y-147355923D01*
X112867594Y-147339105D01*
X112872167Y-147337211D01*
X113082389Y-147250135D01*
X113082393Y-147250133D01*
X113086963Y-147248240D01*
X113091183Y-147245654D01*
X113285202Y-147126759D01*
X113285208Y-147126755D01*
X113289416Y-147124176D01*
X113469969Y-146969969D01*
X113624176Y-146789416D01*
X113626755Y-146785208D01*
X113626759Y-146785202D01*
X113745654Y-146591183D01*
X113748240Y-146586963D01*
X113754896Y-146570896D01*
X113837211Y-146372167D01*
X113837212Y-146372165D01*
X113839105Y-146367594D01*
X113867783Y-146248142D01*
X113893380Y-146141524D01*
X113893381Y-146141518D01*
X113894535Y-146136711D01*
X113913165Y-145900000D01*
X117386835Y-145900000D01*
X117405465Y-146136711D01*
X117406619Y-146141518D01*
X117406620Y-146141524D01*
X117432217Y-146248142D01*
X117460895Y-146367594D01*
X117462788Y-146372165D01*
X117462789Y-146372167D01*
X117545105Y-146570896D01*
X117551760Y-146586963D01*
X117554346Y-146591183D01*
X117673241Y-146785202D01*
X117673245Y-146785208D01*
X117675824Y-146789416D01*
X117830031Y-146969969D01*
X118010584Y-147124176D01*
X118014792Y-147126755D01*
X118014798Y-147126759D01*
X118208817Y-147245654D01*
X118213037Y-147248240D01*
X118217607Y-147250133D01*
X118217611Y-147250135D01*
X118427833Y-147337211D01*
X118432406Y-147339105D01*
X118502458Y-147355923D01*
X118658476Y-147393380D01*
X118658482Y-147393381D01*
X118663289Y-147394535D01*
X118900000Y-147413165D01*
X119136711Y-147394535D01*
X119141518Y-147393381D01*
X119141524Y-147393380D01*
X119297542Y-147355923D01*
X119367594Y-147339105D01*
X119372167Y-147337211D01*
X119582389Y-147250135D01*
X119582393Y-147250133D01*
X119586963Y-147248240D01*
X119591183Y-147245654D01*
X119785202Y-147126759D01*
X119785208Y-147126755D01*
X119789416Y-147124176D01*
X119969969Y-146969969D01*
X120124176Y-146789416D01*
X120126755Y-146785208D01*
X120126759Y-146785202D01*
X120245654Y-146591183D01*
X120248240Y-146586963D01*
X120254896Y-146570896D01*
X120337211Y-146372167D01*
X120337212Y-146372165D01*
X120339105Y-146367594D01*
X120355781Y-146298134D01*
X125966500Y-146298134D01*
X125973255Y-146360316D01*
X126024385Y-146496705D01*
X126111739Y-146613261D01*
X126228295Y-146700615D01*
X126364684Y-146751745D01*
X126426866Y-146758500D01*
X128223134Y-146758500D01*
X128285316Y-146751745D01*
X128421705Y-146700615D01*
X128538261Y-146613261D01*
X128625615Y-146496705D01*
X128647799Y-146437529D01*
X128669598Y-146379382D01*
X128712240Y-146322618D01*
X128778802Y-146297918D01*
X128848150Y-146313126D01*
X128882817Y-146341114D01*
X128911250Y-146373938D01*
X129083126Y-146516632D01*
X129276000Y-146629338D01*
X129484692Y-146709030D01*
X129489760Y-146710061D01*
X129489763Y-146710062D01*
X129597017Y-146731883D01*
X129703597Y-146753567D01*
X129708772Y-146753757D01*
X129708774Y-146753757D01*
X129921673Y-146761564D01*
X129921677Y-146761564D01*
X129926837Y-146761753D01*
X129931957Y-146761097D01*
X129931959Y-146761097D01*
X130143288Y-146734025D01*
X130143289Y-146734025D01*
X130148416Y-146733368D01*
X130153366Y-146731883D01*
X130357429Y-146670661D01*
X130357434Y-146670659D01*
X130362384Y-146669174D01*
X130562994Y-146570896D01*
X130744860Y-146441173D01*
X130903096Y-146283489D01*
X131033453Y-146102077D01*
X131034776Y-146103028D01*
X131081645Y-146059857D01*
X131151580Y-146047625D01*
X131217026Y-146075144D01*
X131244875Y-146106994D01*
X131304987Y-146205088D01*
X131451250Y-146373938D01*
X131623126Y-146516632D01*
X131816000Y-146629338D01*
X132024692Y-146709030D01*
X132029760Y-146710061D01*
X132029763Y-146710062D01*
X132137017Y-146731883D01*
X132243597Y-146753567D01*
X132248772Y-146753757D01*
X132248774Y-146753757D01*
X132461673Y-146761564D01*
X132461677Y-146761564D01*
X132466837Y-146761753D01*
X132471957Y-146761097D01*
X132471959Y-146761097D01*
X132683288Y-146734025D01*
X132683289Y-146734025D01*
X132688416Y-146733368D01*
X132693366Y-146731883D01*
X132897429Y-146670661D01*
X132897434Y-146670659D01*
X132902384Y-146669174D01*
X133102994Y-146570896D01*
X133284860Y-146441173D01*
X133443096Y-146283489D01*
X133573453Y-146102077D01*
X133574776Y-146103028D01*
X133621645Y-146059857D01*
X133691580Y-146047625D01*
X133757026Y-146075144D01*
X133784875Y-146106994D01*
X133844987Y-146205088D01*
X133991250Y-146373938D01*
X134163126Y-146516632D01*
X134356000Y-146629338D01*
X134564692Y-146709030D01*
X134569760Y-146710061D01*
X134569763Y-146710062D01*
X134677017Y-146731883D01*
X134783597Y-146753567D01*
X134788772Y-146753757D01*
X134788774Y-146753757D01*
X135001673Y-146761564D01*
X135001677Y-146761564D01*
X135006837Y-146761753D01*
X135011957Y-146761097D01*
X135011959Y-146761097D01*
X135223288Y-146734025D01*
X135223289Y-146734025D01*
X135228416Y-146733368D01*
X135233366Y-146731883D01*
X135437429Y-146670661D01*
X135437434Y-146670659D01*
X135442384Y-146669174D01*
X135642994Y-146570896D01*
X135824860Y-146441173D01*
X135983096Y-146283489D01*
X136113453Y-146102077D01*
X136114776Y-146103028D01*
X136161645Y-146059857D01*
X136231580Y-146047625D01*
X136297026Y-146075144D01*
X136324875Y-146106994D01*
X136384987Y-146205088D01*
X136531250Y-146373938D01*
X136703126Y-146516632D01*
X136896000Y-146629338D01*
X137104692Y-146709030D01*
X137109760Y-146710061D01*
X137109763Y-146710062D01*
X137217017Y-146731883D01*
X137323597Y-146753567D01*
X137328772Y-146753757D01*
X137328774Y-146753757D01*
X137541673Y-146761564D01*
X137541677Y-146761564D01*
X137546837Y-146761753D01*
X137551957Y-146761097D01*
X137551959Y-146761097D01*
X137763288Y-146734025D01*
X137763289Y-146734025D01*
X137768416Y-146733368D01*
X137773366Y-146731883D01*
X137977429Y-146670661D01*
X137977434Y-146670659D01*
X137982384Y-146669174D01*
X138182994Y-146570896D01*
X138364860Y-146441173D01*
X138523096Y-146283489D01*
X138653453Y-146102077D01*
X138674320Y-146059857D01*
X138680475Y-146047404D01*
X143736941Y-146047404D01*
X143737304Y-146051552D01*
X143737304Y-146051556D01*
X143745176Y-146141524D01*
X143763091Y-146346292D01*
X143764001Y-146350364D01*
X143764002Y-146350369D01*
X143822765Y-146613261D01*
X143828540Y-146639095D01*
X143932140Y-146920671D01*
X143934084Y-146924359D01*
X143934088Y-146924367D01*
X144040797Y-147126759D01*
X144072069Y-147186071D01*
X144245871Y-147430633D01*
X144450490Y-147650061D01*
X144682333Y-147840498D01*
X144937325Y-147998600D01*
X145210988Y-148121589D01*
X145385368Y-148173574D01*
X145494514Y-148206112D01*
X145494516Y-148206112D01*
X145498513Y-148207304D01*
X145502633Y-148207957D01*
X145502635Y-148207957D01*
X145621509Y-148226785D01*
X145794848Y-148254239D01*
X145837577Y-148256179D01*
X145887262Y-148258436D01*
X145887281Y-148258436D01*
X145888681Y-148258500D01*
X146076107Y-148258500D01*
X146299370Y-148243671D01*
X146303464Y-148242846D01*
X146303468Y-148242845D01*
X146444513Y-148214405D01*
X146593480Y-148184368D01*
X146877163Y-148086688D01*
X146880896Y-148084819D01*
X146880900Y-148084817D01*
X147141691Y-147954222D01*
X147141693Y-147954221D01*
X147145435Y-147952347D01*
X147393584Y-147783706D01*
X147617248Y-147583726D01*
X147619966Y-147580555D01*
X147809779Y-147359097D01*
X147809782Y-147359093D01*
X147812499Y-147355923D01*
X147814773Y-147352421D01*
X147814777Y-147352416D01*
X147973628Y-147107807D01*
X147973631Y-147107802D01*
X147975907Y-147104297D01*
X148104600Y-146833270D01*
X148127623Y-146761564D01*
X148195038Y-146551591D01*
X148195038Y-146551590D01*
X148196318Y-146547604D01*
X148228685Y-146367715D01*
X148248709Y-146256425D01*
X148248710Y-146256420D01*
X148249448Y-146252316D01*
X148254480Y-146141524D01*
X148262870Y-145956766D01*
X148262870Y-145956760D01*
X148263059Y-145952596D01*
X148258458Y-145900000D01*
X148237273Y-145657870D01*
X148236909Y-145653708D01*
X148195084Y-145466590D01*
X148172372Y-145364984D01*
X148172371Y-145364981D01*
X148171460Y-145360905D01*
X148067860Y-145079329D01*
X148065916Y-145075641D01*
X148065912Y-145075633D01*
X147929884Y-144817633D01*
X147929883Y-144817632D01*
X147927931Y-144813929D01*
X147754129Y-144569367D01*
X147549510Y-144349939D01*
X147317667Y-144159502D01*
X147062675Y-144001400D01*
X146789012Y-143878411D01*
X146575650Y-143814805D01*
X146505486Y-143793888D01*
X146505484Y-143793888D01*
X146501487Y-143792696D01*
X146497367Y-143792043D01*
X146497365Y-143792043D01*
X146378491Y-143773215D01*
X146205152Y-143745761D01*
X146162423Y-143743821D01*
X146112738Y-143741564D01*
X146112719Y-143741564D01*
X146111319Y-143741500D01*
X145923893Y-143741500D01*
X145700630Y-143756329D01*
X145696536Y-143757154D01*
X145696532Y-143757155D01*
X145555487Y-143785595D01*
X145406520Y-143815632D01*
X145122837Y-143913312D01*
X145119104Y-143915181D01*
X145119100Y-143915183D01*
X144866852Y-144041500D01*
X144854565Y-144047653D01*
X144783081Y-144096233D01*
X144694198Y-144156638D01*
X144606416Y-144216294D01*
X144382752Y-144416274D01*
X144380035Y-144419444D01*
X144380034Y-144419445D01*
X144248750Y-144572617D01*
X144187501Y-144644077D01*
X144185227Y-144647579D01*
X144185223Y-144647584D01*
X144026372Y-144892193D01*
X144024093Y-144895703D01*
X144022299Y-144899482D01*
X144022298Y-144899483D01*
X143971328Y-145006825D01*
X143895400Y-145166730D01*
X143894121Y-145170713D01*
X143894120Y-145170716D01*
X143881887Y-145208817D01*
X143803682Y-145452396D01*
X143750552Y-145747684D01*
X143750363Y-145751851D01*
X143750362Y-145751858D01*
X143743411Y-145904930D01*
X143736941Y-146047404D01*
X138680475Y-146047404D01*
X138750136Y-145906453D01*
X138750137Y-145906451D01*
X138752430Y-145901811D01*
X138817370Y-145688069D01*
X138846529Y-145466590D01*
X138848156Y-145400000D01*
X138829852Y-145177361D01*
X138775431Y-144960702D01*
X138686354Y-144755840D01*
X138611998Y-144640903D01*
X138567822Y-144572617D01*
X138567820Y-144572614D01*
X138565014Y-144568277D01*
X138414670Y-144403051D01*
X138410619Y-144399852D01*
X138410615Y-144399848D01*
X138243414Y-144267800D01*
X138243410Y-144267798D01*
X138239359Y-144264598D01*
X138043789Y-144156638D01*
X138038920Y-144154914D01*
X138038916Y-144154912D01*
X137838087Y-144083795D01*
X137838083Y-144083794D01*
X137833212Y-144082069D01*
X137828119Y-144081162D01*
X137828116Y-144081161D01*
X137618373Y-144043800D01*
X137618367Y-144043799D01*
X137613284Y-144042894D01*
X137539452Y-144041992D01*
X137395081Y-144040228D01*
X137395079Y-144040228D01*
X137389911Y-144040165D01*
X137169091Y-144073955D01*
X136956756Y-144143357D01*
X136929970Y-144157301D01*
X136816646Y-144216294D01*
X136758607Y-144246507D01*
X136754474Y-144249610D01*
X136754471Y-144249612D01*
X136624376Y-144347290D01*
X136579965Y-144380635D01*
X136576393Y-144384373D01*
X136468729Y-144497037D01*
X136425629Y-144542138D01*
X136318201Y-144699621D01*
X136263293Y-144744621D01*
X136192768Y-144752792D01*
X136129021Y-144721538D01*
X136108324Y-144697054D01*
X136027822Y-144572617D01*
X136027820Y-144572614D01*
X136025014Y-144568277D01*
X135874670Y-144403051D01*
X135870619Y-144399852D01*
X135870615Y-144399848D01*
X135703414Y-144267800D01*
X135703410Y-144267798D01*
X135699359Y-144264598D01*
X135503789Y-144156638D01*
X135498920Y-144154914D01*
X135498916Y-144154912D01*
X135298087Y-144083795D01*
X135298083Y-144083794D01*
X135293212Y-144082069D01*
X135288119Y-144081162D01*
X135288116Y-144081161D01*
X135078373Y-144043800D01*
X135078367Y-144043799D01*
X135073284Y-144042894D01*
X134999452Y-144041992D01*
X134855081Y-144040228D01*
X134855079Y-144040228D01*
X134849911Y-144040165D01*
X134629091Y-144073955D01*
X134416756Y-144143357D01*
X134389970Y-144157301D01*
X134276646Y-144216294D01*
X134218607Y-144246507D01*
X134214474Y-144249610D01*
X134214471Y-144249612D01*
X134084376Y-144347290D01*
X134039965Y-144380635D01*
X134036393Y-144384373D01*
X133928729Y-144497037D01*
X133885629Y-144542138D01*
X133778201Y-144699621D01*
X133723293Y-144744621D01*
X133652768Y-144752792D01*
X133589021Y-144721538D01*
X133568324Y-144697054D01*
X133487822Y-144572617D01*
X133487820Y-144572614D01*
X133485014Y-144568277D01*
X133334670Y-144403051D01*
X133330619Y-144399852D01*
X133330615Y-144399848D01*
X133163414Y-144267800D01*
X133163410Y-144267798D01*
X133159359Y-144264598D01*
X132963789Y-144156638D01*
X132958920Y-144154914D01*
X132958916Y-144154912D01*
X132758087Y-144083795D01*
X132758083Y-144083794D01*
X132753212Y-144082069D01*
X132748119Y-144081162D01*
X132748116Y-144081161D01*
X132538373Y-144043800D01*
X132538367Y-144043799D01*
X132533284Y-144042894D01*
X132459452Y-144041992D01*
X132315081Y-144040228D01*
X132315079Y-144040228D01*
X132309911Y-144040165D01*
X132089091Y-144073955D01*
X131876756Y-144143357D01*
X131849970Y-144157301D01*
X131736646Y-144216294D01*
X131678607Y-144246507D01*
X131674474Y-144249610D01*
X131674471Y-144249612D01*
X131544376Y-144347290D01*
X131499965Y-144380635D01*
X131496393Y-144384373D01*
X131388729Y-144497037D01*
X131345629Y-144542138D01*
X131238201Y-144699621D01*
X131183293Y-144744621D01*
X131112768Y-144752792D01*
X131049021Y-144721538D01*
X131028324Y-144697054D01*
X130947822Y-144572617D01*
X130947820Y-144572614D01*
X130945014Y-144568277D01*
X130794670Y-144403051D01*
X130790619Y-144399852D01*
X130790615Y-144399848D01*
X130623414Y-144267800D01*
X130623410Y-144267798D01*
X130619359Y-144264598D01*
X130423789Y-144156638D01*
X130418920Y-144154914D01*
X130418916Y-144154912D01*
X130218087Y-144083795D01*
X130218083Y-144083794D01*
X130213212Y-144082069D01*
X130208119Y-144081162D01*
X130208116Y-144081161D01*
X129998373Y-144043800D01*
X129998367Y-144043799D01*
X129993284Y-144042894D01*
X129919452Y-144041992D01*
X129775081Y-144040228D01*
X129775079Y-144040228D01*
X129769911Y-144040165D01*
X129549091Y-144073955D01*
X129336756Y-144143357D01*
X129309970Y-144157301D01*
X129196646Y-144216294D01*
X129138607Y-144246507D01*
X129134474Y-144249610D01*
X129134471Y-144249612D01*
X129004376Y-144347290D01*
X128959965Y-144380635D01*
X128884371Y-144459740D01*
X128879283Y-144465064D01*
X128817759Y-144500494D01*
X128746846Y-144497037D01*
X128689060Y-144455791D01*
X128670207Y-144422243D01*
X128628767Y-144311703D01*
X128625615Y-144303295D01*
X128538261Y-144186739D01*
X128421705Y-144099385D01*
X128285316Y-144048255D01*
X128223134Y-144041500D01*
X126426866Y-144041500D01*
X126364684Y-144048255D01*
X126228295Y-144099385D01*
X126111739Y-144186739D01*
X126024385Y-144303295D01*
X125973255Y-144439684D01*
X125966500Y-144501866D01*
X125966500Y-146298134D01*
X120355781Y-146298134D01*
X120367783Y-146248142D01*
X120393380Y-146141524D01*
X120393381Y-146141518D01*
X120394535Y-146136711D01*
X120413165Y-145900000D01*
X120394535Y-145663289D01*
X120393235Y-145657870D01*
X120347312Y-145466590D01*
X120339105Y-145432406D01*
X120248240Y-145213037D01*
X120217545Y-145162948D01*
X120126759Y-145014798D01*
X120126755Y-145014792D01*
X120124176Y-145010584D01*
X119969969Y-144830031D01*
X119789416Y-144675824D01*
X119785208Y-144673245D01*
X119785202Y-144673241D01*
X119591183Y-144554346D01*
X119586963Y-144551760D01*
X119582393Y-144549867D01*
X119582389Y-144549865D01*
X119372167Y-144462789D01*
X119372165Y-144462788D01*
X119367594Y-144460895D01*
X119248425Y-144432285D01*
X119141524Y-144406620D01*
X119141518Y-144406619D01*
X119136711Y-144405465D01*
X118900000Y-144386835D01*
X118663289Y-144405465D01*
X118658482Y-144406619D01*
X118658476Y-144406620D01*
X118551575Y-144432285D01*
X118432406Y-144460895D01*
X118427835Y-144462788D01*
X118427833Y-144462789D01*
X118217611Y-144549865D01*
X118217607Y-144549867D01*
X118213037Y-144551760D01*
X118208817Y-144554346D01*
X118014798Y-144673241D01*
X118014792Y-144673245D01*
X118010584Y-144675824D01*
X117830031Y-144830031D01*
X117675824Y-145010584D01*
X117673245Y-145014792D01*
X117673241Y-145014798D01*
X117582455Y-145162948D01*
X117551760Y-145213037D01*
X117460895Y-145432406D01*
X117452688Y-145466590D01*
X117406766Y-145657870D01*
X117405465Y-145663289D01*
X117386835Y-145900000D01*
X113913165Y-145900000D01*
X113894535Y-145663289D01*
X113893235Y-145657870D01*
X113847312Y-145466590D01*
X113839105Y-145432406D01*
X113748240Y-145213037D01*
X113717545Y-145162948D01*
X113626759Y-145014798D01*
X113626755Y-145014792D01*
X113624176Y-145010584D01*
X113469969Y-144830031D01*
X113289416Y-144675824D01*
X113285208Y-144673245D01*
X113285202Y-144673241D01*
X113091183Y-144554346D01*
X113086963Y-144551760D01*
X113082393Y-144549867D01*
X113082389Y-144549865D01*
X112872167Y-144462789D01*
X112872165Y-144462788D01*
X112867594Y-144460895D01*
X112748425Y-144432285D01*
X112641524Y-144406620D01*
X112641518Y-144406619D01*
X112636711Y-144405465D01*
X112400000Y-144386835D01*
X112163289Y-144405465D01*
X112158482Y-144406619D01*
X112158476Y-144406620D01*
X112051575Y-144432285D01*
X111932406Y-144460895D01*
X111927835Y-144462788D01*
X111927833Y-144462789D01*
X111717611Y-144549865D01*
X111717607Y-144549867D01*
X111713037Y-144551760D01*
X111708817Y-144554346D01*
X111514798Y-144673241D01*
X111514792Y-144673245D01*
X111510584Y-144675824D01*
X111330031Y-144830031D01*
X111175824Y-145010584D01*
X111173245Y-145014792D01*
X111173241Y-145014798D01*
X111082455Y-145162948D01*
X111051760Y-145213037D01*
X110960895Y-145432406D01*
X110952688Y-145466590D01*
X110906766Y-145657870D01*
X110905465Y-145663289D01*
X110886835Y-145900000D01*
X106258458Y-145900000D01*
X106237273Y-145657870D01*
X106236909Y-145653708D01*
X106195084Y-145466590D01*
X106172372Y-145364984D01*
X106172371Y-145364981D01*
X106171460Y-145360905D01*
X106067860Y-145079329D01*
X106065916Y-145075641D01*
X106065912Y-145075633D01*
X105929884Y-144817633D01*
X105929883Y-144817632D01*
X105927931Y-144813929D01*
X105754129Y-144569367D01*
X105549510Y-144349939D01*
X105317667Y-144159502D01*
X105062675Y-144001400D01*
X104789012Y-143878411D01*
X104575650Y-143814805D01*
X104505486Y-143793888D01*
X104505484Y-143793888D01*
X104501487Y-143792696D01*
X104497367Y-143792043D01*
X104497365Y-143792043D01*
X104378491Y-143773215D01*
X104205152Y-143745761D01*
X104162423Y-143743821D01*
X104112738Y-143741564D01*
X104112719Y-143741564D01*
X104111319Y-143741500D01*
X103923893Y-143741500D01*
X103700630Y-143756329D01*
X103696536Y-143757154D01*
X103696532Y-143757155D01*
X103555487Y-143785595D01*
X103406520Y-143815632D01*
X103122837Y-143913312D01*
X103119104Y-143915181D01*
X103119100Y-143915183D01*
X102866852Y-144041500D01*
X102854565Y-144047653D01*
X102783081Y-144096233D01*
X102694198Y-144156638D01*
X102606416Y-144216294D01*
X102382752Y-144416274D01*
X102380035Y-144419444D01*
X102380034Y-144419445D01*
X102248750Y-144572617D01*
X102187501Y-144644077D01*
X102185227Y-144647579D01*
X102185223Y-144647584D01*
X102026372Y-144892193D01*
X102024093Y-144895703D01*
X102022299Y-144899482D01*
X102022298Y-144899483D01*
X101971328Y-145006825D01*
X101895400Y-145166730D01*
X101894121Y-145170713D01*
X101894120Y-145170716D01*
X101881887Y-145208817D01*
X101803682Y-145452396D01*
X101750552Y-145747684D01*
X101750363Y-145751851D01*
X101750362Y-145751858D01*
X101743411Y-145904930D01*
X101736941Y-146047404D01*
X100508000Y-146047404D01*
X100508000Y-141400000D01*
X110886835Y-141400000D01*
X110905465Y-141636711D01*
X110960895Y-141867594D01*
X111051760Y-142086963D01*
X111054346Y-142091183D01*
X111173241Y-142285202D01*
X111173245Y-142285208D01*
X111175824Y-142289416D01*
X111330031Y-142469969D01*
X111510584Y-142624176D01*
X111514792Y-142626755D01*
X111514798Y-142626759D01*
X111708817Y-142745654D01*
X111713037Y-142748240D01*
X111717607Y-142750133D01*
X111717611Y-142750135D01*
X111927833Y-142837211D01*
X111932406Y-142839105D01*
X112012609Y-142858360D01*
X112158476Y-142893380D01*
X112158482Y-142893381D01*
X112163289Y-142894535D01*
X112400000Y-142913165D01*
X112636711Y-142894535D01*
X112641518Y-142893381D01*
X112641524Y-142893380D01*
X112787391Y-142858360D01*
X112867594Y-142839105D01*
X112872167Y-142837211D01*
X113082389Y-142750135D01*
X113082393Y-142750133D01*
X113086963Y-142748240D01*
X113091183Y-142745654D01*
X113285202Y-142626759D01*
X113285208Y-142626755D01*
X113289416Y-142624176D01*
X113469969Y-142469969D01*
X113624176Y-142289416D01*
X113626755Y-142285208D01*
X113626759Y-142285202D01*
X113745654Y-142091183D01*
X113748240Y-142086963D01*
X113839105Y-141867594D01*
X113894535Y-141636711D01*
X113913165Y-141400000D01*
X117386835Y-141400000D01*
X117405465Y-141636711D01*
X117460895Y-141867594D01*
X117551760Y-142086963D01*
X117554346Y-142091183D01*
X117673241Y-142285202D01*
X117673245Y-142285208D01*
X117675824Y-142289416D01*
X117830031Y-142469969D01*
X118010584Y-142624176D01*
X118014792Y-142626755D01*
X118014798Y-142626759D01*
X118208817Y-142745654D01*
X118213037Y-142748240D01*
X118217607Y-142750133D01*
X118217611Y-142750135D01*
X118427833Y-142837211D01*
X118432406Y-142839105D01*
X118512609Y-142858360D01*
X118658476Y-142893380D01*
X118658482Y-142893381D01*
X118663289Y-142894535D01*
X118900000Y-142913165D01*
X119136711Y-142894535D01*
X119141518Y-142893381D01*
X119141524Y-142893380D01*
X119287391Y-142858360D01*
X119367594Y-142839105D01*
X119372167Y-142837211D01*
X119582389Y-142750135D01*
X119582393Y-142750133D01*
X119586963Y-142748240D01*
X119591183Y-142745654D01*
X119785202Y-142626759D01*
X119785208Y-142626755D01*
X119789416Y-142624176D01*
X119969969Y-142469969D01*
X120124176Y-142289416D01*
X120126755Y-142285208D01*
X120126759Y-142285202D01*
X120245654Y-142091183D01*
X120248240Y-142086963D01*
X120339105Y-141867594D01*
X120394535Y-141636711D01*
X120413165Y-141400000D01*
X120394535Y-141163289D01*
X120339105Y-140932406D01*
X120248240Y-140713037D01*
X120245654Y-140708817D01*
X120126759Y-140514798D01*
X120126755Y-140514792D01*
X120124176Y-140510584D01*
X119969969Y-140330031D01*
X119789416Y-140175824D01*
X119785208Y-140173245D01*
X119785202Y-140173241D01*
X119591183Y-140054346D01*
X119586963Y-140051760D01*
X119582393Y-140049867D01*
X119582389Y-140049865D01*
X119372167Y-139962789D01*
X119372165Y-139962788D01*
X119367594Y-139960895D01*
X119287391Y-139941640D01*
X119141524Y-139906620D01*
X119141518Y-139906619D01*
X119136711Y-139905465D01*
X118900000Y-139886835D01*
X118663289Y-139905465D01*
X118658482Y-139906619D01*
X118658476Y-139906620D01*
X118512609Y-139941640D01*
X118432406Y-139960895D01*
X118427835Y-139962788D01*
X118427833Y-139962789D01*
X118217611Y-140049865D01*
X118217607Y-140049867D01*
X118213037Y-140051760D01*
X118208817Y-140054346D01*
X118014798Y-140173241D01*
X118014792Y-140173245D01*
X118010584Y-140175824D01*
X117830031Y-140330031D01*
X117675824Y-140510584D01*
X117673245Y-140514792D01*
X117673241Y-140514798D01*
X117554346Y-140708817D01*
X117551760Y-140713037D01*
X117460895Y-140932406D01*
X117405465Y-141163289D01*
X117386835Y-141400000D01*
X113913165Y-141400000D01*
X113894535Y-141163289D01*
X113839105Y-140932406D01*
X113748240Y-140713037D01*
X113745654Y-140708817D01*
X113626759Y-140514798D01*
X113626755Y-140514792D01*
X113624176Y-140510584D01*
X113469969Y-140330031D01*
X113289416Y-140175824D01*
X113285208Y-140173245D01*
X113285202Y-140173241D01*
X113091183Y-140054346D01*
X113086963Y-140051760D01*
X113082393Y-140049867D01*
X113082389Y-140049865D01*
X112872167Y-139962789D01*
X112872165Y-139962788D01*
X112867594Y-139960895D01*
X112787391Y-139941640D01*
X112641524Y-139906620D01*
X112641518Y-139906619D01*
X112636711Y-139905465D01*
X112400000Y-139886835D01*
X112163289Y-139905465D01*
X112158482Y-139906619D01*
X112158476Y-139906620D01*
X112012609Y-139941640D01*
X111932406Y-139960895D01*
X111927835Y-139962788D01*
X111927833Y-139962789D01*
X111717611Y-140049865D01*
X111717607Y-140049867D01*
X111713037Y-140051760D01*
X111708817Y-140054346D01*
X111514798Y-140173241D01*
X111514792Y-140173245D01*
X111510584Y-140175824D01*
X111330031Y-140330031D01*
X111175824Y-140510584D01*
X111173245Y-140514792D01*
X111173241Y-140514798D01*
X111054346Y-140708817D01*
X111051760Y-140713037D01*
X110960895Y-140932406D01*
X110905465Y-141163289D01*
X110886835Y-141400000D01*
X100508000Y-141400000D01*
X100508000Y-137750000D01*
X141136835Y-137750000D01*
X141155465Y-137986711D01*
X141210895Y-138217594D01*
X141301760Y-138436963D01*
X141304346Y-138441183D01*
X141423241Y-138635202D01*
X141423245Y-138635208D01*
X141425824Y-138639416D01*
X141580031Y-138819969D01*
X141760584Y-138974176D01*
X141764792Y-138976755D01*
X141764798Y-138976759D01*
X141958817Y-139095654D01*
X141963037Y-139098240D01*
X141967607Y-139100133D01*
X141967611Y-139100135D01*
X142177833Y-139187211D01*
X142182406Y-139189105D01*
X142262609Y-139208360D01*
X142408476Y-139243380D01*
X142408482Y-139243381D01*
X142413289Y-139244535D01*
X142650000Y-139263165D01*
X142886711Y-139244535D01*
X142891518Y-139243381D01*
X142891524Y-139243380D01*
X143037391Y-139208360D01*
X143117594Y-139189105D01*
X143122167Y-139187211D01*
X143332389Y-139100135D01*
X143332393Y-139100133D01*
X143336963Y-139098240D01*
X143341183Y-139095654D01*
X143535202Y-138976759D01*
X143535208Y-138976755D01*
X143539416Y-138974176D01*
X143719969Y-138819969D01*
X143874176Y-138639416D01*
X143876755Y-138635208D01*
X143876759Y-138635202D01*
X143995654Y-138441183D01*
X143998240Y-138436963D01*
X144089105Y-138217594D01*
X144144535Y-137986711D01*
X144163165Y-137750000D01*
X145636835Y-137750000D01*
X145655465Y-137986711D01*
X145710895Y-138217594D01*
X145801760Y-138436963D01*
X145804346Y-138441183D01*
X145923241Y-138635202D01*
X145923245Y-138635208D01*
X145925824Y-138639416D01*
X146080031Y-138819969D01*
X146260584Y-138974176D01*
X146264792Y-138976755D01*
X146264798Y-138976759D01*
X146458817Y-139095654D01*
X146463037Y-139098240D01*
X146467607Y-139100133D01*
X146467611Y-139100135D01*
X146677833Y-139187211D01*
X146682406Y-139189105D01*
X146762609Y-139208360D01*
X146908476Y-139243380D01*
X146908482Y-139243381D01*
X146913289Y-139244535D01*
X147150000Y-139263165D01*
X147386711Y-139244535D01*
X147391518Y-139243381D01*
X147391524Y-139243380D01*
X147537391Y-139208360D01*
X147617594Y-139189105D01*
X147622167Y-139187211D01*
X147832389Y-139100135D01*
X147832393Y-139100133D01*
X147836963Y-139098240D01*
X147841183Y-139095654D01*
X148035202Y-138976759D01*
X148035208Y-138976755D01*
X148039416Y-138974176D01*
X148219969Y-138819969D01*
X148374176Y-138639416D01*
X148376755Y-138635208D01*
X148376759Y-138635202D01*
X148495654Y-138441183D01*
X148498240Y-138436963D01*
X148589105Y-138217594D01*
X148644535Y-137986711D01*
X148663165Y-137750000D01*
X148644535Y-137513289D01*
X148589105Y-137282406D01*
X148498240Y-137063037D01*
X148495654Y-137058817D01*
X148376759Y-136864798D01*
X148376755Y-136864792D01*
X148374176Y-136860584D01*
X148219969Y-136680031D01*
X148039416Y-136525824D01*
X148035208Y-136523245D01*
X148035202Y-136523241D01*
X147841183Y-136404346D01*
X147836963Y-136401760D01*
X147832393Y-136399867D01*
X147832389Y-136399865D01*
X147622167Y-136312789D01*
X147622165Y-136312788D01*
X147617594Y-136310895D01*
X147530689Y-136290031D01*
X147391524Y-136256620D01*
X147391518Y-136256619D01*
X147386711Y-136255465D01*
X147150000Y-136236835D01*
X146913289Y-136255465D01*
X146908482Y-136256619D01*
X146908476Y-136256620D01*
X146769311Y-136290031D01*
X146682406Y-136310895D01*
X146677835Y-136312788D01*
X146677833Y-136312789D01*
X146467611Y-136399865D01*
X146467607Y-136399867D01*
X146463037Y-136401760D01*
X146458817Y-136404346D01*
X146264798Y-136523241D01*
X146264792Y-136523245D01*
X146260584Y-136525824D01*
X146080031Y-136680031D01*
X145925824Y-136860584D01*
X145923245Y-136864792D01*
X145923241Y-136864798D01*
X145804346Y-137058817D01*
X145801760Y-137063037D01*
X145710895Y-137282406D01*
X145655465Y-137513289D01*
X145636835Y-137750000D01*
X144163165Y-137750000D01*
X144144535Y-137513289D01*
X144089105Y-137282406D01*
X143998240Y-137063037D01*
X143995654Y-137058817D01*
X143876759Y-136864798D01*
X143876755Y-136864792D01*
X143874176Y-136860584D01*
X143719969Y-136680031D01*
X143539416Y-136525824D01*
X143535208Y-136523245D01*
X143535202Y-136523241D01*
X143341183Y-136404346D01*
X143336963Y-136401760D01*
X143332393Y-136399867D01*
X143332389Y-136399865D01*
X143122167Y-136312789D01*
X143122165Y-136312788D01*
X143117594Y-136310895D01*
X143030689Y-136290031D01*
X142891524Y-136256620D01*
X142891518Y-136256619D01*
X142886711Y-136255465D01*
X142650000Y-136236835D01*
X142413289Y-136255465D01*
X142408482Y-136256619D01*
X142408476Y-136256620D01*
X142269311Y-136290031D01*
X142182406Y-136310895D01*
X142177835Y-136312788D01*
X142177833Y-136312789D01*
X141967611Y-136399865D01*
X141967607Y-136399867D01*
X141963037Y-136401760D01*
X141958817Y-136404346D01*
X141764798Y-136523241D01*
X141764792Y-136523245D01*
X141760584Y-136525824D01*
X141580031Y-136680031D01*
X141425824Y-136860584D01*
X141423245Y-136864792D01*
X141423241Y-136864798D01*
X141304346Y-137058817D01*
X141301760Y-137063037D01*
X141210895Y-137282406D01*
X141155465Y-137513289D01*
X141136835Y-137750000D01*
X100508000Y-137750000D01*
X100508000Y-135286695D01*
X107637251Y-135286695D01*
X107637548Y-135291848D01*
X107637548Y-135291851D01*
X107643011Y-135386590D01*
X107650110Y-135509715D01*
X107651247Y-135514761D01*
X107651248Y-135514767D01*
X107671119Y-135602939D01*
X107699222Y-135727639D01*
X107783266Y-135934616D01*
X107899987Y-136125088D01*
X108046250Y-136293938D01*
X108218126Y-136436632D01*
X108411000Y-136549338D01*
X108619692Y-136629030D01*
X108624760Y-136630061D01*
X108624763Y-136630062D01*
X108732017Y-136651883D01*
X108838597Y-136673567D01*
X108843772Y-136673757D01*
X108843774Y-136673757D01*
X109056673Y-136681564D01*
X109056677Y-136681564D01*
X109061837Y-136681753D01*
X109066957Y-136681097D01*
X109066959Y-136681097D01*
X109278288Y-136654025D01*
X109278289Y-136654025D01*
X109283416Y-136653368D01*
X109288366Y-136651883D01*
X109492429Y-136590661D01*
X109492434Y-136590659D01*
X109497384Y-136589174D01*
X109697994Y-136490896D01*
X109879860Y-136361173D01*
X110038096Y-136203489D01*
X110097594Y-136120689D01*
X110165435Y-136026277D01*
X110168453Y-136022077D01*
X110267430Y-135821811D01*
X110332370Y-135608069D01*
X110361529Y-135386590D01*
X110363156Y-135320000D01*
X110344852Y-135097361D01*
X110290431Y-134880702D01*
X110201354Y-134675840D01*
X110080014Y-134488277D01*
X109929670Y-134323051D01*
X109925619Y-134319852D01*
X109925615Y-134319848D01*
X109758414Y-134187800D01*
X109758410Y-134187798D01*
X109754359Y-134184598D01*
X109713053Y-134161796D01*
X109663084Y-134111364D01*
X109648312Y-134041921D01*
X109673428Y-133975516D01*
X109700780Y-133948909D01*
X109744603Y-133917650D01*
X109879860Y-133821173D01*
X110038096Y-133663489D01*
X110097594Y-133580689D01*
X110165435Y-133486277D01*
X110168453Y-133482077D01*
X110267430Y-133281811D01*
X110332370Y-133068069D01*
X110361529Y-132846590D01*
X110363156Y-132780000D01*
X110344852Y-132557361D01*
X110290431Y-132340702D01*
X110201354Y-132135840D01*
X110080014Y-131948277D01*
X109929670Y-131783051D01*
X109925619Y-131779852D01*
X109925615Y-131779848D01*
X109758414Y-131647800D01*
X109758410Y-131647798D01*
X109754359Y-131644598D01*
X109713053Y-131621796D01*
X109663084Y-131571364D01*
X109648312Y-131501921D01*
X109673428Y-131435516D01*
X109700780Y-131408909D01*
X109761958Y-131365271D01*
X109879860Y-131281173D01*
X109916090Y-131245070D01*
X110034435Y-131127137D01*
X110038096Y-131123489D01*
X110097594Y-131040689D01*
X110126832Y-131000000D01*
X137786496Y-131000000D01*
X137787186Y-131006565D01*
X137790773Y-131040689D01*
X137806458Y-131189928D01*
X137865473Y-131371556D01*
X137960960Y-131536944D01*
X137965378Y-131541851D01*
X137965379Y-131541852D01*
X138055646Y-131642104D01*
X138088747Y-131678866D01*
X138243248Y-131791118D01*
X138249276Y-131793802D01*
X138249278Y-131793803D01*
X138411681Y-131866109D01*
X138417712Y-131868794D01*
X138511112Y-131888647D01*
X138598056Y-131907128D01*
X138598061Y-131907128D01*
X138604513Y-131908500D01*
X138795487Y-131908500D01*
X138801939Y-131907128D01*
X138801944Y-131907128D01*
X138888888Y-131888647D01*
X138982288Y-131868794D01*
X138988319Y-131866109D01*
X139150722Y-131793803D01*
X139150724Y-131793802D01*
X139156752Y-131791118D01*
X139311253Y-131678866D01*
X139344354Y-131642104D01*
X139434621Y-131541852D01*
X139434622Y-131541851D01*
X139439040Y-131536944D01*
X139534527Y-131371556D01*
X139574023Y-131250000D01*
X141136835Y-131250000D01*
X141155465Y-131486711D01*
X141156619Y-131491518D01*
X141156620Y-131491524D01*
X141163672Y-131520897D01*
X141210895Y-131717594D01*
X141212788Y-131722165D01*
X141212789Y-131722167D01*
X141273524Y-131868794D01*
X141301760Y-131936963D01*
X141304346Y-131941183D01*
X141423241Y-132135202D01*
X141423245Y-132135208D01*
X141425824Y-132139416D01*
X141580031Y-132319969D01*
X141760584Y-132474176D01*
X141764792Y-132476755D01*
X141764798Y-132476759D01*
X141958817Y-132595654D01*
X141963037Y-132598240D01*
X141967607Y-132600133D01*
X141967611Y-132600135D01*
X142177833Y-132687211D01*
X142182406Y-132689105D01*
X142262609Y-132708360D01*
X142408476Y-132743380D01*
X142408482Y-132743381D01*
X142413289Y-132744535D01*
X142650000Y-132763165D01*
X142886711Y-132744535D01*
X142891518Y-132743381D01*
X142891524Y-132743380D01*
X143037391Y-132708360D01*
X143117594Y-132689105D01*
X143122167Y-132687211D01*
X143332389Y-132600135D01*
X143332393Y-132600133D01*
X143336963Y-132598240D01*
X143341183Y-132595654D01*
X143535202Y-132476759D01*
X143535208Y-132476755D01*
X143539416Y-132474176D01*
X143719969Y-132319969D01*
X143874176Y-132139416D01*
X143876755Y-132135208D01*
X143876759Y-132135202D01*
X143995654Y-131941183D01*
X143998240Y-131936963D01*
X144026477Y-131868794D01*
X144087211Y-131722167D01*
X144087212Y-131722165D01*
X144089105Y-131717594D01*
X144136328Y-131520897D01*
X144143380Y-131491524D01*
X144143381Y-131491518D01*
X144144535Y-131486711D01*
X144163165Y-131250000D01*
X145636835Y-131250000D01*
X145655465Y-131486711D01*
X145656619Y-131491518D01*
X145656620Y-131491524D01*
X145663672Y-131520897D01*
X145710895Y-131717594D01*
X145712788Y-131722165D01*
X145712789Y-131722167D01*
X145773524Y-131868794D01*
X145801760Y-131936963D01*
X145804346Y-131941183D01*
X145923241Y-132135202D01*
X145923245Y-132135208D01*
X145925824Y-132139416D01*
X146080031Y-132319969D01*
X146260584Y-132474176D01*
X146264792Y-132476755D01*
X146264798Y-132476759D01*
X146458817Y-132595654D01*
X146463037Y-132598240D01*
X146467607Y-132600133D01*
X146467611Y-132600135D01*
X146677833Y-132687211D01*
X146682406Y-132689105D01*
X146762609Y-132708360D01*
X146908476Y-132743380D01*
X146908482Y-132743381D01*
X146913289Y-132744535D01*
X147150000Y-132763165D01*
X147386711Y-132744535D01*
X147391518Y-132743381D01*
X147391524Y-132743380D01*
X147537391Y-132708360D01*
X147617594Y-132689105D01*
X147622167Y-132687211D01*
X147832389Y-132600135D01*
X147832393Y-132600133D01*
X147836963Y-132598240D01*
X147841183Y-132595654D01*
X148035202Y-132476759D01*
X148035208Y-132476755D01*
X148039416Y-132474176D01*
X148219969Y-132319969D01*
X148374176Y-132139416D01*
X148376755Y-132135208D01*
X148376759Y-132135202D01*
X148495654Y-131941183D01*
X148498240Y-131936963D01*
X148526477Y-131868794D01*
X148587211Y-131722167D01*
X148587212Y-131722165D01*
X148589105Y-131717594D01*
X148636328Y-131520897D01*
X148643380Y-131491524D01*
X148643381Y-131491518D01*
X148644535Y-131486711D01*
X148663165Y-131250000D01*
X148644535Y-131013289D01*
X148639769Y-130993435D01*
X148605292Y-130849829D01*
X148589105Y-130782406D01*
X148570238Y-130736857D01*
X148500135Y-130567611D01*
X148500133Y-130567607D01*
X148498240Y-130563037D01*
X148479847Y-130533023D01*
X148376759Y-130364798D01*
X148376755Y-130364792D01*
X148374176Y-130360584D01*
X148219969Y-130180031D01*
X148039416Y-130025824D01*
X148035208Y-130023245D01*
X148035202Y-130023241D01*
X147841183Y-129904346D01*
X147836963Y-129901760D01*
X147832393Y-129899867D01*
X147832389Y-129899865D01*
X147622167Y-129812789D01*
X147622165Y-129812788D01*
X147617594Y-129810895D01*
X147537391Y-129791640D01*
X147391524Y-129756620D01*
X147391518Y-129756619D01*
X147386711Y-129755465D01*
X147150000Y-129736835D01*
X146913289Y-129755465D01*
X146908482Y-129756619D01*
X146908476Y-129756620D01*
X146762609Y-129791640D01*
X146682406Y-129810895D01*
X146677835Y-129812788D01*
X146677833Y-129812789D01*
X146467611Y-129899865D01*
X146467607Y-129899867D01*
X146463037Y-129901760D01*
X146458817Y-129904346D01*
X146264798Y-130023241D01*
X146264792Y-130023245D01*
X146260584Y-130025824D01*
X146080031Y-130180031D01*
X145925824Y-130360584D01*
X145923245Y-130364792D01*
X145923241Y-130364798D01*
X145820153Y-130533023D01*
X145801760Y-130563037D01*
X145799867Y-130567607D01*
X145799865Y-130567611D01*
X145729762Y-130736857D01*
X145710895Y-130782406D01*
X145694708Y-130849829D01*
X145660232Y-130993435D01*
X145655465Y-131013289D01*
X145636835Y-131250000D01*
X144163165Y-131250000D01*
X144144535Y-131013289D01*
X144139769Y-130993435D01*
X144105292Y-130849829D01*
X144089105Y-130782406D01*
X144070238Y-130736857D01*
X144000135Y-130567611D01*
X144000133Y-130567607D01*
X143998240Y-130563037D01*
X143979847Y-130533023D01*
X143876759Y-130364798D01*
X143876755Y-130364792D01*
X143874176Y-130360584D01*
X143719969Y-130180031D01*
X143539416Y-130025824D01*
X143535208Y-130023245D01*
X143535202Y-130023241D01*
X143341183Y-129904346D01*
X143336963Y-129901760D01*
X143332393Y-129899867D01*
X143332389Y-129899865D01*
X143122167Y-129812789D01*
X143122165Y-129812788D01*
X143117594Y-129810895D01*
X143037391Y-129791640D01*
X142891524Y-129756620D01*
X142891518Y-129756619D01*
X142886711Y-129755465D01*
X142650000Y-129736835D01*
X142413289Y-129755465D01*
X142408482Y-129756619D01*
X142408476Y-129756620D01*
X142262609Y-129791640D01*
X142182406Y-129810895D01*
X142177835Y-129812788D01*
X142177833Y-129812789D01*
X141967611Y-129899865D01*
X141967607Y-129899867D01*
X141963037Y-129901760D01*
X141958817Y-129904346D01*
X141764798Y-130023241D01*
X141764792Y-130023245D01*
X141760584Y-130025824D01*
X141580031Y-130180031D01*
X141425824Y-130360584D01*
X141423245Y-130364792D01*
X141423241Y-130364798D01*
X141320153Y-130533023D01*
X141301760Y-130563037D01*
X141299867Y-130567607D01*
X141299865Y-130567611D01*
X141229762Y-130736857D01*
X141210895Y-130782406D01*
X141194708Y-130849829D01*
X141160232Y-130993435D01*
X141155465Y-131013289D01*
X141136835Y-131250000D01*
X139574023Y-131250000D01*
X139593542Y-131189928D01*
X139609228Y-131040689D01*
X139612814Y-131006565D01*
X139613504Y-131000000D01*
X139593542Y-130810072D01*
X139534527Y-130628444D01*
X139439040Y-130463056D01*
X139413569Y-130434767D01*
X139315675Y-130326045D01*
X139315674Y-130326044D01*
X139311253Y-130321134D01*
X139156752Y-130208882D01*
X139150724Y-130206198D01*
X139150722Y-130206197D01*
X138988319Y-130133891D01*
X138988318Y-130133891D01*
X138982288Y-130131206D01*
X138888887Y-130111353D01*
X138801944Y-130092872D01*
X138801939Y-130092872D01*
X138795487Y-130091500D01*
X138604513Y-130091500D01*
X138598061Y-130092872D01*
X138598056Y-130092872D01*
X138511113Y-130111353D01*
X138417712Y-130131206D01*
X138411682Y-130133891D01*
X138411681Y-130133891D01*
X138249278Y-130206197D01*
X138249276Y-130206198D01*
X138243248Y-130208882D01*
X138088747Y-130321134D01*
X138084326Y-130326044D01*
X138084325Y-130326045D01*
X137986432Y-130434767D01*
X137960960Y-130463056D01*
X137865473Y-130628444D01*
X137806458Y-130810072D01*
X137786496Y-131000000D01*
X110126832Y-131000000D01*
X110165435Y-130946277D01*
X110168453Y-130942077D01*
X110236797Y-130803794D01*
X110265136Y-130746453D01*
X110265137Y-130746451D01*
X110267430Y-130741811D01*
X110332370Y-130528069D01*
X110361529Y-130306590D01*
X110363156Y-130240000D01*
X110344852Y-130017361D01*
X110290431Y-129800702D01*
X110201354Y-129595840D01*
X110080014Y-129408277D01*
X110076532Y-129404450D01*
X109932798Y-129246488D01*
X109901746Y-129182642D01*
X109910141Y-129112143D01*
X109955317Y-129057375D01*
X109981761Y-129043706D01*
X110088297Y-129003767D01*
X110096705Y-129000615D01*
X110213261Y-128913261D01*
X110300615Y-128796705D01*
X110351745Y-128660316D01*
X110358500Y-128598134D01*
X110358500Y-127400000D01*
X125086496Y-127400000D01*
X125106458Y-127589928D01*
X125165473Y-127771556D01*
X125260960Y-127936944D01*
X125388747Y-128078866D01*
X125543248Y-128191118D01*
X125549276Y-128193802D01*
X125549278Y-128193803D01*
X125711681Y-128266109D01*
X125717712Y-128268794D01*
X125806370Y-128287639D01*
X125898056Y-128307128D01*
X125898061Y-128307128D01*
X125904513Y-128308500D01*
X126095487Y-128308500D01*
X126101939Y-128307128D01*
X126101944Y-128307128D01*
X126193630Y-128287639D01*
X126282288Y-128268794D01*
X126288319Y-128266109D01*
X126450722Y-128193803D01*
X126450724Y-128193802D01*
X126456752Y-128191118D01*
X126611253Y-128078866D01*
X126739040Y-127936944D01*
X126791145Y-127846695D01*
X145337251Y-127846695D01*
X145337548Y-127851848D01*
X145337548Y-127851851D01*
X145343011Y-127946590D01*
X145350110Y-128069715D01*
X145351247Y-128074761D01*
X145351248Y-128074767D01*
X145352172Y-128078866D01*
X145399222Y-128287639D01*
X145483266Y-128494616D01*
X145485965Y-128499020D01*
X145579993Y-128652460D01*
X145599987Y-128685088D01*
X145746250Y-128853938D01*
X145918126Y-128996632D01*
X146111000Y-129109338D01*
X146115825Y-129111180D01*
X146115826Y-129111181D01*
X146188612Y-129138975D01*
X146319692Y-129189030D01*
X146324760Y-129190061D01*
X146324763Y-129190062D01*
X146432017Y-129211883D01*
X146538597Y-129233567D01*
X146543772Y-129233757D01*
X146543774Y-129233757D01*
X146756673Y-129241564D01*
X146756677Y-129241564D01*
X146761837Y-129241753D01*
X146766957Y-129241097D01*
X146766959Y-129241097D01*
X146978288Y-129214025D01*
X146978289Y-129214025D01*
X146983416Y-129213368D01*
X146988366Y-129211883D01*
X147192429Y-129150661D01*
X147192434Y-129150659D01*
X147197384Y-129149174D01*
X147397994Y-129050896D01*
X147579860Y-128921173D01*
X147738096Y-128763489D01*
X147797594Y-128680689D01*
X147865435Y-128586277D01*
X147868453Y-128582077D01*
X147967430Y-128381811D01*
X148002583Y-128266109D01*
X148030865Y-128173023D01*
X148030865Y-128173021D01*
X148032370Y-128168069D01*
X148061529Y-127946590D01*
X148061765Y-127936944D01*
X148063074Y-127883365D01*
X148063074Y-127883361D01*
X148063156Y-127880000D01*
X148044852Y-127657361D01*
X147990431Y-127440702D01*
X147901354Y-127235840D01*
X147780014Y-127048277D01*
X147629670Y-126883051D01*
X147625619Y-126879852D01*
X147625615Y-126879848D01*
X147458414Y-126747800D01*
X147458410Y-126747798D01*
X147454359Y-126744598D01*
X147413053Y-126721796D01*
X147363084Y-126671364D01*
X147348312Y-126601921D01*
X147373428Y-126535516D01*
X147400780Y-126508909D01*
X147444603Y-126477650D01*
X147579860Y-126381173D01*
X147738096Y-126223489D01*
X147797594Y-126140689D01*
X147865435Y-126046277D01*
X147868453Y-126042077D01*
X147967430Y-125841811D01*
X148032370Y-125628069D01*
X148061529Y-125406590D01*
X148063156Y-125340000D01*
X148044852Y-125117361D01*
X147990431Y-124900702D01*
X147901354Y-124695840D01*
X147780014Y-124508277D01*
X147629670Y-124343051D01*
X147625619Y-124339852D01*
X147625615Y-124339848D01*
X147458414Y-124207800D01*
X147458410Y-124207798D01*
X147454359Y-124204598D01*
X147413053Y-124181796D01*
X147363084Y-124131364D01*
X147348312Y-124061921D01*
X147373428Y-123995516D01*
X147400780Y-123968909D01*
X147444603Y-123937650D01*
X147579860Y-123841173D01*
X147738096Y-123683489D01*
X147797594Y-123600689D01*
X147865435Y-123506277D01*
X147868453Y-123502077D01*
X147967430Y-123301811D01*
X148032370Y-123088069D01*
X148061529Y-122866590D01*
X148063156Y-122800000D01*
X148044852Y-122577361D01*
X147990431Y-122360702D01*
X147901354Y-122155840D01*
X147861906Y-122094862D01*
X147782822Y-121972617D01*
X147782820Y-121972614D01*
X147780014Y-121968277D01*
X147629670Y-121803051D01*
X147625619Y-121799852D01*
X147625615Y-121799848D01*
X147458414Y-121667800D01*
X147458410Y-121667798D01*
X147454359Y-121664598D01*
X147413053Y-121641796D01*
X147363084Y-121591364D01*
X147348312Y-121521921D01*
X147373428Y-121455516D01*
X147400780Y-121428909D01*
X147444603Y-121397650D01*
X147579860Y-121301173D01*
X147738096Y-121143489D01*
X147797594Y-121060689D01*
X147865435Y-120966277D01*
X147868453Y-120962077D01*
X147967430Y-120761811D01*
X148032370Y-120548069D01*
X148061529Y-120326590D01*
X148063156Y-120260000D01*
X148044852Y-120037361D01*
X147990431Y-119820702D01*
X147901354Y-119615840D01*
X147780014Y-119428277D01*
X147629670Y-119263051D01*
X147625619Y-119259852D01*
X147625615Y-119259848D01*
X147458414Y-119127800D01*
X147458410Y-119127798D01*
X147454359Y-119124598D01*
X147413053Y-119101796D01*
X147363084Y-119051364D01*
X147348312Y-118981921D01*
X147373428Y-118915516D01*
X147400780Y-118888909D01*
X147444603Y-118857650D01*
X147579860Y-118761173D01*
X147738096Y-118603489D01*
X147797594Y-118520689D01*
X147865435Y-118426277D01*
X147868453Y-118422077D01*
X147873057Y-118412763D01*
X147965136Y-118226453D01*
X147965137Y-118226451D01*
X147967430Y-118221811D01*
X148032370Y-118008069D01*
X148061529Y-117786590D01*
X148063156Y-117720000D01*
X148044852Y-117497361D01*
X147990431Y-117280702D01*
X147901354Y-117075840D01*
X147780014Y-116888277D01*
X147629670Y-116723051D01*
X147625619Y-116719852D01*
X147625615Y-116719848D01*
X147458414Y-116587800D01*
X147458410Y-116587798D01*
X147454359Y-116584598D01*
X147413053Y-116561796D01*
X147363084Y-116511364D01*
X147348312Y-116441921D01*
X147373428Y-116375516D01*
X147400780Y-116348909D01*
X147444603Y-116317650D01*
X147579860Y-116221173D01*
X147738096Y-116063489D01*
X147797594Y-115980689D01*
X147865435Y-115886277D01*
X147868453Y-115882077D01*
X147958441Y-115700000D01*
X147965136Y-115686453D01*
X147965137Y-115686451D01*
X147967430Y-115681811D01*
X147999900Y-115574940D01*
X148030865Y-115473023D01*
X148030865Y-115473021D01*
X148032370Y-115468069D01*
X148061529Y-115246590D01*
X148063156Y-115180000D01*
X148044852Y-114957361D01*
X147990431Y-114740702D01*
X147901354Y-114535840D01*
X147812268Y-114398134D01*
X147782822Y-114352617D01*
X147782820Y-114352614D01*
X147780014Y-114348277D01*
X147629670Y-114183051D01*
X147625619Y-114179852D01*
X147625615Y-114179848D01*
X147458414Y-114047800D01*
X147458410Y-114047798D01*
X147454359Y-114044598D01*
X147412569Y-114021529D01*
X147362598Y-113971097D01*
X147347826Y-113901654D01*
X147372942Y-113835248D01*
X147400294Y-113808641D01*
X147575328Y-113683792D01*
X147583200Y-113677139D01*
X147734052Y-113526812D01*
X147740730Y-113518965D01*
X147865003Y-113346020D01*
X147870313Y-113337183D01*
X147964670Y-113146267D01*
X147968469Y-113136672D01*
X148030377Y-112932910D01*
X148032555Y-112922837D01*
X148033986Y-112911962D01*
X148031775Y-112897778D01*
X148018617Y-112894000D01*
X145383225Y-112894000D01*
X145369694Y-112897973D01*
X145368257Y-112907966D01*
X145398565Y-113042446D01*
X145401645Y-113052275D01*
X145481770Y-113249603D01*
X145486413Y-113258794D01*
X145597694Y-113440388D01*
X145603777Y-113448699D01*
X145743213Y-113609667D01*
X145750580Y-113616883D01*
X145914434Y-113752916D01*
X145922881Y-113758831D01*
X145991969Y-113799203D01*
X146040693Y-113850842D01*
X146053764Y-113920625D01*
X146027033Y-113986396D01*
X145986584Y-114019752D01*
X145973607Y-114026507D01*
X145969474Y-114029610D01*
X145969471Y-114029612D01*
X145799100Y-114157530D01*
X145794965Y-114160635D01*
X145791393Y-114164373D01*
X145653194Y-114308990D01*
X145640629Y-114322138D01*
X145514743Y-114506680D01*
X145420688Y-114709305D01*
X145360989Y-114924570D01*
X145337251Y-115146695D01*
X145337548Y-115151848D01*
X145337548Y-115151851D01*
X145343011Y-115246590D01*
X145350110Y-115369715D01*
X145351247Y-115374761D01*
X145351248Y-115374767D01*
X145371119Y-115462939D01*
X145399222Y-115587639D01*
X145483266Y-115794616D01*
X145599987Y-115985088D01*
X145746250Y-116153938D01*
X145918126Y-116296632D01*
X145988595Y-116337811D01*
X145991445Y-116339476D01*
X146040169Y-116391114D01*
X146053240Y-116460897D01*
X146026509Y-116526669D01*
X145986055Y-116560027D01*
X145973607Y-116566507D01*
X145969474Y-116569610D01*
X145969471Y-116569612D01*
X145917677Y-116608500D01*
X145794965Y-116700635D01*
X145640629Y-116862138D01*
X145514743Y-117046680D01*
X145420688Y-117249305D01*
X145360989Y-117464570D01*
X145337251Y-117686695D01*
X145337548Y-117691848D01*
X145337548Y-117691851D01*
X145343011Y-117786590D01*
X145350110Y-117909715D01*
X145351247Y-117914761D01*
X145351248Y-117914767D01*
X145371119Y-118002939D01*
X145399222Y-118127639D01*
X145460673Y-118278976D01*
X145467220Y-118295098D01*
X145483266Y-118334616D01*
X145485965Y-118339020D01*
X145577233Y-118487956D01*
X145599987Y-118525088D01*
X145746250Y-118693938D01*
X145918126Y-118836632D01*
X145988595Y-118877811D01*
X145991445Y-118879476D01*
X146040169Y-118931114D01*
X146053240Y-119000897D01*
X146026509Y-119066669D01*
X145986055Y-119100027D01*
X145973607Y-119106507D01*
X145969474Y-119109610D01*
X145969471Y-119109612D01*
X145840342Y-119206565D01*
X145794965Y-119240635D01*
X145640629Y-119402138D01*
X145514743Y-119586680D01*
X145499003Y-119620590D01*
X145428049Y-119773448D01*
X145420688Y-119789305D01*
X145360989Y-120004570D01*
X145337251Y-120226695D01*
X145337548Y-120231848D01*
X145337548Y-120231851D01*
X145343011Y-120326590D01*
X145350110Y-120449715D01*
X145351247Y-120454761D01*
X145351248Y-120454767D01*
X145371119Y-120542939D01*
X145399222Y-120667639D01*
X145483266Y-120874616D01*
X145599987Y-121065088D01*
X145746250Y-121233938D01*
X145918126Y-121376632D01*
X145988595Y-121417811D01*
X145991445Y-121419476D01*
X146040169Y-121471114D01*
X146053240Y-121540897D01*
X146026509Y-121606669D01*
X145986055Y-121640027D01*
X145973607Y-121646507D01*
X145969474Y-121649610D01*
X145969471Y-121649612D01*
X145812516Y-121767457D01*
X145794965Y-121780635D01*
X145640629Y-121942138D01*
X145637715Y-121946410D01*
X145637714Y-121946411D01*
X145599195Y-122002878D01*
X145514743Y-122126680D01*
X145420688Y-122329305D01*
X145360989Y-122544570D01*
X145337251Y-122766695D01*
X145337548Y-122771848D01*
X145337548Y-122771851D01*
X145343011Y-122866590D01*
X145350110Y-122989715D01*
X145351247Y-122994761D01*
X145351248Y-122994767D01*
X145352653Y-123001000D01*
X145399222Y-123207639D01*
X145483266Y-123414616D01*
X145599987Y-123605088D01*
X145746250Y-123773938D01*
X145918126Y-123916632D01*
X145988595Y-123957811D01*
X145991445Y-123959476D01*
X146040169Y-124011114D01*
X146053240Y-124080897D01*
X146026509Y-124146669D01*
X145986055Y-124180027D01*
X145973607Y-124186507D01*
X145969474Y-124189610D01*
X145969471Y-124189612D01*
X145945247Y-124207800D01*
X145794965Y-124320635D01*
X145640629Y-124482138D01*
X145514743Y-124666680D01*
X145420688Y-124869305D01*
X145360989Y-125084570D01*
X145337251Y-125306695D01*
X145337548Y-125311848D01*
X145337548Y-125311851D01*
X145343011Y-125406590D01*
X145350110Y-125529715D01*
X145351247Y-125534761D01*
X145351248Y-125534767D01*
X145371119Y-125622939D01*
X145399222Y-125747639D01*
X145483266Y-125954616D01*
X145599987Y-126145088D01*
X145746250Y-126313938D01*
X145918126Y-126456632D01*
X145960440Y-126481358D01*
X145991445Y-126499476D01*
X146040169Y-126551114D01*
X146053240Y-126620897D01*
X146026509Y-126686669D01*
X145986055Y-126720027D01*
X145973607Y-126726507D01*
X145969474Y-126729610D01*
X145969471Y-126729612D01*
X145945247Y-126747800D01*
X145794965Y-126860635D01*
X145640629Y-127022138D01*
X145514743Y-127206680D01*
X145499003Y-127240590D01*
X145428055Y-127393435D01*
X145420688Y-127409305D01*
X145360989Y-127624570D01*
X145337251Y-127846695D01*
X126791145Y-127846695D01*
X126834527Y-127771556D01*
X126893542Y-127589928D01*
X126913504Y-127400000D01*
X126893542Y-127210072D01*
X126834527Y-127028444D01*
X126739040Y-126863056D01*
X126734065Y-126857530D01*
X126615675Y-126726045D01*
X126615674Y-126726044D01*
X126611253Y-126721134D01*
X126456752Y-126608882D01*
X126450724Y-126606198D01*
X126450722Y-126606197D01*
X126288319Y-126533891D01*
X126288318Y-126533891D01*
X126282288Y-126531206D01*
X126188888Y-126511353D01*
X126101944Y-126492872D01*
X126101939Y-126492872D01*
X126095487Y-126491500D01*
X125904513Y-126491500D01*
X125898061Y-126492872D01*
X125898056Y-126492872D01*
X125811112Y-126511353D01*
X125717712Y-126531206D01*
X125711682Y-126533891D01*
X125711681Y-126533891D01*
X125549278Y-126606197D01*
X125549276Y-126606198D01*
X125543248Y-126608882D01*
X125388747Y-126721134D01*
X125384326Y-126726044D01*
X125384325Y-126726045D01*
X125265936Y-126857530D01*
X125260960Y-126863056D01*
X125165473Y-127028444D01*
X125106458Y-127210072D01*
X125086496Y-127400000D01*
X110358500Y-127400000D01*
X110358500Y-126801866D01*
X110351745Y-126739684D01*
X110300615Y-126603295D01*
X110213261Y-126486739D01*
X110096705Y-126399385D01*
X109960316Y-126348255D01*
X109898134Y-126341500D01*
X108101866Y-126341500D01*
X108039684Y-126348255D01*
X107903295Y-126399385D01*
X107786739Y-126486739D01*
X107699385Y-126603295D01*
X107648255Y-126739684D01*
X107641500Y-126801866D01*
X107641500Y-128598134D01*
X107648255Y-128660316D01*
X107699385Y-128796705D01*
X107786739Y-128913261D01*
X107903295Y-129000615D01*
X107911704Y-129003767D01*
X107911705Y-129003768D01*
X108020451Y-129044535D01*
X108077216Y-129087176D01*
X108101916Y-129153738D01*
X108086709Y-129223087D01*
X108067316Y-129249568D01*
X107940629Y-129382138D01*
X107814743Y-129566680D01*
X107720688Y-129769305D01*
X107660989Y-129984570D01*
X107637251Y-130206695D01*
X107637548Y-130211848D01*
X107637548Y-130211851D01*
X107645907Y-130356825D01*
X107650110Y-130429715D01*
X107651247Y-130434761D01*
X107651248Y-130434767D01*
X107658912Y-130468774D01*
X107699222Y-130647639D01*
X107783266Y-130854616D01*
X107785965Y-130859020D01*
X107880501Y-131013289D01*
X107899987Y-131045088D01*
X108046250Y-131213938D01*
X108218126Y-131356632D01*
X108288595Y-131397811D01*
X108291445Y-131399476D01*
X108340169Y-131451114D01*
X108353240Y-131520897D01*
X108326509Y-131586669D01*
X108286055Y-131620027D01*
X108273607Y-131626507D01*
X108269474Y-131629610D01*
X108269471Y-131629612D01*
X108099100Y-131757530D01*
X108094965Y-131760635D01*
X107940629Y-131922138D01*
X107814743Y-132106680D01*
X107720688Y-132309305D01*
X107660989Y-132524570D01*
X107637251Y-132746695D01*
X107637548Y-132751848D01*
X107637548Y-132751851D01*
X107643011Y-132846590D01*
X107650110Y-132969715D01*
X107651247Y-132974761D01*
X107651248Y-132974767D01*
X107671119Y-133062939D01*
X107699222Y-133187639D01*
X107783266Y-133394616D01*
X107899987Y-133585088D01*
X108046250Y-133753938D01*
X108218126Y-133896632D01*
X108288595Y-133937811D01*
X108291445Y-133939476D01*
X108340169Y-133991114D01*
X108353240Y-134060897D01*
X108326509Y-134126669D01*
X108286055Y-134160027D01*
X108273607Y-134166507D01*
X108269474Y-134169610D01*
X108269471Y-134169612D01*
X108245247Y-134187800D01*
X108094965Y-134300635D01*
X107940629Y-134462138D01*
X107814743Y-134646680D01*
X107720688Y-134849305D01*
X107660989Y-135064570D01*
X107637251Y-135286695D01*
X100508000Y-135286695D01*
X100508000Y-121709864D01*
X108741500Y-121709864D01*
X108744619Y-121767457D01*
X108789620Y-121997893D01*
X108872804Y-122217452D01*
X108991791Y-122419856D01*
X109143181Y-122599319D01*
X109322644Y-122750709D01*
X109327248Y-122753415D01*
X109327250Y-122753417D01*
X109349837Y-122766695D01*
X109525048Y-122869696D01*
X109744607Y-122952880D01*
X109975043Y-122997881D01*
X109979401Y-122998117D01*
X110030948Y-123000909D01*
X110030963Y-123000909D01*
X110032636Y-123001000D01*
X111967364Y-123001000D01*
X111969037Y-123000909D01*
X111969052Y-123000909D01*
X112020599Y-122998117D01*
X112024957Y-122997881D01*
X112255393Y-122952880D01*
X112474952Y-122869696D01*
X112650163Y-122766695D01*
X112672750Y-122753417D01*
X112672752Y-122753415D01*
X112677356Y-122750709D01*
X112856819Y-122599319D01*
X113008209Y-122419856D01*
X113127196Y-122217452D01*
X113210380Y-121997893D01*
X113255381Y-121767457D01*
X113258500Y-121709864D01*
X113258500Y-119775136D01*
X113256698Y-119741852D01*
X113255617Y-119721901D01*
X113255381Y-119717543D01*
X113210380Y-119487107D01*
X113127196Y-119267548D01*
X113087487Y-119200000D01*
X137586496Y-119200000D01*
X137587186Y-119206565D01*
X137594120Y-119272534D01*
X137606458Y-119389928D01*
X137665473Y-119571556D01*
X137668776Y-119577278D01*
X137668777Y-119577279D01*
X137688530Y-119611492D01*
X137760960Y-119736944D01*
X137765378Y-119741851D01*
X137765379Y-119741852D01*
X137808106Y-119789305D01*
X137888747Y-119878866D01*
X138043248Y-119991118D01*
X138049276Y-119993802D01*
X138049278Y-119993803D01*
X138211681Y-120066109D01*
X138217712Y-120068794D01*
X138311112Y-120088647D01*
X138398056Y-120107128D01*
X138398061Y-120107128D01*
X138404513Y-120108500D01*
X138595487Y-120108500D01*
X138601939Y-120107128D01*
X138601944Y-120107128D01*
X138688888Y-120088647D01*
X138782288Y-120068794D01*
X138788319Y-120066109D01*
X138950722Y-119993803D01*
X138950724Y-119993802D01*
X138956752Y-119991118D01*
X139111253Y-119878866D01*
X139191894Y-119789305D01*
X139234621Y-119741852D01*
X139234622Y-119741851D01*
X139239040Y-119736944D01*
X139311470Y-119611492D01*
X139331223Y-119577279D01*
X139331224Y-119577278D01*
X139334527Y-119571556D01*
X139393542Y-119389928D01*
X139405881Y-119272534D01*
X139412814Y-119206565D01*
X139413504Y-119200000D01*
X139393542Y-119010072D01*
X139334527Y-118828444D01*
X139239040Y-118663056D01*
X139188691Y-118607137D01*
X139115675Y-118526045D01*
X139115674Y-118526044D01*
X139111253Y-118521134D01*
X138974913Y-118422077D01*
X138962094Y-118412763D01*
X138962093Y-118412762D01*
X138956752Y-118408882D01*
X138950724Y-118406198D01*
X138950722Y-118406197D01*
X138788319Y-118333891D01*
X138788318Y-118333891D01*
X138782288Y-118331206D01*
X138688888Y-118311353D01*
X138601944Y-118292872D01*
X138601939Y-118292872D01*
X138595487Y-118291500D01*
X138404513Y-118291500D01*
X138398061Y-118292872D01*
X138398056Y-118292872D01*
X138311112Y-118311353D01*
X138217712Y-118331206D01*
X138211682Y-118333891D01*
X138211681Y-118333891D01*
X138049278Y-118406197D01*
X138049276Y-118406198D01*
X138043248Y-118408882D01*
X138037907Y-118412762D01*
X138037906Y-118412763D01*
X138025087Y-118422077D01*
X137888747Y-118521134D01*
X137884326Y-118526044D01*
X137884325Y-118526045D01*
X137811310Y-118607137D01*
X137760960Y-118663056D01*
X137665473Y-118828444D01*
X137606458Y-119010072D01*
X137586496Y-119200000D01*
X113087487Y-119200000D01*
X113008209Y-119065144D01*
X112856819Y-118885681D01*
X112677356Y-118734291D01*
X112474952Y-118615304D01*
X112288932Y-118544827D01*
X112232317Y-118501988D01*
X112207849Y-118435340D01*
X112223298Y-118366045D01*
X112273759Y-118316102D01*
X112333573Y-118301000D01*
X115798134Y-118301000D01*
X115860316Y-118294245D01*
X115996705Y-118243115D01*
X116113261Y-118155761D01*
X116200615Y-118039205D01*
X116251745Y-117902816D01*
X116258500Y-117840634D01*
X116258500Y-115700000D01*
X121886496Y-115700000D01*
X121906458Y-115889928D01*
X121965473Y-116071556D01*
X122060960Y-116236944D01*
X122065378Y-116241851D01*
X122065379Y-116241852D01*
X122163563Y-116350896D01*
X122188747Y-116378866D01*
X122205605Y-116391114D01*
X122301653Y-116460897D01*
X122343248Y-116491118D01*
X122349276Y-116493802D01*
X122349278Y-116493803D01*
X122388721Y-116511364D01*
X122517712Y-116568794D01*
X122592064Y-116584598D01*
X122698056Y-116607128D01*
X122698061Y-116607128D01*
X122704513Y-116608500D01*
X122895487Y-116608500D01*
X122901939Y-116607128D01*
X122901944Y-116607128D01*
X123007936Y-116584598D01*
X123082288Y-116568794D01*
X123211279Y-116511364D01*
X123250722Y-116493803D01*
X123250724Y-116493802D01*
X123256752Y-116491118D01*
X123298348Y-116460897D01*
X123394395Y-116391114D01*
X123411253Y-116378866D01*
X123436437Y-116350896D01*
X123534621Y-116241852D01*
X123534622Y-116241851D01*
X123539040Y-116236944D01*
X123634527Y-116071556D01*
X123693542Y-115889928D01*
X123713504Y-115700000D01*
X123701695Y-115587639D01*
X123694232Y-115516635D01*
X123694232Y-115516633D01*
X123693542Y-115510072D01*
X123634527Y-115328444D01*
X123539040Y-115163056D01*
X123411253Y-115021134D01*
X123278345Y-114924570D01*
X123262094Y-114912763D01*
X123262093Y-114912762D01*
X123256752Y-114908882D01*
X123250724Y-114906198D01*
X123250722Y-114906197D01*
X123088319Y-114833891D01*
X123088318Y-114833891D01*
X123082288Y-114831206D01*
X122969279Y-114807185D01*
X122901944Y-114792872D01*
X122901939Y-114792872D01*
X122895487Y-114791500D01*
X122704513Y-114791500D01*
X122698061Y-114792872D01*
X122698056Y-114792872D01*
X122630721Y-114807185D01*
X122517712Y-114831206D01*
X122511682Y-114833891D01*
X122511681Y-114833891D01*
X122349278Y-114906197D01*
X122349276Y-114906198D01*
X122343248Y-114908882D01*
X122337907Y-114912762D01*
X122337906Y-114912763D01*
X122321655Y-114924570D01*
X122188747Y-115021134D01*
X122060960Y-115163056D01*
X121965473Y-115328444D01*
X121906458Y-115510072D01*
X121905768Y-115516633D01*
X121905768Y-115516635D01*
X121898305Y-115587639D01*
X121886496Y-115700000D01*
X116258500Y-115700000D01*
X116258500Y-114244366D01*
X116251745Y-114182184D01*
X116200615Y-114045795D01*
X116113261Y-113929239D01*
X115996705Y-113841885D01*
X115860316Y-113790755D01*
X115798134Y-113784000D01*
X112201866Y-113784000D01*
X112139684Y-113790755D01*
X112003295Y-113841885D01*
X111886739Y-113929239D01*
X111799385Y-114045795D01*
X111748255Y-114182184D01*
X111741500Y-114244366D01*
X111741500Y-117840634D01*
X111748255Y-117902816D01*
X111799385Y-118039205D01*
X111886739Y-118155761D01*
X112003295Y-118243115D01*
X112011696Y-118246264D01*
X112013918Y-118247481D01*
X112064064Y-118297740D01*
X112079077Y-118367131D01*
X112054191Y-118433623D01*
X111997307Y-118476105D01*
X111953408Y-118484000D01*
X110032636Y-118484000D01*
X110030963Y-118484091D01*
X110030948Y-118484091D01*
X109980773Y-118486809D01*
X109975043Y-118487119D01*
X109970757Y-118487956D01*
X109760635Y-118528990D01*
X109744607Y-118532120D01*
X109525048Y-118615304D01*
X109322644Y-118734291D01*
X109143181Y-118885681D01*
X108991791Y-119065144D01*
X108872804Y-119267548D01*
X108789620Y-119487107D01*
X108744619Y-119717543D01*
X108744383Y-119721901D01*
X108743303Y-119741852D01*
X108741500Y-119775136D01*
X108741500Y-121709864D01*
X100508000Y-121709864D01*
X100508000Y-117105042D01*
X105991500Y-117105042D01*
X106003022Y-117246700D01*
X106004356Y-117251895D01*
X106004356Y-117251896D01*
X106057495Y-117458861D01*
X106058890Y-117464294D01*
X106152409Y-117668555D01*
X106155609Y-117673159D01*
X106155610Y-117673161D01*
X106168600Y-117691851D01*
X106280620Y-117853027D01*
X106439473Y-118011880D01*
X106623945Y-118140091D01*
X106828206Y-118233610D01*
X106833638Y-118235005D01*
X106833639Y-118235005D01*
X106882231Y-118247481D01*
X107045800Y-118289478D01*
X107087528Y-118292872D01*
X107184908Y-118300793D01*
X107184918Y-118300793D01*
X107187458Y-118301000D01*
X108812542Y-118301000D01*
X108815082Y-118300793D01*
X108815092Y-118300793D01*
X108912472Y-118292872D01*
X108954200Y-118289478D01*
X109117770Y-118247481D01*
X109166361Y-118235005D01*
X109166362Y-118235005D01*
X109171794Y-118233610D01*
X109376055Y-118140091D01*
X109560527Y-118011880D01*
X109719380Y-117853027D01*
X109831400Y-117691851D01*
X109844390Y-117673161D01*
X109844391Y-117673159D01*
X109847591Y-117668555D01*
X109941110Y-117464294D01*
X109942505Y-117458861D01*
X109995644Y-117251896D01*
X109995644Y-117251895D01*
X109996978Y-117246700D01*
X110008500Y-117105042D01*
X110008500Y-114979958D01*
X109996978Y-114838300D01*
X109995331Y-114831883D01*
X109942505Y-114626139D01*
X109942505Y-114626138D01*
X109941110Y-114620706D01*
X109847591Y-114416445D01*
X109827222Y-114387137D01*
X109810546Y-114363144D01*
X109719380Y-114231973D01*
X109560527Y-114073120D01*
X109376055Y-113944909D01*
X109171794Y-113851390D01*
X109166361Y-113849995D01*
X108959396Y-113796856D01*
X108959395Y-113796856D01*
X108954200Y-113795522D01*
X108885105Y-113789902D01*
X108815092Y-113784207D01*
X108815082Y-113784207D01*
X108812542Y-113784000D01*
X107187458Y-113784000D01*
X107184918Y-113784207D01*
X107184908Y-113784207D01*
X107114895Y-113789902D01*
X107045800Y-113795522D01*
X107040605Y-113796856D01*
X107040604Y-113796856D01*
X106833639Y-113849995D01*
X106828206Y-113851390D01*
X106623945Y-113944909D01*
X106439473Y-114073120D01*
X106280620Y-114231973D01*
X106189454Y-114363144D01*
X106172779Y-114387137D01*
X106152409Y-114416445D01*
X106058890Y-114620706D01*
X106057495Y-114626138D01*
X106057495Y-114626139D01*
X106004670Y-114831883D01*
X106003022Y-114838300D01*
X105991500Y-114979958D01*
X105991500Y-117105042D01*
X100508000Y-117105042D01*
X100508000Y-113466695D01*
X125587251Y-113466695D01*
X125587548Y-113471848D01*
X125587548Y-113471851D01*
X125595911Y-113616883D01*
X125600110Y-113689715D01*
X125601247Y-113694761D01*
X125601248Y-113694767D01*
X125622688Y-113789902D01*
X125649222Y-113907639D01*
X125733266Y-114114616D01*
X125770685Y-114175678D01*
X125847291Y-114300688D01*
X125849987Y-114305088D01*
X125996250Y-114473938D01*
X126168126Y-114616632D01*
X126361000Y-114729338D01*
X126365825Y-114731180D01*
X126365826Y-114731181D01*
X126390759Y-114740702D01*
X126569692Y-114809030D01*
X126574760Y-114810061D01*
X126574763Y-114810062D01*
X126671946Y-114829834D01*
X126788597Y-114853567D01*
X126793772Y-114853757D01*
X126793774Y-114853757D01*
X127006673Y-114861564D01*
X127006677Y-114861564D01*
X127011837Y-114861753D01*
X127016957Y-114861097D01*
X127016959Y-114861097D01*
X127228288Y-114834025D01*
X127228289Y-114834025D01*
X127233416Y-114833368D01*
X127238366Y-114831883D01*
X127442429Y-114770661D01*
X127442434Y-114770659D01*
X127447384Y-114769174D01*
X127647994Y-114670896D01*
X127829860Y-114541173D01*
X127988096Y-114383489D01*
X128029111Y-114326411D01*
X128118453Y-114202077D01*
X128119776Y-114203028D01*
X128166645Y-114159857D01*
X128236580Y-114147625D01*
X128302026Y-114175144D01*
X128329875Y-114206994D01*
X128389987Y-114305088D01*
X128536250Y-114473938D01*
X128708126Y-114616632D01*
X128901000Y-114729338D01*
X128905825Y-114731180D01*
X128905826Y-114731181D01*
X128930759Y-114740702D01*
X129109692Y-114809030D01*
X129114760Y-114810061D01*
X129114763Y-114810062D01*
X129211946Y-114829834D01*
X129328597Y-114853567D01*
X129333772Y-114853757D01*
X129333774Y-114853757D01*
X129546673Y-114861564D01*
X129546677Y-114861564D01*
X129551837Y-114861753D01*
X129556957Y-114861097D01*
X129556959Y-114861097D01*
X129768288Y-114834025D01*
X129768289Y-114834025D01*
X129773416Y-114833368D01*
X129778366Y-114831883D01*
X129982429Y-114770661D01*
X129982434Y-114770659D01*
X129987384Y-114769174D01*
X130187994Y-114670896D01*
X130369860Y-114541173D01*
X130528096Y-114383489D01*
X130569111Y-114326411D01*
X130658453Y-114202077D01*
X130659776Y-114203028D01*
X130706645Y-114159857D01*
X130776580Y-114147625D01*
X130842026Y-114175144D01*
X130869875Y-114206994D01*
X130929987Y-114305088D01*
X131076250Y-114473938D01*
X131248126Y-114616632D01*
X131441000Y-114729338D01*
X131445825Y-114731180D01*
X131445826Y-114731181D01*
X131470759Y-114740702D01*
X131649692Y-114809030D01*
X131654760Y-114810061D01*
X131654763Y-114810062D01*
X131751946Y-114829834D01*
X131868597Y-114853567D01*
X131873772Y-114853757D01*
X131873774Y-114853757D01*
X132086673Y-114861564D01*
X132086677Y-114861564D01*
X132091837Y-114861753D01*
X132096957Y-114861097D01*
X132096959Y-114861097D01*
X132308288Y-114834025D01*
X132308289Y-114834025D01*
X132313416Y-114833368D01*
X132318366Y-114831883D01*
X132522429Y-114770661D01*
X132522434Y-114770659D01*
X132527384Y-114769174D01*
X132727994Y-114670896D01*
X132909860Y-114541173D01*
X133068096Y-114383489D01*
X133109111Y-114326411D01*
X133198453Y-114202077D01*
X133199776Y-114203028D01*
X133246645Y-114159857D01*
X133316580Y-114147625D01*
X133382026Y-114175144D01*
X133409875Y-114206994D01*
X133469987Y-114305088D01*
X133616250Y-114473938D01*
X133788126Y-114616632D01*
X133981000Y-114729338D01*
X133985825Y-114731180D01*
X133985826Y-114731181D01*
X134010759Y-114740702D01*
X134189692Y-114809030D01*
X134194760Y-114810061D01*
X134194763Y-114810062D01*
X134291946Y-114829834D01*
X134408597Y-114853567D01*
X134413772Y-114853757D01*
X134413774Y-114853757D01*
X134626673Y-114861564D01*
X134626677Y-114861564D01*
X134631837Y-114861753D01*
X134636957Y-114861097D01*
X134636959Y-114861097D01*
X134848288Y-114834025D01*
X134848289Y-114834025D01*
X134853416Y-114833368D01*
X134858366Y-114831883D01*
X135062429Y-114770661D01*
X135062434Y-114770659D01*
X135067384Y-114769174D01*
X135267994Y-114670896D01*
X135449860Y-114541173D01*
X135608096Y-114383489D01*
X135649111Y-114326411D01*
X135738453Y-114202077D01*
X135739776Y-114203028D01*
X135786645Y-114159857D01*
X135856580Y-114147625D01*
X135922026Y-114175144D01*
X135949875Y-114206994D01*
X136009987Y-114305088D01*
X136156250Y-114473938D01*
X136328126Y-114616632D01*
X136521000Y-114729338D01*
X136525825Y-114731180D01*
X136525826Y-114731181D01*
X136550759Y-114740702D01*
X136729692Y-114809030D01*
X136734760Y-114810061D01*
X136734763Y-114810062D01*
X136831946Y-114829834D01*
X136948597Y-114853567D01*
X136953772Y-114853757D01*
X136953774Y-114853757D01*
X137166673Y-114861564D01*
X137166677Y-114861564D01*
X137171837Y-114861753D01*
X137176957Y-114861097D01*
X137176959Y-114861097D01*
X137388288Y-114834025D01*
X137388289Y-114834025D01*
X137393416Y-114833368D01*
X137398366Y-114831883D01*
X137602429Y-114770661D01*
X137602434Y-114770659D01*
X137607384Y-114769174D01*
X137807994Y-114670896D01*
X137989860Y-114541173D01*
X138098091Y-114433319D01*
X138160462Y-114399404D01*
X138231268Y-114404592D01*
X138288030Y-114447238D01*
X138305012Y-114478341D01*
X138349385Y-114596705D01*
X138436739Y-114713261D01*
X138553295Y-114800615D01*
X138689684Y-114851745D01*
X138751866Y-114858500D01*
X140548134Y-114858500D01*
X140610316Y-114851745D01*
X140746705Y-114800615D01*
X140863261Y-114713261D01*
X140950615Y-114596705D01*
X141001745Y-114460316D01*
X141008500Y-114398134D01*
X141008500Y-112601866D01*
X141001745Y-112539684D01*
X140950615Y-112403295D01*
X140863261Y-112286739D01*
X140746705Y-112199385D01*
X140610316Y-112148255D01*
X140548134Y-112141500D01*
X138751866Y-112141500D01*
X138689684Y-112148255D01*
X138553295Y-112199385D01*
X138436739Y-112286739D01*
X138349385Y-112403295D01*
X138346233Y-112411703D01*
X138304919Y-112521907D01*
X138262277Y-112578671D01*
X138195716Y-112603371D01*
X138126367Y-112588163D01*
X138093743Y-112562476D01*
X138043151Y-112506875D01*
X138043142Y-112506866D01*
X138039670Y-112503051D01*
X138035619Y-112499852D01*
X138035615Y-112499848D01*
X137868414Y-112367800D01*
X137868410Y-112367798D01*
X137864359Y-112364598D01*
X137668789Y-112256638D01*
X137663920Y-112254914D01*
X137663916Y-112254912D01*
X137463087Y-112183795D01*
X137463083Y-112183794D01*
X137458212Y-112182069D01*
X137453119Y-112181162D01*
X137453116Y-112181161D01*
X137243373Y-112143800D01*
X137243367Y-112143799D01*
X137238284Y-112142894D01*
X137164452Y-112141992D01*
X137020081Y-112140228D01*
X137020079Y-112140228D01*
X137014911Y-112140165D01*
X136794091Y-112173955D01*
X136581756Y-112243357D01*
X136383607Y-112346507D01*
X136379474Y-112349610D01*
X136379471Y-112349612D01*
X136209100Y-112477530D01*
X136204965Y-112480635D01*
X136165525Y-112521907D01*
X136111280Y-112578671D01*
X136050629Y-112642138D01*
X135943201Y-112799621D01*
X135888293Y-112844621D01*
X135817768Y-112852792D01*
X135754021Y-112821538D01*
X135733324Y-112797054D01*
X135652822Y-112672617D01*
X135652820Y-112672614D01*
X135650014Y-112668277D01*
X135499670Y-112503051D01*
X135495619Y-112499852D01*
X135495615Y-112499848D01*
X135328414Y-112367800D01*
X135328410Y-112367798D01*
X135324359Y-112364598D01*
X135128789Y-112256638D01*
X135123920Y-112254914D01*
X135123916Y-112254912D01*
X134923087Y-112183795D01*
X134923083Y-112183794D01*
X134918212Y-112182069D01*
X134913119Y-112181162D01*
X134913116Y-112181161D01*
X134703373Y-112143800D01*
X134703367Y-112143799D01*
X134698284Y-112142894D01*
X134624452Y-112141992D01*
X134480081Y-112140228D01*
X134480079Y-112140228D01*
X134474911Y-112140165D01*
X134254091Y-112173955D01*
X134041756Y-112243357D01*
X133843607Y-112346507D01*
X133839474Y-112349610D01*
X133839471Y-112349612D01*
X133669100Y-112477530D01*
X133664965Y-112480635D01*
X133625525Y-112521907D01*
X133571280Y-112578671D01*
X133510629Y-112642138D01*
X133403201Y-112799621D01*
X133348293Y-112844621D01*
X133277768Y-112852792D01*
X133214021Y-112821538D01*
X133193324Y-112797054D01*
X133112822Y-112672617D01*
X133112820Y-112672614D01*
X133110014Y-112668277D01*
X132959670Y-112503051D01*
X132955619Y-112499852D01*
X132955615Y-112499848D01*
X132788414Y-112367800D01*
X132788410Y-112367798D01*
X132784359Y-112364598D01*
X132588789Y-112256638D01*
X132583920Y-112254914D01*
X132583916Y-112254912D01*
X132383087Y-112183795D01*
X132383083Y-112183794D01*
X132378212Y-112182069D01*
X132373119Y-112181162D01*
X132373116Y-112181161D01*
X132163373Y-112143800D01*
X132163367Y-112143799D01*
X132158284Y-112142894D01*
X132084452Y-112141992D01*
X131940081Y-112140228D01*
X131940079Y-112140228D01*
X131934911Y-112140165D01*
X131714091Y-112173955D01*
X131501756Y-112243357D01*
X131303607Y-112346507D01*
X131299474Y-112349610D01*
X131299471Y-112349612D01*
X131129100Y-112477530D01*
X131124965Y-112480635D01*
X131085525Y-112521907D01*
X131031280Y-112578671D01*
X130970629Y-112642138D01*
X130863201Y-112799621D01*
X130808293Y-112844621D01*
X130737768Y-112852792D01*
X130674021Y-112821538D01*
X130653324Y-112797054D01*
X130572822Y-112672617D01*
X130572820Y-112672614D01*
X130570014Y-112668277D01*
X130419670Y-112503051D01*
X130415619Y-112499852D01*
X130415615Y-112499848D01*
X130248414Y-112367800D01*
X130248410Y-112367798D01*
X130244359Y-112364598D01*
X130048789Y-112256638D01*
X130043920Y-112254914D01*
X130043916Y-112254912D01*
X129843087Y-112183795D01*
X129843083Y-112183794D01*
X129838212Y-112182069D01*
X129833119Y-112181162D01*
X129833116Y-112181161D01*
X129623373Y-112143800D01*
X129623367Y-112143799D01*
X129618284Y-112142894D01*
X129544452Y-112141992D01*
X129400081Y-112140228D01*
X129400079Y-112140228D01*
X129394911Y-112140165D01*
X129174091Y-112173955D01*
X128961756Y-112243357D01*
X128763607Y-112346507D01*
X128759474Y-112349610D01*
X128759471Y-112349612D01*
X128589100Y-112477530D01*
X128584965Y-112480635D01*
X128545525Y-112521907D01*
X128491280Y-112578671D01*
X128430629Y-112642138D01*
X128323201Y-112799621D01*
X128268293Y-112844621D01*
X128197768Y-112852792D01*
X128134021Y-112821538D01*
X128113324Y-112797054D01*
X128032822Y-112672617D01*
X128032820Y-112672614D01*
X128030014Y-112668277D01*
X127879670Y-112503051D01*
X127875619Y-112499852D01*
X127875615Y-112499848D01*
X127708414Y-112367800D01*
X127708410Y-112367798D01*
X127704359Y-112364598D01*
X127508789Y-112256638D01*
X127503920Y-112254914D01*
X127503916Y-112254912D01*
X127303087Y-112183795D01*
X127303083Y-112183794D01*
X127298212Y-112182069D01*
X127293119Y-112181162D01*
X127293116Y-112181161D01*
X127083373Y-112143800D01*
X127083367Y-112143799D01*
X127078284Y-112142894D01*
X127004452Y-112141992D01*
X126860081Y-112140228D01*
X126860079Y-112140228D01*
X126854911Y-112140165D01*
X126634091Y-112173955D01*
X126421756Y-112243357D01*
X126223607Y-112346507D01*
X126219474Y-112349610D01*
X126219471Y-112349612D01*
X126049100Y-112477530D01*
X126044965Y-112480635D01*
X126005525Y-112521907D01*
X125951280Y-112578671D01*
X125890629Y-112642138D01*
X125764743Y-112826680D01*
X125670688Y-113029305D01*
X125610989Y-113244570D01*
X125587251Y-113466695D01*
X100508000Y-113466695D01*
X100508000Y-110998134D01*
X145341500Y-110998134D01*
X145348255Y-111060316D01*
X145399385Y-111196705D01*
X145486739Y-111313261D01*
X145603295Y-111400615D01*
X145611704Y-111403767D01*
X145611705Y-111403768D01*
X145720960Y-111444726D01*
X145777725Y-111487367D01*
X145802425Y-111553929D01*
X145787218Y-111623278D01*
X145767825Y-111649759D01*
X145644590Y-111778717D01*
X145638104Y-111786727D01*
X145518098Y-111962649D01*
X145513000Y-111971623D01*
X145423338Y-112164783D01*
X145419775Y-112174470D01*
X145364389Y-112374183D01*
X145365912Y-112382607D01*
X145378292Y-112386000D01*
X148018344Y-112386000D01*
X148031875Y-112382027D01*
X148033180Y-112372947D01*
X147991214Y-112205875D01*
X147987894Y-112196124D01*
X147902972Y-112000814D01*
X147898105Y-111991739D01*
X147782426Y-111812926D01*
X147776136Y-111804757D01*
X147632293Y-111646677D01*
X147601241Y-111582831D01*
X147609635Y-111512333D01*
X147654812Y-111457564D01*
X147681256Y-111443895D01*
X147788297Y-111403767D01*
X147796705Y-111400615D01*
X147913261Y-111313261D01*
X148000615Y-111196705D01*
X148051745Y-111060316D01*
X148058500Y-110998134D01*
X148058500Y-109201866D01*
X148051745Y-109139684D01*
X148000615Y-109003295D01*
X147913261Y-108886739D01*
X147796705Y-108799385D01*
X147660316Y-108748255D01*
X147598134Y-108741500D01*
X145801866Y-108741500D01*
X145739684Y-108748255D01*
X145603295Y-108799385D01*
X145486739Y-108886739D01*
X145399385Y-109003295D01*
X145348255Y-109139684D01*
X145341500Y-109201866D01*
X145341500Y-110998134D01*
X100508000Y-110998134D01*
X100508000Y-108266695D01*
X108697251Y-108266695D01*
X108710110Y-108489715D01*
X108711247Y-108494761D01*
X108711248Y-108494767D01*
X108735304Y-108601508D01*
X108759222Y-108707639D01*
X108843266Y-108914616D01*
X108959987Y-109105088D01*
X109106250Y-109273938D01*
X109278126Y-109416632D01*
X109471000Y-109529338D01*
X109679692Y-109609030D01*
X109684760Y-109610061D01*
X109684763Y-109610062D01*
X109792017Y-109631883D01*
X109898597Y-109653567D01*
X109903772Y-109653757D01*
X109903774Y-109653757D01*
X110116673Y-109661564D01*
X110116677Y-109661564D01*
X110121837Y-109661753D01*
X110126957Y-109661097D01*
X110126959Y-109661097D01*
X110338288Y-109634025D01*
X110338289Y-109634025D01*
X110343416Y-109633368D01*
X110348366Y-109631883D01*
X110552429Y-109570661D01*
X110552434Y-109570659D01*
X110557384Y-109569174D01*
X110757994Y-109470896D01*
X110939860Y-109341173D01*
X111048091Y-109233319D01*
X111110462Y-109199404D01*
X111181268Y-109204592D01*
X111238030Y-109247238D01*
X111255012Y-109278341D01*
X111299385Y-109396705D01*
X111386739Y-109513261D01*
X111503295Y-109600615D01*
X111639684Y-109651745D01*
X111701866Y-109658500D01*
X113498134Y-109658500D01*
X113560316Y-109651745D01*
X113696705Y-109600615D01*
X113813261Y-109513261D01*
X113900615Y-109396705D01*
X113951745Y-109260316D01*
X113958500Y-109198134D01*
X113958500Y-107401866D01*
X113951745Y-107339684D01*
X113900615Y-107203295D01*
X113813261Y-107086739D01*
X113696705Y-106999385D01*
X113560316Y-106948255D01*
X113498134Y-106941500D01*
X111701866Y-106941500D01*
X111639684Y-106948255D01*
X111503295Y-106999385D01*
X111386739Y-107086739D01*
X111299385Y-107203295D01*
X111296233Y-107211703D01*
X111254919Y-107321907D01*
X111212277Y-107378671D01*
X111145716Y-107403371D01*
X111076367Y-107388163D01*
X111043743Y-107362476D01*
X110993151Y-107306875D01*
X110993142Y-107306866D01*
X110989670Y-107303051D01*
X110985619Y-107299852D01*
X110985615Y-107299848D01*
X110818414Y-107167800D01*
X110818410Y-107167798D01*
X110814359Y-107164598D01*
X110618789Y-107056638D01*
X110613920Y-107054914D01*
X110613916Y-107054912D01*
X110413087Y-106983795D01*
X110413083Y-106983794D01*
X110408212Y-106982069D01*
X110403119Y-106981162D01*
X110403116Y-106981161D01*
X110193373Y-106943800D01*
X110193367Y-106943799D01*
X110188284Y-106942894D01*
X110114452Y-106941992D01*
X109970081Y-106940228D01*
X109970079Y-106940228D01*
X109964911Y-106940165D01*
X109744091Y-106973955D01*
X109531756Y-107043357D01*
X109333607Y-107146507D01*
X109329474Y-107149610D01*
X109329471Y-107149612D01*
X109159100Y-107277530D01*
X109154965Y-107280635D01*
X109115525Y-107321907D01*
X109061280Y-107378671D01*
X109000629Y-107442138D01*
X108874743Y-107626680D01*
X108780688Y-107829305D01*
X108720989Y-108044570D01*
X108697251Y-108266695D01*
X100508000Y-108266695D01*
X100508000Y-106448134D01*
X135591500Y-106448134D01*
X135598255Y-106510316D01*
X135649385Y-106646705D01*
X135736739Y-106763261D01*
X135853295Y-106850615D01*
X135989684Y-106901745D01*
X136051866Y-106908500D01*
X138148134Y-106908500D01*
X138210316Y-106901745D01*
X138346705Y-106850615D01*
X138463261Y-106763261D01*
X138550615Y-106646705D01*
X138601745Y-106510316D01*
X138608500Y-106448134D01*
X138608500Y-104351866D01*
X138601745Y-104289684D01*
X138550615Y-104153295D01*
X138471254Y-104047404D01*
X143736941Y-104047404D01*
X143737304Y-104051552D01*
X143737304Y-104051556D01*
X143746941Y-104161703D01*
X143763091Y-104346292D01*
X143764001Y-104350364D01*
X143764002Y-104350369D01*
X143816083Y-104583365D01*
X143828540Y-104639095D01*
X143932140Y-104920671D01*
X143934084Y-104924359D01*
X143934088Y-104924367D01*
X144030805Y-105107807D01*
X144072069Y-105186071D01*
X144245871Y-105430633D01*
X144450490Y-105650061D01*
X144682333Y-105840498D01*
X144937325Y-105998600D01*
X145210988Y-106121589D01*
X145385368Y-106173574D01*
X145494514Y-106206112D01*
X145494516Y-106206112D01*
X145498513Y-106207304D01*
X145502633Y-106207957D01*
X145502635Y-106207957D01*
X145621509Y-106226785D01*
X145794848Y-106254239D01*
X145837577Y-106256179D01*
X145887262Y-106258436D01*
X145887281Y-106258436D01*
X145888681Y-106258500D01*
X146076107Y-106258500D01*
X146299370Y-106243671D01*
X146303464Y-106242846D01*
X146303468Y-106242845D01*
X146444513Y-106214405D01*
X146593480Y-106184368D01*
X146877163Y-106086688D01*
X146880896Y-106084819D01*
X146880900Y-106084817D01*
X147141691Y-105954222D01*
X147141693Y-105954221D01*
X147145435Y-105952347D01*
X147393584Y-105783706D01*
X147617248Y-105583726D01*
X147619966Y-105580555D01*
X147809779Y-105359097D01*
X147809782Y-105359093D01*
X147812499Y-105355923D01*
X147814773Y-105352421D01*
X147814777Y-105352416D01*
X147973628Y-105107807D01*
X147973631Y-105107802D01*
X147975907Y-105104297D01*
X147990315Y-105073955D01*
X148029782Y-104990836D01*
X148104600Y-104833270D01*
X148124415Y-104771556D01*
X148195038Y-104551591D01*
X148195038Y-104551590D01*
X148196318Y-104547604D01*
X148230922Y-104355283D01*
X148248709Y-104256425D01*
X148248710Y-104256420D01*
X148249448Y-104252316D01*
X148251069Y-104216635D01*
X148262870Y-103956766D01*
X148262870Y-103956760D01*
X148263059Y-103952596D01*
X148262503Y-103946233D01*
X148238971Y-103677272D01*
X148236909Y-103653708D01*
X148226890Y-103608882D01*
X148172372Y-103364984D01*
X148172371Y-103364981D01*
X148171460Y-103360905D01*
X148067860Y-103079329D01*
X148065916Y-103075641D01*
X148065912Y-103075633D01*
X147929884Y-102817633D01*
X147929883Y-102817632D01*
X147927931Y-102813929D01*
X147754129Y-102569367D01*
X147549510Y-102349939D01*
X147317667Y-102159502D01*
X147062675Y-102001400D01*
X146789012Y-101878411D01*
X146575650Y-101814805D01*
X146505486Y-101793888D01*
X146505484Y-101793888D01*
X146501487Y-101792696D01*
X146497367Y-101792043D01*
X146497365Y-101792043D01*
X146378491Y-101773215D01*
X146205152Y-101745761D01*
X146162423Y-101743821D01*
X146112738Y-101741564D01*
X146112719Y-101741564D01*
X146111319Y-101741500D01*
X145923893Y-101741500D01*
X145700630Y-101756329D01*
X145696536Y-101757154D01*
X145696532Y-101757155D01*
X145555487Y-101785595D01*
X145406520Y-101815632D01*
X145122837Y-101913312D01*
X145119104Y-101915181D01*
X145119100Y-101915183D01*
X144858309Y-102045778D01*
X144854565Y-102047653D01*
X144606416Y-102216294D01*
X144382752Y-102416274D01*
X144380035Y-102419444D01*
X144380034Y-102419445D01*
X144207166Y-102621134D01*
X144187501Y-102644077D01*
X144185227Y-102647579D01*
X144185223Y-102647584D01*
X144026372Y-102892193D01*
X144024093Y-102895703D01*
X143895400Y-103166730D01*
X143894121Y-103170713D01*
X143894120Y-103170716D01*
X143842586Y-103331226D01*
X143803682Y-103452396D01*
X143802941Y-103456515D01*
X143756028Y-103717251D01*
X143750552Y-103747684D01*
X143750363Y-103751851D01*
X143750362Y-103751858D01*
X143737425Y-104036739D01*
X143736941Y-104047404D01*
X138471254Y-104047404D01*
X138463261Y-104036739D01*
X138346705Y-103949385D01*
X138210316Y-103898255D01*
X138148134Y-103891500D01*
X136051866Y-103891500D01*
X135989684Y-103898255D01*
X135853295Y-103949385D01*
X135736739Y-104036739D01*
X135649385Y-104153295D01*
X135598255Y-104289684D01*
X135591500Y-104351866D01*
X135591500Y-106448134D01*
X100508000Y-106448134D01*
X100508000Y-104047404D01*
X101736941Y-104047404D01*
X101737304Y-104051552D01*
X101737304Y-104051556D01*
X101746941Y-104161703D01*
X101763091Y-104346292D01*
X101764001Y-104350364D01*
X101764002Y-104350369D01*
X101816083Y-104583365D01*
X101828540Y-104639095D01*
X101932140Y-104920671D01*
X101934084Y-104924359D01*
X101934088Y-104924367D01*
X102030805Y-105107807D01*
X102072069Y-105186071D01*
X102245871Y-105430633D01*
X102450490Y-105650061D01*
X102682333Y-105840498D01*
X102937325Y-105998600D01*
X103210988Y-106121589D01*
X103385368Y-106173574D01*
X103494514Y-106206112D01*
X103494516Y-106206112D01*
X103498513Y-106207304D01*
X103502633Y-106207957D01*
X103502635Y-106207957D01*
X103621509Y-106226785D01*
X103794848Y-106254239D01*
X103837577Y-106256179D01*
X103887262Y-106258436D01*
X103887281Y-106258436D01*
X103888681Y-106258500D01*
X104076107Y-106258500D01*
X104299370Y-106243671D01*
X104303464Y-106242846D01*
X104303468Y-106242845D01*
X104444513Y-106214405D01*
X104593480Y-106184368D01*
X104877163Y-106086688D01*
X104880896Y-106084819D01*
X104880900Y-106084817D01*
X105141691Y-105954222D01*
X105141693Y-105954221D01*
X105145435Y-105952347D01*
X105393584Y-105783706D01*
X105617248Y-105583726D01*
X105619966Y-105580555D01*
X105809779Y-105359097D01*
X105809782Y-105359093D01*
X105812499Y-105355923D01*
X105814773Y-105352421D01*
X105814777Y-105352416D01*
X105973628Y-105107807D01*
X105973631Y-105107802D01*
X105975907Y-105104297D01*
X105990315Y-105073955D01*
X106029782Y-104990836D01*
X106104600Y-104833270D01*
X106124415Y-104771556D01*
X106195038Y-104551591D01*
X106195038Y-104551590D01*
X106196318Y-104547604D01*
X106204883Y-104500000D01*
X119786496Y-104500000D01*
X119787186Y-104506565D01*
X119800687Y-104635016D01*
X119806458Y-104689928D01*
X119865473Y-104871556D01*
X119868776Y-104877278D01*
X119868777Y-104877279D01*
X119899924Y-104931226D01*
X119960960Y-105036944D01*
X120088747Y-105178866D01*
X120243248Y-105291118D01*
X120249276Y-105293802D01*
X120249278Y-105293803D01*
X120380926Y-105352416D01*
X120417712Y-105368794D01*
X120511113Y-105388647D01*
X120598056Y-105407128D01*
X120598061Y-105407128D01*
X120604513Y-105408500D01*
X120795487Y-105408500D01*
X120801939Y-105407128D01*
X120801944Y-105407128D01*
X120888887Y-105388647D01*
X120982288Y-105368794D01*
X121019074Y-105352416D01*
X121150722Y-105293803D01*
X121150724Y-105293802D01*
X121156752Y-105291118D01*
X121311253Y-105178866D01*
X121439040Y-105036944D01*
X121500076Y-104931226D01*
X121531223Y-104877279D01*
X121531224Y-104877278D01*
X121534527Y-104871556D01*
X121593542Y-104689928D01*
X121599314Y-104635016D01*
X121612814Y-104506565D01*
X121613504Y-104500000D01*
X121602994Y-104400000D01*
X123886496Y-104400000D01*
X123887186Y-104406565D01*
X123902429Y-104551591D01*
X123906458Y-104589928D01*
X123965473Y-104771556D01*
X124060960Y-104936944D01*
X124188747Y-105078866D01*
X124218547Y-105100517D01*
X124326385Y-105178866D01*
X124343248Y-105191118D01*
X124349276Y-105193802D01*
X124349278Y-105193803D01*
X124511681Y-105266109D01*
X124517712Y-105268794D01*
X124604479Y-105287237D01*
X124698056Y-105307128D01*
X124698061Y-105307128D01*
X124704513Y-105308500D01*
X124895487Y-105308500D01*
X124901939Y-105307128D01*
X124901944Y-105307128D01*
X124995521Y-105287237D01*
X125082288Y-105268794D01*
X125088319Y-105266109D01*
X125250722Y-105193803D01*
X125250724Y-105193802D01*
X125256752Y-105191118D01*
X125273616Y-105178866D01*
X125381453Y-105100517D01*
X125411253Y-105078866D01*
X125539040Y-104936944D01*
X125634527Y-104771556D01*
X125693542Y-104589928D01*
X125697572Y-104551591D01*
X125712814Y-104406565D01*
X125713504Y-104400000D01*
X125704052Y-104310072D01*
X125694232Y-104216635D01*
X125694232Y-104216633D01*
X125693542Y-104210072D01*
X125634527Y-104028444D01*
X125539040Y-103863056D01*
X125524111Y-103846475D01*
X125415675Y-103726045D01*
X125415674Y-103726044D01*
X125411253Y-103721134D01*
X125256752Y-103608882D01*
X125250724Y-103606198D01*
X125250722Y-103606197D01*
X125088319Y-103533891D01*
X125088318Y-103533891D01*
X125082288Y-103531206D01*
X124988887Y-103511353D01*
X124901944Y-103492872D01*
X124901939Y-103492872D01*
X124895487Y-103491500D01*
X124704513Y-103491500D01*
X124698061Y-103492872D01*
X124698056Y-103492872D01*
X124611113Y-103511353D01*
X124517712Y-103531206D01*
X124511682Y-103533891D01*
X124511681Y-103533891D01*
X124349278Y-103606197D01*
X124349276Y-103606198D01*
X124343248Y-103608882D01*
X124188747Y-103721134D01*
X124184326Y-103726044D01*
X124184325Y-103726045D01*
X124075890Y-103846475D01*
X124060960Y-103863056D01*
X123965473Y-104028444D01*
X123906458Y-104210072D01*
X123905768Y-104216633D01*
X123905768Y-104216635D01*
X123895948Y-104310072D01*
X123886496Y-104400000D01*
X121602994Y-104400000D01*
X121597935Y-104351866D01*
X121594232Y-104316635D01*
X121594232Y-104316633D01*
X121593542Y-104310072D01*
X121534527Y-104128444D01*
X121518588Y-104100837D01*
X121501849Y-104031841D01*
X121525068Y-103964749D01*
X121534070Y-103953525D01*
X121534907Y-103952596D01*
X121639040Y-103836944D01*
X121713197Y-103708500D01*
X121731223Y-103677279D01*
X121731224Y-103677278D01*
X121734527Y-103671556D01*
X121793542Y-103489928D01*
X121796046Y-103466109D01*
X121812814Y-103306565D01*
X121813504Y-103300000D01*
X121799440Y-103166191D01*
X121812212Y-103096354D01*
X121860714Y-103044508D01*
X121929547Y-103027113D01*
X121996857Y-103049694D01*
X122033869Y-103090021D01*
X122060960Y-103136944D01*
X122188747Y-103278866D01*
X122287843Y-103350864D01*
X122301664Y-103360905D01*
X122343248Y-103391118D01*
X122349276Y-103393802D01*
X122349278Y-103393803D01*
X122511681Y-103466109D01*
X122517712Y-103468794D01*
X122583365Y-103482749D01*
X122698056Y-103507128D01*
X122698061Y-103507128D01*
X122704513Y-103508500D01*
X122895487Y-103508500D01*
X122901939Y-103507128D01*
X122901944Y-103507128D01*
X123016635Y-103482749D01*
X123082288Y-103468794D01*
X123088319Y-103466109D01*
X123250722Y-103393803D01*
X123250724Y-103393802D01*
X123256752Y-103391118D01*
X123298337Y-103360905D01*
X123312157Y-103350864D01*
X123411253Y-103278866D01*
X123539040Y-103136944D01*
X123634527Y-102971556D01*
X123690269Y-102800000D01*
X130986496Y-102800000D01*
X130987186Y-102806565D01*
X131005129Y-102977279D01*
X131006458Y-102989928D01*
X131065473Y-103171556D01*
X131160960Y-103336944D01*
X131165378Y-103341851D01*
X131165379Y-103341852D01*
X131279678Y-103468794D01*
X131288747Y-103478866D01*
X131443248Y-103591118D01*
X131449276Y-103593802D01*
X131449278Y-103593803D01*
X131574671Y-103649631D01*
X131617712Y-103668794D01*
X131711112Y-103688647D01*
X131798056Y-103707128D01*
X131798061Y-103707128D01*
X131804513Y-103708500D01*
X131995487Y-103708500D01*
X132001939Y-103707128D01*
X132001944Y-103707128D01*
X132088888Y-103688647D01*
X132182288Y-103668794D01*
X132225329Y-103649631D01*
X132350722Y-103593803D01*
X132350724Y-103593802D01*
X132356752Y-103591118D01*
X132511253Y-103478866D01*
X132520322Y-103468794D01*
X132634621Y-103341852D01*
X132634622Y-103341851D01*
X132639040Y-103336944D01*
X132734527Y-103171556D01*
X132793542Y-102989928D01*
X132794872Y-102977279D01*
X132812814Y-102806565D01*
X132813504Y-102800000D01*
X132797116Y-102644077D01*
X132794232Y-102616635D01*
X132794232Y-102616633D01*
X132793542Y-102610072D01*
X132734527Y-102428444D01*
X132729332Y-102419445D01*
X132642341Y-102268774D01*
X132639040Y-102263056D01*
X132596936Y-102216294D01*
X132515675Y-102126045D01*
X132515674Y-102126044D01*
X132511253Y-102121134D01*
X132356752Y-102008882D01*
X132350724Y-102006198D01*
X132350722Y-102006197D01*
X132188319Y-101933891D01*
X132188318Y-101933891D01*
X132182288Y-101931206D01*
X132088888Y-101911353D01*
X132001944Y-101892872D01*
X132001939Y-101892872D01*
X131995487Y-101891500D01*
X131804513Y-101891500D01*
X131798061Y-101892872D01*
X131798056Y-101892872D01*
X131711113Y-101911353D01*
X131617712Y-101931206D01*
X131611682Y-101933891D01*
X131611681Y-101933891D01*
X131449278Y-102006197D01*
X131449276Y-102006198D01*
X131443248Y-102008882D01*
X131288747Y-102121134D01*
X131284326Y-102126044D01*
X131284325Y-102126045D01*
X131203065Y-102216294D01*
X131160960Y-102263056D01*
X131157659Y-102268774D01*
X131070669Y-102419445D01*
X131065473Y-102428444D01*
X131006458Y-102610072D01*
X131005768Y-102616633D01*
X131005768Y-102616635D01*
X131002884Y-102644077D01*
X130986496Y-102800000D01*
X123690269Y-102800000D01*
X123693542Y-102789928D01*
X123695766Y-102768774D01*
X123712814Y-102606565D01*
X123712814Y-102606564D01*
X123713504Y-102600000D01*
X123696134Y-102434729D01*
X123694232Y-102416635D01*
X123694232Y-102416633D01*
X123693542Y-102410072D01*
X123634527Y-102228444D01*
X123539040Y-102063056D01*
X123422740Y-101933891D01*
X123415675Y-101926045D01*
X123415674Y-101926044D01*
X123411253Y-101921134D01*
X123266043Y-101815632D01*
X123262094Y-101812763D01*
X123262093Y-101812762D01*
X123256752Y-101808882D01*
X123250724Y-101806198D01*
X123250722Y-101806197D01*
X123088319Y-101733891D01*
X123088318Y-101733891D01*
X123082288Y-101731206D01*
X122988887Y-101711353D01*
X122901944Y-101692872D01*
X122901939Y-101692872D01*
X122895487Y-101691500D01*
X122704513Y-101691500D01*
X122698061Y-101692872D01*
X122698056Y-101692872D01*
X122611113Y-101711353D01*
X122517712Y-101731206D01*
X122511682Y-101733891D01*
X122511681Y-101733891D01*
X122349278Y-101806197D01*
X122349276Y-101806198D01*
X122343248Y-101808882D01*
X122337907Y-101812762D01*
X122337906Y-101812763D01*
X122333957Y-101815632D01*
X122188747Y-101921134D01*
X122184326Y-101926044D01*
X122184325Y-101926045D01*
X122177261Y-101933891D01*
X122060960Y-102063056D01*
X121965473Y-102228444D01*
X121906458Y-102410072D01*
X121905768Y-102416633D01*
X121905768Y-102416635D01*
X121903866Y-102434729D01*
X121886496Y-102600000D01*
X121889234Y-102626045D01*
X121900560Y-102733807D01*
X121887788Y-102803646D01*
X121839286Y-102855492D01*
X121770453Y-102872887D01*
X121703143Y-102850306D01*
X121666131Y-102809979D01*
X121662475Y-102803646D01*
X121639040Y-102763056D01*
X121511253Y-102621134D01*
X121356752Y-102508882D01*
X121350724Y-102506198D01*
X121350722Y-102506197D01*
X121188319Y-102433891D01*
X121188318Y-102433891D01*
X121182288Y-102431206D01*
X121082861Y-102410072D01*
X121001944Y-102392872D01*
X121001939Y-102392872D01*
X120995487Y-102391500D01*
X120804513Y-102391500D01*
X120798061Y-102392872D01*
X120798056Y-102392872D01*
X120717139Y-102410072D01*
X120617712Y-102431206D01*
X120611682Y-102433891D01*
X120611681Y-102433891D01*
X120449278Y-102506197D01*
X120449276Y-102506198D01*
X120443248Y-102508882D01*
X120288747Y-102621134D01*
X120160960Y-102763056D01*
X120129450Y-102817633D01*
X120086403Y-102892193D01*
X120065473Y-102928444D01*
X120006458Y-103110072D01*
X120005768Y-103116633D01*
X120005768Y-103116635D01*
X120000503Y-103166730D01*
X119986496Y-103300000D01*
X119987186Y-103306565D01*
X120003955Y-103466109D01*
X120006458Y-103489928D01*
X120065473Y-103671556D01*
X120068772Y-103677271D01*
X120068773Y-103677272D01*
X120081412Y-103699163D01*
X120098151Y-103768159D01*
X120074932Y-103835251D01*
X120065931Y-103846474D01*
X120051000Y-103863056D01*
X119966624Y-103956766D01*
X119960960Y-103963056D01*
X119865473Y-104128444D01*
X119806458Y-104310072D01*
X119805768Y-104316633D01*
X119805768Y-104316635D01*
X119802065Y-104351866D01*
X119786496Y-104500000D01*
X106204883Y-104500000D01*
X106230922Y-104355283D01*
X106248709Y-104256425D01*
X106248710Y-104256420D01*
X106249448Y-104252316D01*
X106251069Y-104216635D01*
X106262870Y-103956766D01*
X106262870Y-103956760D01*
X106263059Y-103952596D01*
X106262503Y-103946233D01*
X106238971Y-103677272D01*
X106236909Y-103653708D01*
X106226890Y-103608882D01*
X106172372Y-103364984D01*
X106172371Y-103364981D01*
X106171460Y-103360905D01*
X106067860Y-103079329D01*
X106065916Y-103075641D01*
X106065912Y-103075633D01*
X105929884Y-102817633D01*
X105929883Y-102817632D01*
X105927931Y-102813929D01*
X105754129Y-102569367D01*
X105549510Y-102349939D01*
X105317667Y-102159502D01*
X105062675Y-102001400D01*
X104789012Y-101878411D01*
X104575650Y-101814805D01*
X104505486Y-101793888D01*
X104505484Y-101793888D01*
X104501487Y-101792696D01*
X104497367Y-101792043D01*
X104497365Y-101792043D01*
X104378491Y-101773215D01*
X104205152Y-101745761D01*
X104162423Y-101743821D01*
X104112738Y-101741564D01*
X104112719Y-101741564D01*
X104111319Y-101741500D01*
X103923893Y-101741500D01*
X103700630Y-101756329D01*
X103696536Y-101757154D01*
X103696532Y-101757155D01*
X103555487Y-101785595D01*
X103406520Y-101815632D01*
X103122837Y-101913312D01*
X103119104Y-101915181D01*
X103119100Y-101915183D01*
X102858309Y-102045778D01*
X102854565Y-102047653D01*
X102606416Y-102216294D01*
X102382752Y-102416274D01*
X102380035Y-102419444D01*
X102380034Y-102419445D01*
X102207166Y-102621134D01*
X102187501Y-102644077D01*
X102185227Y-102647579D01*
X102185223Y-102647584D01*
X102026372Y-102892193D01*
X102024093Y-102895703D01*
X101895400Y-103166730D01*
X101894121Y-103170713D01*
X101894120Y-103170716D01*
X101842586Y-103331226D01*
X101803682Y-103452396D01*
X101802941Y-103456515D01*
X101756028Y-103717251D01*
X101750552Y-103747684D01*
X101750363Y-103751851D01*
X101750362Y-103751858D01*
X101737425Y-104036739D01*
X101736941Y-104047404D01*
X100508000Y-104047404D01*
X100508000Y-100634000D01*
X100528002Y-100565879D01*
X100581658Y-100519386D01*
X100634000Y-100508000D01*
X149366000Y-100508000D01*
X149434121Y-100528002D01*
G37*
%TD.AperFunction*%
%TD*%
M02*
